<?xml version="1.0" encoding="UTF-8"?>
<!DOCTYPE svg PUBLIC "-//W3C//DTD SVG 1.1//EN" "http://www.w3.org/Graphics/SVG/1.1/DTD/svg11.dtd">
<svg xmlns="http://www.w3.org/2000/svg" version="1.1" width="210px" height="630px" style="shape-rendering:geometricPrecision; text-rendering:geometricPrecision; image-rendering:optimizeQuality; fill-rule:evenodd; clip-rule:evenodd" xmlns:xlink="http://www.w3.org/1999/xlink">
<g><path style="opacity:0.93" fill="#fefffe" d="M 32.5,13.5 C 41.6091,14.2856 45.6091,19.2856 44.5,28.5C 46.1439,28.2865 47.6439,28.6198 49,29.5C 49.6667,36.1667 49.6667,42.8333 49,49.5C 39.3333,50.8333 29.6667,50.8333 20,49.5C 19.3333,42.8333 19.3333,36.1667 20,29.5C 21.3561,28.6198 22.8561,28.2865 24.5,28.5C 23.2846,21.2562 25.9513,16.2562 32.5,13.5 Z M 31.5,18.5 C 38.5857,18.0155 41.5857,21.3488 40.5,28.5C 36.5,28.5 32.5,28.5 28.5,28.5C 28.0216,24.6625 29.0216,21.3291 31.5,18.5 Z"/></g>
<g><path style="opacity:0.91" fill="#fefffe" d="M 98.5,76.5 C 123.848,76.0139 135.015,88.3473 132,113.5C 123.502,131.897 109.668,137.397 90.5,130C 76.6031,119.679 73.1031,106.512 80,90.5C 84.526,83.5054 90.6926,78.8387 98.5,76.5 Z M 101.5,95.5 C 111.236,95.3024 115.07,99.969 113,109.5C 109.692,113.327 105.526,114.494 100.5,113C 93.6313,106.724 93.9646,100.891 101.5,95.5 Z"/></g>
<g><path style="opacity:0.863" fill="#fefffe" d="M 27.5,78.5 C 45.2801,76.1165 53.4467,83.7832 52,101.5C 49.7034,106.404 47.0367,111.07 44,115.5C 42.4739,120.937 40.6406,126.27 38.5,131.5C 35.3884,132.983 32.5551,132.65 30,130.5C 28.179,125.548 26.5123,120.548 25,115.5C 21.9633,111.07 19.2966,106.404 17,101.5C 15.0329,91.2007 18.5329,83.534 27.5,78.5 Z"/></g>
<g><path style="opacity:0.856" fill="#fefffe" d="M 151.5,88.5 C 166.991,87.5037 182.658,87.1704 198.5,87.5C 195.65,91.8643 192.15,95.8643 188,99.5C 183.851,106.13 180.518,113.13 178,120.5C 176.301,121.406 174.467,121.739 172.5,121.5C 170.084,113.335 166.584,105.668 162,98.5C 157.972,95.637 154.472,92.3037 151.5,88.5 Z"/></g>
<g><path style="opacity:0.772" fill="#fefffe" d="M 102.5,102.5 C 104.167,102.5 105.833,102.5 107.5,102.5C 108.167,106.5 106.5,108.167 102.5,107.5C 102.5,105.833 102.5,104.167 102.5,102.5 Z"/></g>
</svg>
