<svg xmlns="http://www.w3.org/2000/svg" xmlns:xlink="http://www.w3.org/1999/xlink" version="1.1" width="94.5pt" height="112.5pt" viewBox="0 0 94.5 112.5">
<defs>
<clipPath id="clip_0">
<path d="M18 47H76V76H18Z"/>
</clipPath>
<clipPath id="clip_1">
<path d="M75.977 47.398C75.227 54.977 74.398 62.477 73.574 70.051 70.352 71.398 66.375 72.676 61.875 73.727 56.324 75 51.301 75.449 47.176 75.523 43.051 75.449 38.102 75 32.477 73.727 27.977 72.676 24.074 71.398 20.773 70.051 20.023 62.477 19.199 54.977 18.375 47.398 18.449 47.398 18.602 47.477 18.676 47.477 37.426 51.75 56.852 51.75 75.523 47.477ZM75.977 47.398"/>
</clipPath>
<clipPath id="clip_2">
<path d="M0 0H95V113H0Z"/>
</clipPath>
<clipPath id="clip_3">
<path d="M0 0H95V113H0Z"/>
</clipPath>
<clipPath id="clip_4">
<path d="M0 0H95V113H0Z"/>
</clipPath>
</defs>
<g>
<path d="M12.074 48.75C9.074 48.75 9.602 52.125 9.602 53.773V66.375C9.75 67.875 11.023 69 12.523 69H13.648V48.75ZM12.074 48.75" fill="#be6d1c"/>
<path d="M71.023 33.148C55.574 41.25 44.25 43.352 44.852 42.449 45.449 41.551 52.574 34.352 50.324 35.699 41.398 40.949 31.574 44.477 21.301 46.051 20.551 54.898 20.625 56.023 21.074 60.977 21.449 65.398 23.023 67.352 23.477 69.75 24.375 75.148 23.852 81.148 24.602 85.648 25.125 93.449 28.949 97.051 28.949 97.051 31.352 99.301 30.824 98.773 33.824 102.301 39.301 108.824 42.898 111.602 46.574 111.602 50.398 111.602 55.727 106.199 57.602 104.551 59.477 102.898 61.648 100.426 64.648 97.199 64.648 97.199 66.977 95.176 68.176 85.574 68.852 81 68.551 75.676 70.801 69.449 73.051 63.375 72.824 60.824 72.824 60.824 73.574 54.449 73.574 38.699 73.574 38.699 73.574 38.102 73.727 31.727 71.023 33.148ZM71.023 33.148" fill="#d2d2d2"/>
<path d="M82.801 48.75H81.301V69H82.273C83.773 69 85.051 67.801 85.199 66.301V53.699C85.273 52.125 85.801 48.75 82.801 48.75ZM82.801 48.75" fill="#be6d1c"/>
<path d="M81.898 34.875 87.75 38.926C85.875 20.102 79.727 13.949 72.602 8.625 65.551 3.449 57 .977 48.148 .75H46.801C37.875 .977 29.324 3.375 22.352 8.625 15.148 13.949 9 20.023 7.125 38.926L12.977 34.875C13.199 33.148 13.574 31.426 13.949 29.699 16.648 21.602 21.074 16.273 25.949 12.75 33.75 7.051 42.602 6 47.477 5.926 52.352 6 61.199 7.051 69 12.75 73.875 16.273 78.301 21.676 81 29.773 81.449 31.426 81.75 33.148 81.898 34.875ZM81.898 34.875" fill="#ffd52b"/>
<path d="M24.602 85.727C23.852 81.227 24.449 75.227 23.477 69.824 23.25 68.699 22.875 67.574 22.426 66.523V69.227C22.426 70.949 20.625 73.574 18.375 73.574 15.977 73.5 13.949 71.625 13.727 69.227V69H12.602C11.102 69 9.824 67.801 9.676 66.301V60.977H7.352C4.5 68.625-.074 71.023 .449 71.023 6.523 71.102 9 68.398 9 68.398 7.648 72.523-.148 76.648 .523 76.801 4.949 77.398 9.375 76.273 12.977 73.648 14.102 80.023 16.648 90.676 22.051 94.574 22.574 95.023 22.125 92.477 22.125 91.875 22.5 92.176 24.375 95.324 28.875 97.199 28.949 97.199 25.125 93.523 24.602 85.727ZM24.602 85.727"/>
<path d="M82.352 69H81.375V69.227C81.227 71.699 79.125 73.574 76.727 73.574 74.477 73.574 72.676 70.949 72.676 69.227V63.227C72.227 65.398 71.625 67.5 70.875 69.602 68.625 75.824 68.926 81.148 68.25 85.727 66.977 95.324 64.727 97.352 64.727 97.352 69.148 95.324 70.801 91.199 70.949 91.648 71.176 92.625 70.5 94.273 70.5 95.852 72.977 94.125 74.926 91.801 76.199 89.102 76.574 90 76.648 91.273 77.102 92.176 77.102 92.176 83.773 81.301 84.602 72.824 84.75 70.875 84.898 69.227 84.898 67.801 84.148 68.551 83.25 69 82.352 69ZM82.352 69"/>
<path d="M73.574 38.852C73.574 38.852 73.574 42.074 73.5 46.273 74.25 45.148 75.602 44.398 76.949 44.324 79.875 44.324 81.301 46.125 81.301 48.449V48.75H82.801L81.898 34.949C81.676 33.227 81.375 31.5 80.926 29.773 78.227 21.676 73.801 16.273 68.926 12.75 61.199 7.051 52.352 6 47.477 5.926 42.602 6 33.75 7.051 25.949 12.75 21.074 16.273 16.648 21.676 13.949 29.773 13.5 31.5 13.199 33.227 12.977 34.949L12.074 48.75H13.648V48.523C13.574 46.352 15.227 44.551 17.324 44.398 17.477 44.398 17.625 44.398 17.773 44.398 19.125 44.398 20.477 45 21.301 46.125 31.574 44.551 41.398 40.949 50.324 35.699 52.574 34.352 45.449 41.699 44.852 42.449 44.25 43.199 55.5 41.25 71.023 33.148 73.727 31.727 73.574 38.023 73.574 38.852ZM73.574 38.852"/>
<path d="M75.977 47.398C75.227 54.977 74.398 62.477 73.574 70.051 70.352 71.398 66.375 72.676 61.875 73.727 56.324 75 51.301 75.449 47.176 75.523 43.051 75.449 38.102 75 32.477 73.727 27.977 72.676 24.074 71.398 20.773 70.051 20.023 62.477 19.199 54.977 18.375 47.398 18.449 47.398 18.602 47.477 18.676 47.477 37.426 51.75 56.852 51.75 75.523 47.477ZM75.977 47.398" fill="#8a2f02"/>
<g clip-path="url(#clip_0)">
<g clip-path="url(#clip_1)">
<g clip-path="url(#clip_2)">
<path d="M58.199 80.699 60.449 78.75 60.375 80.551ZM58.199 80.699" fill="#8a2f02"/>
</g>
<g clip-path="url(#clip_3)">
<path d="M83.477 38.926H67.125L45.375 82.273H61.727ZM83.477 38.926" fill="#be6d1c"/>
</g>
<g clip-path="url(#clip_4)">
<path d="M55.727 45.074H45L28.5 81.898H39.227ZM55.727 45.074" fill="#be6d1c"/>
</g>
</g>
</g>
<path d="M4.273 40.574 1.273 6.75C1.199 6 1.727 5.25 2.551 5.102 3.449 4.949 4.352 5.551 4.426 6.449L7.5 39.75ZM4.273 40.574" fill="#d2d2d2"/>
<path d="M8.477 63.148C7.199 61.727 5.926 60.301 4.727 58.875 4.051 56.023 3.449 52.352 3.523 48 3.523 45.227 3.824 42.75 4.199 40.574 5.102 39.523 6.301 38.324 7.875 37.125 9.824 35.699 11.699 34.875 13.125 34.352 13.352 36.977 13.352 39.898 13.199 43.051 13.051 45 12.898 46.801 12.602 48.523 11.25 53.398 9.898 58.273 8.477 63.148ZM8.477 63.148" fill="#4b4b63"/>
<path d="M13.352 69.824C12.227 70.051 10.727 70.125 9.602 69.301 8.023 68.176 8.25 66.301 8.176 58.574 8.102 52.648 7.949 50.699 9.523 49.273 10.574 48.375 11.852 48.074 12.75 48 12.977 55.273 13.199 62.551 13.352 69.824ZM13.352 69.824" fill="#be6d1c"/>
<path d="M23.852 75.148C23.477 75.602 22.875 75.824 20.926 75.898 16.352 76.199 15.148 75.523 14.625 75.148 13.051 74.023 12.301 72.148 11.852 61.273 11.25 48.898 11.699 47.102 13.199 45.75 15.449 43.648 19.199 42.523 20.699 43.949 20.926 44.176 21.301 44.625 21.449 45.449 22.949 60.375 24 71.25 24.227 73.352 24.227 73.648 24.375 74.477 23.852 75.148ZM23.852 75.148" fill="#a73a71"/>
<path d="M90.227 40.574 93.227 6.75C93.301 6 92.773 5.25 91.949 5.102 91.051 4.949 90.148 5.551 90.074 6.449L87 39.75ZM90.227 40.574" fill="#d2d2d2"/>
<path d="M86.023 63.148C87.301 61.727 88.574 60.301 89.773 58.875 90.449 55.949 90.977 52.273 90.977 48 90.977 45.227 90.676 42.75 90.301 40.574 89.398 39.523 88.199 38.324 86.625 37.125 84.676 35.699 82.801 34.875 81.375 34.352 81.148 36.977 81.148 39.898 81.301 43.051 81.449 45 81.602 46.801 81.898 48.523 83.25 53.398 84.602 58.273 86.023 63.148ZM86.023 63.148" fill="#4b4b63"/>
<path d="M81.148 69.824C82.273 70.051 83.773 70.125 84.898 69.301 86.477 68.176 86.25 66.301 86.324 58.574 86.398 52.648 86.551 50.699 84.977 49.273 83.926 48.375 82.648 48.074 81.75 48 81.523 55.273 81.301 62.551 81.148 69.824ZM81.148 69.824" fill="#be6d1c"/>
<path d="M70.648 75.148C71.023 75.602 71.625 75.824 73.574 75.898 78.148 76.199 79.352 75.523 79.875 75.148 81.449 74.023 82.199 72.148 82.648 61.273 83.176 48.898 82.727 47.102 81.301 45.75 79.051 43.648 75.301 42.523 73.801 43.949 73.574 44.176 73.199 44.625 73.051 45.449 71.551 60.375 70.5 71.25 70.273 73.352 70.273 73.648 70.125 74.477 70.648 75.148ZM70.648 75.148" fill="#a73a71"/>
</g>
</svg>
