<?xml version="1.0" encoding="utf-8"?>
<!-- Generator: Adobe Illustrator 24.0.2, SVG Export Plug-In . SVG Version: 6.00 Build 0)  -->
<svg version="1.1" xmlns="http://www.w3.org/2000/svg" xmlns:xlink="http://www.w3.org/1999/xlink" x="0px" y="0px"
	 viewBox="0 0 210 630" style="enable-background:new 0 0 210 630;" xml:space="preserve">
<style type="text/css">
	.st0{fill:#FFFFFF;}
	.st1{fill:#FFFFFF;stroke:#FFFFFF;stroke-miterlimit:10;}
</style>
<g id="Layer_2">
</g>
<g id="Layer_1">
	<path class="st0" d="M44.4,32.5L44.4,32.5l1.5-4.7C47.2,24,45,18.7,40.3,17c-4.7-1.6-9.7,1.4-11,5.1l-1.6,4.7l0,0
		c-2.4-0.8-4.9,0.5-5.7,2.8l-4.4,12.8c-0.4,1.1,0.2,2.3,1.3,2.7l21.3,7.2c1.1,0.4,2.3-0.2,2.7-1.3l4.3-12.7
		C48.1,35.9,46.8,33.3,44.4,32.5z M32.4,23.2c0.7-2,3.7-4.2,6.9-3.1c3.2,1.1,4.2,4.7,3.6,6.7l-1.6,4.7L30.8,28L32.4,23.2z"/>
	<g>
		<circle class="st0" cx="105" cy="106.6" r="4.1"/>
		<polygon class="st0" points="111.8,97.3 105.9,101.4 105,102 105.8,100.1 105.9,99.9 107.1,97.3 105.9,96 104.1,93.8 102,91.4 
			102.4,90.5 103.7,87.8 105.2,84.7 108.8,77.5 106.4,87.8 105.9,89.8 106.4,90.4 		"/>
		<polygon class="st0" points="109.1,105.8 112.9,103.7 116.3,105.8 122.5,102.5 115.8,109.9 113,106.2 		"/>
		<path class="st0" d="M98.7,88.8l0.4,0.5l0.4-0.7C99.2,88.7,98.9,88.8,98.7,88.8z M99,89.3l-0.4-0.5c-7.3,2.6-12.5,9.6-12.5,17.7
			c0,10.4,8.4,18.8,18.8,18.8c10.4,0,18.8-8.4,18.8-18.8c0-9.9-7.7-18.1-17.4-18.8c-0.5,0-0.9-0.1-1.4-0.1c-0.2,0-0.3,0-0.5,0
			c-0.3,0-0.5,0-0.8,0l-1.3,2.6l-0.1,0.1c0,0,0.1,0,0.1,0c0.6-0.1,1.3-0.2,1.9-0.2c0.2,0,0.3,0,0.5,0c0.5,0,0.9,0,1.4,0.1
			c8.3,0.7,14.9,7.7,14.9,16.2c0,9-7.3,16.3-16.3,16.3c-9,0-16.3-7.3-16.3-16.3c0-6.6,3.9-12.3,9.6-14.8"/>
	</g>
	<g>
		<g>
			<g>
				<polygon class="st1" points="12.2,98.6 12.1,99 12.1,99 				"/>
				<path class="st1" d="M37.8,96.1C37.8,96.1,37.8,96.1,37.8,96.1c-0.1,0.2-0.1,0.4-0.2,0.7c-0.2,0.6-0.3,1.2-0.5,1.8l0,0
					c0,0,0,0,0,0s0,0,0,0c0,0,0,0,0,0c0,0,0,0,0,0l-0.1,0c-1.6-0.3-3.1-0.5-4.5-0.6c-0.7,0-1.3,0-1.9,0h0c-1.4,0-2.6,0.1-3.6,0.3
					c-2.7,0.4-5.5,1.3-10.2,1.4h-1v0c-1.2-0.3-2.3-0.6-3.5-0.9l0.1-0.3c0.4,0,0.8,0,1.2,0c5.6-0.3,9-1.6,12.2-2.3
					c2.1-0.5,5-0.8,8.5-0.5c1.1,0.1,2.3,0.3,3.5,0.5C37.7,96,37.7,96,37.8,96.1C37.7,96,37.8,96,37.8,96.1z"/>
				<path class="st1" d="M33,112.5c-0.1,0.4-0.2,0.7-0.3,1.1c-0.1,0.4-0.3,0.9-0.4,1.3c0,0,0,0,0,0c0,0,0,0-0.1,0c0,0,0,0-0.1,0
					c-1.2-0.5-2.3-1-3.3-1.5c-3.1-1.6-5.3-3.4-6.9-4.9c-2.4-2.3-4.5-5.3-9.1-8.5c-0.3-0.3-0.7-0.5-1-0.7l0.1-0.3
					c1.1,0.4,2.3,0.8,3.4,1.1v0c0.3,0.1,0.5,0.3,0.8,0.5c3.9,2.6,5.8,4.9,7.8,6.7c1,0.8,2.2,1.8,3.8,2.8c0.2,0.1,0.5,0.3,0.7,0.4
					c1.2,0.7,2.6,1.3,4.2,1.9l0,0c0,0,0,0,0,0c0,0,0,0,0,0C33,112.5,33,112.5,33,112.5L33,112.5z"/>
			</g>
			<g>
				<path class="st1" d="M57.9,111.6l-0.2,0.7c-1.2-0.3-2.3-0.6-3.5-0.9l0.2-0.7c-0.3-0.2-0.5-0.3-0.8-0.5c-3.9-2.6-5.8-4.8-7.8-6.7
					c-1.8-1.6-4.5-3.5-8.6-5.1l-0.1,0c0,0,0,0-0.1,0s-0.1,0-0.1,0l-0.1,0c0.2-0.8,0.5-1.6,0.7-2.4c0,0,0,0,0,0c0,0,0.1,0,0.1,0
					s0,0,0.1,0c4.9,1.9,8.1,4.4,10.1,6.4c2.4,2.3,4.5,5.3,9.1,8.5C57.3,111.2,57.6,111.4,57.9,111.6z"/>
				<path class="st1" d="M57.9,111.9l-0.2,0.7c-0.4,0-0.8,0-1.2,0c-5.6,0.3-9,1.6-12.2,2.3c-2.8,0.6-6.8,1-12,0c0,0-0.1,0-0.1,0
					c0,0-0.1,0-0.1,0c0,0,0,0,0,0c0.2-0.8,0.4-1.6,0.6-2.4l0.1,0c0,0,0,0,0.1,0s0,0,0.1,0l0.1,0c4.3,0.9,7.7,0.7,10,0.3
					c2.7-0.4,5.5-1.3,10.2-1.4c0.4,0,0.7,0,1,0l0.2-0.7C55.6,111.1,56.7,111.5,57.9,111.9z"/>
			</g>
		</g>
		<g>
			<g>
				<path class="st1" d="M37.1,98.5C37.1,98.5,37.1,98.5,37.1,98.5C37.1,98.5,37,98.4,37.1,98.5C37,98.4,37.1,98.4,37.1,98.5z"/>
				<path class="st1" d="M33,112.5C33,112.5,33,112.5,33,112.5C33,112.5,32.9,112.5,33,112.5C33,112.5,33,112.5,33,112.5z"/>
			</g>
			<g>
				<path class="st1" d="M37,98.4C37,98.4,37,98.4,37,98.4C36.9,98.4,36.9,98.4,37,98.4C37,98.4,37,98.4,37,98.4z"/>
				<path class="st1" d="M32.9,112.5C32.9,112.5,32.9,112.5,32.9,112.5C32.9,112.5,32.9,112.5,32.9,112.5
					C32.9,112.5,32.9,112.5,32.9,112.5z"/>
			</g>
		</g>
		<path class="st1" d="M43.3,101.6c-0.5-1-1.1-1.9-1.9-2.7c-0.1-0.1-0.1-0.1-0.2-0.2c-1-0.9-2.2-1.6-3.5-2h0c0,0,0,0,0,0
			c-0.1,0-0.1,0-0.2-0.1c0,0,0,0-0.1,0c-1.2-0.3-2.4-0.4-3.6-0.2c-0.1,0-0.3,0-0.4,0.1c-1,0.2-2,0.6-2.9,1.2h0
			c-1.7,1.1-3.1,2.8-3.7,4.9c-0.8,2.6-0.2,5.3,1.2,7.4c0.2,0.3,0.5,0.6,0.7,0.9c1,1.1,2.3,2,3.8,2.5c0.1,0,0.1,0.1,0.2,0.1
			c0,0,0,0,0,0c1.6,0.5,3.3,0.5,4.8,0h0c0.4-0.1,0.8-0.3,1.3-0.5h0c2.3-1.1,4-3,4.8-5.6C44.3,105.5,44.1,103.4,43.3,101.6z
			 M40.5,106.7c-0.8,2.9-3.9,4.6-6.8,3.8c-2.9-0.8-4.6-3.9-3.8-6.8c0.9-2.9,3.9-4.6,6.8-3.8C39.7,100.7,41.3,103.8,40.5,106.7z"/>
		<polygon class="st1" points="40.4,87.3 31.9,98.5 41.6,101.3 		"/>
		<polygon class="st1" points="29.8,123.9 38.2,112.8 28.6,110 		"/>
	</g>
	<g>
		<g>
			<path class="st0" d="M176.9,95.7c-0.6,0-1.3,0-1.9,0s-1.3,0-1.9,0c-9.4,0.3-18.9,2.4-18.9,6.8c0,1.5,1.1,2.7,3,3.7
				c1.2,0.6,2.6,1.1,4.3,1.6c1.3,0.3,2.7,0.6,4.2,0.8c1.4,0.2,2.8,0.4,4.3,0.5c1.7,0.1,3.4,0.2,5.1,0.2s3.4-0.1,5.1-0.2
				c1.5-0.1,2.9-0.3,4.3-0.5c1.5-0.2,2.9-0.5,4.2-0.8c1.6-0.4,3.1-0.9,4.3-1.6c1.8-1,3-2.2,3-3.7C195.8,98.1,186.4,95.9,176.9,95.7z
				 M182.8,105.8c-0.3,0-0.6,0.1-0.9,0.1c-1.3,0.1-2.8,0.3-4.3,0.3c-0.8,0-1.7,0-2.6,0s-1.8,0-2.6,0c-1.5-0.1-3-0.2-4.3-0.3
				c-0.3,0-0.6-0.1-0.9-0.1c-2.3-0.3-4.3-0.7-5.8-1.2c-2.7-0.8-4.1-1.6-4.2-2.2c0.1-0.7,2.6-2,7.3-2.9c1.9-0.4,4.2-0.6,6.8-0.8
				c1.2-0.1,2.4-0.1,3.7-0.1s2.5,0,3.7,0.1c2.6,0.2,4.9,0.4,6.8,0.8c4.7,0.9,7.2,2.2,7.3,2.9c-0.1,0.5-1.5,1.4-4.2,2.2
				C187.1,105,185.1,105.5,182.8,105.8z"/>
		</g>
		<g>
			<path class="st0" d="M192.8,106.2c-1.2-0.6-2.6-1.1-4.2-1.6c-1.5,0.4-3.5,0.9-5.8,1.2c-0.3,0-0.6,0.1-0.9,0.1l1.3-2.3
				c-2-0.3-4.1-0.4-6.3-0.5c-0.6,0-1.3,0-1.9,0s-1.3,0-1.9,0c-2.1,0.1-4.2,0.2-6.3,0.5l1.3,2.3c-0.3,0-0.6-0.1-0.9-0.1
				c-2.3-0.3-4.3-0.7-5.8-1.2c-1.6,0.4-3.1,0.9-4.2,1.6c-1.8,1-3,2.2-3,3.7c0,3.2,5,5.2,11.4,6.1c2.8,0.4,5.8,0.6,8.7,0.6
				c0.2,0,0.4,0,0.7,0s0.4,0,0.7,0c3,0,6-0.2,8.7-0.6c6.4-0.9,11.4-2.9,11.4-6.1C195.8,108.4,194.7,107.2,192.8,106.2z M182.8,113.2
				c-1.6,0.2-3.4,0.3-5.3,0.4c-0.8,0-1.6,0-2.4,0s-1.6,0-2.4,0c-2-0.1-3.8-0.2-5.4-0.4c-6.5-0.8-9.9-2.5-10-3.3
				c0.1-0.5,1.5-1.4,4.2-2.2c1.8-0.5,4.1-1,7-1.3c0.9-0.1,1.8-0.2,2.8-0.2c0.4,0,0.7,0,1.1-0.1c0.8,0,1.7,0,2.6,0s1.8,0,2.6,0
				c0.4,0,0.8,0,1.1,0.1c1,0.1,1.9,0.1,2.8,0.2c2.9,0.3,5.2,0.8,7,1.3c2.7,0.8,4.1,1.6,4.2,2.2C192.7,110.7,189.2,112.4,182.8,113.2
				z"/>
		</g>
		<g>
			<path class="st0" d="M192.8,94.9c-3.4-1.9-9.9-2.9-16.4-3.1c-0.3,0-0.7,0-1,0c-0.4,0-0.9,0-1.3,0c-6.6,0.1-13,1.1-16.6,3
				c0,0,0.1,0.1,0.1,0.1c0.3,0.2,0.7,0.5,1,0.7l0.8,0.5c2.8-1.1,7.6-2.2,14.5-2.3c0.5,0,0.9,0,1.4,0c0.4,0,0.7,0,1.1,0
				c6.9,0.1,11.7,1.2,14.4,2.3c0,0,0,0,0,0l0.1-0.1l0.9-0.5L192.8,94.9z"/>
		</g>
		<g>
			<path class="st0" d="M192.9,94.8c0,0-0.1,0.1-0.1,0.1c-0.3,0.2-0.6,0.5-0.9,0.7l-0.9,0.5c-2.8-1.1-7.7-2.2-14.5-2.3
				c-0.4,0-0.7,0-1.1,0c-0.5,0-0.9,0-1.4,0c-6.9,0.1-11.7,1.2-14.4,2.3c0,0,0,0,0,0l-0.1,0l-0.8-0.5c-0.3-0.2-0.7-0.5-1-0.7
				c3.4-1.9,9.9-2.9,16.4-3.1c0.4,0,0.9,0,1.3,0c0.3,0,0.7,0,1,0C182.9,92,189.4,93,192.9,94.8z"/>
		</g>
		<polygon class="st0" points="186.9,97.1 185.5,99.5 183.2,103.6 181.9,105.8 181.5,106.4 180.1,109 177.4,113.6 175.7,116.7 
			175,117.8 174.3,116.7 172.6,113.6 169.9,109 168.5,106.4 168.1,105.8 166.8,103.6 164.5,99.5 163.1,97.1 		"/>
	</g>
</g>
</svg>
