<?xml version="1.0" encoding="utf-8"?>
<!-- Generator: Adobe Illustrator 24.0.2, SVG Export Plug-In . SVG Version: 6.00 Build 0)  -->
<svg version="1.1" id="Layer_1" xmlns="http://www.w3.org/2000/svg" xmlns:xlink="http://www.w3.org/1999/xlink" x="0px" y="0px"
	 viewBox="0 0 126 150" style="enable-background:new 0 0 126 150;" xml:space="preserve">
<style type="text/css">
	.st0{fill:url(#SVGID_1_);}
	.st1{fill:url(#SVGID_2_);}
	.st2{fill:url(#SVGID_3_);}
	.st3{fill:none;}
	.st4{fill:url(#SVGID_4_);}
	.st5{opacity:0.16;fill:#606060;}
	.st6{fill:url(#SVGID_5_);}
	.st7{fill:url(#SVGID_6_);}
	.st8{fill:url(#SVGID_7_);}
	.st9{fill:url(#SVGID_8_);}
	.st10{fill:url(#SVGID_9_);}
	.st11{fill:url(#SVGID_10_);}
	.st12{fill:url(#SVGID_11_);}
	.st13{fill:url(#SVGID_12_);}
</style>
<linearGradient id="SVGID_1_" gradientUnits="userSpaceOnUse" x1="6.22" y1="37.205" x2="9.5" y2="37.205">
	<stop  offset="0" style="stop-color:#E6E6E6"/>
	<stop  offset="1" style="stop-color:#D2D2D2"/>
</linearGradient>
<path class="st0" d="M7.9,20.3c-0.9,0-1.6,0.7-1.6,1.6v32.2l3.3-2.3V21.9C9.5,21,8.8,20.3,7.9,20.3z"/>
<linearGradient id="SVGID_2_" gradientUnits="userSpaceOnUse" x1="117.07" y1="37.205" x2="120.35" y2="37.205">
	<stop  offset="0" style="stop-color:#E6E6E6"/>
	<stop  offset="1" style="stop-color:#D2D2D2"/>
</linearGradient>
<path class="st1" d="M118.7,20.3c-0.9,0-1.6,0.7-1.6,1.6v29.9l3.3,2.3V21.9C120.3,21,119.6,20.3,118.7,20.3z"/>
<linearGradient id="SVGID_3_" gradientUnits="userSpaceOnUse" x1="114.39" y1="46.5" x2="114.39" y2="81.36">
	<stop  offset="0" style="stop-color:#D88416"/>
	<stop  offset="1" style="stop-color:#BE560C"/>
</linearGradient>
<path class="st2" d="M109.3,46.5l11.1,7.6v27.2h-6.7v-9.7c0-2.2-1.3-7-5.2-7L109.3,46.5z"/>
<path class="st3" d="M0,0h126v150H0V0z"/>
<linearGradient id="SVGID_4_" gradientUnits="userSpaceOnUse" x1="62.9418" y1="43.9058" x2="62.9418" y2="148.9702">
	<stop  offset="3.724418e-03" style="stop-color:#949494"/>
	<stop  offset="0.3184" style="stop-color:#D2D2D2"/>
	<stop  offset="1" style="stop-color:#E4F0EC"/>
</linearGradient>
<path class="st4" d="M94.7,44.2C74.1,55,59,57.8,59.8,56.6s10.3-10.8,7.3-9c-11.9,7-25,11.7-38.7,13.8c-1,11.8-0.9,13.3-0.3,19.9
	c0.5,5.9,2.6,8.5,3.2,11.7c1.2,7.2,0.5,15.2,1.5,21.2c0.7,10.4,5.8,15.3,5.8,15.3c3.2,3,2.5,2.3,6.5,7c7.3,8.7,12.1,12.4,17,12.4
	c5.1,0,12.2-7.2,14.7-9.4s5.4-5.5,9.4-9.8c0,0,3.1-2.7,4.7-15.5c0.9-6.1,0.5-13.2,3.5-21.5c3-8.1,2.7-11.5,2.7-11.5
	c1-8.5,1-29.5,1-29.5C98.1,50.8,98.3,42.3,94.7,44.2z"/>
<path class="st5" d="M97.4,58.7c0.1,1.3,0.2,2.6,0.2,4c0.1,2.8,0.2,5.5,0.2,8c1.1-1.5,2.4-4.7,4.3-4.8c4,0,6,2.3,6,5.4v0.3h2.1
	l-1.2-18.2c-0.3-2.3-0.8-4.6-1.4-6.8C103.8,36,97.8,29,91.1,24.3c-10.7-7.5-22.9-8.9-29.6-9c-6.7,0.1-18.8,1.5-29.5,9
	C25.3,29,19.2,36.1,15.5,46.7c-0.6,2.3-1,4.5-1.4,6.8L13,71c0.3-0.5,1.3-1.2,2.5-1.9c-0.3,0.7-0.4,1.4-0.4,2.1
	c13.6-2.2,29.3-6.2,40.9-12.8c3.1-1.8-6.7,7-7.5,7.9c-0.7,0.8,15.9-2.9,33.7-10.1c-0.8,1.8-1.6,3.6-2.4,5.3c2.8-1.4,5.9-3.1,9.2-5.5
	c1.8-1.3,3.4-2.6,4.8-3.9C95,54.4,96.2,56.6,97.4,58.7z M92.1,52 M15.5,69.2c0.8-1.8,2.5-3.1,4.7-3.2c0.2,0,0.4,0,0.6,0
	C22,66,18.3,67.6,15.5,69.2z"/>
<path class="st5" d="M15.5,69.2c-0.3,0.7-0.4,1.4-0.4,2.1v0.4H13v0c0,0,0,0-0.1,0c-0.1-0.1,0-0.3,0.1-0.5
	C13.4,70.5,14.4,69.8,15.5,69.2z"/>
<linearGradient id="SVGID_5_" gradientUnits="userSpaceOnUse" x1="11.765" y1="46.5" x2="11.765" y2="81.36">
	<stop  offset="0" style="stop-color:#D88416"/>
	<stop  offset="1" style="stop-color:#BE560C"/>
</linearGradient>
<path class="st6" d="M17.3,46.5L6.2,54.1v27.2h6.7v-9.7c0-2.2-0.7-6.7,3.3-6.7L17.3,46.5z"/>
<path d="M102.6,61.9c-1.9,0.1-3.6,1-4.6,2.6C97.8,71.1,97.6,79.4,97,84c0,1-0.1,2-0.3,3v8c0,2.3,2.4,5.8,5.4,5.8
	c3.3,0,6-2.5,6.2-5.8V67.4C108.4,64.3,106.4,61.9,102.6,61.9z"/>
<linearGradient id="SVGID_6_" gradientUnits="userSpaceOnUse" x1="102.62" y1="59.17" x2="102.62" y2="98.13">
	<stop  offset="0" style="stop-color:#83649C"/>
	<stop  offset="1" style="stop-color:#422657"/>
</linearGradient>
<path class="st7" d="M102.6,59.2c-1.9,0.1-3.6,1-4.6,2.6c-0.1,6.6-0.4,14.9-0.9,19.6c0,1-0.1,2-0.3,3v8c0,2.3,2.4,5.8,5.4,5.8
	c3.3,0,6-2.5,6.2-5.8V64.7C108.4,61.6,106.5,59.2,102.6,59.2z"/>
<path d="M28.1,84.1c-0.6-6.6-0.6-8.1,0.3-19.9c-1.1-1.5-2.9-2.3-4.7-2.3c-2.9-0.2-5.3,2-5.5,4.9c0,0.2,0,0.4,0,0.6V95
	c0.3,3.2,3,5.7,6.2,5.8c3,0,5.4-3.5,5.4-5.8v-3.6C28.9,89.1,28.3,86.6,28.1,84.1z"/>
<path d="M96.8,43.5c-1.4,1.7-3.3,3.7-5.7,5.7c-3.4,2.7-6.6,4.5-9.2,5.7c1.9-3.8,3.8-7.6,5.7-11.4"/>
<linearGradient id="SVGID_7_" gradientUnits="userSpaceOnUse" x1="15.558" y1="65" x2="15.558" y2="92">
	<stop  offset="0" style="stop-color:#FFC927"/>
	<stop  offset="1" style="stop-color:#FFB023"/>
</linearGradient>
<path class="st8" d="M16.1,65c-4,0-3.3,4.5-3.3,6.7v16.8c0.2,2,1.9,3.5,3.9,3.5h1.5V65L16.1,65z"/>
<linearGradient id="SVGID_8_" gradientUnits="userSpaceOnUse" x1="24.0865" y1="59.1901" x2="24.0865" y2="98.13">
	<stop  offset="0" style="stop-color:#83649C"/>
	<stop  offset="1" style="stop-color:#422657"/>
</linearGradient>
<path class="st9" d="M28.2,81.4c-0.6-6.6,0-8.4,0.9-20.2c-1.1-1.5-3.5-2-5.3-2c-2.9-0.2-5.3,2-5.5,4.9c0,0.2,0,0.4,0,0.6v27.7
	c0.3,3.2,3,5.7,6.2,5.8c3,0,5.4-3.5,5.4-5.8v-3.6C29,86.3,28.4,83.9,28.2,81.4z"/>
<linearGradient id="SVGID_9_" gradientUnits="userSpaceOnUse" x1="111.0674" y1="65" x2="111.0674" y2="92">
	<stop  offset="0" style="stop-color:#FFC927"/>
	<stop  offset="1" style="stop-color:#FFB023"/>
</linearGradient>
<path class="st10" d="M110.4,65h-2v27h1.3c2,0,3.7-1.6,3.9-3.6V71.6C113.7,69.5,114.4,65,110.4,65z"/>
<linearGradient id="SVGID_10_" gradientUnits="userSpaceOnUse" x1="63.285" y1="1" x2="63.285" y2="51.86">
	<stop  offset="0" style="stop-color:#FFC927"/>
	<stop  offset="1" style="stop-color:#FFB023"/>
</linearGradient>
<path class="st11" d="M109.3,46.5l7.8,5.4c-2.5-25.1-10.7-33.3-20.2-40.4C87.4,4.6,76,1.3,64.2,1h-0.9h-0.9
	C50.5,1.3,39.1,4.5,29.8,11.5C20.2,18.6,12,26.7,9.5,51.9l7.8-5.4c0.3-2.3,0.8-4.6,1.3-6.9c3.6-10.8,9.5-17.9,16-22.6
	C45,9.4,56.8,8,63.3,7.9C69.8,8,81.6,9.4,92,17c6.5,4.7,12.4,11.9,16,22.7C108.6,41.9,109,44.2,109.3,46.5L109.3,46.5z"/>
<linearGradient id="SVGID_11_" gradientUnits="userSpaceOnUse" x1="19.5418" y1="81.36" x2="19.5418" y2="129.56">
	<stop  offset="1.065558e-08" style="stop-color:#212121"/>
	<stop  offset="1" style="stop-color:#000000"/>
	<stop  offset="1" style="stop-color:#FFB023"/>
</linearGradient>
<path class="st12" d="M32.8,114.3c0.7,10.4,5.8,15.2,5.8,15.3c-6-2.5-8.5-6.7-9-7.1c0,0.8,0.5,4.1-0.1,3.6
	c-7.2-5.2-10.6-19.4-12.1-27.9c-4.8,3.5-10.8,5-16.6,4.2c-0.9-0.2,9.5-5.6,11.3-11.2c-0.2,0.2-3.5,3.6-11.4,3.6
	c-0.7,0,5.4-3.2,9.3-13.4h3.1v7.1c0.2,2,1.9,3.5,3.9,3.6h1.5v0.3c0.3,3.2,3,5.7,6.2,5.8c3,0,5.4-3.5,5.4-5.8v-3.6
	c0.6,1.4,1.1,2.9,1.4,4.4C32.6,100.3,31.8,108.3,32.8,114.3z"/>
<linearGradient id="SVGID_12_" gradientUnits="userSpaceOnUse" x1="99.57" y1="84.3" x2="99.57" y2="129.8">
	<stop  offset="1.065558e-08" style="stop-color:#212121"/>
	<stop  offset="1" style="stop-color:#000000"/>
	<stop  offset="1" style="stop-color:#FFB023"/>
</linearGradient>
<path class="st13" d="M113,90.4c0,1.9-0.1,4-0.4,6.7c-1.1,11.3-10,25.8-10,25.8c-0.7-1.2-0.7-2.9-1.2-4.1c-1.7,3.6-4.3,6.7-7.6,9
	c0-2.1,1-4.3,0.6-5.6c-0.2-0.6-2.4,4.9-8.3,7.6c0.2-0.2,3.1-3.1,4.7-15.5c0.9-6.1,0.5-13.2,3.5-21.5c1-2.8,1.9-5.6,2.4-8.5v8
	c0,2.3,2.4,5.8,5.4,5.8c3.3,0,6-2.5,6.2-5.8V92h1.3C111,92,112.2,91.4,113,90.4z"/>
<path d="M94.7,44.2C74,55,59,57.6,59.8,56.6c0.8-1,10.3-10.8,7.3-9c-11.9,7-25,11.8-38.7,13.9c-1.1-1.5-2.9-2.3-4.7-2.3
	c-0.2,0-0.4,0-0.6,0c-2.9,0.2-5.1,2.6-4.9,5.5V65h-2.1l1.1-18.4c0.3-2.3,0.8-4.7,1.3-6.9c3.6-10.8,9.5-17.9,16-22.7
	C45,9.4,56.8,8,63.3,7.9C69.8,8,81.6,9.4,92,17c6.5,4.7,12.4,11.8,16,22.7c0.6,2.3,1,4.6,1.3,6.9l1.2,18.4h-2v-0.3
	c0-3.1-2-5.5-5.8-5.5c-1.9,0.1-3.6,1-4.6,2.6c0.1-5.5,0.1-9.9,0.1-9.9C98.1,50.8,98.3,42.3,94.7,44.2z"/>
</svg>
