<svg id="icons" xmlns="http://www.w3.org/2000/svg" xmlns:xlink="http://www.w3.org/1999/xlink" viewBox="0 0 546 78"><defs><style>.cls-1{fill:#efcf19;}.cls-2{fill:#a0aab4;}.cls-3{fill:#cba27a;}.cls-4{fill:#aaa;}.cls-5{fill:#bebebe;}.cls-6{fill:#cca70f;}.cls-7{fill:#78828c;}.cls-8{fill:#90682a;}.cls-9{fill:#828282;}.cls-10{fill:#d2d2d2;}.cls-11{fill:#f60;}.cls-12{fill:url(#linear-gradient);}.cls-13{opacity:0.2;}.cls-14{fill:#ff0007;}.cls-15{fill:#fff;}</style><linearGradient id="linear-gradient" x1="508.45" y1="4.92" x2="508.45" y2="73.08" gradientUnits="userSpaceOnUse"><stop offset="0" stop-color="#fa0"/><stop offset="1" stop-color="#fb0"/></linearGradient></defs><title>Top STarTSRSR</title><polygon class="cls-1" points="39 0 44.66 10.56 53.92 2.97 55.11 14.89 66.58 11.42 63.11 22.89 75.03 24.07 67.44 33.34 78 39 67.44 44.66 75.03 53.92 63.11 55.11 66.58 66.58 55.11 63.11 53.92 75.03 44.66 67.44 39 78 33.34 67.44 24.07 75.03 22.89 63.11 11.42 66.58 14.89 55.11 2.97 53.92 10.56 44.66 0 39 10.56 33.34 2.97 24.07 14.89 22.89 11.42 11.42 22.89 14.89 24.07 2.97 33.34 10.56 39 0"/><polygon class="cls-2" points="117 2 122.66 10.56 131.16 4.82 133.11 14.89 143.16 12.84 141.11 22.89 151.18 24.84 145.44 33.34 154 39 145.44 44.66 151.18 53.16 141.11 55.11 143.16 65.16 133.11 63.11 131.16 73.18 122.66 67.44 117 76 111.34 67.44 102.84 73.18 100.89 63.11 90.84 65.16 92.89 55.11 82.82 53.16 88.56 44.66 80 39 88.56 33.34 82.82 24.84 92.89 22.89 90.84 12.84 100.89 14.89 102.84 4.82 111.34 10.56 117 2"/><polygon class="cls-3" points="195 4 200.66 10.56 208.39 6.66 211.11 14.89 219.75 14.25 219.11 22.89 227.34 25.61 223.44 33.34 230 39 223.44 44.66 227.34 52.39 219.11 55.11 219.75 63.75 211.11 63.11 208.39 71.34 200.66 67.44 195 74 189.34 67.44 181.61 71.34 178.89 63.11 170.25 63.75 170.89 55.11 162.66 52.39 166.56 44.66 160 39 166.56 33.34 162.66 25.61 170.89 22.89 170.25 14.25 178.89 14.89 181.61 6.66 189.34 10.56 195 4"/><polygon class="cls-4" points="273 6 278.66 10.56 285.63 8.51 289.11 14.89 296.33 15.66 297.11 22.89 303.49 26.37 301.44 33.34 306 39 301.44 44.66 303.49 51.63 297.11 55.11 296.33 62.34 289.11 63.11 285.63 69.49 278.66 67.44 273 72 267.34 67.44 260.37 69.49 256.89 63.11 249.66 62.34 248.89 55.11 242.51 51.63 244.56 44.66 240 39 244.56 33.34 242.51 26.37 248.89 22.89 249.66 15.66 256.89 14.89 260.37 8.51 267.34 10.56 273 6"/><polygon class="cls-5" points="352.63 8 358.29 10.56 364.49 10.36 368.74 14.89 374.55 17.08 376.74 22.89 381.27 27.14 381.07 33.34 383.63 39 381.07 44.66 381.27 50.86 376.74 55.11 374.55 60.92 368.74 63.11 364.49 67.64 358.29 67.44 352.63 70 346.97 67.44 340.76 67.64 336.52 63.11 330.71 60.92 328.51 55.11 323.99 50.86 324.18 44.66 321.63 39 324.18 33.34 323.99 27.14 328.51 22.89 330.71 17.08 336.52 14.89 340.76 10.36 346.97 10.56 352.63 8"/><path class="cls-6" d="M72.1,54.67a5.13,5.13,0,0,0-2.58,3.91,5.89,5.89,0,0,0,4.87-.39A5.72,5.72,0,0,0,77,53.91,6.82,6.82,0,0,0,72.1,54.67Z"/><path class="cls-6" d="M68,53.05a6.85,6.85,0,0,0-1.2-4.81,5.7,5.7,0,0,0-2.9,4.06,5.86,5.86,0,0,0,1.52,4.64A5.08,5.08,0,0,0,68,53.05Z"/><path class="cls-6" d="M63.21,59.16a6.86,6.86,0,0,0-.55-4.93,5.8,5.8,0,0,0-3.45,3.64,5.92,5.92,0,0,0,.91,4.8A5,5,0,0,0,63.21,59.16Z"/><path class="cls-6" d="M57.38,61.88a6.85,6.85,0,0,0-.09-5,5.71,5.71,0,0,0-3.77,3.3A5.88,5.88,0,0,0,54,65.09,5.07,5.07,0,0,0,57.38,61.88Z"/><path class="cls-6" d="M50.87,64.52a6.81,6.81,0,0,0,1.34-4.77,5.75,5.75,0,0,0-4.56,2.07,5.84,5.84,0,0,0-1,4.79A5.07,5.07,0,0,0,50.87,64.52Z"/><path class="cls-6" d="M74.13,49.4a5.74,5.74,0,0,0-.21-5,6.84,6.84,0,0,0-3.65,3.35,5.09,5.09,0,0,0,0,4.68A5.93,5.93,0,0,0,74.13,49.4Z"/><path class="cls-6" d="M69.32,60.15a5.08,5.08,0,0,0-3.61,3,5.9,5.9,0,0,0,4.77,1.07,5.73,5.73,0,0,0,3.75-3.32A6.85,6.85,0,0,0,69.32,60.15Z"/><path class="cls-6" d="M60.31,66.54a5.89,5.89,0,0,0,4.41,2.1,5.73,5.73,0,0,0,4.4-2.4,6.76,6.76,0,0,0-4.62-1.79A5.13,5.13,0,0,0,60.31,66.54Z"/><path class="cls-6" d="M59.44,67.77a5.09,5.09,0,0,0-4.62.73,5.85,5.85,0,0,0,3.57,3.33,5.65,5.65,0,0,0,4.91-1A6.88,6.88,0,0,0,59.44,67.77Z"/><path class="cls-6" d="M52.49,69.27a5.07,5.07,0,0,0-4.67.17A5.85,5.85,0,0,0,51,73.18a5.75,5.75,0,0,0,5-.37A6.78,6.78,0,0,0,52.49,69.27Z"/><path class="cls-6" d="M70.33,53.84,69,53.51c-.13.55-3.63,13.48-25.92,13.69v1.36C66.5,68.35,70.3,54,70.33,53.84Z"/><path class="cls-6" d="M8.48,58.58A5.13,5.13,0,0,0,5.9,54.67,6.82,6.82,0,0,0,1,53.91a5.72,5.72,0,0,0,2.61,4.28A5.89,5.89,0,0,0,8.48,58.58Z"/><path class="cls-6" d="M12.58,56.94A5.86,5.86,0,0,0,14.1,52.3a5.73,5.73,0,0,0-2.94-4.06A6.89,6.89,0,0,0,10,53.05,5.08,5.08,0,0,0,12.58,56.94Z"/><path class="cls-6" d="M17.88,62.67a5.92,5.92,0,0,0,.91-4.8,5.8,5.8,0,0,0-3.45-3.64,6.86,6.86,0,0,0-.55,4.93A5,5,0,0,0,17.88,62.67Z"/><path class="cls-6" d="M24,65.09a5.87,5.87,0,0,0,.45-4.86,5.71,5.71,0,0,0-3.77-3.3,6.85,6.85,0,0,0-.09,5A5.08,5.08,0,0,0,24,65.09Z"/><path class="cls-6" d="M31.31,66.61a5.84,5.84,0,0,0-1-4.79,5.75,5.75,0,0,0-4.56-2.07,6.81,6.81,0,0,0,1.34,4.77A5.07,5.07,0,0,0,31.31,66.61Z"/><path class="cls-6" d="M7.71,52.42a5.09,5.09,0,0,0,0-4.68,6.84,6.84,0,0,0-3.65-3.35,5.74,5.74,0,0,0-.21,5A5.93,5.93,0,0,0,7.71,52.42Z"/><path class="cls-6" d="M8.68,60.15a6.84,6.84,0,0,0-4.91.72,5.73,5.73,0,0,0,3.75,3.32,5.9,5.9,0,0,0,4.77-1.07A5.1,5.1,0,0,0,8.68,60.15Z"/><path class="cls-6" d="M17.69,66.54a5.13,5.13,0,0,0-4.19-2.09,6.81,6.81,0,0,0-4.62,1.79,5.73,5.73,0,0,0,4.4,2.4A5.89,5.89,0,0,0,17.69,66.54Z"/><path class="cls-6" d="M18.56,67.77a6.84,6.84,0,0,0-3.86,3.1,5.65,5.65,0,0,0,4.91,1,5.85,5.85,0,0,0,3.57-3.33A5.06,5.06,0,0,0,18.56,67.77Z"/><path class="cls-6" d="M25.51,69.27a6.8,6.8,0,0,0-3.46,3.54,5.75,5.75,0,0,0,5,.37,5.85,5.85,0,0,0,3.13-3.74A5.07,5.07,0,0,0,25.51,69.27Z"/><path class="cls-6" d="M9,53.51l-1.33.33C7.7,54,11.5,68.35,34.9,68.56V67.2C12.63,67,9.13,54.06,9,53.51Z"/><path class="cls-7" d="M149.23,54.78a5,5,0,0,0-2.51,3.81,5.7,5.7,0,0,0,4.74-.38A5.56,5.56,0,0,0,154,54.05,6.67,6.67,0,0,0,149.23,54.78Z"/><path class="cls-7" d="M145.26,53.21a6.61,6.61,0,0,0-1.16-4.68,5.55,5.55,0,0,0-2.86,3.95A5.69,5.69,0,0,0,142.72,57,4.91,4.91,0,0,0,145.26,53.21Z"/><path class="cls-7" d="M140.58,59.16a6.72,6.72,0,0,0-.54-4.8,5.62,5.62,0,0,0-3.36,3.54,5.72,5.72,0,0,0,.89,4.68A5,5,0,0,0,140.58,59.16Z"/><path class="cls-7" d="M134.9,61.8a6.68,6.68,0,0,0-.09-4.82,5.62,5.62,0,0,0-3.67,3.22,5.69,5.69,0,0,0,.44,4.73A5,5,0,0,0,134.9,61.8Z"/><path class="cls-7" d="M128.56,64.37a6.66,6.66,0,0,0,1.3-4.64,5.58,5.58,0,0,0-4.44,2,5.72,5.72,0,0,0-.94,4.66A4.93,4.93,0,0,0,128.56,64.37Z"/><path class="cls-7" d="M151.2,49.65a5.58,5.58,0,0,0-.2-4.88A6.61,6.61,0,0,0,147.45,48a4.88,4.88,0,0,0,0,4.55A5.7,5.7,0,0,0,151.2,49.65Z"/><path class="cls-7" d="M146.53,60.12A4.94,4.94,0,0,0,143,63a5.7,5.7,0,0,0,4.64,1,5.56,5.56,0,0,0,3.65-3.23A6.68,6.68,0,0,0,146.53,60.12Z"/><path class="cls-7" d="M137.75,66.34a5.78,5.78,0,0,0,4.3,2A5.63,5.63,0,0,0,146.33,66a6.64,6.64,0,0,0-4.5-1.75A5,5,0,0,0,137.75,66.34Z"/><path class="cls-7" d="M136.9,67.54a4.92,4.92,0,0,0-4.5.71,5.71,5.71,0,0,0,3.48,3.25,5.56,5.56,0,0,0,4.78-.94A6.64,6.64,0,0,0,136.9,67.54Z"/><path class="cls-7" d="M130.13,69a5,5,0,0,0-4.55.16,5.71,5.71,0,0,0,3.06,3.64,5.57,5.57,0,0,0,4.87-.35A6.69,6.69,0,0,0,130.13,69Z"/><path class="cls-7" d="M147.51,54l-1.3-.32c-.13.54-3.54,13.13-25.23,13.33v1.33C143.78,68.11,147.47,54.11,147.51,54Z"/><path class="cls-7" d="M87.28,58.59a5,5,0,0,0-2.51-3.81A6.67,6.67,0,0,0,80,54.05a5.56,5.56,0,0,0,2.54,4.16A5.7,5.7,0,0,0,87.28,58.59Z"/><path class="cls-7" d="M91.28,57a5.74,5.74,0,0,0,1.48-4.51,5.55,5.55,0,0,0-2.86-4,6.61,6.61,0,0,0-1.16,4.68A4.91,4.91,0,0,0,91.28,57Z"/><path class="cls-7" d="M96.43,62.58a5.72,5.72,0,0,0,.89-4.68A5.61,5.61,0,0,0,94,54.36a6.72,6.72,0,0,0-.54,4.8A4.94,4.94,0,0,0,96.43,62.58Z"/><path class="cls-7" d="M102.42,64.93a5.69,5.69,0,0,0,.44-4.73A5.59,5.59,0,0,0,99.19,57a6.68,6.68,0,0,0-.09,4.82A5,5,0,0,0,102.42,64.93Z"/><path class="cls-7" d="M109.52,66.41a5.72,5.72,0,0,0-.94-4.66,5.58,5.58,0,0,0-4.44-2,6.66,6.66,0,0,0,1.3,4.64A4.93,4.93,0,0,0,109.52,66.41Z"/><path class="cls-7" d="M86.53,52.59a4.88,4.88,0,0,0,0-4.55A6.61,6.61,0,0,0,83,44.77a5.58,5.58,0,0,0-.2,4.88A5.7,5.7,0,0,0,86.53,52.59Z"/><path class="cls-7" d="M87.47,60.12a6.67,6.67,0,0,0-4.77.7,5.56,5.56,0,0,0,3.65,3.23A5.73,5.73,0,0,0,91,63,4.94,4.94,0,0,0,87.47,60.12Z"/><path class="cls-7" d="M96.25,66.34a5,5,0,0,0-4.08-2,6.64,6.64,0,0,0-4.5,1.75A5.6,5.6,0,0,0,92,68.39,5.78,5.78,0,0,0,96.25,66.34Z"/><path class="cls-7" d="M97.1,67.54a6.6,6.6,0,0,0-3.76,3,5.56,5.56,0,0,0,4.78.94,5.71,5.71,0,0,0,3.48-3.25A4.93,4.93,0,0,0,97.1,67.54Z"/><path class="cls-7" d="M103.87,69a6.69,6.69,0,0,0-3.38,3.45,5.57,5.57,0,0,0,4.87.35,5.71,5.71,0,0,0,3.06-3.64A5,5,0,0,0,103.87,69Z"/><path class="cls-7" d="M87.79,53.65l-1.3.32c0,.14,3.73,14.14,26.52,14.34V67C91.33,66.78,87.92,54.19,87.79,53.65Z"/><path class="cls-8" d="M226.36,54.9a4.79,4.79,0,0,0-2.44,3.7,5.55,5.55,0,0,0,4.61-.37,5.41,5.41,0,0,0,2.47-4A6.42,6.42,0,0,0,226.36,54.9Z"/><path class="cls-8" d="M222.5,53.37a6.54,6.54,0,0,0-1.13-4.56,5.38,5.38,0,0,0-2.78,3.84,5.56,5.56,0,0,0,1.44,4.4A4.77,4.77,0,0,0,222.5,53.37Z"/><path class="cls-8" d="M217.94,59.15a6.45,6.45,0,0,0-.52-4.66,5.45,5.45,0,0,0-3.27,3.44,5.61,5.61,0,0,0,.86,4.55A4.83,4.83,0,0,0,217.94,59.15Z"/><path class="cls-8" d="M212.41,61.73a6.49,6.49,0,0,0-.08-4.69,5.45,5.45,0,0,0-3.57,3.12,5.6,5.6,0,0,0,.43,4.61A4.76,4.76,0,0,0,212.41,61.73Z"/><path class="cls-8" d="M206.25,64.23a6.54,6.54,0,0,0,1.27-4.52,5.43,5.43,0,0,0-4.33,2,5.6,5.6,0,0,0-.91,4.54A4.81,4.81,0,0,0,206.25,64.23Z"/><path class="cls-8" d="M228.28,49.9a5.41,5.41,0,0,0-.2-4.74,6.45,6.45,0,0,0-3.45,3.17,4.77,4.77,0,0,0,0,4.44A5.57,5.57,0,0,0,228.28,49.9Z"/><path class="cls-8" d="M223.73,60.09a4.85,4.85,0,0,0-3.43,2.82,5.61,5.61,0,0,0,4.52,1,5.44,5.44,0,0,0,3.55-3.15A6.42,6.42,0,0,0,223.73,60.09Z"/><path class="cls-8" d="M215.19,66.15a5.59,5.59,0,0,0,4.18,2,5.44,5.44,0,0,0,4.17-2.27,6.52,6.52,0,0,0-4.38-1.7A4.8,4.8,0,0,0,215.19,66.15Z"/><path class="cls-8" d="M214.36,67.31A4.76,4.76,0,0,0,210,68a5.53,5.53,0,0,0,3.38,3.16,5.41,5.41,0,0,0,4.65-.91A6.42,6.42,0,0,0,214.36,67.31Z"/><path class="cls-8" d="M207.78,68.73a4.82,4.82,0,0,0-4.43.16,5.58,5.58,0,0,0,3,3.54,5.4,5.4,0,0,0,4.73-.35A6.46,6.46,0,0,0,207.78,68.73Z"/><path class="cls-8" d="M224.68,54.11l-1.26-.31c-.13.52-3.44,12.77-24.55,13v1.29C221.05,67.86,224.65,54.25,224.68,54.11Z"/><path class="cls-8" d="M166.08,58.6a4.79,4.79,0,0,0-2.44-3.7,6.43,6.43,0,0,0-4.64-.72,5.41,5.41,0,0,0,2.47,4A5.52,5.52,0,0,0,166.08,58.6Z"/><path class="cls-8" d="M170,57.05a5.56,5.56,0,0,0,1.44-4.4,5.38,5.38,0,0,0-2.78-3.84,6.54,6.54,0,0,0-1.13,4.56A4.77,4.77,0,0,0,170,57.05Z"/><path class="cls-8" d="M175,62.48a5.61,5.61,0,0,0,.86-4.55,5.45,5.45,0,0,0-3.27-3.44,6.45,6.45,0,0,0-.52,4.66A4.83,4.83,0,0,0,175,62.48Z"/><path class="cls-8" d="M180.81,64.77a5.6,5.6,0,0,0,.43-4.61A5.44,5.44,0,0,0,177.67,57a6.49,6.49,0,0,0-.08,4.69A4.75,4.75,0,0,0,180.81,64.77Z"/><path class="cls-8" d="M187.72,66.21a5.6,5.6,0,0,0-.91-4.54,5.43,5.43,0,0,0-4.33-2,6.54,6.54,0,0,0,1.27,4.52A4.81,4.81,0,0,0,187.72,66.21Z"/><path class="cls-8" d="M165.35,52.77a4.77,4.77,0,0,0,0-4.44,6.45,6.45,0,0,0-3.45-3.17,5.41,5.41,0,0,0-.2,4.74A5.57,5.57,0,0,0,165.35,52.77Z"/><path class="cls-8" d="M166.27,60.09a6.47,6.47,0,0,0-4.64.68,5.44,5.44,0,0,0,3.55,3.15,5.61,5.61,0,0,0,4.52-1A4.8,4.8,0,0,0,166.27,60.09Z"/><path class="cls-8" d="M174.81,66.15a4.82,4.82,0,0,0-4-2,6.52,6.52,0,0,0-4.38,1.7,5.44,5.44,0,0,0,4.17,2.27A5.57,5.57,0,0,0,174.81,66.15Z"/><path class="cls-8" d="M175.64,67.31A6.44,6.44,0,0,0,172,70.25a5.41,5.41,0,0,0,4.65.91A5.56,5.56,0,0,0,180,68,4.82,4.82,0,0,0,175.64,67.31Z"/><path class="cls-8" d="M182.22,68.73a6.46,6.46,0,0,0-3.28,3.35,5.4,5.4,0,0,0,4.73.35,5.58,5.58,0,0,0,3-3.54A4.8,4.8,0,0,0,182.22,68.73Z"/><path class="cls-8" d="M166.58,53.8l-1.26.31c0,.14,3.63,13.75,25.8,14V66.77C170,66.57,166.71,54.32,166.58,53.8Z"/><path class="cls-9" d="M303.49,55a4.68,4.68,0,0,0-2.38,3.6,5.39,5.39,0,0,0,4.49-.36A5.27,5.27,0,0,0,308,54.3,6.28,6.28,0,0,0,303.49,55Z"/><path class="cls-9" d="M299.73,53.52a6.34,6.34,0,0,0-1.09-4.43,5.26,5.26,0,0,0-2.71,3.74,5.43,5.43,0,0,0,1.4,4.27A4.67,4.67,0,0,0,299.73,53.52Z"/><path class="cls-9" d="M295.3,59.15a6.28,6.28,0,0,0-.5-4.54A5.28,5.28,0,0,0,291.62,58a5.42,5.42,0,0,0,.84,4.42A4.65,4.65,0,0,0,295.3,59.15Z"/><path class="cls-9" d="M289.93,61.65a6.35,6.35,0,0,0-.08-4.56,5.28,5.28,0,0,0-3.48,3,5.45,5.45,0,0,0,.42,4.48A4.68,4.68,0,0,0,289.93,61.65Z"/><path class="cls-9" d="M283.93,64.08a6.27,6.27,0,0,0,1.24-4.39A5.28,5.28,0,0,0,281,61.6a5.37,5.37,0,0,0-.89,4.41A4.69,4.69,0,0,0,283.93,64.08Z"/><path class="cls-9" d="M305.36,50.16a5.32,5.32,0,0,0-.2-4.62,6.27,6.27,0,0,0-3.36,3.09,4.69,4.69,0,0,0,0,4.31A5.46,5.46,0,0,0,305.36,50.16Z"/><path class="cls-9" d="M300.93,60.06a4.69,4.69,0,0,0-3.33,2.74,5.39,5.39,0,0,0,4.39,1,5.26,5.26,0,0,0,3.46-3.06A6.31,6.31,0,0,0,300.93,60.06Z"/><path class="cls-9" d="M292.63,66a5.4,5.4,0,0,0,4.06,1.93,5.25,5.25,0,0,0,4.05-2.21A6.25,6.25,0,0,0,296.49,64,4.67,4.67,0,0,0,292.63,66Z"/><path class="cls-9" d="M291.83,67.08a4.64,4.64,0,0,0-4.26.67,5.4,5.4,0,0,0,3.29,3.07,5.23,5.23,0,0,0,4.52-.89A6.28,6.28,0,0,0,291.83,67.08Z"/><path class="cls-9" d="M285.42,68.46a4.67,4.67,0,0,0-4.3.15A5.45,5.45,0,0,0,284,72.06a5.28,5.28,0,0,0,4.6-.34A6.25,6.25,0,0,0,285.42,68.46Z"/><path class="cls-9" d="M301.86,54.24l-1.23-.3c-.12.51-3.34,12.42-23.87,12.61v1.26C298.33,67.62,301.82,54.38,301.86,54.24Z"/><path class="cls-9" d="M244.89,58.61a4.68,4.68,0,0,0-2.38-3.6,6.28,6.28,0,0,0-4.51-.7,5.27,5.27,0,0,0,2.4,3.94A5.39,5.39,0,0,0,244.89,58.61Z"/><path class="cls-9" d="M248.67,57.1a5.43,5.43,0,0,0,1.4-4.27,5.26,5.26,0,0,0-2.71-3.74,6.34,6.34,0,0,0-1.1,4.43A4.68,4.68,0,0,0,248.67,57.1Z"/><path class="cls-9" d="M253.54,62.38a5.42,5.42,0,0,0,.84-4.42,5.27,5.27,0,0,0-3.18-3.35,6.28,6.28,0,0,0-.5,4.54A4.68,4.68,0,0,0,253.54,62.38Z"/><path class="cls-9" d="M259.21,64.61a5.45,5.45,0,0,0,.42-4.48,5.28,5.28,0,0,0-3.48-3,6.35,6.35,0,0,0-.08,4.56A4.68,4.68,0,0,0,259.21,64.61Z"/><path class="cls-9" d="M265.92,66a5.39,5.39,0,0,0-.92-4.4,5.27,5.27,0,0,0-4.2-1.91A6.27,6.27,0,0,0,262,64.08,4.67,4.67,0,0,0,265.92,66Z"/><path class="cls-9" d="M244.18,52.94a4.69,4.69,0,0,0,0-4.31,6.27,6.27,0,0,0-3.36-3.09,5.28,5.28,0,0,0-.19,4.62A5.42,5.42,0,0,0,244.18,52.94Z"/><path class="cls-9" d="M245.07,60.06a6.3,6.3,0,0,0-4.52.66A5.29,5.29,0,0,0,244,63.78a5.39,5.39,0,0,0,4.39-1A4.69,4.69,0,0,0,245.07,60.06Z"/><path class="cls-9" d="M253.37,66a4.67,4.67,0,0,0-3.86-2,6.31,6.31,0,0,0-4.25,1.65,5.25,5.25,0,0,0,4.05,2.21A5.4,5.4,0,0,0,253.37,66Z"/><path class="cls-9" d="M254.17,67.08a6.28,6.28,0,0,0-3.55,2.85,5.23,5.23,0,0,0,4.52.89,5.4,5.4,0,0,0,3.29-3.07A4.64,4.64,0,0,0,254.17,67.08Z"/><path class="cls-9" d="M260.58,68.46a6.23,6.23,0,0,0-3.19,3.26,5.28,5.28,0,0,0,4.6.34,5.44,5.44,0,0,0,2.89-3.45A4.67,4.67,0,0,0,260.58,68.46Z"/><path class="cls-9" d="M245.37,53.94l-1.23.3c0,.14,3.53,13.38,25.08,13.57V66.55C248.71,66.36,245.49,54.45,245.37,53.94Z"/><circle class="cls-10" cx="429" cy="39" r="30"/><polygon class="cls-11" points="528.61 6.53 531.09 14.83 539.38 17.27 538.5 25.89 545.24 31.32 541.12 38.94 545.27 46.53 538.55 52 539.47 60.61 531.17 63.09 528.73 71.38 520.11 70.5 514.68 77.24 507.06 73.12 499.46 77.26 494 70.55 485.39 71.47 482.91 63.17 474.61 60.72 475.5 52.11 468.76 46.68 472.88 39.06 468.74 31.46 475.45 26 474.53 17.39 482.83 14.91 485.28 6.61 493.89 7.5 499.32 0.76 506.94 4.88 514.53 0.73 520 7.45 528.61 6.53"/><polygon class="cls-12" points="508.45 4.92 514.27 9.75 521.49 7.51 525.02 14.21 532.55 14.9 533.25 22.43 539.94 25.95 537.7 33.18 542.54 39 537.7 44.82 539.94 52.04 533.25 55.57 532.55 63.1 525.02 63.79 521.49 70.49 514.27 68.25 508.45 73.08 502.63 68.25 495.4 70.49 491.88 63.79 484.35 63.1 483.66 55.57 476.97 52.04 479.2 44.82 474.37 39 479.2 33.18 476.97 25.95 483.66 22.43 484.35 14.9 491.88 14.21 495.4 7.51 502.63 9.75 508.45 4.92"/><g class="cls-13"><path class="cls-14" d="M486.09,24.6a5.57,5.57,0,0,1-1.15,2.81,6,6,0,0,1-2.32,2.07,2.71,2.71,0,0,1-2.5.09l-3.65-1.86a2.36,2.36,0,0,1-1.17-2.38,7,7,0,0,1,1.44-3.86A6.44,6.44,0,0,1,479.83,19a2.34,2.34,0,0,1,2.55.43l.36.35a27.73,27.73,0,0,0-2.07,2.36l-.39-.32a.87.87,0,0,0-.94-.09,2.48,2.48,0,0,0-1,.9,2.63,2.63,0,0,0-.53,1.31.88.88,0,0,0,.38.88L481.59,27a.92.92,0,0,0,.91.05,2,2,0,0,0,.89-.76,2.06,2.06,0,0,0,.43-1.09.94.94,0,0,0-.35-.84l-.39-.32A24,24,0,0,1,485,21.91l.36.35A2.78,2.78,0,0,1,486.09,24.6Z"/><path class="cls-14" d="M493.19,19.76a21.34,21.34,0,0,0-4.93-1l2.14,2.84a21.42,21.42,0,0,0-1.88,1.57l-6.63-7.3a29.94,29.94,0,0,1,4.26-3.34,6.07,6.07,0,0,1,3.73-1.17,2.5,2.5,0,0,1,2.29,1.39,2.65,2.65,0,0,1,.08,2,5,5,0,0,1-1.36,2,22.29,22.29,0,0,1,5,1.63A21.74,21.74,0,0,0,493.19,19.76Zm-6.08-2.53c.58-.44.88-.65,1.48-1.05a2.51,2.51,0,0,0,.94-1,1,1,0,0,0,0-1,1,1,0,0,0-.92-.48,2.41,2.41,0,0,0-1.39.47c-.64.43-1,.65-1.59,1.13Z"/><path class="cls-14" d="M496.28,18.25l-3.76-9.1a30.65,30.65,0,0,1,7.7-2.2l.33,1.88a30.41,30.41,0,0,0-4.41,1.05c.24.79.37,1.18.61,2a27,27,0,0,1,3.75-.91l.35,1.88a25.44,25.44,0,0,0-3.52.86l.61,2a24.22,24.22,0,0,1,3.65-.87l.33,1.88A22.84,22.84,0,0,0,496.28,18.25Z"/><path class="cls-14" d="M503.25,16.45c-.49-3.91-.73-5.86-1.21-9.77a31.1,31.1,0,0,1,5-.26,5.74,5.74,0,0,1,3.52,1.07,2.36,2.36,0,0,1,1,2.31c-.23,1.51-.35,2.26-.58,3.78a2.77,2.77,0,0,1-1.38,2,4.75,4.75,0,0,1-2.73.68A22.52,22.52,0,0,0,503.25,16.45Zm2.27-2.09c.57,0,.85,0,1.42,0a1.7,1.7,0,0,0,1-.27,1,1,0,0,0,.45-.77l.25-3.81a.9.9,0,0,0-.43-.82A2.05,2.05,0,0,0,507,8.33c-.69,0-1,0-1.72,0C505.4,10.75,505.44,12,505.52,14.36Z"/><path class="cls-14" d="M512.07,16.82c.81-3.86,1.22-5.78,2-9.64a31.16,31.16,0,0,1,3.13.79c-1.15,3.77-1.73,5.65-2.87,9.42A23.21,23.21,0,0,0,512.07,16.82Z"/><path class="cls-14" d="M517.51,18.56l3.25-7.25a29.8,29.8,0,0,0-2.84-1.11l.62-1.81a30.3,30.3,0,0,1,8.7,4.34l-1.08,1.59a27.87,27.87,0,0,0-2.63-1.63c-1.56,2.77-2.33,4.16-3.88,6.93A20.25,20.25,0,0,0,517.51,18.56Z"/><path class="cls-14" d="M524.22,18.53a23.36,23.36,0,0,1,2.15,1.71l-.33.39a1,1,0,0,0-.21.87,1.82,1.82,0,0,0,.58,1,2,2,0,0,0,1,.57,1,1,0,0,0,.87-.23.82.82,0,0,0,.27-.89,3.18,3.18,0,0,0-.61-1c-.35-.41-.7-.86-1.06-1.33a5,5,0,0,1-.78-1.39,2.69,2.69,0,0,1,.25-2.56,2.36,2.36,0,0,1,2.41-.89,6,6,0,0,1,3.38,1.83,6.44,6.44,0,0,1,2,3.4,2.39,2.39,0,0,1-.78,2.5l-.4.31a28.13,28.13,0,0,0-2-2.42l.37-.35a.88.88,0,0,0,.23-.91,2.34,2.34,0,0,0-.71-1.15,2.24,2.24,0,0,0-1.15-.67.87.87,0,0,0-.9.27.84.84,0,0,0-.15.93,3.78,3.78,0,0,0,.69,1A13.43,13.43,0,0,1,530.34,21a3.93,3.93,0,0,1,.62,1.58,2.44,2.44,0,0,1-.89,2.41,2.72,2.72,0,0,1-2.43.41,5.5,5.5,0,0,1-2.56-1.52,5.17,5.17,0,0,1-1.54-2.48,2.74,2.74,0,0,1,.39-2.42Z"/><path class="cls-14" d="M530.43,30.27a2.25,2.25,0,0,1-1-.95A2.21,2.21,0,0,1,529.1,28a1.17,1.17,0,0,1,.51-.95,1.08,1.08,0,0,1,1.08-.1,2.57,2.57,0,0,1,1.41,2.39,1.07,1.07,0,0,1-.59.92A1.12,1.12,0,0,1,530.43,30.27Zm1.39-4,5.24-3.48a31.54,31.54,0,0,1,1.77,3l-5.54,3A25.29,25.29,0,0,0,531.82,26.25Z"/></g><path class="cls-15" d="M486.09,22.08a5.57,5.57,0,0,1-1.15,2.81A6.11,6.11,0,0,1,482.62,27a2.74,2.74,0,0,1-2.5.09l-3.65-1.86a2.36,2.36,0,0,1-1.17-2.38A7,7,0,0,1,476.74,19a6.44,6.44,0,0,1,3.09-2.51,2.32,2.32,0,0,1,2.55.43l.36.35a27.58,27.58,0,0,0-2.07,2.35l-.39-.31a.87.87,0,0,0-.94-.1,2.44,2.44,0,0,0-1,.91,2.6,2.6,0,0,0-.53,1.31.88.88,0,0,0,.38.88l3.45,2.22a.94.94,0,0,0,.91.05,2,2,0,0,0,.89-.76,2.1,2.1,0,0,0,.43-1.09.94.94,0,0,0-.35-.84l-.39-.32A24,24,0,0,1,485,19.39l.36.35A2.78,2.78,0,0,1,486.09,22.08Z"/><path class="cls-15" d="M493.19,17.23a21.87,21.87,0,0,0-4.93-1l2.14,2.84a21.42,21.42,0,0,0-1.88,1.57l-6.63-7.31A30.6,30.6,0,0,1,486.15,10a6.15,6.15,0,0,1,3.73-1.18,2.51,2.51,0,0,1,2.29,1.4,2.64,2.64,0,0,1,.08,2,5,5,0,0,1-1.36,2,22.29,22.29,0,0,1,5,1.63A23.16,23.16,0,0,0,493.19,17.23Zm-6.08-2.53c.58-.43.88-.64,1.48-1a2.57,2.57,0,0,0,.94-1,1,1,0,0,0,0-1,1,1,0,0,0-.92-.48,2.47,2.47,0,0,0-1.39.46c-.64.44-1,.66-1.59,1.13Z"/><path class="cls-15" d="M496.28,15.73l-3.76-9.1a30.65,30.65,0,0,1,7.7-2.2l.33,1.88a30.41,30.41,0,0,0-4.41,1.05c.24.79.37,1.18.61,2a28.49,28.49,0,0,1,3.75-.92l.35,1.88a27,27,0,0,0-3.52.87c.24.78.37,1.17.61,2a23.06,23.06,0,0,1,3.65-.87l.33,1.88A22.84,22.84,0,0,0,496.28,15.73Z"/><path class="cls-15" d="M503.25,13.93c-.49-3.91-.73-5.86-1.21-9.77a32.3,32.3,0,0,1,5-.27A5.8,5.8,0,0,1,510.57,5a2.38,2.38,0,0,1,1,2.31c-.23,1.52-.35,2.27-.58,3.78a2.77,2.77,0,0,1-1.38,2,4.75,4.75,0,0,1-2.73.68A22.52,22.52,0,0,0,503.25,13.93Zm2.27-2.09c.57,0,.85,0,1.42,0a1.7,1.7,0,0,0,1-.27,1,1,0,0,0,.45-.77L508.68,7a.88.88,0,0,0-.43-.81A2.05,2.05,0,0,0,507,5.81c-.69,0-1,0-1.72,0C505.4,8.23,505.44,9.43,505.52,11.84Z"/><path class="cls-15" d="M512.07,14.29l2-9.63a31.16,31.16,0,0,1,3.13.79c-1.15,3.77-1.73,5.65-2.87,9.42A23.26,23.26,0,0,0,512.07,14.29Z"/><path class="cls-15" d="M517.51,16l3.25-7.25a27.36,27.36,0,0,0-2.84-1.11l.62-1.81a30.3,30.3,0,0,1,8.7,4.34l-1.08,1.58a30,30,0,0,0-2.63-1.62c-1.56,2.77-2.33,4.16-3.88,6.93A20.25,20.25,0,0,0,517.51,16Z"/><path class="cls-15" d="M524.22,16a23.36,23.36,0,0,1,2.15,1.71l-.33.38a1,1,0,0,0-.21.88,1.86,1.86,0,0,0,.58,1,1.9,1.9,0,0,0,1,.56.91.91,0,0,0,.87-.23.81.81,0,0,0,.27-.89,3.27,3.27,0,0,0-.61-1c-.35-.42-.7-.86-1.06-1.33a5.16,5.16,0,0,1-.78-1.39,2.69,2.69,0,0,1,.25-2.56,2.36,2.36,0,0,1,2.41-.89A6,6,0,0,1,532.12,14a6.44,6.44,0,0,1,2,3.4,2.39,2.39,0,0,1-.78,2.5l-.4.31a26.68,26.68,0,0,0-2-2.42l.37-.35a.88.88,0,0,0,.23-.91,2.26,2.26,0,0,0-.71-1.15,2.34,2.34,0,0,0-1.15-.68.91.91,0,0,0-.9.27.86.86,0,0,0-.15.94,3.78,3.78,0,0,0,.69,1,13.43,13.43,0,0,1,1.06,1.46A3.88,3.88,0,0,1,531,20a2.44,2.44,0,0,1-.89,2.41,2.72,2.72,0,0,1-2.43.41,5.5,5.5,0,0,1-2.56-1.52,5.15,5.15,0,0,1-1.54-2.49,2.72,2.72,0,0,1,.39-2.41Z"/><path class="cls-15" d="M530.43,27.75a2.3,2.3,0,0,1-1-.95,2.21,2.21,0,0,1-.37-1.28,1.19,1.19,0,0,1,.51-1,1.11,1.11,0,0,1,1.08-.09,2.57,2.57,0,0,1,1.41,2.39,1.07,1.07,0,0,1-.59.92A1.12,1.12,0,0,1,530.43,27.75Zm1.39-4,5.24-3.48a31.54,31.54,0,0,1,1.77,3l-5.54,3A24.17,24.17,0,0,0,531.82,23.73Z"/></svg>