<?xml version="1.0" encoding="UTF-8" standalone="no"?>
<svg
   xmlns:dc="http://purl.org/dc/elements/1.1/"
   xmlns:cc="http://creativecommons.org/ns#"
   xmlns:rdf="http://www.w3.org/1999/02/22-rdf-syntax-ns#"
   xmlns:svg="http://www.w3.org/2000/svg"
   xmlns="http://www.w3.org/2000/svg"
   xmlns:sodipodi="http://sodipodi.sourceforge.net/DTD/sodipodi-0.dtd"
   xmlns:inkscape="http://www.inkscape.org/namespaces/inkscape"
   enable-background="new 0 0 210 630"
   viewBox="0 0 210 630"
   version="1.1"
   id="svg1063"
   sodipodi:docname="bt-bonus.svg"
   inkscape:version="0.92.4 (5da689c313, 2019-01-14)">
  <metadata
     id="metadata1069">
    <rdf:RDF>
      <cc:Work
         rdf:about="">
        <dc:format>image/svg+xml</dc:format>
        <dc:type
           rdf:resource="http://purl.org/dc/dcmitype/StillImage" />
        <dc:title></dc:title>
      </cc:Work>
    </rdf:RDF>
  </metadata>
  <defs
     id="defs1067" />
  <sodipodi:namedview
     pagecolor="#ffffff"
     bordercolor="#666666"
     borderopacity="1"
     objecttolerance="10"
     gridtolerance="10"
     guidetolerance="10"
     inkscape:pageopacity="0"
     inkscape:pageshadow="2"
     inkscape:window-width="1366"
     inkscape:window-height="705"
     id="namedview1065"
     showgrid="false"
     inkscape:zoom="0.85079365"
     inkscape:cx="346.26997"
     inkscape:cy="365.6467"
     inkscape:window-x="-8"
     inkscape:window-y="-8"
     inkscape:window-maximized="1"
     inkscape:current-layer="svg1063" />
  <g
     fill="#fff"
     id="g1061">
    <circle
       cx="19.8"
       cy="460.7"
       r="2.2"
       id="circle943" />
    <circle
       cx="26"
       cy="433.9"
       r="2.2"
       id="circle945" />
    <path
       d="m51.6 455.8c-.6-.6-1.2-1.1-1.9-1.5l-24.1-15.3 6.5 12.3-17.9-12 19.5 30.7c.5.7 1 1.4 1.6 2.1 4.5 4.5 11.7 4.5 16.2 0 4.6-4.5 4.6-11.8.1-16.3zm-3.1 13.1c-2.8 2.8-7.2 2.8-10 0s-2.8-7.2 0-10 7.2-2.8 10 0c2.7 2.8 2.7 7.3 0 10z"
       id="path947" />
    <path
       d="m48.5 245.8c-1.8-1.8-1.4-4.2-1-5.4.1-.3-.2-.6-.5-.5-1.2.3-3.6.7-4.9-1-1.6-2.2-.6-4.2.2-5.2.2-.3 0-.6-.3-.7-1-.2-2.9-.7-3.9-1.9-1.3-1.7-.8-3.5-.3-4.8-2-.3-4.1-.3-6.2.1-8.3 1.5-14.8 8.6-15.5 17-.9 11.2 7.9 20.6 18.9 20.6 10 0 18.2-7.7 18.9-17.5-1.3.3-3.9.7-5.4-.7zm-13.5 5.7c-3.6 0-6.5-2.9-6.5-6.5s2.9-6.5 6.5-6.5 6.5 2.9 6.5 6.5-2.9 6.5-6.5 6.5z"
       id="path949" />
    <path
       d="m45.9 220.2c-1.2-.3-2-.3-2.3.2-.1.3-.2 4.3-.2 4.6s1.1 1 1.4 1.1.6.1.8-.1c.1-.3 1.9-4 2.1-4.4.1-.3-.8-1.2-1.8-1.4z"
       id="path951" />
    <path
       d="m51.2 226.6c-1.6.4-2.8 1.1-3.3 2.7-.4 1.3-.2 3.9 1.1 4.3.9.3 3-.2 3.3-.8.2-.5 1-6.7-1.1-6.2z"
       id="path953" />
    <path
       d="m193.7 176.9s2-9.4.3-13.6c-1.8-4.2-7.6-8.8-7.6-8.8l-6.2 2.2 2.6 4.7-26.7 4.6c-.4.1-.7.5-.6.9l.4 2.5c.1.4.5.7.9.6l15.9-2.7-10.7 24.3c-.4.9 0 1.9.9 2.3s1.9 0 2.3-.9l9.8-22.3 9.9 22.5c.4.9 1.4 1.3 2.3.9s1.3-1.4.9-2.3l-11.1-25.3 8.5-1.4z"
       id="path955" />
    <path
       d="m187.1 311.7c1.9 0 3.9-.1 4.6-.1 2.4 0 2.5-4 .1-4h-25.8l-11.6 21.7h42.3z"
       id="path957" />
    <path
       d="m178.5 294.4c-.2-.3-1.4.4-2.2.3-.4 0-1.4-.3-1.8-.4-.5-.1-1.9-.3-2.3.1-.1.1-1.6 3.1-2.3 4.7-2.5 0-7.3 0-8.1 0-2.4 0-2.5 4-.1 4h20.5z"
       id="path959" />
    <circle
       cx="35"
       cy="315"
       r="2.2"
       id="circle961" />
    <path
       d="m49.4 321.3c-1.9 3.6-6 7-6.1 7.2-.4.4-1 .5-1.5.5-.7 0-1.3-.3-1.8-.8-.8-1-.7-2.4.3-3.2 0 0 3.6-3 5-5.8 1-1.8 3.6-9.9 5.6-16.6-3.7-4.7-9.5-7.8-16-7.8-11.2 0-20.3 9.1-20.3 20.3s9.1 20.3 20.3 20.3 20.3-9.1 20.3-20.3c0-2.4-.4-4.7-1.2-6.9-1.6 5.1-3.6 11.2-4.6 13.1zm-22.2-6.3c0-4.3 3.5-7.8 7.8-7.8s7.8 3.5 7.8 7.8-3.5 7.8-7.8 7.8-7.8-3.5-7.8-7.8z"
       id="path963" />
    <path
       d="m128.8 307.6c-.7-1.8-11.7.7-24.5 5.7s-22.6 10.6-21.8 12.4c.4.9 3.2.7 7.4-.2 4.8 6.8 13.7 9.8 21.8 6.6s12.6-11.4 11.5-19.6c3.8-2.2 5.9-4 5.6-4.9z"
       id="path965" />
    <path
       d="m102.6 309.1c6.1-2.4 12-4.3 16.7-5.5-4.9-6.2-13.4-8.8-21.1-5.8s-12.2 10.7-11.6 18.6c4.3-2.3 9.9-4.9 16-7.3z"
       id="path967" />
    <path
       d="m187 237h-12-12l-3 9.5h15 15z"
       id="path969" />
    <path
       d="m193 251h-18-18l-3 10h21 21z"
       id="path971" />
    <path
       d="m167 223.5v9h4.7v-4.5h6.5v4.5h4.8v-9z"
       id="path973" />
    <circle
       cx="43.7"
       cy="165.9"
       r="2.2"
       id="circle977" />
    <circle
       cx="25.8"
       cy="183.4"
       r="2.2"
       id="circle983" />
    <circle
       cx="43.7"
       cy="183.4"
       r="2.2"
       id="circle985" />
    <circle
       cx="50.4"
       cy="189.4"
       r="2.2"
       id="circle987" />
    <circle
       cx="25.8"
       cy="165.9"
       r="2.2"
       id="circle989" />
    <path
       d="m86 172.5 19 23 19-23z"
       id="path993" />
    <path
       d="m98.2 158 6.8 10 6.7-10z"
       id="path995" />
    <path
       d="m124 168-6.8-10-6.7 10z"
       id="path997" />
    <path
       d="m99.5 168-6.8-10-6.7 10z"
       id="path999" />
    <path
       d="m174.9 433.9-20.8 35.3h41.8zm.1 23.9c-2.3 0-4.2-1.9-4.2-4.2s1.9-4.2 4.2-4.2 4.2 1.9 4.2 4.2-1.9 4.2-4.2 4.2z"
       id="path1001" />
    <path
       d="m89.2 250.2c-2.4 2.4-4.5 8.4-4.5 8.4s6-2.1 8.4-4.5z"
       id="path1003" />
    <path
       d="m96 257c-2.4 2.4-4.5 8.4-4.5 8.4s6-2.1 8.4-4.5z"
       id="path1005" />
    <path
       d="m116.1 247.4 6.7-11.1c1.6-2.7 1.4-8.1.3-9.2s-6.5-1.4-9.2.3l-11.1 6.7-12.2-.2-5.7 5.7 12.9 12.9 12.9 12.9 5.7-5.7zm-10.8-10.8 11.1-6.7 3.9 3.9-6.7 11z"
       id="path1007" />
    <path
       d="m122.1 378.6c-2.6-4.2-8-8.1-8-8.1s.6-2.2.4-2.9c-.1-.4-1.1-.9-1.1-.9s-1.1-.5-1.4-.3c-.6.3-2 2.1-2 2.1s-6.4-1.9-11.3-1.4-10.8 3-10.8 3-1.6 3.2-1.8 3.6c1.3 1.5 5.6 4.3 6.2 4.7.8-1.1 2.1-2.7 2.5-3 .7-.6 1.3-.6 2-.2.9.6-.1 2.8-1.4 5.1 1.9 1.3 5.8 3.2 7 3.9 1.1-2.2 2.8-4.6 4.3-3.9s.6 3.5-.5 5.8c1.3.6 5.2 2.5 7.3 3.2 1-2.4 2.2-4.6 3.2-4.2.8.3 1.1.8 1.1 1.7 0 .6-.5 2.6-.9 3.8.8.3 5.6 2 7.6 2.1.2-.4 1.8-3.6 1.8-3.6s-1.6-6.3-4.2-10.5z"
       id="path1009" />
    <path
       d="m92.4 404.1 7.3-14.8 4 2-7.3 14.8z"
       id="path1011" />
    <path
       d="m187.8 376.9-6.1 4.1-6.1-4.1-6.1 4.1v-9.2l-6.1-8.2-6.1 8.2v30.7h13.8v-6.9c0-2.5 2.1-4.6 4.6-4.6s4.6 2.1 4.6 4.6v6.9h13.8v-21.5z"
       id="path1013" />
    <path
       d="m58.3 396.8c-1.4-1.9-3.8-4.9-8-8.5-4.6-3.8-8.1-5.2-8.1-5.2s2-3.7 2.8-5.1 1.9-3.9 1.4-4.5c-.5-.5-3.1.7-4.5 1.4-1.4.8-5.1 2.8-5.1 2.8s-1.4-3.5-5.2-8.1c-3.5-4.3-6.5-6.7-8.5-8-1-.7-1.6 1-2.1 3.9-1 5.7-1.5 12.7 4.6 23 0 0-6.5 4.6-8.2 5.6-1 .6-.8 1.4-.4 1.9.4.4 3 3.2 3.4 3.5.3.4 3.1 3 3.5 3.4s1.2.6 1.9-.4c1.1-1.6 5.6-8.2 5.6-8.2 10.2 6.1 17.3 5.6 23 4.6 2.9-.4 4.6-1 3.9-2.1z"
       id="path1015" />
    <path
       d="m108.3 449.9c-9-3.6-17.1-1.7-26 2.5 3.6 9.2 8.1 16.1 17.2 19.7 9 3.6 17.1 1.7 26-2.5-3.6-9.1-8.2-16.1-17.2-19.7zm2.1 13.7c-1.4 3.6-5.5 5.4-9.2 3.9-3.6-1.4-5.4-5.5-3.9-9.2 1.4-3.6 5.5-5.4 9.2-3.9 3.6 1.5 5.4 5.6 3.9 9.2z"
       id="path1017" />
    <path
       d="m126 453.3c.2.5.2.9-.2 1.2-.6.4-.5.3-1 .5-.4.2-.7.1-1.1-.5-4.3-6.2-7.5-9.2-13.9-11.7-6.5-2.5-11.6-2.2-17.2-1.4-3.2.5-3.4-.4-2.6-1.3s2.7-1.1 2.5-2.1-2.9.6-3.9-.1c-1.2-.8 1.5-2.7 5.6-3.6 9.6-1.9 24 1.8 31.8 19z"
       id="path1019" />
    <path
       d="m155.8 113.6h38.5c-6.9-3.3-11.8-8.5-11.8-9.4h7.3c-5.6-3.1-10.3-8.1-10.3-9h7.2c-7.6-4.2-11.1-12-11.5-12.3-.5.3-4 8.1-11.5 12.3h7.2c0 1-4.7 5.9-10.3 9h7.3c-.3 1-5.2 6.1-12.1 9.4z"
       id="path1021" />
    <path
       d="m172.3 118.1h5.4v6.5h-5.4z"
       id="path1023" />
    <path
       d="m119.7 112c-3.6 3.1-7.8 5.1-11.6 5.9v-20h10.7c1 0 1.8-.8 1.8-1.8s-.8-1.8-1.8-1.8h-10.3c1.7-1.1 2.8-3 2.8-5.2 0-3.5-2.8-6.2-6.2-6.2-3.5 0-6.2 2.8-6.2 6.2 0 2.2 1.1 4.1 2.8 5.2h-10.5c-1 0-1.8.8-1.8 1.8s.8 1.8 1.8 1.8h10.7v19.9c-3.8-.8-8-2.8-11.6-5.9l-5.3 1.5c5.3 7.1 14.6 11.7 20 12 5.4-.3 14.7-4.9 20-12zm-14.7-25.6c1.5 0 2.8 1.2 2.8 2.7s-1.2 2.8-2.7 2.8-2.8-1.2-2.8-2.7c-.1-1.5 1.2-2.8 2.7-2.8z"
       id="path1025" />
    <path
       d="m32.9 112.2c-3.2-3.7-3.2-8.4-1.5-11.1 2.6-4 4.4-6.1 4.4-6.1s4.3 2.5 4.4 8.5c.1 2.3-.3 5.8-3.2 8.7 3.4-.6 6.7-2.6 8.5-5.4 2.7-4.1 3-9.8.5-14.1-4.3-7.5-13.2-11.3-13.2-11.3s.6 5.6-7.7 13.2c-3.7 3.4-3.4 9.3-.1 12.7 2.2 2.2 4.8 4 7.9 4.9z"
       id="path1027" />
    <path
       d="m45.1 116.8h-20.2c-1.2 0-2.2.9-2.2 2.1v6.5h24.6v-6.5c0-1.2-1-2.1-2.2-2.1z"
       id="path1029" />
    <path
       d="m47.2 29.2h-2.8v-5.4c0-4.3-4.1-9-9.5-9.1-5.4 0-9.5 4.8-9.5 9.1v5.4h-2.6c-1.3 0-2.3 1-2.3 2.3v17.3c0 1.3 1 2.3 2.3 2.3h24.4c1.3 0 2.3-1 2.3-2.3v-17.2c0-1.3-1-2.4-2.3-2.4zm-18.3-5.3c0-2.3 2.3-5.6 6-5.6s6 3.3 6 5.6v5.4h-12z"
       id="path1031" />
    <path
       d="m57 518.4s-5.1.9-10.1 4.4c0 .7.1 1.4.1 2.2 0 8.6-3.5 15-6.1 18.6 3.7-.5 8.5-2.1 12.3-7.1 5.6-7.5 3.8-18.1 3.8-18.1z"
       id="path1033" />
    <path
       d="m25.5 513c-2.9-2.8-5.4-3.9-5.4-3.9s-1 2.5-1.3 6.3c1.5.6 3.3 1.4 5.1 2.5.4-1.8 1-3.4 1.6-4.9z"
       id="path1035" />
    <path
       d="m35 506.5s-7.4 6.8-7.4 18.5 7.4 18.5 7.4 18.5 7.4-6.8 7.4-18.5-7.4-18.5-7.4-18.5z"
       id="path1037" />
    <path
       d="m51.2 515.4c-.3-3.9-1.3-6.3-1.3-6.3s-2.4 1.1-5.4 3.9c.6 1.5 1.2 3.1 1.6 4.9 1.8-1.1 3.5-1.9 5.1-2.5z"
       id="path1039" />
    <path
       d="m13 518.4s5.1.9 10.1 4.4c0 .7-.1 1.4-.1 2.2 0 8.6 3.5 15 6.1 18.6-3.7-.5-8.5-2.1-12.3-7.1-5.6-7.5-3.8-18.1-3.8-18.1z"
       id="path1041" />
    <path
       d="m86 514.5 1 4v25.5h11.3v-18.8c0-3.7 3-6.7 6.7-6.7s6.7 3 6.7 6.7v18.8h11.3v-25.5l1-4z"
       id="path1043" />
    <path
       d="m121 506h-9.8l-6.2-4-6.2 4h-9.8l-1 4h34z"
       id="path1045" />
    <path
       d="m194 513.8c-2.7-2-6.3-2.6-9.8-2.8.3-1.4.8-3.5 1.3-4.7.9-2.4-.6-1.9-1.5-.8-.6.7-2.2 3-2.9 4.3-.6 1.1-1.9.7-1.7-.4.3-2.1 1-4.4 2.1-7 .7-1.7-.7-1.5-1.4-.8-1.7 1.8-4.1 6.1-4.7 7.3-.6 1.3-2.1.7-1.9-.4.4-2.5 2.6-7.8 2.9-8.4.4-.9-.5-1.6-1.8-.4-.7.6-3.6 4.1-5.9 9.1-3.7-.7-7.5-.7-11 1.5-6.3 4.1-6.3 13.3-2 18 3.1 3.5 4.9 5 6.2 9.8 1.6 5.8 5.3 9.9 11.1 10.6 5.3.6 9.2-3.3 11.6-7.6 2.1-3.7 4.6-6 9.9-9.8 5.9-4.2 4.9-13.5-.5-17.5zm-30.4 12.8c-3.4-.4-5.9-3.5-5.4-6.9.4-3.4 3.5-5.9 6.9-5.4 3.4.4 5.9 3.5 5.4 6.9-.3 3.4-3.4 5.8-6.9 5.4zm12.2 7c-.2.8-1.2 1.5-3.8 1-2.5-.5-2.7-1.5-2.4-2.5.3-1.1 3.1-5.2 4.1-5s2.4 5.1 2.1 6.5zm15.8-9.9c-.4 3.5-3.6 6.1-7.2 5.6-3.5-.4-6.1-3.6-5.6-7.2.4-3.5 3.6-6.1 7.2-5.6 3.5.4 6.1 3.6 5.6 7.2z"
       id="path1047" />
    <path
       d="m25 582.8-.2-9c0-.7-.6-1.2-1.3-1.3-.7 0-1.3.6-1.3 1.3l-.2 9-5.2 5.2v24.5h13.5v-24.5z"
       id="path1049" />
    <path
       d="m48.4 572.5h-13.7v40h19.5v-21.5l-5.9-5.9zm-3.4 10.1h-6.8v-6.8h6.8z"
       id="path1051" />
    <path
       d="m130.9 591s-8.4-2.1-17.4-.6c-7.5 1.2-15.2 2.5-17.8 2.9-3.7-3.9-10.6-11.1-11.2-11.7-.9-1-2.1-.7-1.8.6l4.1 16.5c-1.2.3-4.1 1.1-5.4 3.5 2.3 1.5 5.3 1 6.5.7l.9 3.6 8.1-1-1.7 6.9c.1.4.4.7.6.7l10.9-2.4c.5-.1.8-.5.9-.9l2.9-6.3s4.9-1.1 10.4-3.1c8.2-2.9 10.8-6.4 10.8-6.4z"
       id="path1053" />
    <path
       d="m104.9 581.6c-4.1 0-7.2 3.1-7.9 7l15.4-2.5c-1.4-2.6-4.4-4.5-7.5-4.5z"
       id="path1055" />
    <path
       d="m174.4 573.7-22.4 33.6h34.7z"
       id="path1057" />
    <path
       d="m181.3 579.4 10.2 27.9h7.5z"
       id="path1059" />
  </g>
  <g
     id="g1268"
     transform="translate(266.73109,48.114922)">
    <g
       style="fill:#ffffff"
       id="g4764">
      <circle
         style="fill:#ffffff"
         id="circle4646"
         r="2.2"
         cy="460.70001"
         cx="19.799999" />
      <circle
         style="fill:#ffffff"
         id="circle4648"
         r="2.2"
         cy="433.89999"
         cx="26" />
      <path
         style="fill:#ffffff"
         id="path4650"
         d="m 51.6,455.8 c -0.6,-0.6 -1.2,-1.1 -1.9,-1.5 L 25.6,439 l 6.5,12.3 -17.9,-12 19.5,30.7 c 0.5,0.7 1,1.4 1.6,2.1 4.5,4.5 11.7,4.5 16.2,0 4.6,-4.5 4.6,-11.8 0.1,-16.3 z m -3.1,13.1 c -2.8,2.8 -7.2,2.8 -10,0 -2.8,-2.8 -2.8,-7.2 0,-10 2.8,-2.8 7.2,-2.8 10,0 2.7,2.8 2.7,7.3 0,10 z"
         inkscape:connector-curvature="0" />
      <path
         style="fill:#ffffff"
         id="path4652"
         d="m 48.5,245.8 c -1.8,-1.8 -1.4,-4.2 -1,-5.4 0.1,-0.3 -0.2,-0.6 -0.5,-0.5 -1.2,0.3 -3.6,0.7 -4.9,-1 -1.6,-2.2 -0.6,-4.2 0.2,-5.2 0.2,-0.3 0,-0.6 -0.3,-0.7 -1,-0.2 -2.9,-0.7 -3.9,-1.9 -1.3,-1.7 -0.8,-3.5 -0.3,-4.8 -2,-0.3 -4.1,-0.3 -6.2,0.1 -8.3,1.5 -14.8,8.6 -15.5,17 -0.9,11.2 7.9,20.6 18.9,20.6 10,0 18.2,-7.7 18.9,-17.5 -1.3,0.3 -3.9,0.7 -5.4,-0.7 z M 35,251.5 c -3.6,0 -6.5,-2.9 -6.5,-6.5 0,-3.6 2.9,-6.5 6.5,-6.5 3.6,0 6.5,2.9 6.5,6.5 0,3.6 -2.9,6.5 -6.5,6.5 z"
         inkscape:connector-curvature="0" />
      <path
         style="fill:#ffffff"
         id="path4654"
         d="m 45.9,220.2 c -1.2,-0.3 -2,-0.3 -2.3,0.2 -0.1,0.3 -0.2,4.3 -0.2,4.6 0,0.3 1.1,1 1.4,1.1 0.3,0.1 0.6,0.1 0.8,-0.1 0.1,-0.3 1.9,-4 2.1,-4.4 0.1,-0.3 -0.8,-1.2 -1.8,-1.4 z"
         inkscape:connector-curvature="0" />
      <path
         style="fill:#ffffff"
         id="path4656"
         d="m 51.2,226.6 c -1.6,0.4 -2.8,1.1 -3.3,2.7 -0.4,1.3 -0.2,3.9 1.1,4.3 0.9,0.3 3,-0.2 3.3,-0.8 0.2,-0.5 1,-6.7 -1.1,-6.2 z"
         inkscape:connector-curvature="0" />
      <path
         style="fill:#ffffff"
         id="path4658"
         d="m 193.7,176.9 c 0,0 2,-9.4 0.3,-13.6 -1.8,-4.2 -7.6,-8.8 -7.6,-8.8 l -6.2,2.2 2.6,4.7 -26.7,4.6 c -0.4,0.1 -0.7,0.5 -0.6,0.9 l 0.4,2.5 c 0.1,0.4 0.5,0.7 0.9,0.6 l 15.9,-2.7 -10.7,24.3 c -0.4,0.9 0,1.9 0.9,2.3 0.9,0.4 1.9,0 2.3,-0.9 l 9.8,-22.3 9.9,22.5 c 0.4,0.9 1.4,1.3 2.3,0.9 0.9,-0.4 1.3,-1.4 0.9,-2.3 l -11.1,-25.3 8.5,-1.4 z"
         inkscape:connector-curvature="0" />
      <path
         style="fill:#ffffff"
         id="path4660"
         d="m 187.1,311.7 c 1.9,0 3.9,-0.1 4.6,-0.1 2.4,0 2.5,-4 0.1,-4 H 166 l -11.6,21.7 h 42.3 z"
         inkscape:connector-curvature="0" />
      <path
         style="fill:#ffffff"
         id="path4662"
         d="m 178.5,294.4 c -0.2,-0.3 -1.4,0.4 -2.2,0.3 -0.4,0 -1.4,-0.3 -1.8,-0.4 -0.5,-0.1 -1.9,-0.3 -2.3,0.1 -0.1,0.1 -1.6,3.1 -2.3,4.7 -2.5,0 -7.3,0 -8.1,0 -2.4,0 -2.5,4 -0.1,4 h 20.5 z"
         inkscape:connector-curvature="0" />
      <circle
         style="fill:#ffffff"
         id="circle4664"
         r="2.2"
         cy="315"
         cx="35" />
      <path
         style="fill:#ffffff"
         id="path4666"
         d="m 49.4,321.3 c -1.9,3.6 -6,7 -6.1,7.2 -0.4,0.4 -1,0.5 -1.5,0.5 -0.7,0 -1.3,-0.3 -1.8,-0.8 -0.8,-1 -0.7,-2.4 0.3,-3.2 0,0 3.6,-3 5,-5.8 1,-1.8 3.6,-9.9 5.6,-16.6 -3.7,-4.7 -9.5,-7.8 -16,-7.8 -11.2,0 -20.3,9.1 -20.3,20.3 0,11.2 9.1,20.3 20.3,20.3 11.2,0 20.3,-9.1 20.3,-20.3 0,-2.4 -0.4,-4.7 -1.2,-6.9 -1.6,5.1 -3.6,11.2 -4.6,13.1 z M 27.2,315 c 0,-4.3 3.5,-7.8 7.8,-7.8 4.3,0 7.8,3.5 7.8,7.8 0,4.3 -3.5,7.8 -7.8,7.8 -4.3,0 -7.8,-3.5 -7.8,-7.8 z"
         inkscape:connector-curvature="0" />
      <path
         style="fill:#ffffff"
         id="path4668"
         d="m 128.8,307.6 c -0.7,-1.8 -11.7,0.7 -24.5,5.7 -12.8,5 -22.6,10.6 -21.8,12.4 0.4,0.9 3.2,0.7 7.4,-0.2 4.8,6.8 13.7,9.8 21.8,6.6 8.1,-3.2 12.6,-11.4 11.5,-19.6 3.8,-2.2 5.9,-4 5.6,-4.9 z"
         inkscape:connector-curvature="0" />
      <path
         style="fill:#ffffff"
         id="path4670"
         d="m 102.6,309.1 c 6.1,-2.4 12,-4.3 16.7,-5.5 -4.9,-6.2 -13.4,-8.8 -21.1,-5.8 -7.7,3 -12.2,10.7 -11.6,18.6 4.3,-2.3 9.9,-4.9 16,-7.3 z"
         inkscape:connector-curvature="0" />
      <path
         style="fill:#ffffff"
         id="path4672"
         d="m 187,237 h -12 -12 l -3,9.5 h 15 15 z"
         inkscape:connector-curvature="0" />
      <path
         style="fill:#ffffff"
         id="path4674"
         d="m 193,251 h -18 -18 l -3,10 h 21 21 z"
         inkscape:connector-curvature="0" />
      <path
         style="fill:#ffffff"
         id="path4676"
         d="m 167,223.5 v 9 h 4.7 V 228 h 6.5 v 4.5 h 4.8 v -9 z"
         inkscape:connector-curvature="0" />
      <path
         style="fill:#ffffff"
         id="path4678"
         d="m 31.6,171.6 2.6,-11.9 c 0.2,-0.9 1.4,-0.9 1.6,0 l 2.6,11.9 11.8,2.6 c 0.9,0.2 0.9,1.4 0,1.6 l -11.8,2.6 -2.6,11.9 c -0.2,0.9 -1.4,0.9 -1.6,0 l -2.6,-11.9 -11.8,-2.6 c -0.9,-0.2 -0.9,-1.4 0,-1.6 z"
         inkscape:connector-curvature="0" />
      <circle
         style="fill:#ffffff"
         id="circle4680"
         r="2.2"
         cy="165.89999"
         cx="43.700001" />
      <circle
         style="fill:#ffffff"
         id="circle4682"
         r="2.2"
         cy="159.89999"
         cx="50.400002" />
      <circle
         style="fill:#ffffff"
         id="circle4684"
         r="2.2"
         cy="189.39999"
         cx="19.1" />
      <circle
         style="fill:#ffffff"
         id="circle4686"
         r="2.2"
         cy="183.39999"
         cx="25.799999" />
      <circle
         style="fill:#ffffff"
         id="circle4688"
         r="2.2"
         cy="183.39999"
         cx="43.700001" />
      <circle
         style="fill:#ffffff"
         id="circle4690"
         r="2.2"
         cy="189.39999"
         cx="50.400002" />
      <circle
         style="fill:#ffffff"
         id="circle4692"
         r="2.2"
         cy="165.89999"
         cx="25.799999" />
      <circle
         style="fill:#ffffff"
         id="circle4694"
         r="2.2"
         cy="159.89999"
         cx="19.1" />
      <path
         style="fill:#ffffff"
         id="path4696"
         d="m 86,172.5 19,23 19,-23 z"
         inkscape:connector-curvature="0" />
      <path
         style="fill:#ffffff"
         id="path4698"
         d="m 98.2,158 6.8,10 6.7,-10 z"
         inkscape:connector-curvature="0" />
      <path
         style="fill:#ffffff"
         id="path4700"
         d="m 124,168 -6.8,-10 -6.7,10 z"
         inkscape:connector-curvature="0" />
      <path
         style="fill:#ffffff"
         id="path4702"
         d="M 99.5,168 92.7,158 86,168 Z"
         inkscape:connector-curvature="0" />
      <path
         style="fill:#ffffff"
         id="path4704"
         d="m 174.9,433.9 -20.8,35.3 h 41.8 z m 0.1,23.9 c -2.3,0 -4.2,-1.9 -4.2,-4.2 0,-2.3 1.9,-4.2 4.2,-4.2 2.3,0 4.2,1.9 4.2,4.2 0,2.3 -1.9,4.2 -4.2,4.2 z"
         inkscape:connector-curvature="0" />
      <path
         style="fill:#ffffff"
         id="path4706"
         d="m 89.2,250.2 c -2.4,2.4 -4.5,8.4 -4.5,8.4 0,0 6,-2.1 8.4,-4.5 z"
         inkscape:connector-curvature="0" />
      <path
         style="fill:#ffffff"
         id="path4708"
         d="m 96,257 c -2.4,2.4 -4.5,8.4 -4.5,8.4 0,0 6,-2.1 8.4,-4.5 z"
         inkscape:connector-curvature="0" />
      <path
         style="fill:#ffffff"
         id="path4710"
         d="m 116.1,247.4 6.7,-11.1 c 1.6,-2.7 1.4,-8.1 0.3,-9.2 -1.1,-1.1 -6.5,-1.4 -9.2,0.3 l -11.1,6.7 -12.2,-0.2 -5.7,5.7 12.9,12.9 12.9,12.9 5.7,-5.7 z m -10.8,-10.8 11.1,-6.7 3.9,3.9 -6.7,11 z"
         inkscape:connector-curvature="0" />
      <path
         style="fill:#ffffff"
         id="path4712"
         d="m 122.1,378.6 c -2.6,-4.2 -8,-8.1 -8,-8.1 0,0 0.6,-2.2 0.4,-2.9 -0.1,-0.4 -1.1,-0.9 -1.1,-0.9 0,0 -1.1,-0.5 -1.4,-0.3 -0.6,0.3 -2,2.1 -2,2.1 0,0 -6.4,-1.9 -11.3,-1.4 -4.9,0.5 -10.8,3 -10.8,3 0,0 -1.6,3.2 -1.8,3.6 1.3,1.5 5.6,4.3 6.2,4.7 0.8,-1.1 2.1,-2.7 2.5,-3 0.7,-0.6 1.3,-0.6 2,-0.2 0.9,0.6 -0.1,2.8 -1.4,5.1 1.9,1.3 5.8,3.2 7,3.9 1.1,-2.2 2.8,-4.6 4.3,-3.9 1.5,0.7 0.6,3.5 -0.5,5.8 1.3,0.6 5.2,2.5 7.3,3.2 1,-2.4 2.2,-4.6 3.2,-4.2 0.8,0.3 1.1,0.8 1.1,1.7 0,0.6 -0.5,2.6 -0.9,3.8 0.8,0.3 5.6,2 7.6,2.1 0.2,-0.4 1.8,-3.6 1.8,-3.6 0,0 -1.6,-6.3 -4.2,-10.5 z"
         inkscape:connector-curvature="0" />
      <path
         style="fill:#ffffff"
         id="path4714"
         d="m 92.4,404.1 7.3,-14.8 4,2 -7.3,14.8 z"
         inkscape:connector-curvature="0" />
      <path
         style="fill:#ffffff"
         id="path4716"
         d="m 187.8,376.9 -6.1,4.1 -6.1,-4.1 -6.1,4.1 v -9.2 l -6.1,-8.2 -6.1,8.2 v 30.7 h 13.8 v -6.9 c 0,-2.5 2.1,-4.6 4.6,-4.6 2.5,0 4.6,2.1 4.6,4.6 v 6.9 h 13.8 V 381 Z"
         inkscape:connector-curvature="0" />
      <path
         style="fill:#ffffff"
         id="path4718"
         d="m 58.3,396.8 c -1.4,-1.9 -3.8,-4.9 -8,-8.5 -4.6,-3.8 -8.1,-5.2 -8.1,-5.2 0,0 2,-3.7 2.8,-5.1 0.8,-1.4 1.9,-3.9 1.4,-4.5 -0.5,-0.5 -3.1,0.7 -4.5,1.4 -1.4,0.8 -5.1,2.8 -5.1,2.8 0,0 -1.4,-3.5 -5.2,-8.1 -3.5,-4.3 -6.5,-6.7 -8.5,-8 -1,-0.7 -1.6,1 -2.1,3.9 -1,5.7 -1.5,12.7 4.6,23 0,0 -6.5,4.6 -8.2,5.6 -1,0.6 -0.8,1.4 -0.4,1.9 0.4,0.4 3,3.2 3.4,3.5 0.3,0.4 3.1,3 3.5,3.4 0.4,0.4 1.2,0.6 1.9,-0.4 1.1,-1.6 5.6,-8.2 5.6,-8.2 10.2,6.1 17.3,5.6 23,4.6 2.9,-0.4 4.6,-1 3.9,-2.1 z"
         inkscape:connector-curvature="0" />
      <path
         style="fill:#ffffff"
         id="path4720"
         d="m 108.3,449.9 c -9,-3.6 -17.1,-1.7 -26,2.5 3.6,9.2 8.1,16.1 17.2,19.7 9,3.6 17.1,1.7 26,-2.5 -3.6,-9.1 -8.2,-16.1 -17.2,-19.7 z m 2.1,13.7 c -1.4,3.6 -5.5,5.4 -9.2,3.9 -3.6,-1.4 -5.4,-5.5 -3.9,-9.2 1.4,-3.6 5.5,-5.4 9.2,-3.9 3.6,1.5 5.4,5.6 3.9,9.2 z"
         inkscape:connector-curvature="0" />
      <path
         style="fill:#ffffff"
         id="path4722"
         d="m 126,453.3 c 0.2,0.5 0.2,0.9 -0.2,1.2 -0.6,0.4 -0.5,0.3 -1,0.5 -0.4,0.2 -0.7,0.1 -1.1,-0.5 -4.3,-6.2 -7.5,-9.2 -13.9,-11.7 -6.5,-2.5 -11.6,-2.2 -17.2,-1.4 -3.2,0.5 -3.4,-0.4 -2.6,-1.3 0.8,-0.9 2.7,-1.1 2.5,-2.1 -0.2,-1 -2.9,0.6 -3.9,-0.1 -1.2,-0.8 1.5,-2.7 5.6,-3.6 9.6,-1.9 24,1.8 31.8,19 z"
         inkscape:connector-curvature="0" />
      <path
         style="fill:#ffffff"
         id="path4724"
         d="m 155.8,113.6 h 38.5 c -6.9,-3.3 -11.8,-8.5 -11.8,-9.4 h 7.3 c -5.6,-3.1 -10.3,-8.1 -10.3,-9 h 7.2 c -7.6,-4.2 -11.1,-12 -11.5,-12.3 -0.5,0.3 -4,8.1 -11.5,12.3 h 7.2 c 0,1 -4.7,5.9 -10.3,9 h 7.3 c -0.3,1 -5.2,6.1 -12.1,9.4 z"
         inkscape:connector-curvature="0" />
      <path
         style="fill:#ffffff"
         id="path4726"
         d="m 172.3,118.1 h 5.4 v 6.5 h -5.4 z"
         inkscape:connector-curvature="0" />
      <path
         style="fill:#ffffff"
         id="path4728"
         d="m 119.7,112 c -3.6,3.1 -7.8,5.1 -11.6,5.9 v -20 h 10.7 c 1,0 1.8,-0.8 1.8,-1.8 0,-1 -0.8,-1.8 -1.8,-1.8 h -10.3 c 1.7,-1.1 2.8,-3 2.8,-5.2 0,-3.5 -2.8,-6.2 -6.2,-6.2 -3.5,0 -6.2,2.8 -6.2,6.2 0,2.2 1.1,4.1 2.8,5.2 H 91.2 c -1,0 -1.8,0.8 -1.8,1.8 0,1 0.8,1.8 1.8,1.8 h 10.7 v 19.9 c -3.8,-0.8 -8,-2.8 -11.6,-5.9 l -5.3,1.5 c 5.3,7.1 14.6,11.7 20,12 5.4,-0.3 14.7,-4.9 20,-12 z M 105,86.4 c 1.5,0 2.8,1.2 2.8,2.7 0,1.5 -1.2,2.8 -2.7,2.8 -1.5,0 -2.8,-1.2 -2.8,-2.7 -0.1,-1.5 1.2,-2.8 2.7,-2.8 z"
         inkscape:connector-curvature="0" />
      <path
         style="fill:#ffffff"
         id="path4734"
         d="m 47.2,29.2 h -2.8 v -5.4 c 0,-4.3 -4.1,-9 -9.5,-9.1 -5.4,0 -9.5,4.8 -9.5,9.1 v 5.4 h -2.6 c -1.3,0 -2.3,1 -2.3,2.3 v 17.3 c 0,1.3 1,2.3 2.3,2.3 h 24.4 c 1.3,0 2.3,-1 2.3,-2.3 V 31.6 c 0,-1.3 -1,-2.4 -2.3,-2.4 z M 28.9,23.9 c 0,-2.3 2.3,-5.6 6,-5.6 3.7,0 6,3.3 6,5.6 v 5.4 h -12 z"
         inkscape:connector-curvature="0" />
      <path
         style="fill:#ffffff"
         id="path4736"
         d="m 57,518.4 c 0,0 -5.1,0.9 -10.1,4.4 0,0.7 0.1,1.4 0.1,2.2 0,8.6 -3.5,15 -6.1,18.6 3.7,-0.5 8.5,-2.1 12.3,-7.1 5.6,-7.5 3.8,-18.1 3.8,-18.1 z"
         inkscape:connector-curvature="0" />
      <path
         style="fill:#ffffff"
         id="path4738"
         d="m 25.5,513 c -2.9,-2.8 -5.4,-3.9 -5.4,-3.9 0,0 -1,2.5 -1.3,6.3 1.5,0.6 3.3,1.4 5.1,2.5 0.4,-1.8 1,-3.4 1.6,-4.9 z"
         inkscape:connector-curvature="0" />
      <path
         style="fill:#ffffff"
         id="path4740"
         d="m 35,506.5 c 0,0 -7.4,6.8 -7.4,18.5 0,11.7 7.4,18.5 7.4,18.5 0,0 7.4,-6.8 7.4,-18.5 0,-11.7 -7.4,-18.5 -7.4,-18.5 z"
         inkscape:connector-curvature="0" />
      <path
         style="fill:#ffffff"
         id="path4742"
         d="m 51.2,515.4 c -0.3,-3.9 -1.3,-6.3 -1.3,-6.3 0,0 -2.4,1.1 -5.4,3.9 0.6,1.5 1.2,3.1 1.6,4.9 1.8,-1.1 3.5,-1.9 5.1,-2.5 z"
         inkscape:connector-curvature="0" />
      <path
         style="fill:#ffffff"
         id="path4744"
         d="m 13,518.4 c 0,0 5.1,0.9 10.1,4.4 0,0.7 -0.1,1.4 -0.1,2.2 0,8.6 3.5,15 6.1,18.6 -3.7,-0.5 -8.5,-2.1 -12.3,-7.1 C 11.2,529 13,518.4 13,518.4 Z"
         inkscape:connector-curvature="0" />
      <path
         style="fill:#ffffff"
         id="path4746"
         d="m 86,514.5 1,4 V 544 h 11.3 v -18.8 c 0,-3.7 3,-6.7 6.7,-6.7 3.7,0 6.7,3 6.7,6.7 V 544 H 123 v -25.5 l 1,-4 z"
         inkscape:connector-curvature="0" />
      <path
         style="fill:#ffffff"
         id="path4748"
         d="m 121,506 h -9.8 l -6.2,-4 -6.2,4 H 89 l -1,4 h 34 z"
         inkscape:connector-curvature="0" />
      <path
         style="fill:#ffffff"
         id="path4750"
         d="m 194,513.8 c -2.7,-2 -6.3,-2.6 -9.8,-2.8 0.3,-1.4 0.8,-3.5 1.3,-4.7 0.9,-2.4 -0.6,-1.9 -1.5,-0.8 -0.6,0.7 -2.2,3 -2.9,4.3 -0.6,1.1 -1.9,0.7 -1.7,-0.4 0.3,-2.1 1,-4.4 2.1,-7 0.7,-1.7 -0.7,-1.5 -1.4,-0.8 -1.7,1.8 -4.1,6.1 -4.7,7.3 -0.6,1.3 -2.1,0.7 -1.9,-0.4 0.4,-2.5 2.6,-7.8 2.9,-8.4 0.4,-0.9 -0.5,-1.6 -1.8,-0.4 -0.7,0.6 -3.6,4.1 -5.9,9.1 -3.7,-0.7 -7.5,-0.7 -11,1.5 -6.3,4.1 -6.3,13.3 -2,18 3.1,3.5 4.9,5 6.2,9.8 1.6,5.8 5.3,9.9 11.1,10.6 5.3,0.6 9.2,-3.3 11.6,-7.6 2.1,-3.7 4.6,-6 9.9,-9.8 5.9,-4.2 4.9,-13.5 -0.5,-17.5 z m -30.4,12.8 c -3.4,-0.4 -5.9,-3.5 -5.4,-6.9 0.4,-3.4 3.5,-5.9 6.9,-5.4 3.4,0.4 5.9,3.5 5.4,6.9 -0.3,3.4 -3.4,5.8 -6.9,5.4 z m 12.2,7 c -0.2,0.8 -1.2,1.5 -3.8,1 -2.5,-0.5 -2.7,-1.5 -2.4,-2.5 0.3,-1.1 3.1,-5.2 4.1,-5 1,0.2 2.4,5.1 2.1,6.5 z m 15.8,-9.9 c -0.4,3.5 -3.6,6.1 -7.2,5.6 -3.5,-0.4 -6.1,-3.6 -5.6,-7.2 0.4,-3.5 3.6,-6.1 7.2,-5.6 3.5,0.4 6.1,3.6 5.6,7.2 z"
         inkscape:connector-curvature="0" />
      <path
         style="fill:#ffffff"
         id="path4752"
         d="m 25,582.8 -0.2,-9 c 0,-0.7 -0.6,-1.2 -1.3,-1.3 -0.7,0 -1.3,0.6 -1.3,1.3 l -0.2,9 -5.2,5.2 v 24.5 H 30.3 V 588 Z"
         inkscape:connector-curvature="0" />
      <path
         style="fill:#ffffff"
         id="path4754"
         d="M 48.4,572.5 H 34.7 v 40 H 54.2 V 591 l -5.9,-5.9 z M 45,582.6 h -6.8 v -6.8 H 45 Z"
         inkscape:connector-curvature="0" />
      <path
         style="fill:#ffffff"
         id="path4756"
         d="m 130.9,591 c 0,0 -8.4,-2.1 -17.4,-0.6 -7.5,1.2 -15.2,2.5 -17.8,2.9 -3.7,-3.9 -10.6,-11.1 -11.2,-11.7 -0.9,-1 -2.1,-0.7 -1.8,0.6 l 4.1,16.5 c -1.2,0.3 -4.1,1.1 -5.4,3.5 2.3,1.5 5.3,1 6.5,0.7 l 0.9,3.6 8.1,-1 -1.7,6.9 c 0.1,0.4 0.4,0.7 0.6,0.7 l 10.9,-2.4 c 0.5,-0.1 0.8,-0.5 0.9,-0.9 l 2.9,-6.3 c 0,0 4.9,-1.1 10.4,-3.1 8.2,-2.9 10.8,-6.4 10.8,-6.4 z"
         inkscape:connector-curvature="0" />
      <path
         style="fill:#ffffff"
         id="path4758"
         d="m 104.9,581.6 c -4.1,0 -7.2,3.1 -7.9,7 l 15.4,-2.5 c -1.4,-2.6 -4.4,-4.5 -7.5,-4.5 z"
         inkscape:connector-curvature="0" />
      <path
         style="fill:#ffffff"
         id="path4760"
         d="M 174.4,573.7 152,607.3 h 34.7 z"
         inkscape:connector-curvature="0" />
      <path
         style="fill:#ffffff"
         id="path4762"
         d="m 181.3,579.4 10.2,27.9 h 7.5 z"
         inkscape:connector-curvature="0" />
      <path
         inkscape:connector-curvature="0"
         id="path4788"
         d="m 31.88627,98.179202 c -0.170242,-0.170242 -0.370617,-0.614369 -0.445278,-0.986948 -0.07851,-0.391783 -0.432964,-0.94025 -0.84063,-1.300754 -0.387686,-0.342834 -0.841117,-0.953307 -1.007624,-1.356605 -0.271768,-0.658251 -0.264922,-0.844982 0.06691,-1.825202 0.652754,-1.928183 1.244214,-2.28959 5.153442,-3.14897 2.472585,-0.543558 4.904145,-0.556309 6.114442,-0.03207 1.338885,0.579943 3.585087,3.005879 3.977513,4.295782 0.172039,0.565492 0.461671,1.375791 0.643626,1.800663 0.181955,0.424873 0.330828,0.903226 0.330828,1.063006 0,0.536141 -2.814257,1.36401 -5.402243,1.589176 -3.773589,0.328319 -8.2153,0.277608 -8.590991,-0.09808 z"
         style="opacity:1;fill:#ffffff;fill-opacity:1;stroke:#000000;stroke-width:0.39736426;stroke-miterlimit:4;stroke-dasharray:none;stroke-opacity:0" />
      <path
         inkscape:connector-curvature="0"
         id="path4790"
         d="m 31.7226,99.594645 c -0.667068,-0.07883 -0.79435,-0.191797 -1.090837,-0.968138 -0.184609,-0.483391 -0.335653,-1.041397 -0.335653,-1.240013 0,-0.198616 -0.231953,-0.466806 -0.515452,-0.595976 -0.283499,-0.129171 -0.566387,-0.395337 -0.62864,-0.591479 -0.06225,-0.196143 -0.297802,-0.523696 -0.523441,-0.727896 -0.623246,-0.56403 -0.568373,-2.539969 0.108925,-3.922283 0.69962,-1.427873 1.958793,-2.24654 4.155841,-2.701971 0.914225,-0.189512 1.942729,-0.44419 2.285564,-0.56595 0.342835,-0.121761 1.571761,-0.270891 2.730948,-0.331401 1.692105,-0.08833 2.241154,-0.0434 2.784989,0.227903 0.372557,0.185856 0.755264,0.33792 0.850459,0.33792 1.024266,0 5.056104,4.738468 4.625151,5.435766 -0.05074,0.0821 0.09644,0.45877 0.327066,0.837045 0.551229,0.904121 0.565634,2.427931 0.0284,3.004579 -0.215859,0.231699 -0.846987,0.544339 -1.402505,0.694756 -0.555518,0.150418 -1.117284,0.35594 -1.248369,0.456716 -0.45185,0.347374 -3.512461,0.628372 -7.449471,0.683944 -2.171287,0.03065 -4.287627,0.01556 -4.702979,-0.03352 z m 10.057571,-1.074812 c 0.888018,-0.120814 1.729521,-0.294093 1.870007,-0.385064 0.140486,-0.09097 0.722931,-0.308453 1.294322,-0.483294 0.985682,-0.301611 1.042234,-0.358114 1.104113,-1.103164 0.04285,-0.515912 -0.08188,-1.034579 -0.363613,-1.512087 -0.235857,-0.399749 -0.428832,-0.923633 -0.428832,-1.164187 0,-0.671645 -0.916233,-2.055707 -1.895492,-2.863333 -0.484975,-0.399974 -1.068502,-0.937601 -1.296728,-1.194727 -0.228225,-0.257126 -0.56172,-0.470476 -0.741098,-0.47411 -0.179379,-0.0036 -0.507639,-0.143885 -0.729468,-0.311668 -0.534922,-0.404595 -3.655892,-0.396387 -4.791139,0.0126 -0.457113,0.164681 -1.018115,0.302366 -1.246672,0.305967 -0.981788,0.01547 -3.413127,0.768463 -4.02443,1.246381 -0.850034,0.664558 -1.481968,2.072437 -1.480741,3.298925 7.84e-4,0.783435 0.117655,1.085041 0.633868,1.635816 0.348098,0.371404 0.791792,0.674816 0.985986,0.674248 0.269173,-7.89e-4 0.218361,-0.111887 -0.213815,-0.467502 -1.175228,-0.967034 -1.336664,-2.392434 -0.443666,-3.917356 0.595814,-1.017439 1.250653,-1.386212 3.503905,-1.973228 2.782646,-0.724934 5.925273,-0.897058 7.236381,-0.396341 1.380236,0.527117 3.73606,3.009417 4.151199,4.374063 0.172475,0.566959 0.462463,1.378459 0.644418,1.803331 0.181955,0.424873 0.330828,0.906264 0.330828,1.069758 0,0.521934 -2.790109,1.356739 -5.298354,1.585276 -2.702873,0.246271 -8.201831,0.271668 -8.567226,0.03957 -0.140845,-0.08947 -0.391383,-0.53216 -0.55675,-0.983766 -0.268543,-0.73337 -0.302233,-0.761095 -0.315309,-0.259487 -0.02293,0.879601 0.395778,1.587308 1.000616,1.691255 0.941522,0.161811 7.951608,-0.01848 9.63769,-0.247873 z"
         style="opacity:1;fill:#ffffff;fill-opacity:1;stroke:#000000;stroke-width:0.39736426;stroke-miterlimit:4;stroke-dasharray:none;stroke-opacity:0" />
      <path
         inkscape:connector-curvature="0"
         id="path4794"
         d="m 31.7226,99.585474 c -0.670217,-0.07107 -0.79295,-0.17896 -1.090837,-0.958967 -0.184609,-0.483391 -0.335653,-1.036991 -0.335653,-1.230223 0,-0.193231 -0.280501,-0.496383 -0.623335,-0.673669 -0.342835,-0.177287 -0.623336,-0.445698 -0.623336,-0.596469 0,-0.150771 -0.187001,-0.443362 -0.415557,-0.650203 -0.32753,-0.29641 -0.415557,-0.639951 -0.415557,-1.621777 0,-1.623751 0.720732,-3.133424 1.891506,-3.962025 0.844824,-0.597913 1.200934,-0.721723 3.718515,-1.292835 0.742809,-0.168505 1.724562,-0.392505 2.181675,-0.497778 1.539238,-0.354485 3.915497,-0.247468 5.170692,0.232868 1.773911,0.678837 4.70569,3.858922 4.980468,5.402288 0.05349,0.300468 0.245753,0.833452 0.42724,1.184408 0.394206,0.762312 0.433238,2.313261 0.07025,2.791541 -0.424633,0.559506 -3.162664,1.414894 -5.529367,1.727428 -2.000007,0.26411 -7.487272,0.348934 -9.406707,0.145413 z m 8.833104,-0.991627 c 1.585899,-0.168296 2.988405,-0.384676 3.116678,-0.480843 0.128274,-0.09617 0.653977,-0.295054 1.168229,-0.441971 0.514252,-0.146916 1.003697,-0.373662 1.087656,-0.50388 0.266203,-0.412874 0.172235,-1.164477 -0.256542,-2.051942 -0.228556,-0.473057 -0.415557,-0.992037 -0.415557,-1.153288 0,-0.622835 -0.708586,-1.736017 -1.710744,-2.687565 -0.575129,-0.546083 -1.237106,-1.203255 -1.47106,-1.460381 -0.233954,-0.257126 -0.538073,-0.467502 -0.675819,-0.467502 -0.137746,0 -0.518261,-0.139674 -0.845589,-0.310388 -0.732482,-0.382016 -3.357253,-0.392876 -4.542935,-0.0188 -0.746478,0.235511 -0.594637,0.252122 1.491057,0.163113 2.911424,-0.124248 3.620783,0.123058 5.433623,1.894341 1.442668,1.409597 1.792945,1.995727 2.542282,4.254083 0.436837,1.316542 0.462118,1.540784 0.192899,1.710988 -0.768216,0.485677 -2.983037,1.037336 -4.954913,1.23415 -2.464222,0.245956 -8.3318,0.283668 -8.674483,0.05575 -0.126236,-0.08396 -0.379619,-0.433153 -0.563072,-0.775988 -0.272247,-0.508771 -0.33508,-0.54591 -0.34187,-0.202066 -0.01171,0.592897 0.533546,1.300008 1.084346,1.40623 1.086192,0.209472 5.665226,0.119358 8.335814,-0.164046 z M 30.073456,95.384631 c -0.812167,-1.010632 -0.862191,-2.107641 -0.153916,-3.375304 0.657844,-1.177403 1.216289,-1.530162 3.38936,-2.140995 1.666299,-0.468384 1.749265,-0.513088 0.761611,-0.410376 -2.427387,0.252439 -4.010442,1.222757 -4.690077,2.874739 -0.522438,1.269881 -0.429933,2.201312 0.307468,3.095907 0.351154,0.426011 0.729562,0.774566 0.840905,0.774566 0.111344,0 -0.09356,-0.368341 -0.455351,-0.818537 z"
         style="opacity:1;fill:#ffffff;fill-opacity:1;stroke:#000000;stroke-width:0.39736426;stroke-miterlimit:4;stroke-dasharray:none;stroke-opacity:0" />
    </g>
    <path
       inkscape:connector-curvature="0"
       id="path4822"
       d="m -245.4713,147.42741 c -0.45098,-2.25318 -1.15945,-4.44579 -1.67152,-6.68609 -0.24106,-1.05464 -0.50813,-2.10603 -0.66861,-3.1759 -0.17435,-1.16235 -0.25056,-2.33782 -0.33431,-3.5102 -0.0278,-0.38903 0,-0.78004 0,-1.17006 0,-0.6129 0,-1.22579 0,-1.83868 0,-1.39061 -0.0535,-2.79978 0.16716,-4.17881 0.10888,-0.68053 0.3725,-1.32881 0.50145,-2.00583 0.0944,-0.49563 0.0682,-1.00963 0.16716,-1.50437 0.17282,-0.86414 0.42171,-1.03628 0.66861,-1.83868 0.13512,-0.43914 0.18138,-0.90396 0.3343,-1.33722 0.18264,-0.51747 0.44574,-1.00291 0.66861,-1.50437 0.27859,-0.83576 0.57047,-1.66721 0.83576,-2.50729 0.24977,-0.79094 0.12877,-0.7466 0.33431,-1.67152 0.12061,-0.54277 0.2656,-0.61974 0.50145,-1.17007 0.0557,-0.16715 0.11144,-0.3343 0.16716,-0.50146 0,-0.16715 -0.0529,-0.34288 0,-0.50145 0.0635,-0.19059 0.24446,-0.32178 0.3343,-0.50146 0.0788,-0.15759 0.10172,-0.33787 0.16715,-0.50146 0.0463,-0.11568 0.12088,-0.21863 0.16716,-0.3343 0.13087,-0.32719 0.20343,-0.67573 0.3343,-1.00292 0.3622,-0.9055 -0.0785,0.29802 0.50146,-0.66861 0.0906,-0.15108 0.11143,-0.3343 0.16715,-0.50145 0.11143,-0.22287 0.19609,-0.46129 0.3343,-0.66861 0.0874,-0.13113 0.23975,-0.20823 0.33431,-0.33431 0.14951,-0.19934 0.15811,-0.49241 0.3343,-0.66861 0.0881,-0.0881 0.23065,-0.098 0.33431,-0.16715 0.0656,-0.0437 0.0967,-0.13191 0.16715,-0.16715 0.0498,-0.0249 0.11732,0.0249 0.16715,0 0.0705,-0.0352 0.0967,-0.13192 0.16716,-0.16715 0.0498,-0.0249 0.11143,0 0.16715,0 0.135,0 1.24607,0.026 1.33722,0 0.47838,-0.23919 0.67817,-0.37849 1.17006,-0.50146 0.15463,-0.0387 0.87437,0 1.00292,0 0.22287,0 0.45718,-0.0705 0.66861,0 0.30821,0.10274 0.54517,0.35616 0.83576,0.50146 1.55512,0.77756 0.71672,0.25325 2.17298,0.83576 0.80488,0.32195 0.65615,0.41165 1.50437,0.83576 0.1576,0.0788 0.33431,0.11143 0.50146,0.16715 0.16715,0.0557 0.33052,0.12442 0.50146,0.16715 0.054,0.0135 0.11429,-0.0176 0.16715,0 0.23639,0.0788 0.43725,0.24177 0.66861,0.33431 0.16359,0.0654 0.34386,0.0884 0.50146,0.16715 0.0705,0.0352 0.0967,0.13191 0.16715,0.16715 0.15759,0.0788 0.33786,0.10172 0.50146,0.16716 0.11567,0.0463 0.21862,0.12088 0.3343,0.16715 0.81655,0.32662 1.69074,0.50914 2.50729,0.83576 0.11567,0.0463 0.22287,0.11143 0.3343,0.16715 0.11144,0.0557 0.23064,0.098 0.33431,0.16715 0.0656,0.0437 0.0924,0.14224 0.16715,0.16716 0.10571,0.0352 0.22287,0 0.3343,0 0.0557,0 0.11732,-0.0249 0.16716,0 0.0705,0.0352 0.0924,0.14223 0.16715,0.16715 0.10571,0.0352 0.23463,-0.0498 0.3343,0 0.0498,0.0249 -0.0394,0.12775 0,0.16715 0.0788,0.0788 0.24159,-0.0618 0.33431,0 0.13112,0.0874 0.20318,0.24689 0.3343,0.33431 0.0464,0.0309 0.11732,-0.0249 0.16715,0 0.0705,0.0352 0.10159,0.12344 0.16716,0.16715 0.10366,0.0691 0.23064,0.098 0.3343,0.16715 0.13113,0.0874 0.20318,0.24689 0.33431,0.33431 0.10366,0.0691 0.23064,0.098 0.3343,0.16715 0.0656,0.0437 0.0967,0.13191 0.16715,0.16715 0.0498,0.0249 0.14224,-0.0498 0.16716,0 0.0498,0.0997 -0.0788,0.25551 0,0.33431 0.0788,0.0788 0.22858,-0.0352 0.3343,0 0.0748,0.0249 0.11144,0.11143 0.16715,0.16715 0.0557,0.0557 0.13192,0.0967 0.16716,0.16715 0.0249,0.0498 -0.0394,0.12776 0,0.16715 0.0881,0.0881 0.2462,0.079 0.3343,0.16716 0.0394,0.0394 -0.0249,0.11731 0,0.16715 0.0507,0.10134 0.61492,0.59702 0.66861,0.66861 0.0748,0.0997 0.0924,0.23463 0.16715,0.3343 0.0945,0.12608 0.22287,0.22287 0.33431,0.33431 0.16715,0.11143 0.37596,0.17743 0.50145,0.3343 0.11007,0.13759 0.0694,0.35486 0.16716,0.50146 0.13112,0.19669 0.35378,0.31687 0.50145,0.50146 0.0778,0.0973 0.10306,0.22747 0.16716,0.3343 0.10335,0.17227 0.23094,0.3292 0.3343,0.50146 0.0641,0.10683 0.10305,0.22747 0.16715,0.3343 0.10336,0.17227 0.24447,0.32178 0.33431,0.50146 0.16097,0.32195 0.22719,0.84873 0.3343,1.17007 0.15054,0.45162 0.37068,0.87948 0.50146,1.33722 0.18621,0.65175 0.15596,1.35188 0.3343,2.00583 0.0789,0.28947 0.26154,0.54467 0.33431,0.83576 0.0405,0.16216 -0.0328,0.33755 0,0.50146 0.0244,0.12216 0.14272,0.21213 0.16715,0.33431 0.0328,0.1639 -0.0275,0.33657 0,0.50145 0.029,0.1738 0.1326,0.32869 0.16715,0.50146 0.0219,0.10927 0,0.22287 0,0.3343 0,0.33431 0,0.66861 0,1.00292 0,0.72433 0,1.44865 0,2.17298 0,0.61289 0,1.22578 0,1.83868 0,0.14938 0.0266,0.78249 0,0.83576 -0.0352,0.0705 -0.13191,0.0967 -0.16715,0.16715 -0.0249,0.0498 0,0.11144 0,0.16715 0,0.0437 0.028,0.91888 0,1.00292 -0.0394,0.11819 -0.13693,0.21343 -0.16715,0.3343 -0.027,0.10811 0.0219,0.22503 0,0.33431 -0.0345,0.17277 -0.1326,0.32868 -0.16715,0.50145 -0.0437,0.21854 0.054,0.4524 0,0.66861 -0.0302,0.12087 -0.12776,0.21611 -0.16716,0.33431 -0.0176,0.0529 0,0.11143 0,0.16715 0,0.11143 0,0.22287 0,0.3343 0,0.22287 0,0.44574 0,0.66861 0,0.12865 0.0276,0.78049 0,0.83577 -0.0249,0.0498 -0.14223,-0.0498 -0.16715,0 -0.0498,0.0997 0,0.22287 0,0.3343 0,0.27859 0,0.55717 0,0.83576 0,0.11144 0.027,0.2262 0,0.33431 -0.0604,0.24173 -0.27387,0.42687 -0.3343,0.66861 -0.054,0.21621 0.0705,0.45717 0,0.66861 -0.0249,0.0747 -0.14804,0.0907 -0.16715,0.16715 -0.1393,0.55717 0.0929,0.37145 0,0.83576 0.33569,0.29762 -0.27859,0.50146 -0.33431,0.66861 -0.0705,0.21143 0.0705,0.45718 0,0.66861 -0.0249,0.0748 -0.14223,0.0924 -0.16715,0.16715 -0.0352,0.10572 0.0352,0.22859 0,0.33431 -0.0249,0.0747 -0.12345,0.10159 -0.16715,0.16715 -0.0691,0.10366 -0.12776,0.21611 -0.16716,0.3343 -0.0352,0.10572 0.0352,0.22859 0,0.33431 -0.0394,0.11819 -0.12775,0.21611 -0.16715,0.3343 -0.0176,0.0529 0.0249,0.11732 0,0.16715 -0.0352,0.0705 -0.14223,0.0924 -0.16715,0.16716 -0.0352,0.10571 0,0.22287 0,0.3343 0,0.0557 0.0249,0.11732 0,0.16715 -0.25487,0.50974 -0.13251,-0.30571 -0.33431,0.50146 -0.027,0.10811 0.0352,0.22859 0,0.3343 -0.0249,0.0748 -0.12344,0.10159 -0.16715,0.16716 -0.0691,0.10366 -0.12775,0.21611 -0.16715,0.3343 -0.0176,0.0529 0.0394,0.12776 0,0.16715 -0.0394,0.0394 -0.12776,-0.0394 -0.16715,0 -0.0788,0.0788 0.0498,0.23464 0,0.33431 -0.0352,0.0705 -0.13192,0.0967 -0.16716,0.16715 -0.0249,0.0498 0,0.11144 0,0.16715 -0.0557,0.11144 -0.098,0.23065 -0.16715,0.33431 -0.0437,0.0656 -0.11143,0.11143 -0.16715,0.16715 -0.27859,0.27859 -0.55718,0.55718 -0.83576,0.83576 -0.0397,0.0397 -0.61242,0.64988 -0.66861,0.66861 -0.10572,0.0352 -0.22287,0 -0.33431,0 -0.11143,0.11144 -0.20318,0.24689 -0.3343,0.33431 -0.0397,0.0265 -0.89247,0 -1.00292,0 -0.0991,0 -1.24106,0.032 -1.33722,0 -0.0747,-0.0249 -0.0967,-0.13192 -0.16715,-0.16716 -0.0498,-0.0249 -0.11731,0.0249 -0.16715,0 -0.76499,-0.38249 0.7093,0.0693 -0.50146,-0.3343 -0.0529,-0.0176 -0.11429,0.0176 -0.16715,0 -0.11819,-0.0394 -0.22287,-0.11143 -0.3343,-0.16715 -0.11144,-0.0557 -0.23065,-0.0981 -0.33431,-0.16715 -0.0656,-0.0437 -0.0924,-0.14224 -0.16715,-0.16716 -0.10572,-0.0352 -0.23464,0.0498 -0.33431,0 -0.0498,-0.0249 0.0249,-0.11731 0,-0.16715 -0.18479,-0.36958 -0.10374,-0.0519 -0.3343,-0.16715 -0.0444,-0.0222 -0.47927,-0.45708 -0.50146,-0.50146 -0.0249,-0.0498 0.0394,-0.12775 0,-0.16715 -0.0394,-0.0394 -0.11732,0.0249 -0.16715,0 -0.0705,-0.0352 -0.10159,-0.12345 -0.16715,-0.16715 -0.10367,-0.0691 -0.23464,-0.0924 -0.33431,-0.16716 -0.25215,-0.18911 -0.41646,-0.47949 -0.66861,-0.66861 -0.0997,-0.0747 -0.2462,-0.079 -0.3343,-0.16715 -0.15671,-0.15671 -0.27906,-0.52034 -0.50146,-0.66861 -0.10366,-0.0691 -0.24621,-0.0791 -0.3343,-0.16715 -0.0394,-0.0394 0.0394,-0.12775 0,-0.16715 -0.0881,-0.0881 -0.24621,-0.0791 -0.33431,-0.16715 -0.0394,-0.0394 0.0176,-0.1143 0,-0.16716 -0.46033,-1.381 0.0505,0.63734 -0.16715,-0.66861 -0.0378,-0.2266 -0.12939,-0.442 -0.16715,-0.6686 -0.0183,-0.10992 0,-0.22287 0,-0.33431 0,-0.16715 0,-0.3343 0,-0.50146 0,-0.39002 0,-0.78004 0,-1.17006 0,-0.17682 -0.0287,-1.08396 0,-1.17007 0.0249,-0.0748 0.14223,-0.0924 0.16715,-0.16715 0.0352,-0.10572 0,-0.22287 0,-0.33431 0.11143,-0.16715 0.25969,-0.31493 0.3343,-0.50145 0.0597,-0.14915 -0.0571,-0.66437 0,-0.83577 0.0394,-0.11819 0.13694,-0.21343 0.16716,-0.3343 0.027,-0.10811 0,-0.22287 0,-0.3343 0,-0.39003 0,-0.78005 0,-1.17007 0,-0.0753 -0.0254,-0.45059 0,-0.50146 0.0352,-0.0705 0.13191,-0.0967 0.16715,-0.16715 0.0249,-0.0498 0,-0.11144 0,-0.16715 0,-0.11144 0,-0.22287 0,-0.33431 0,-0.39002 0,-0.78004 0,-1.17006 0,-0.10984 -0.0314,-0.40716 0,-0.50146 0.0394,-0.1182 0.13693,-0.21344 0.16715,-0.33431 0.0277,-0.1109 0,-0.8611 0,-1.00291 0,-0.39002 0,-0.78004 0,-1.17007 0,-0.11143 0.0352,-0.22859 0,-0.3343 -0.0249,-0.0747 -0.12344,-0.10159 -0.16715,-0.16715 -0.0691,-0.10367 -0.0791,-0.24621 -0.16715,-0.33431 -0.0881,-0.0881 -0.23464,-0.0924 -0.33431,-0.16715 -0.12607,-0.0945 -0.22287,-0.22287 -0.3343,-0.33431 -0.11144,-0.11143 -0.22287,-0.22287 -0.33431,-0.3343 -0.11143,-0.11144 -0.20823,-0.23975 -0.3343,-0.33431 -0.0997,-0.0747 -0.23064,-0.098 -0.33431,-0.16715 -0.0656,-0.0437 -0.0924,-0.14223 -0.16715,-0.16715 -0.10572,-0.0352 -0.22859,0.0352 -0.3343,0 -0.0748,-0.0249 -0.11144,-0.11144 -0.16716,-0.16715 -0.16991,-0.16992 -0.2316,-0.26684 -0.50145,-0.33431 -0.16217,-0.0405 -0.33431,0 -0.50146,0 -0.33431,0 -0.66861,0 -1.00292,0 -0.0584,0 -0.9742,-0.0191 -1.00291,0 -0.13113,0.0874 -0.23342,0.21324 -0.3343,0.33431 -0.60477,0.72571 -0.53915,0.74398 -1.00292,1.67152 -0.12558,0.25116 -0.54303,1.08606 -0.66861,1.33722 -0.0557,0.11144 -0.12775,0.21611 -0.16715,0.3343 -0.0176,0.0529 0.0176,0.1143 0,0.16716 -0.40359,1.21075 0.0482,-0.26354 -0.33431,0.50145 -0.0249,0.0498 0.0176,0.1143 0,0.16716 -0.0394,0.11819 -0.12775,0.21611 -0.16715,0.3343 -0.0176,0.0529 0,0.11144 0,0.16715 0,0.11144 0,0.22287 0,0.33431 0,0.22287 0,0.44574 0,0.66861 0,0.27858 0,0.55717 0,0.83576 0,0.16715 0.0275,0.33658 0,0.50146 -0.029,0.17379 -0.13818,0.32766 -0.16715,0.50145 -0.0275,0.16488 0,0.33431 0,0.50146 0,0.16715 0,0.33431 0,0.50146 0,0.11143 0.0219,0.22503 0,0.3343 -0.0345,0.17278 -0.1326,0.32869 -0.16715,0.50146 -0.0119,0.0596 0.0372,0.59412 0,0.66861 -0.3825,0.76499 0.0693,-0.7093 -0.33431,0.50146 -0.0352,0.10571 0.0352,0.22858 0,0.3343 -0.0394,0.1182 -0.12775,0.21611 -0.16715,0.33431 -0.0352,0.10571 0.0352,0.22858 0,0.3343 -0.0394,0.1182 -0.12775,0.21611 -0.16715,0.33431 -0.0176,0.0529 0.0249,0.11731 0,0.16715 -0.3825,0.76499 0.0693,-0.7093 -0.33431,0.50146 -0.0352,0.10571 0.0352,0.22858 0,0.3343 -0.0394,0.11819 -0.12775,0.21611 -0.16715,0.3343 -0.0176,0.0529 0.0249,0.11732 0,0.16716 -0.0352,0.0705 -0.14223,0.0924 -0.16715,0.16715 -0.0352,0.10572 0.0352,0.22859 0,0.3343 -0.0498,0.14951 -0.28447,0.1848 -0.33431,0.33431 -0.0352,0.10572 0,0.22287 0,0.3343 0,0.0557 0.0249,0.11732 0,0.16716 -0.0352,0.0705 -0.11143,0.11143 -0.16715,0.16715 0,0.11143 0.0352,0.22859 0,0.3343 -0.0496,0.14878 -0.45186,0.35268 -0.50146,0.50146 -0.0352,0.10571 0.0618,0.24158 0,0.3343 -0.0691,0.10367 -0.2462,0.0791 -0.3343,0.16716 -0.0394,0.0394 0.0249,0.11731 0,0.16715 -0.0822,0.16448 -0.58637,0.50412 -0.66861,0.66861 -0.0249,0.0498 0.0394,0.12775 0,0.16715 -0.44574,0 0.0557,-0.0557 -0.16715,0.16715 -0.0394,0.0394 -0.14224,-0.0498 -0.16716,0 -0.0498,0.0997 0.0788,0.25551 0,0.33431 -0.0925,0.0925 -0.52425,-0.0481 -0.66861,0 -0.11819,0.0394 -0.21343,0.13693 -0.3343,0.16715 -0.14923,0.0373 -0.64228,0 -0.83576,0 -0.11144,0 -0.22859,-0.0352 -0.33431,0 -0.0747,0.0249 -0.0967,0.13191 -0.16715,0.16715 -0.13372,0.0669 -0.36773,-0.0669 -0.50146,0 -0.0498,0.0249 0.0394,0.12776 0,0.16715 -0.0313,0.0313 -0.76778,-0.0408 -0.83576,0 -0.23888,0.14334 -0.44574,0.33431 -0.66861,0.50146 z"
       style="fill:#ffffff;stroke:#000000;stroke-width:1px;stroke-linecap:butt;stroke-linejoin:miter;stroke-opacity:1" />
    <path
       inkscape:connector-curvature="0"
       id="path4824"
       d="m -229.5096,116.47961 c -0.50275,-0.30732 -0.98331,-0.0803 -1.50437,-0.16715 -0.17379,-0.029 -0.32766,-0.13819 -0.50146,-0.16716 -0.22442,-0.0374 -1.0837,0 -1.33721,0 -0.72433,0 -1.44866,0 -2.17299,0 -0.44574,0 -0.89147,0 -1.33721,0 -0.16716,0 -0.35196,-0.0747 -0.50146,0 -0.0498,0.0249 0.0249,0.11732 0,0.16716 -0.0352,0.0705 -0.10159,0.12344 -0.16715,0.16715 -0.10367,0.0691 -0.23065,0.098 -0.33431,0.16715 -0.19606,0.13071 -0.41191,0.55667 -0.50146,0.66861 -0.14767,0.18459 -0.3343,0.3343 -0.50145,0.50146 -0.11144,0.11143 -0.22287,0.22287 -0.33431,0.3343 -0.0557,0.0557 -0.12344,0.10159 -0.16715,0.16715 -0.0691,0.10367 -0.098,0.23064 -0.16715,0.33431 -0.0437,0.0656 -0.13192,0.0967 -0.16716,0.16715 -0.0498,0.0997 0.0788,0.25551 0,0.33431 -0.22286,0.22287 -0.16715,-0.27859 -0.16715,0.16715 0,0.42593 -0.19497,0.22279 -0.3343,0.50146 -0.0254,0.0509 0,0.42617 0,0.50145 0,0.44574 0,0.89148 0,1.33722 0,0.0557 0,0.11144 0,0.16715 0,0.0557 -0.0394,0.12776 0,0.16716 0.0394,0.0394 0.12775,-0.0394 0.16715,0 0.0394,0.0394 0,0.11143 0,0.16715 0.0557,0.0557 0.10159,0.12344 0.16715,0.16715 0.10367,0.0691 0.22747,0.10305 0.33431,0.16715 0.53884,0.32331 0.53256,0.42955 1.17006,0.66861 0.21511,0.0807 0.44772,0.10404 0.66861,0.16716 0.16942,0.0484 0.32869,0.13259 0.50146,0.16715 0.21854,0.0437 0.44574,0 0.66861,0 0.44574,0 0.89148,0 1.33722,0 1.17007,0 2.34013,0 3.5102,0 0.44574,0 0.89148,0 1.33722,0 0.16715,0 0.33755,-0.0328 0.50146,0 0.12216,0.0244 0.21343,0.13693 0.3343,0.16715 0.10811,0.027 0.22287,0 0.33431,0 0.11143,0 0.22287,0 0.3343,0 0.50146,0 1.00291,0 1.50437,0 0.1195,0 0.91735,0.0285 1.00292,0 0.0747,-0.0249 0.0967,-0.13191 0.16715,-0.16715 0.0498,-0.0249 0.11732,0.0249 0.16715,0 0.0557,-0.0557 0.11144,-0.11144 0.16715,-0.16715 0.0557,-0.0557 0.0967,-0.13192 0.16716,-0.16716 0.0498,-0.0249 0.12775,0.0394 0.16715,0 0.0881,-0.0881 0.098,-0.23064 0.16715,-0.3343 0.55437,-0.55438 -0.0788,0.15759 0.16715,-0.33431 0.0352,-0.0705 0.13192,-0.0967 0.16716,-0.16715 0.0187,-0.0375 0,-0.62889 0,-0.66861 0,-0.27859 0,-0.55717 0,-0.83576 0,-0.0557 0,-0.11144 0,-0.16715 0,-0.0557 0.0249,-0.11732 0,-0.16716 -0.0705,-0.14095 -0.26383,-0.19334 -0.33431,-0.3343 -0.0249,-0.0498 0.0394,-0.12775 0,-0.16715 -0.0394,-0.0394 -0.14223,0.0498 -0.16715,0 -0.0498,-0.0997 0.0498,-0.23464 0,-0.33431 -0.0249,-0.0498 -0.11732,0.0249 -0.16715,0 -0.14096,-0.0705 -0.20318,-0.24689 -0.33431,-0.3343 -0.10366,-0.0691 -0.23064,-0.098 -0.3343,-0.16715 -0.14424,-0.0962 -0.3709,-0.3709 -0.50146,-0.50146 -0.0557,-0.0557 -0.0967,-0.13192 -0.16715,-0.16715 -0.0498,-0.0249 -0.12776,0.0394 -0.16716,0 -0.0394,-0.0394 0.0394,-0.12776 0,-0.16716 -0.0788,-0.0788 -0.23463,0.0498 -0.3343,0 -0.14096,-0.0705 -0.1848,-0.28447 -0.33431,-0.3343 -0.10571,-0.0352 -0.22858,0.0352 -0.3343,0 -0.14951,-0.0498 -0.19335,-0.26383 -0.33431,-0.33431 -0.0997,-0.0498 -0.23463,0.0498 -0.3343,0 -0.0705,-0.0352 -0.0967,-0.13191 -0.16715,-0.16715 -0.0498,-0.0249 -0.12776,0.0394 -0.16715,0 -0.0394,-0.0394 0.0498,-0.14223 0,-0.16715 -0.071,-0.0355 -0.69569,0 -0.83577,0 -0.0557,0 -0.12775,0.0394 -0.16715,0 -0.0394,-0.0394 0,-0.11144 0,-0.16715 0,-0.34335 -0.0176,-0.1143 0.16715,-0.66861 z"
       style="fill:#ffffff;stroke:#000000;stroke-width:1px;stroke-linecap:butt;stroke-linejoin:miter;stroke-opacity:1" />
  </g>
</svg>
