
<svg xmlns="http://www.w3.org/2000/svg" version="1.1" xmlns:xlink="http://www.w3.org/1999/xlink" preserveAspectRatio="none" x="0px" y="0px" width="126px" height="150px" viewBox="0 0 126 150">
<defs>
<g id="Layer1_0_MEMBER_0_MEMBER_0_MEMBER_0_MEMBER_0_FILL">
<path fill="#000000" stroke="none" d="
M 98.5 18.05
Q 94.35 13.9 88.8 11.35 82.65 8.5 74.15 6.85
L 67.3 6.05 58.65 6.5
Q 52.4 6.1 47 7.8 41.35 9.55 34.7 13.6 29.25 16.9 24.6 22.95 22.1 26.25 20.95 28.45 19.4 31 17.55 36.3 14.2 46.4 13.8 59.05 13.9 59.6 9.6 63.7 5.4 67.9 5.4 68.3
L 8.7 67.95 12.65 67
Q 12 80.45 5.8 89.05 3 93.1 0.55 94.8 5.75 94.9 9.25 93.1 11.25 92.15 11.9 91.25 10.95 94.55 5.35 98.9
L 0.75 102.4
Q 5.2 103.05 9.8 101.85 14 100.75 17.35 98.3 18.8 106.75 21.25 113.4 24.55 122.7 29.35 126.15 29.85 126.55 29.75 124.85
L 29.55 122.6 32.05 125.3
Q 34.9 128.15 38.55 129.65
L 38.8 129.95 86 129.95 86.1 129.85
Q 89.65 128.25 92.4 124.85 94.3 122.05 94.35 122.3 94.6 123 94.2 124.75 93.7 127.15 93.7 127.85 97.05 125.6 99.55 122.05
L 101.3 118.9 101.85 120.9
Q 102.15 122.35 102.5 122.9 104.6 119.5 107.1 114.25 111.75 104.3 112.5 97.15 113.25 89.1 112.3 83.65 110.95 78.35 110.5 73.8 113 77.35 116.8 79.9 120.4 82.3 120.3 81.1
L 114.05 65.3
Q 112 59.05 111.3 51.3 109.65 40.65 108.8 37.2 107.3 31.5 103.95 25.5 101.35 20.9 98.5 18.05 Z"/>
</g>

<g id="Layer1_0_MEMBER_1_MEMBER_0_MEMBER_0_MEMBER_0_FILL">
<path fill="#D3D3D3" stroke="none" d="
M 97.85 63.5
L 98.05 51.95
Q 98.05 42.5 94.65 44.3 81.35 51.35 69.1 55.05 58.7 58.2 59.8 56.75
L 64.9 51.2
Q 68.85 46.8 67.1 47.75 55.05 54.95 40.6 59 32.9 61.1 28.5 61.6 27.8 69.55 27.7 73.5 27.7 77.25 28.1 81.5 28.5 84.9 29.75 88.4
L 31.25 93.25
Q 31.8 96.35 32.2 106.95 32.45 115.15 33.85 118.55 35.85 123.05 41.45 129.3
L 53.95 142.65
Q 58 146.45 61.95 146.45 64.65 146.45 68.25 143.75
L 73.3 139.35
Q 78.4 134.7 82.3 130.1 87.45 124.3 89.45 119.65 90.65 116.5 91.55 107.65 92.2 98.8 94.3 92.85 96.15 87.95 96.8 84.15
L 97.05 81.5
Q 97.6 76.8 97.85 63.5 Z"/>
</g>

<g id="Layer1_1_MEMBER_0_MEMBER_0_MEMBER_0_FILL">
<path fill="#D3D3D3" stroke="none" d="
M 97.75 46.95
Q 96.9 42.95 94.65 44.25 81.35 51.15 69.15 54.95 58.8 58.1 59.75 56.7
L 64.9 51.05
Q 68.8 46.6 67.15 47.7 49.3 58.2 28.45 61.5 27.7 70.15 27.7 73.45 27.7 75.95 28.1 81.45 28.5 85.05 29.75 88.35 31.1 92.25 31.25 93.2 31.9 96.95 32.15 104.2 32.3 110.95 32.75 114.35
L 32.9 115.5
Q 33.45 121.35 35.95 125.95 37.35 128.55 38.55 129.65
L 41.5 132.45 45 136.65
Q 50.7 143.25 54.45 146.1 58.4 149 62 149 65.35 149 70.4 145.15
L 76.8 139.65
Q 78.65 137.9 80.9 135.45
L 86.15 129.85
Q 86.95 129.15 87.9 126.85 89.65 122.7 90.65 115.5
L 90.9 114.35
Q 91.4 108.5 91.9 104.35 92.55 97.95 94.4 92.75 96.35 87.6 96.9 84
L 97.05 81.35
Q 97.7 76.2 98 63.35
L 98.05 51.85
Q 97.95 49.5 97.75 46.95 Z"/>
</g>

<g id="Layer0_0_FILL">
<path fill="#888888" stroke="none" d="
M 48.25 127.75
Q 47.3 127.9 47.45 129.1 47.55 130.15 48.25 130.25 48.95 130.35 52.4 129.6 56.6 128.8 61.7 128.55
L 61.75 128.55
Q 66.8705078125 128.80390625 71.05 129.6 74.5 130.35 75.15 130.25 75.85 130.2 76 129.1 76.15 127.9 75.15 127.75 71.7 127.1 66.5 126.95
L 61.75 126.9 61.7 126.9
Q 60.4 126.85 56.9 126.95 51.8 127.1 48.25 127.75
M 61.75 101.8
L 61.7 101.7 61.7 112.6 68.95 116.6 61.75 101.8
M 33.65 80.4
Q 31.55 82.8 31.05 84.9 32.35 83.3 34.7 81.75 39.6 78.6 45.35 78.6 49.5 78.55 54 81.5 56.25 83.05 57.5 84.45
L 56.55 85.9
Q 55.799609375 86.957421875 54.85 88 54.9392578125 88.13046875 55 88.25 55.45 89.25 56.65 95.15
L 57.95 101.25 58.2 94.4
Q 58.35 87.2 57.8 84.6 57.7 84.1 56.95 82.65 56.2 81.2 55.25 80 53.75 78.15 50.3 76.55 47 75.15 45.35 75.2 37.8 75.8 33.65 80.4
M 88.7 81.75
Q 91.080859375 83.3048828125 92.3 84.8 91.80625 82.75 89.75 80.4 85.6 75.8 78.1 75.2
L 78.05 75.2
Q 76.4 75.15 73.15 76.55 69.65 78.1 68.15 80 67.35 81 66.5 82.65 65.75 84 65.6 84.6 65.05 87.2 65.2 94.4
L 65.45 101.25 66.75 95.15
Q 68.1 88.95 68.4 88.25 68.468359375 88.115625 68.55 87.95 67.7474609375 87.0615234375 66.9 85.9
L 65.9 84.45
Q 67.35 82.9 69.4 81.5 73.9 78.55 78.1 78.6 83.9 78.6 88.7 81.75 Z"/>

<path fill="#6A6A6A" stroke="none" d="
M 70.1 117.25
L 68.95 116.6 61.7 112.6 53.3 117.25 61.7 121 61.75 120.95 70.1 117.25
M 18.75 78.9
L 13.85 80.7 14.1 85.45
Q 14.65 91.05 15.95 94.95
L 20.55 96.65
Q 20.7802734375 96.491796875 21 96.3 19.9134765625 89.9583984375 19.2 83.3 18.9580078125 81.081640625 18.75 78.9
M 31.05 84.9
L 32.25 86.15
Q 33.85 87.7 35.5 88.95 40.9 93.1 45.35 93.3 49.6 93.45 53.95 89 54.4267578125 88.507421875 54.85 88 55.799609375 86.957421875 56.55 85.9
L 57.5 84.45
Q 56.25 83.05 54 81.5 49.5 78.55 45.35 78.6 39.6 78.6 34.7 81.75 32.35 83.3 31.05 84.9
M 109.2 80.7
L 104.65 79.05
Q 104.4806640625 81.158203125 104.25 83.3 103.5931640625 89.4048828125 102.5 95.85
L 102.45 96.65 107.1 94.95
Q 108.45 90.75 108.95 85.45
L 109.2 80.7
M 87.9 88.95
Q 90.6 86.95 92.4 84.9 92.3646484375 84.85625 92.3 84.8 91.080859375 83.3048828125 88.7 81.75 83.9 78.6 78.1 78.6 73.9 78.55 69.4 81.5 67.35 82.9 65.9 84.45
L 66.9 85.9
Q 67.7474609375 87.0615234375 68.55 87.95 69.034765625 88.534765625 69.5 89 73.8 93.45 78.1 93.3 82.55 93.1 87.9 88.95 Z"/>

<path fill="#E4E4E4" stroke="none" d="
M 61.75 45.4
Q 57.3 45.4 53.15 45.25 41.3 45.1 30.75 44.15
L 21 42.9 21.05 42.8
Q 20.45390625 42.955078125 20.1 43.25 16.8740234375 57.562109375 18.75 78.9 18.9580078125 81.081640625 19.2 83.3 19.9134765625 89.9583984375 21 96.3 21.2890625 98.0017578125 21.6 99.65 22.7 105.95 23.5 108 25.45 113.75 35.75 125.65 46.25 137.8 52.5 141.15 53.65 141.8 57.9 142.05 59.9 142.15 61.75 142.05
L 61.75 128.55 61.7 128.55
Q 56.6 128.8 52.4 129.6 48.95 130.35 48.25 130.25 47.55 130.15 47.45 129.1 47.3 127.9 48.25 127.75 51.8 127.1 56.9 126.95 60.4 126.85 61.7 126.9
L 61.75 126.9 61.75 120.95 61.7 121 53.3 117.25 61.7 112.6 61.7 101.7 61.75 101.8 61.75 45.4
M 32.25 86.15
L 31.05 84.9
Q 31.55 82.8 33.65 80.4 37.8 75.8 45.35 75.2 47 75.15 50.3 76.55 53.75 78.15 55.25 80 56.2 81.2 56.95 82.65 57.7 84.1 57.8 84.6 58.35 87.2 58.2 94.4
L 57.95 101.25 56.65 95.15
Q 55.45 89.25 55 88.25 54.9392578125 88.13046875 54.85 88 54.4267578125 88.507421875 53.95 89 49.6 93.45 45.35 93.3 40.9 93.1 35.5 88.95 33.85 87.7 32.25 86.15 Z"/>

<path fill="#B4B4B4" stroke="none" d="
M 103.3 43.25
Q 102.9373046875 43.002734375 102.4 42.9 98.564453125 43.55859375 92.65 44.15 81.2 45.25 67.05 45.3
L 61.75 45.4 61.75 101.8 68.95 116.6 70.1 117.25 61.75 120.95 61.75 126.9 66.5 126.95
Q 71.7 127.1 75.15 127.75 76.15 127.9 76 129.1 75.85 130.2 75.15 130.25 74.5 130.35 71.05 129.6 66.8705078125 128.80390625 61.75 128.55
L 61.75 142.05 65.55 142.05
Q 69.8 141.8 71 141.15 77.2 137.75 87.65 125.65 97.95 113.75 99.9 108 100.55 106.35 101.8 99.65 102.163671875 97.7298828125 102.5 95.85 103.5931640625 89.4048828125 104.25 83.3 104.4806640625 81.158203125 104.65 79.05 106.5865234375 57.3548828125 103.3 43.25
M 92.4 84.9
Q 90.6 86.95 87.9 88.95 82.55 93.1 78.1 93.3 73.8 93.45 69.5 89 69.034765625 88.534765625 68.55 87.95 68.468359375 88.115625 68.4 88.25 68.1 88.95 66.75 95.15
L 65.45 101.25 65.2 94.4
Q 65.05 87.2 65.6 84.6 65.75 84 66.5 82.65 67.35 81 68.15 80 69.65 78.1 73.15 76.55 76.4 75.15 78.05 75.2
L 78.1 75.2
Q 85.6 75.8 89.75 80.4 91.80625 82.75 92.3 84.8 92.3646484375 84.85625 92.4 84.9 Z"/>

<path fill="#7D7D7D" stroke="none" d="
M 97 40.95
Q 92.6 41.5 86.15 42 75.75 42.7 67.05 42.55
L 61.75 42.45
Q 57.05 42.6 53.15 42.55 46 42.55 37.3 42
L 26.45 40.95
Q 23.75 40.8 21.85 42.25
L 21.05 42.8 21 42.9 30.75 44.15
Q 41.3 45.1 53.15 45.25 57.3 45.4 61.75 45.4
L 67.05 45.3
Q 81.2 45.25 92.65 44.15 98.564453125 43.55859375 102.4 42.9 102.4451171875 42.9091796875 102.5 42.9
L 101.55 42.25
Q 99.6 40.8 97 40.95 Z"/>
</g>
</defs>

<g transform="matrix( 1, 0, 0, 1, 0,0) ">
<use xlink:href="#Layer1_0_MEMBER_0_MEMBER_0_MEMBER_0_MEMBER_0_FILL"/>
</g>

<g transform="matrix( 1, 0, 0, 1, 0,0) ">
<use xlink:href="#Layer1_0_MEMBER_1_MEMBER_0_MEMBER_0_MEMBER_0_FILL"/>
</g>

<g transform="matrix( 1, 0, 0, 1, 0,0) ">
<use xlink:href="#Layer1_1_MEMBER_0_MEMBER_0_MEMBER_0_FILL"/>
</g>

<g transform="matrix( 1, 0, 0, 1, 0.5,0) ">
<use xlink:href="#Layer0_0_FILL"/>
</g>
</svg>
