
<svg xmlns="http://www.w3.org/2000/svg" version="1.1" xmlns:xlink="http://www.w3.org/1999/xlink" preserveAspectRatio="none" x="0px" y="0px" width="70px" height="140px" viewBox="0 0 70 140">
<defs>
<g id="Layer0_0_MEMBER_0_MEMBER_0_MEMBER_0_FILL">
<path fill="#FFFFFF" stroke="none" d="
M 48.7 29.9
Q 47.75 29.25 47.15 29.25
L 44.25 29.25 44.25 23.9
Q 44.25 20.55 41.65 17.75 38.8 14.9 34.75 14.75 31.2 14.75 28 17.65 25.25 20.7 25.25 23.9
L 25.25 29.25 22.7 29.25
Q 22.05 29.25 21 29.9 20.45 30.5 20.45 31.5
L 20.45 48.8
Q 20.45 50.25 21 50.5 21.75 51.1 22.7 51.1
L 47.15 51.1
Q 48.05 51.1 48.7 50.5 49.45 50.05 49.45 48.8
L 49.45 31.65
Q 49.45 30.8 48.7 29.9
M 40.75 24
L 40.75 29.4 28.75 29.4 28.75 24
Q 28.75 22 30.45 20.3 32.05 18.4 34.75 18.4 37.4 18.4 39.2 20.3 40.75 22.15 40.75 24 Z"/>
</g>

<g id="Layer0_1_MEMBER_0_MEMBER_0_MEMBER_0_MEMBER_0_FILL">
<path fill="#7B7B7B" fill-opacity="0.49019607843137253" stroke="none" d="
M 9.25 123.85
L 9.25 124 9.5 124 9.5 123.85 9.25 123.85 Z"/>
</g>

<g id="Layer0_1_MEMBER_1_MEMBER_0_MEMBER_0_MEMBER_0_FILL">
<path fill="#A1A1A1" fill-opacity="0.6392156862745098" stroke="none" d="
M 9.5 124
L 9.6 124 9.6 123.85 9.5 123.85 9.5 124
M 60.15 124
L 60.45 124 60.45 123.85 60.15 123.85 60.15 124 Z"/>
</g>

<g id="Layer0_1_MEMBER_2_MEMBER_0_MEMBER_0_MEMBER_0_FILL">
<path fill="#AFAFAF" fill-opacity="0.6941176470588235" stroke="none" d="
M 9.85 124
L 9.85 123.85 9.6 123.85 9.6 124 9.85 124
M 58.25 102.4
L 58.6 102.4 58.6 102.3 58.25 102.3 58.25 102.4 Z"/>
</g>

<g id="Layer0_1_MEMBER_3_MEMBER_0_MEMBER_0_MEMBER_0_FILL">
<path fill="#444444" fill-opacity="0.27450980392156865" stroke="none" d="
M 9.25 123.85
L 9.15 123.85 9.15 124 9.25 124 9.25 123.85
M 60.45 124
L 60.8 124 60.8 123.85 60.45 123.85 60.45 124 Z"/>
</g>

<g id="Layer0_1_MEMBER_4_MEMBER_0_MEMBER_0_MEMBER_0_FILL">
<path fill="#171717" fill-opacity="0.09803921568627451" stroke="none" d="
M 9.15 124
L 9.15 123.85 8.95 123.85 8.95 124 9.15 124
M 60.95 124
L 60.95 123.85 60.8 123.85 60.8 124 60.95 124
M 51.7 88
L 51.7 88.1 51.85 88.1 51.85 88 51.7 88
M 18.25 88.1
L 18.25 88 18.05 88 18.05 88.1 18.25 88.1 Z"/>
</g>

<g id="Layer0_1_MEMBER_5_MEMBER_0_MEMBER_0_MEMBER_0_FILL">
<path fill="#707070" fill-opacity="0.4470588235294118" stroke="none" d="
M 8.95 123.85
L 8.95 123.75 8.6 123.75 8.6 123.85 8.95 123.85 Z"/>
</g>

<g id="Layer0_1_MEMBER_6_MEMBER_0_MEMBER_0_MEMBER_0_FILL">
<path fill="#0D0D0D" fill-opacity="0.058823529411764705" stroke="none" d="
M 61.3 123.85
L 61.3 123.75 61.1 123.75 61.1 123.85 61.3 123.85
M 17.3 85.75
L 17.3 85.65 17.15 85.65 17.15 85.75 17.3 85.75 Z"/>
</g>

<g id="Layer0_1_MEMBER_7_MEMBER_0_MEMBER_0_MEMBER_0_FILL">
<path fill="#767676" fill-opacity="0.47058823529411764" stroke="none" d="
M 61.3 123.75
L 61.3 123.5 61.1 123.5 61.1 123.75 61.3 123.75
M 61.3 98.85
L 61.1 98.85 61.1 99 61.3 99 61.3 98.85 Z"/>
</g>

<g id="Layer0_1_MEMBER_8_MEMBER_0_MEMBER_0_MEMBER_0_FILL">
<path fill="#2E2E2E" fill-opacity="0.18823529411764706" stroke="none" d="
M 8.6 123.25
L 8.35 123.25 8.35 123.5 8.6 123.5 8.6 123.25
M 61.4 123.25
L 61.3 123.25 61.3 123.5 61.4 123.5 61.4 123.25 Z"/>
</g>

<g id="Layer0_1_MEMBER_9_MEMBER_0_MEMBER_0_MEMBER_0_FILL">
<path fill="#898989" fill-opacity="0.5450980392156862" stroke="none" d="
M 11.65 105.9
L 11.45 105.9 11.45 106.1 11.65 106.1 11.65 105.9 Z"/>
</g>

<g id="Layer0_1_MEMBER_10_MEMBER_0_MEMBER_0_MEMBER_0_FILL">
<path fill="#F7F7F7" fill-opacity="0.9764705882352941" stroke="none" d="
M 20.15 102.65
L 20.15 102.4 20 102.4 20 102.65 20.15 102.65
M 8.6 123
L 8.35 123 8.35 123.2 8.6 123.2 8.6 123
M 49.95 102.4
L 49.8 102.4 49.8 102.65 49.95 102.65 49.95 102.4
M 61.3 123.2
L 61.4 123.2 61.4 123 61.3 123 61.3 123.2 Z"/>
</g>

<g id="Layer0_1_MEMBER_11_MEMBER_0_MEMBER_0_MEMBER_0_FILL">
<path fill="#515151" fill-opacity="0.3254901960784314" stroke="none" d="
M 8.35 117.6
L 8.6 117.6 8.6 117.45 8.35 117.45 8.35 117.6
M 61.4 117.45
L 61.3 117.45 61.3 117.6 61.4 117.6 61.4 117.45 Z"/>
</g>

<g id="Layer0_1_MEMBER_12_MEMBER_0_MEMBER_0_MEMBER_0_FILL">
<path fill="#BCBCBC" fill-opacity="0.7450980392156863" stroke="none" d="
M 14.8 110.2
L 14.6 110.2 14.6 110.35 14.8 110.35 14.8 110.2
M 8.35 117.6
L 8.35 117.85 8.6 117.85 8.6 117.6 8.35 117.6
M 61.4 117.6
L 61.3 117.6 61.3 117.85 61.4 117.85 61.4 117.6
M 55.3 110.35
L 55.3 110.2 55.15 110.2 55.15 110.35 55.3 110.35 Z"/>
</g>

<g id="Layer0_1_MEMBER_13_MEMBER_0_MEMBER_0_MEMBER_0_FILL">
<path fill="#101010" fill-opacity="0.07058823529411765" stroke="none" d="
M 8.6 117.45
L 8.6 117.3 8.35 117.3 8.35 117.45 8.6 117.45 Z"/>
</g>

<g id="Layer0_1_MEMBER_14_MEMBER_0_MEMBER_0_MEMBER_0_FILL">
<path fill="#DFDFDF" fill-opacity="0.8823529411764706" stroke="none" d="
M 14.8 110.05
L 14.8 110.2 14.95 110.2 14.95 110.05 14.8 110.05
M 12.25 101.8
L 12.25 102 12.4 102 12.4 101.8 12.25 101.8
M 18.9 101.8
L 18.7 101.8 18.7 102 18.9 102 18.9 101.8
M 55.15 110.05
L 54.8 110.05 54.8 110.2 55.15 110.2 55.15 110.05
M 57.6 101.8
L 57.5 101.8 57.5 102 57.6 102 57.6 101.8
M 61.3 117.45
L 61.3 117.3 61.1 117.3 61.1 117.45 61.3 117.45 Z"/>
</g>

<g id="Layer0_1_MEMBER_15_MEMBER_0_MEMBER_0_MEMBER_0_FILL">
<path fill="#292929" fill-opacity="0.16862745098039217" stroke="none" d="
M 61.3 117.1
L 61.1 117.1 61.1 117.3 61.3 117.3 61.3 117.1 Z"/>
</g>

<g id="Layer0_1_MEMBER_16_MEMBER_0_MEMBER_0_MEMBER_0_FILL">
<path fill="#141414" fill-opacity="0.08627450980392157" stroke="none" d="
M 8.6 117.1
L 8.95 117.1 8.95 116.95 8.6 116.95 8.6 117.1
M 60.95 117.1
L 61.1 117.1 61.1 116.95 60.95 116.95 60.95 117.1
M 53.85 92.65
L 53.75 92.65 53.75 92.85 53.85 92.85 53.85 92.65
M 16.15 92.65
L 16 92.65 16 92.85 16.15 92.85 16.15 92.65 Z"/>
</g>

<g id="Layer0_1_MEMBER_17_MEMBER_0_MEMBER_0_MEMBER_0_FILL">
<path fill="#6C6C6C" fill-opacity="0.43137254901960786" stroke="none" d="
M 14.5 110.8
L 14.6 110.8 14.6 110.65 14.5 110.65 14.5 110.8
M 8.95 116.95
L 8.95 117.1 9.15 117.1 9.15 116.95 8.95 116.95
M 55.3 110.8
L 55.45 110.8 55.45 110.65 55.3 110.65 55.3 110.8
M 60.95 117.1
L 60.95 116.95 60.8 116.95 60.8 117.1 60.95 117.1 Z"/>
</g>

<g id="Layer0_1_MEMBER_18_MEMBER_0_MEMBER_0_MEMBER_0_FILL">
<path fill="#6B6B6B" fill-opacity="0.42745098039215684" stroke="none" d="
M 14.5 111.9
L 14.6 111.9 14.6 111.75 14.5 111.75 14.5 111.9
M 17.15 124
L 17.3 124 17.3 123.85 17.15 123.85 17.15 124
M 55.45 111.9
L 55.45 111.75 55.3 111.75 55.3 111.9 55.45 111.9 Z"/>
</g>

<g id="Layer0_1_MEMBER_19_MEMBER_0_MEMBER_0_MEMBER_0_FILL">
<path fill="#343434" fill-opacity="0.21176470588235294" stroke="none" d="
M 12.25 102.1
L 12.4 102.1 12.4 102 12.25 102 12.25 102.1
M 17.3 124
L 17.55 124 17.55 123.85 17.3 123.85 17.3 124
M 52.25 123.85
L 52.25 124 52.55 124 52.55 123.85 52.25 123.85
M 56.05 96.35
L 56.3 96.35 56.3 96.1 56.05 96.1 56.05 96.35
M 13.5 96.1
L 13.5 96.35 13.8 96.35 13.8 96.1 13.5 96.1 Z"/>
</g>

<g id="Layer0_1_MEMBER_20_MEMBER_0_MEMBER_0_MEMBER_0_FILL">
<path fill="#0E0E0E" fill-opacity="0.06274509803921569" stroke="none" d="
M 17.8 123.85
L 17.55 123.85 17.55 124 17.8 124 17.8 123.85
M 52.25 123.85
L 52.15 123.85 52.15 124 52.25 124 52.25 123.85
M 54.5 90.45
L 54.75 90.45 54.75 90.25 54.5 90.25 54.5 90.45
M 55.7 94.55
L 55.6 94.55 55.6 94.75 55.7 94.75 55.7 94.55
M 13.35 96.35
L 13.5 96.35 13.5 96.1 13.35 96.1 13.35 96.35
M 14.3 94.75
L 14.3 94.55 14.1 94.55 14.1 94.75 14.3 94.75
M 15.25 90.45
L 15.25 90.25 15.15 90.25 15.15 90.45 15.25 90.45
M 9.9 98.2
L 10.1 98.2 10.1 98 9.9 98 9.9 98.2 Z"/>
</g>

<g id="Layer0_1_MEMBER_21_MEMBER_0_MEMBER_0_MEMBER_0_FILL">
<path fill="#999999" fill-opacity="0.6078431372549019" stroke="none" d="
M 17.15 123.85
L 17.05 123.85 17.05 124 17.15 124 17.15 123.85
M 52.85 124
L 52.85 123.85 52.6 123.85 52.6 124 52.85 124 Z"/>
</g>

<g id="Layer0_1_MEMBER_22_MEMBER_0_MEMBER_0_MEMBER_0_FILL">
<path fill="#B0B0B0" fill-opacity="0.6980392156862745" stroke="none" d="
M 11.35 105.75
L 11.35 105.55 11.15 105.55 11.15 105.75 11.35 105.75
M 9.85 124
L 16.8 124 16.8 123.85 9.85 123.85 9.85 124
M 60.1 123.85
L 52.9 123.85 52.9 124 60.1 124 60.1 123.85 Z"/>
</g>

<g id="Layer0_1_MEMBER_23_MEMBER_0_MEMBER_0_MEMBER_0_FILL">
<path fill="#ADADAD" fill-opacity="0.6862745098039216" stroke="none" d="
M 17.05 123.85
L 16.8 123.85 16.8 124 17.05 124 17.05 123.85 Z"/>
</g>

<g id="Layer0_1_MEMBER_24_MEMBER_0_MEMBER_0_MEMBER_0_FILL">
<path fill="#3D3D3D" fill-opacity="0.24705882352941178" stroke="none" d="
M 52.15 123.85
L 52.15 123.75 51.95 123.75 51.95 123.85 52.15 123.85
M 58.9 97.75
L 58.9 97.45 58.6 97.45 58.6 97.75 58.9 97.75
M 11.15 97.75
L 11.15 97.45 11.05 97.45 11.05 97.75 11.15 97.75 Z"/>
</g>

<g id="Layer0_1_MEMBER_25_MEMBER_0_MEMBER_0_MEMBER_0_FILL">
<path fill="#C7C7C7" fill-opacity="0.788235294117647" stroke="none" d="
M 17.3 117.1
L 17.55 117.1 17.55 116.95 17.3 116.95 17.3 117.1
M 17.9 123.5
L 18.05 123.5 18.05 123.25 17.9 123.25 17.9 123.5
M 52.25 116.95
L 52.25 117.1 52.55 117.1 52.55 116.95 52.25 116.95
M 51.85 123.25
L 51.85 123.5 51.95 123.5 51.95 123.25 51.85 123.25 Z"/>
</g>

<g id="Layer0_1_MEMBER_26_MEMBER_0_MEMBER_0_MEMBER_0_FILL">
<path fill="#2F2F2F" fill-opacity="0.19215686274509805" stroke="none" d="
M 11.9 106.1
L 11.9 105.9 11.65 105.9 11.65 106.1 11.9 106.1
M 17.9 123.75
L 18.05 123.75 18.05 123.5 17.9 123.5 17.9 123.75
M 58.2 105.9
L 57.95 105.9 57.95 106.1 58.2 106.1 58.2 105.9
M 51.85 123.5
L 51.85 123.75 51.95 123.75 51.95 123.5 51.85 123.5 Z"/>
</g>

<g id="Layer0_1_MEMBER_27_MEMBER_0_MEMBER_0_MEMBER_0_FILL">
<path fill="#565656" fill-opacity="0.34509803921568627" stroke="none" d="
M 18.05 117.3
L 17.9 117.3 17.9 117.45 18.05 117.45 18.05 117.3 Z"/>
</g>

<g id="Layer0_1_MEMBER_28_MEMBER_0_MEMBER_0_MEMBER_0_FILL">
<path fill="#0A0A0A" fill-opacity="0.047058823529411764" stroke="none" d="
M 12.6 102.1
L 12.6 102 12.4 102 12.4 102.1 12.6 102.1
M 18.05 117.1
L 17.9 117.1 17.9 117.3 18.05 117.3 18.05 117.1
M 57.5 102
L 57.35 102 57.35 102.1 57.5 102.1 57.5 102
M 51.85 117.3
L 51.95 117.3 51.95 117.1 51.85 117.1 51.85 117.3
M 55.45 92.05
L 55.45 91.8 55.3 91.8 55.3 92.05 55.45 92.05
M 53.75 92.55
L 53.75 92.35 53.55 92.35 53.55 92.55 53.75 92.55
M 53.25 87.2
L 53.25 87.3 53.4 87.3 53.4 87.2 53.25 87.2
M 51.35 82.65
L 51.05 82.65 51.05 82.9 51.35 82.9 51.35 82.65
M 14.6 91.8
L 14.5 91.8 14.5 92.05 14.6 92.05 14.6 91.8
M 16.15 92.35
L 16.15 92.55 16.4 92.55 16.4 92.35 16.15 92.35
M 16.7 87.2
L 16.5 87.2 16.5 87.3 16.7 87.3 16.7 87.2
M 18.6 82.65
L 18.6 82.9 18.7 82.9 18.7 82.65 18.6 82.65
M 18.7 82.45
L 18.9 82.45 18.9 82.3 18.7 82.3 18.7 82.45 Z"/>
</g>

<g id="Layer0_1_MEMBER_29_MEMBER_0_MEMBER_0_MEMBER_0_FILL">
<path fill="#FEFEFF" stroke="none" d="
M 8.35 123
L 8.6 123 8.6 123.75 8.95 123.75 8.95 123.85 17.8 123.85 17.8 123.75 17.9 123.75 17.9 123.25 18.05 123.25 18.05 117.45 17.9 117.45 17.9 117.3 17.8 117.3 17.8 117.1 17.3 117.1 17.3 116.95 9.15 116.95 9.15 117.1 8.6 117.1 8.6 117.85 8.35 117.85 8.35 123 Z"/>
</g>

<g id="Layer0_1_MEMBER_30_MEMBER_0_MEMBER_0_MEMBER_0_FILL">
<path fill="#838383" fill-opacity="0.5215686274509804" stroke="none" d="
M 17.8 117.3
L 17.9 117.3 17.9 117.1 17.8 117.1 17.8 117.3
M 11.15 103.55
L 11.15 103.4 11.05 103.4 11.05 103.55 11.15 103.55
M 58.6 103.4
L 58.6 103.55 58.9 103.55 58.9 103.4 58.6 103.4
M 52.15 117.3
L 52.15 117.1 51.95 117.1 51.95 117.3 52.15 117.3
M 52.55 85.45
L 52.25 85.45 52.25 85.65 52.55 85.65 52.55 85.45
M 59.75 98.2
L 59.75 98 59.5 98 59.5 98.2 59.75 98.2
M 17.55 85.45
L 17.3 85.45 17.3 85.65 17.55 85.65 17.55 85.45 Z"/>
</g>

<g id="Layer0_1_MEMBER_31_MEMBER_0_MEMBER_0_MEMBER_0_FILL">
<path fill="#3E3E3E" fill-opacity="0.25098039215686274" stroke="none" d="
M 17.55 117.1
L 17.8 117.1 17.8 116.95 17.55 116.95 17.55 117.1
M 52.15 117.1
L 52.25 117.1 52.25 116.95 52.15 116.95 52.15 117.1 Z"/>
</g>

<g id="Layer0_1_MEMBER_32_MEMBER_0_MEMBER_0_MEMBER_0_FILL">
<path fill="#060606" fill-opacity="0.03137254901960784" stroke="none" d="
M 17.8 116.95
L 17.8 117.1 17.9 117.1 17.9 116.95 17.8 116.95
M 8 99.15
L 8.25 99.15 8.25 99 8 99 8 99.15
M 19.8 102.8
L 19.8 102.65 19.65 102.65 19.65 102.8 19.8 102.8
M 11.45 102.65
L 11.35 102.65 11.35 102.8 11.45 102.8 11.45 102.65
M 51.95 116.95
L 51.95 117.1 52.15 117.1 52.15 116.95 51.95 116.95
M 50.25 102.8
L 50.25 102.65 50.05 102.65 50.05 102.8 50.25 102.8
M 58.6 102.8
L 58.6 102.65 58.25 102.65 58.25 102.8 58.6 102.8
M 52.15 89.1
L 52.15 88.9 51.95 88.9 51.95 89.1 52.15 89.1
M 17.9 88.9
L 17.8 88.9 17.8 89.1 17.9 89.1 17.9 88.9 Z"/>
</g>

<g id="Layer0_1_MEMBER_33_MEMBER_0_MEMBER_0_MEMBER_0_FILL">
<path fill="#FFFEFF" stroke="none" d="
M 60.8 117.1
L 60.8 116.95 52.55 116.95 52.55 117.1 52.15 117.1 52.15 117.3 51.95 117.3 51.95 117.45 51.85 117.45 51.85 123.25 51.95 123.25 51.95 123.75 52.15 123.75 52.15 123.85 60.95 123.85 60.95 123.75 61.1 123.75 61.1 123.5 61.3 123.5 61.3 123 61.4 123 61.4 117.85 61.3 117.85 61.3 117.45 61.1 117.45 61.1 117.1 60.8 117.1 Z"/>
</g>

<g id="Layer0_1_MEMBER_34_MEMBER_0_MEMBER_0_MEMBER_0_FILL">
<path fill="#070707" fill-opacity="0.03529411764705882" stroke="none" d="
M 7.05 115.3
L 7.25 115.3 7.25 115.2 7.05 115.2 7.05 115.3
M 62.85 115.3
L 62.85 115.2 62.7 115.2 62.7 115.3 62.85 115.3
M 57.35 96.75
L 57.5 96.75 57.5 96.65 57.35 96.65 57.35 96.75
M 51.85 83.7
L 51.7 83.7 51.7 83.85 51.85 83.85 51.85 83.7
M 51.95 84.25
L 51.95 84 51.85 84 51.85 84.25 51.95 84.25
M 52.15 84.55
L 52.15 84.35 51.95 84.35 51.95 84.55 52.15 84.55
M 12.4 96.65
L 12.4 96.75 12.6 96.75 12.6 96.65 12.4 96.65
M 19.25 85.75
L 19.05 85.75 19.05 85.9 19.25 85.9 19.25 85.75
M 17.8 84.35
L 17.8 84.55 17.9 84.55 17.9 84.35 17.8 84.35
M 18.25 83.7
L 18.05 83.7 18.05 83.85 18.25 83.85 18.25 83.7
M 18.05 84.25
L 18.05 84 17.9 84 17.9 84.25 18.05 84.25 Z"/>
</g>

<g id="Layer0_1_MEMBER_35_MEMBER_0_MEMBER_0_MEMBER_0_FILL">
<path fill="#1F1F1F" fill-opacity="0.12941176470588237" stroke="none" d="
M 7.6 115.55
L 7.6 115.3 7.35 115.3 7.35 115.55 7.6 115.55
M 62.5 115.55
L 62.5 115.3 62.35 115.3 62.35 115.55 62.5 115.55 Z"/>
</g>

<g id="Layer0_1_MEMBER_36_MEMBER_0_MEMBER_0_MEMBER_0_FILL">
<path fill="#404040" fill-opacity="0.25882352941176473" stroke="none" d="
M 7.05 115.2
L 7.25 115.2 7.25 115.05 7.05 115.05 7.05 115.2
M 62.7 115.2
L 62.85 115.2 62.85 115.05 62.7 115.05 62.7 115.2 Z"/>
</g>

<g id="Layer0_1_MEMBER_37_MEMBER_0_MEMBER_0_MEMBER_0_FILL">
<path fill="#FAFAFA" fill-opacity="0.9882352941176471" stroke="none" d="
M 14.3 111.75
L 14.1 111.75 14.1 111.9 14.3 111.9 14.3 111.75
M 7.35 115.3
L 7.6 115.3 7.6 115.2 7.35 115.2 7.35 115.3
M 14.3 110.8
L 14.3 110.65 14.1 110.65 14.1 110.8 14.3 110.8
M 55.6 110.8
L 55.7 110.8 55.7 110.65 55.6 110.65 55.6 110.8
M 55.7 111.9
L 55.7 111.75 55.6 111.75 55.6 111.9 55.7 111.9
M 62.5 115.2
L 62.35 115.2 62.35 115.3 62.5 115.3 62.5 115.2
M 51.35 87.2
L 51.5 87.2 51.5 87 51.35 87 51.35 87.2
M 18.4 87.2
L 18.6 87.2 18.6 87 18.4 87 18.4 87.2 Z"/>
</g>

<g id="Layer0_1_MEMBER_38_MEMBER_0_MEMBER_0_MEMBER_0_FILL">
<path fill="#484848" fill-opacity="0.2901960784313726" stroke="none" d="
M 11.15 103.05
L 11.35 103.05 11.35 102.8 11.15 102.8 11.15 103.05
M 7.6 115.55
L 7.7 115.55 7.7 115.3 7.6 115.3 7.6 115.55
M 62.35 115.55
L 62.35 115.3 62.05 115.3 62.05 115.55 62.35 115.55
M 51.7 83.85
L 51.7 84 51.85 84 51.85 83.85 51.7 83.85
M 18.05 84
L 18.25 84 18.25 83.85 18.05 83.85 18.05 84 Z"/>
</g>

<g id="Layer0_1_MEMBER_39_MEMBER_0_MEMBER_0_MEMBER_0_FILL">
<path fill="#424242" fill-opacity="0.26666666666666666" stroke="none" d="
M 62 115.55
L 62 115.3 61.7 115.3 61.7 115.55 62 115.55 Z"/>
</g>

<g id="Layer0_1_MEMBER_40_MEMBER_0_MEMBER_0_MEMBER_0_FILL">
<path fill="#5A5A5A" fill-opacity="0.3607843137254902" stroke="none" d="
M 11.35 102.65
L 11.45 102.65 11.45 102.4 11.35 102.4 11.35 102.65
M 7.95 115.55
L 7.95 115.3 7.7 115.3 7.7 115.55 7.95 115.55
M 58.25 102.4
L 58.25 102.65 58.6 102.65 58.6 102.4 58.25 102.4 Z"/>
</g>

<g id="Layer0_1_MEMBER_41_MEMBER_0_MEMBER_0_MEMBER_0_FILL">
<path fill="#1B1B1B" fill-opacity="0.11372549019607843" stroke="none" d="
M 8.25 115.55
L 8.25 115.3 8 115.3 8 115.55 8.25 115.55
M 56 94.55
L 56 94.45 55.7 94.45 55.7 94.55 56 94.55
M 14.1 94.55
L 14.1 94.45 13.85 94.45 13.85 94.55 14.1 94.55 Z"/>
</g>

<g id="Layer0_1_MEMBER_42_MEMBER_0_MEMBER_0_MEMBER_0_FILL">
<path fill="#D7D7D7" fill-opacity="0.8509803921568627" stroke="none" d="
M 7.25 115.05
L 7.25 114.9 7.05 114.9 7.05 115.05 7.25 115.05
M 62.85 115.05
L 62.85 114.9 62.7 114.9 62.7 115.05 62.85 115.05 Z"/>
</g>

<g id="Layer0_1_MEMBER_43_MEMBER_0_MEMBER_0_MEMBER_0_FILL">
<path fill="#C9C9C9" fill-opacity="0.796078431372549" stroke="none" d="
M 7.25 100.45
L 7.25 100.2 7.05 100.2 7.05 100.45 7.25 100.45
M 62.85 100.45
L 62.85 100.2 62.7 100.2 62.7 100.45 62.85 100.45 Z"/>
</g>

<g id="Layer0_1_MEMBER_44_MEMBER_0_MEMBER_0_MEMBER_0_FILL">
<path fill="#1A1A1A" fill-opacity="0.10980392156862745" stroke="none" d="
M 7.25 99.9
L 7.05 99.9 7.05 100.1 7.25 100.1 7.25 99.9
M 62.7 100.1
L 62.85 100.1 62.85 99.9 62.7 99.9 62.7 100.1 Z"/>
</g>

<g id="Layer0_1_MEMBER_45_MEMBER_0_MEMBER_0_MEMBER_0_FILL">
<path fill="#616161" fill-opacity="0.38823529411764707" stroke="none" d="
M 11.9 102.3
L 11.9 102.1 11.65 102.1 11.65 102.3 11.9 102.3
M 7.25 100.1
L 7.05 100.1 7.05 100.2 7.25 100.2 7.25 100.1
M 58.2 102.3
L 58.2 102.1 57.95 102.1 57.95 102.3 58.2 102.3
M 62.7 100.1
L 62.7 100.2 62.85 100.2 62.85 100.1 62.7 100.1 Z"/>
</g>

<g id="Layer0_1_MEMBER_46_MEMBER_0_MEMBER_0_MEMBER_0_FILL">
<path fill="#505050" fill-opacity="0.3215686274509804" stroke="none" d="
M 14.8 112.2
L 14.8 111.9 14.6 111.9 14.6 112.2 14.8 112.2
M 7.35 99.6
L 7.35 99.8 7.6 99.8 7.6 99.6 7.35 99.6
M 55.3 111.9
L 55.15 111.9 55.15 112.2 55.3 112.2 55.3 111.9
M 62.5 99.8
L 62.5 99.6 62.35 99.6 62.35 99.8 62.5 99.8
M 61.65 99
L 61.4 99 61.4 99.15 61.65 99.15 61.65 99 Z"/>
</g>

<g id="Layer0_1_MEMBER_47_MEMBER_0_MEMBER_0_MEMBER_0_FILL">
<path fill="#272727" fill-opacity="0.1607843137254902" stroke="none" d="
M 7.6 99.6
L 7.7 99.6 7.7 99.35 7.6 99.35 7.6 99.6
M 62.05 99.6
L 62.35 99.6 62.35 99.35 62.05 99.35 62.05 99.6
M 55.15 91.1
L 54.8 91.1 54.8 91.3 55.15 91.3 55.15 91.1
M 55.6 92.65
L 55.6 92.85 55.7 92.85 55.7 92.65 55.6 92.65
M 14.8 91.3
L 14.95 91.3 14.95 91.1 14.8 91.1 14.8 91.3
M 14.1 92.85
L 14.3 92.85 14.3 92.65 14.1 92.65 14.1 92.85 Z"/>
</g>

<g id="Layer0_1_MEMBER_48_MEMBER_0_MEMBER_0_MEMBER_0_FILL">
<path fill="#E0E0E0" fill-opacity="0.8862745098039215" stroke="none" d="
M 20 105.75
L 19.8 105.75 19.8 105.9 20 105.9 20 105.75
M 7.7 99.35
L 7.7 99.6 7.95 99.6 7.95 99.35 7.7 99.35 Z"/>
</g>

<g id="Layer0_1_MEMBER_49_MEMBER_0_MEMBER_0_MEMBER_0_FILL">
<path fill="#303030" fill-opacity="0.19607843137254902" stroke="none" d="
M 19.8 105.75
L 19.8 105.55 19.65 105.55 19.65 105.75 19.8 105.75
M 50.05 105.75
L 50.25 105.75 50.25 105.55 50.05 105.55 50.05 105.75
M 62 99.35
L 62 99.15 61.7 99.15 61.7 99.35 62 99.35 Z"/>
</g>

<g id="Layer0_1_MEMBER_50_MEMBER_0_MEMBER_0_MEMBER_0_FILL">
<path fill="#0C0C0C" fill-opacity="0.054901960784313725" stroke="none" d="
M 57.2 96.45
L 57 96.45 57 96.65 57.2 96.65 57.2 96.45
M 61.4 98.85
L 61.3 98.85 61.3 99 61.4 99 61.4 98.85
M 12.7 96.65
L 12.95 96.65 12.95 96.45 12.7 96.45 12.7 96.65
M 8.6 98.85
L 8.35 98.85 8.35 99 8.6 99 8.6 98.85 Z"/>
</g>

<g id="Layer0_1_MEMBER_51_MEMBER_0_MEMBER_0_MEMBER_0_FILL">
<path fill="#F3F3F3" fill-opacity="0.9607843137254902" stroke="none" d="
M 19.45 102.1
L 19.65 102.1 19.65 102 19.45 102 19.45 102.1
M 11.45 102.1
L 11.65 102.1 11.65 102 11.45 102 11.45 102.1
M 9.5 98.65
L 9.5 98.55 9.25 98.55 9.25 98.65 9.5 98.65 Z"/>
</g>

<g id="Layer0_1_MEMBER_52_MEMBER_0_MEMBER_0_MEMBER_0_FILL">
<path fill="#191919" fill-opacity="0.10588235294117647" stroke="none" d="
M 61.1 98.65
L 60.95 98.65 60.95 98.85 61.1 98.85 61.1 98.65
M 8.6 98.85
L 8.95 98.85 8.95 98.65 8.6 98.65 8.6 98.85 Z"/>
</g>

<g id="Layer0_1_MEMBER_53_MEMBER_0_MEMBER_0_MEMBER_0_FILL">
<path fill="#2B2B2B" fill-opacity="0.17647058823529413" stroke="none" d="
M 19.25 106.1
L 19.45 106.1 19.45 105.9 19.25 105.9 19.25 106.1
M 50.65 106.1
L 50.65 105.9 50.4 105.9 50.4 106.1 50.65 106.1
M 60.45 98.65
L 60.8 98.65 60.8 98.55 60.45 98.55 60.45 98.65 Z"/>
</g>

<g id="Layer0_1_MEMBER_54_MEMBER_0_MEMBER_0_MEMBER_0_FILL">
<path fill="#AEAEAE" fill-opacity="0.6901960784313725" stroke="none" d="
M 54.1 92.85
L 53.85 92.85 53.85 93 54.1 93 54.1 92.85
M 60.8 98.65
L 60.8 98.85 60.95 98.85 60.95 98.65 60.8 98.65
M 15.75 93
L 16 93 16 92.85 15.75 92.85 15.75 93
M 8.95 98.65
L 8.95 98.85 9.15 98.85 9.15 98.65 8.95 98.65 Z"/>
</g>

<g id="Layer0_1_MEMBER_55_MEMBER_0_MEMBER_0_MEMBER_0_FILL">
<path fill="#595959" fill-opacity="0.3568627450980392" stroke="none" d="
M 19.8 102.65
L 19.8 102.4 19.65 102.4 19.65 102.65 19.8 102.65
M 50.05 102.65
L 50.25 102.65 50.25 102.4 50.05 102.4 50.05 102.65
M 54.1 88.9
L 53.85 88.9 53.85 89.1 54.1 89.1 54.1 88.9
M 59.8 98.3
L 60.1 98.3 60.1 98.2 59.8 98.2 59.8 98.3
M 17.9 84.35
L 18.05 84.35 18.05 84.25 17.9 84.25 17.9 84.35
M 16 89.1
L 16 88.9 15.75 88.9 15.75 89.1 16 89.1 Z"/>
</g>

<g id="Layer0_1_MEMBER_56_MEMBER_0_MEMBER_0_MEMBER_0_FILL">
<path fill="#080808" fill-opacity="0.0392156862745098" stroke="none" d="
M 51.5 82.95
L 51.35 82.95 51.35 83.2 51.5 83.2 51.5 82.95
M 18.4 83.2
L 18.6 83.2 18.6 82.95 18.4 82.95 18.4 83.2
M 9.6 98.2
L 9.6 98.3 9.85 98.3 9.85 98.2 9.6 98.2 Z"/>
</g>

<g id="Layer0_1_MEMBER_57_MEMBER_0_MEMBER_0_MEMBER_0_FILL">
<path fill="#383838" fill-opacity="0.22745098039215686" stroke="none" d="
M 57.6 96.95
L 57.6 96.75 57.5 96.75 57.5 96.95 57.6 96.95
M 60.45 98.55
L 60.45 98.3 60.15 98.3 60.15 98.55 60.45 98.55
M 55.6 92.55
L 55.6 92.35 55.45 92.35 55.45 92.55 55.6 92.55
M 14.5 92.35
L 14.3 92.35 14.3 92.55 14.5 92.55 14.5 92.35
M 12.25 96.95
L 12.4 96.95 12.4 96.75 12.25 96.75 12.25 96.95
M 9.6 98.55
L 9.6 98.3 9.5 98.3 9.5 98.55 9.6 98.55 Z"/>
</g>

<g id="Layer0_1_MEMBER_58_MEMBER_0_MEMBER_0_MEMBER_0_FILL">
<path fill="#1C1C1C" fill-opacity="0.11764705882352941" stroke="none" d="
M 19.05 82.15
L 19.25 82.15 19.25 81.95 19.05 81.95 19.05 82.15
M 10.25 97.9
L 10.25 98 10.5 98 10.5 97.9 10.25 97.9 Z"/>
</g>

<g id="Layer0_1_MEMBER_59_MEMBER_0_MEMBER_0_MEMBER_0_FILL">
<path fill="#BBBBBB" fill-opacity="0.7411764705882353" stroke="none" d="
M 59.4 98
L 59.4 97.9 59.25 97.9 59.25 98 59.4 98 Z"/>
</g>

<g id="Layer0_1_MEMBER_60_MEMBER_0_MEMBER_0_MEMBER_0_FILL">
<path fill="#313131" fill-opacity="0.2" stroke="none" d="
M 15.4 110.2
L 15.4 110.05 15.25 110.05 15.25 110.2 15.4 110.2
M 59.25 97.75
L 59.05 97.75 59.05 97.9 59.25 97.9 59.25 97.75
M 10.5 97.9
L 10.8 97.9 10.8 97.75 10.5 97.75 10.5 97.9 Z"/>
</g>

<g id="Layer0_1_MEMBER_61_MEMBER_0_MEMBER_0_MEMBER_0_FILL">
<path fill="#090909" fill-opacity="0.043137254901960784" stroke="none" d="
M 11.35 97.45
L 11.35 97.25 11.15 97.25 11.15 97.45 11.35 97.45 Z"/>
</g>

<g id="Layer0_1_MEMBER_62_MEMBER_0_MEMBER_0_MEMBER_0_FILL">
<path fill="#5F5F5F" fill-opacity="0.3803921568627451" stroke="none" d="
M 58.6 97.45
L 58.6 97.25 58.25 97.25 58.25 97.45 58.6 97.45
M 11.45 97.45
L 11.45 97.25 11.35 97.25 11.35 97.45 11.45 97.45 Z"/>
</g>

<g id="Layer0_1_MEMBER_63_MEMBER_0_MEMBER_0_MEMBER_0_FILL">
<path fill="#8F8F8F" fill-opacity="0.5686274509803921" stroke="none" d="
M 57.95 97.25
L 58.2 97.25 58.2 97.15 57.95 97.15 57.95 97.25
M 11.65 97.15
L 11.65 97.25 11.9 97.25 11.9 97.15 11.65 97.15 Z"/>
</g>

<g id="Layer0_1_MEMBER_64_MEMBER_0_MEMBER_0_MEMBER_0_FILL">
<path fill="#121212" fill-opacity="0.0784313725490196" stroke="none" d="
M 52.55 89.7
L 52.55 89.55 52.25 89.55 52.25 89.7 52.55 89.7
M 11.45 97.25
L 11.65 97.25 11.65 97.15 11.45 97.15 11.45 97.25
M 17.55 89.7
L 17.55 89.55 17.3 89.55 17.3 89.7 17.55 89.7 Z"/>
</g>

<g id="Layer0_1_MEMBER_65_MEMBER_0_MEMBER_0_MEMBER_0_FILL">
<path fill="#686868" fill-opacity="0.41568627450980394" stroke="none" d="
M 20.15 104.95
L 20.15 104.7 20 104.7 20 104.95 20.15 104.95
M 49.8 104.95
L 49.95 104.95 49.95 104.7 49.8 104.7 49.8 104.95 Z"/>
</g>

<g id="Layer0_1_MEMBER_66_MEMBER_0_MEMBER_0_MEMBER_0_FILL">
<path fill="#949494" fill-opacity="0.5882352941176471" stroke="none" d="
M 11.15 103.4
L 11.15 103.15 11.05 103.15 11.05 103.4 11.15 103.4
M 58.9 103.4
L 58.9 103.15 58.6 103.15 58.6 103.4 58.9 103.4
M 56 96.1
L 55.7 96.1 55.7 96.35 56 96.35 56 96.1
M 13.85 96.35
L 14.1 96.35 14.1 96.1 13.85 96.1 13.85 96.35 Z"/>
</g>

<g id="Layer0_1_MEMBER_67_MEMBER_0_MEMBER_0_MEMBER_0_FILL">
<path fill="#A6A6A6" fill-opacity="0.6588235294117647" stroke="none" d="
M 19.45 106.25
L 19.45 106.1 19.25 106.1 19.25 106.25 19.45 106.25
M 50.65 106.25
L 50.65 106.1 50.4 106.1 50.4 106.25 50.65 106.25
M 55.6 96.1
L 55.6 96.35 55.7 96.35 55.7 96.1 55.6 96.1
M 14.1 96.1
L 14.1 96.35 14.3 96.35 14.3 96.1 14.1 96.1 Z"/>
</g>

<g id="Layer0_1_MEMBER_68_MEMBER_0_MEMBER_0_MEMBER_0_FILL">
<path fill="#CFCFCF" fill-opacity="0.8196078431372549" stroke="none" d="
M 51.5 102
L 57.2 102 57.2 101.8 51.5 101.8 51.5 102
M 57.9 96.95
L 57.6 96.95 57.6 97.15 57.9 97.15 57.9 96.95
M 12.25 97.15
L 12.25 96.95 11.95 96.95 11.95 97.15 12.25 97.15 Z"/>
</g>

<g id="Layer0_1_MEMBER_69_MEMBER_0_MEMBER_0_MEMBER_0_FILL">
<path fill="#4C4C4C" fill-opacity="0.3058823529411765" stroke="none" d="
M 51.5 83.2
L 51.35 83.2 51.35 83.45 51.5 83.45 51.5 83.2
M 18.6 83.45
L 18.6 83.2 18.4 83.2 18.4 83.45 18.6 83.45 Z"/>
</g>

<g id="Layer0_1_MEMBER_70_MEMBER_0_MEMBER_0_MEMBER_0_FILL">
<path fill="#6A6A6A" fill-opacity="0.4235294117647059" stroke="none" d="
M 19.8 105.55
L 20 105.55 20 105.45 19.8 105.45 19.8 105.55
M 57 96.45
L 56.7 96.45 56.7 96.65 57 96.65 57 96.45
M 13.05 96.65
L 13.05 96.45 12.95 96.45 12.95 96.65 13.05 96.65 Z"/>
</g>

<g id="Layer0_1_MEMBER_71_MEMBER_0_MEMBER_0_MEMBER_0_FILL">
<path fill="#888888" fill-opacity="0.5411764705882353" stroke="none" d="
M 50.25 105.75
L 50.05 105.75 50.05 105.9 50.25 105.9 50.25 105.75
M 56.7 96.45
L 56.7 96.35 56.35 96.35 56.35 96.45 56.7 96.45
M 18.9 86.25
L 18.7 86.25 18.7 86.45 18.9 86.45 18.9 86.25 Z"/>
</g>

<g id="Layer0_1_MEMBER_72_MEMBER_0_MEMBER_0_MEMBER_0_FILL">
<path fill="#151515" fill-opacity="0.09019607843137255" stroke="none" d="
M 14.6 111.1
L 14.6 110.95 14.5 110.95 14.5 111.1 14.6 111.1
M 19.25 102.3
L 19.25 102.1 19.05 102.1 19.05 102.3 19.25 102.3
M 55.45 111.1
L 55.45 110.95 55.3 110.95 55.3 111.1 55.45 111.1
M 53.25 91.1
L 52.9 91.1 52.9 91.3 53.25 91.3 53.25 91.1
M 53.75 88.55
L 53.85 88.55 53.85 88.35 53.75 88.35 53.75 88.55
M 13.25 96.35
L 13.05 96.35 13.05 96.45 13.25 96.45 13.25 96.35
M 16.15 88.35
L 16 88.35 16 88.55 16.15 88.55 16.15 88.35
M 16.7 91.1
L 16.7 91.3 16.8 91.3 16.8 91.1 16.7 91.1 Z"/>
</g>

<g id="Layer0_1_MEMBER_73_MEMBER_0_MEMBER_0_MEMBER_0_FILL">
<path fill="#A9A9A9" fill-opacity="0.6705882352941176" stroke="none" d="
M 55.6 96.1
L 52.9 96.1 52.9 96.35 55.6 96.35 55.6 96.1
M 16.8 96.1
L 14.3 96.1 14.3 96.35 16.8 96.35 16.8 96.1 Z"/>
</g>

<g id="Layer0_1_MEMBER_74_MEMBER_0_MEMBER_0_MEMBER_0_FILL">
<path fill="#ACACAC" fill-opacity="0.6823529411764706" stroke="none" d="
M 16.8 96.1
L 16.8 96.35 17.05 96.35 17.05 96.1 16.8 96.1 Z"/>
</g>

<g id="Layer0_1_MEMBER_75_MEMBER_0_MEMBER_0_MEMBER_0_FILL">
<path fill="#C0C0C0" fill-opacity="0.7607843137254902" stroke="none" d="
M 52.6 96.1
L 52.6 96.35 52.85 96.35 52.85 96.1 52.6 96.1
M 17.05 96.35
L 17.15 96.35 17.15 96.1 17.05 96.1 17.05 96.35 Z"/>
</g>

<g id="Layer0_1_MEMBER_76_MEMBER_0_MEMBER_0_MEMBER_0_FILL">
<path fill="#ECECEC" fill-opacity="0.9333333333333333" stroke="none" d="
M 14.6 110.35
L 14.6 110.2 14.5 110.2 14.5 110.35 14.6 110.35
M 11.35 102.1
L 11.35 102.3 11.45 102.3 11.45 102.1 11.35 102.1
M 19.8 102.3
L 19.8 102.1 19.65 102.1 19.65 102.3 19.8 102.3
M 50.25 102.3
L 50.25 102.1 50.05 102.1 50.05 102.3 50.25 102.3
M 55.3 110.2
L 55.3 110.35 55.45 110.35 55.45 110.2 55.3 110.2
M 58.6 102.1
L 58.25 102.1 58.25 102.3 58.6 102.3 58.6 102.1
M 17.15 96.1
L 17.15 96.35 17.3 96.35 17.3 96.1 17.15 96.1 Z"/>
</g>

<g id="Layer0_1_MEMBER_77_MEMBER_0_MEMBER_0_MEMBER_0_FILL">
<path fill="#FEFEFE" stroke="none" d="
M 9.15 98.85
L 8.6 98.85 8.6 99 8.35 99 8.35 99.15 8 99.15 8 99.35 7.95 99.35 7.95 99.6 7.6 99.6 7.6 99.8 7.35 99.8 7.35 99.9 7.25 99.9 7.25 100.45 7.05 100.45 7.05 114.9 7.25 114.9 7.25 115.2 7.6 115.2 7.6 115.3 62.35 115.3 62.35 115.2 62.7 115.2 62.7 114.9 62.85 114.9 62.85 100.45 62.7 100.45 62.7 99.9 62.5 99.9 62.5 99.8 62.35 99.8 62.35 99.6 62 99.6 62 99.35 61.7 99.35 61.7 99.15 61.4 99.15 61.4 99 61.1 99 61.1 98.85 60.8 98.85 60.8 98.65 60.45 98.65 60.45 98.55 60.15 98.55 60.15 98.3 59.8 98.3 59.8 98.2 59.5 98.2 59.5 98 59.25 98 59.25 97.9 59.05 97.9 59.05 97.75 58.6 97.75 58.6 97.45 58.25 97.45 58.25 97.25 57.95 97.25 57.95 97.15 57.6 97.15 57.6 96.95 57.5 96.95 57.5 96.75 57.2 96.75 57.2 96.65 56.7 96.65 56.7 96.45 56.35 96.45 56.35 96.35 52.55 96.35 52.55 96.1 17.3 96.1 17.3 96.35 13.35 96.35 13.35 96.45 13.05 96.45 13.05 96.65 12.7 96.65 12.7 96.75 12.4 96.75 12.4 96.95 12.25 96.95 12.25 97.15 11.9 97.15 11.9 97.25 11.45 97.25 11.45 97.45 11.15 97.45 11.15 97.75 10.8 97.75 10.8 97.9 10.5 97.9 10.5 98 10.25 98 10.25 98.2 9.9 98.2 9.9 98.3 9.6 98.3 9.6 98.55 9.5 98.55 9.5 98.65 9.15 98.65 9.15 98.85
M 58.6 102.1
L 58.6 102.4 58.9 102.4 58.9 105.9 58.6 105.9 58.6 106.25 58.25 106.25 58.25 106.4 50.25 106.4 50.25 106.25 50.05 106.25 50.05 106.1 49.95 106.1 49.95 105.9 49.8 105.9 49.8 102.4 49.95 102.4 49.95 102.1 50.25 102.1 50.25 102 50.4 102 50.4 101.8 58.2 101.8 58.2 102 58.25 102 58.25 102.1 58.6 102.1
M 55.3 110.05
L 55.3 110.2 55.6 110.2 55.6 110.65 55.7 110.65 55.7 111.9 55.6 111.9 55.6 112.25 55.3 112.25 55.3 112.5 14.6 112.5 14.6 112.25 14.3 112.25 14.3 111.9 14.1 111.9 14.1 110.65 14.3 110.65 14.3 110.2 14.6 110.2 14.6 110.05 55.3 110.05
M 19.45 101.8
L 19.45 102 19.65 102 19.65 102.1 20 102.1 20 102.4 20.15 102.4 20.15 105.9 20 105.9 20 106.1 19.8 106.1 19.8 106.25 19.65 106.25 19.65 106.4 11.45 106.4 11.45 106.25 11.35 106.25 11.35 106.1 11.15 106.1 11.15 105.9 11.05 105.9 11.05 102.4 11.15 102.4 11.15 102.1 11.45 102.1 11.45 102 11.65 102 11.65 101.8 19.45 101.8
M 18.9 82.45
L 18.9 82.65 18.7 82.65 18.7 82.95 18.6 82.95 18.6 83.45 18.4 83.45 18.4 83.7 18.25 83.7 18.25 84 18.05 84 18.05 84.35 17.9 84.35 17.9 84.8 17.8 84.8 17.8 85.3 17.55 85.3 17.55 85.65 17.3 85.65 17.3 85.9 17.15 85.9 17.15 86.45 17.05 86.45 17.05 86.9 16.8 86.9 16.8 87.2 16.7 87.2 16.7 87.55 16.5 87.55 16.5 87.8 16.4 87.8 16.4 88.35 16.15 88.35 16.15 88.75 16 88.75 16 89.1 15.75 89.1 15.75 89.55 15.7 89.55 15.7 89.9 15.4 89.9 15.4 90.25 15.25 90.25 15.25 90.65 15.15 90.65 15.15 91.1 14.95 91.1 14.95 91.4 14.8 91.4 14.8 91.8 14.6 91.8 14.6 92.1 14.5 92.1 14.5 92.65 14.3 92.65 14.3 93 14.1 93 14.1 93.3 13.85 93.3 13.85 94.2 14.1 94.2 14.1 94.45 14.3 94.45 14.3 94.55 14.6 94.55 14.6 94.75 55.3 94.75 55.3 94.55 55.6 94.55 55.6 94.45 55.7 94.45 55.7 94.2 56 94.2 56 93.3 55.7 93.3 55.7 93 55.6 93 55.6 92.65 55.45 92.65 55.45 92.1 55.3 92.1 55.3 91.8 55.15 91.8 55.15 91.4 54.8 91.4 54.8 91.1 54.75 91.1 54.75 90.65 54.5 90.65 54.5 90.25 54.45 90.25 54.45 89.9 54.15 89.9 54.15 89.55 54.1 89.55 54.1 89.1 53.85 89.1 53.85 88.75 53.75 88.75 53.75 88.35 53.55 88.35 53.55 87.8 53.4 87.8 53.4 87.55 53.25 87.55 53.25 87.2 52.9 87.2 52.9 86.9 52.85 86.9 52.85 86.45 52.6 86.45 52.6 85.9 52.55 85.9 52.55 85.65 52.25 85.65 52.25 85.3 52.15 85.3 52.15 84.8 51.95 84.8 51.95 84.35 51.85 84.35 51.85 84 51.7 84 51.7 83.7 51.5 83.7 51.5 83.45 51.35 83.45 51.35 82.95 51.05 82.95 51.05 82.65 50.95 82.65 50.95 82.45 50.7 82.45 50.7 82.15 50.4 82.15 50.4 81.95 19.45 81.95 19.45 82.15 19.05 82.15 19.05 82.45 18.9 82.45
M 18.7 86.25
L 18.9 86.25 18.9 85.9 19.05 85.9 19.05 85.65 50.7 85.65 50.7 85.9 50.95 85.9 50.95 86.25 51.05 86.25 51.05 86.65 51.35 86.65 51.35 87 51.5 87 51.5 87.55 51.7 87.55 51.7 87.8 51.85 87.8 51.85 88.1 51.95 88.1 51.95 88.55 52.15 88.55 52.15 89.1 52.25 89.1 52.25 89.4 52.55 89.4 52.55 89.7 52.6 89.7 52.6 90.15 52.85 90.15 52.85 90.65 52.9 90.65 52.9 91 53.25 91 53.25 91.3 53.4 91.3 53.4 91.6 53.55 91.6 53.55 92.1 53.75 92.1 53.75 92.55 53.85 92.55 53.85 92.85 54.1 92.85 54.1 93.2 37.35 93.2 37.35 93 32.45 93 32.45 93.2 15.75 93.2 15.75 92.85 16 92.85 16 92.55 16.15 92.55 16.15 92.1 16.4 92.1 16.4 91.6 16.5 91.6 16.5 91.3 16.7 91.3 16.7 91 16.8 91 16.8 90.65 17.05 90.65 17.05 90.15 17.15 90.15 17.15 89.7 17.3 89.7 17.3 89.4 17.55 89.4 17.55 89.1 17.8 89.1 17.8 88.55 17.9 88.55 17.9 88.1 18.05 88.1 18.05 87.8 18.25 87.8 18.25 87.55 18.4 87.55 18.4 87 18.6 87 18.6 86.65 18.7 86.65 18.7 86.25 Z"/>
</g>

<g id="Layer0_1_MEMBER_78_MEMBER_0_MEMBER_0_MEMBER_0_FILL">
<path fill="#606060" fill-opacity="0.3843137254901961" stroke="none" d="
M 20.15 103.65
L 20 103.65 20 104.55 20.15 104.55 20.15 103.65
M 18.4 106.4
L 18.6 106.4 18.6 106.25 18.4 106.25 18.4 106.4
M 49.8 104.55
L 49.95 104.55 49.95 103.65 49.8 103.65 49.8 104.55
M 51.5 106.25
L 51.35 106.25 51.35 106.4 51.5 106.4 51.5 106.25
M 52.15 84.8
L 52.15 84.55 51.95 84.55 51.95 84.8 52.15 84.8
M 17.9 84.8
L 17.9 84.55 17.8 84.55 17.8 84.8 17.9 84.8 Z"/>
</g>

<g id="Layer0_1_MEMBER_79_MEMBER_0_MEMBER_0_MEMBER_0_FILL">
<path fill="#757575" fill-opacity="0.4666666666666667" stroke="none" d="
M 11.15 104.55
L 11.15 103.65 11.05 103.65 11.05 104.55 11.15 104.55
M 12.4 106.25
L 12.4 106.4 12.6 106.4 12.6 106.25 12.4 106.25
M 57.35 106.4
L 57.5 106.4 57.5 106.25 57.35 106.25 57.35 106.4
M 58.9 104.55
L 58.9 103.65 58.6 103.65 58.6 104.55 58.9 104.55 Z"/>
</g>

<g id="Layer0_1_MEMBER_80_MEMBER_0_MEMBER_0_MEMBER_0_FILL">
<path fill="#585858" fill-opacity="0.35294117647058826" stroke="none" d="
M 12.7 106.4
L 12.95 106.4 12.95 106.25 12.7 106.25 12.7 106.4
M 57.2 106.25
L 57 106.25 57 106.4 57.2 106.4 57.2 106.25
M 18.7 82.65
L 18.9 82.65 18.9 82.45 18.7 82.45 18.7 82.65 Z"/>
</g>

<g id="Layer0_1_MEMBER_81_MEMBER_0_MEMBER_0_MEMBER_0_FILL">
<path fill="#F2F2F2" fill-opacity="0.9568627450980393" stroke="none" d="
M 20.15 105.55
L 20 105.55 20 105.75 20.15 105.75 20.15 105.55
M 14.5 110.35
L 14.3 110.35 14.3 110.65 14.5 110.65 14.5 110.35
M 11.05 105.75
L 11.15 105.75 11.15 105.55 11.05 105.55 11.05 105.75
M 11.65 106.25
L 11.65 106.4 11.9 106.4 11.9 106.25 11.65 106.25
M 49.95 105.55
L 49.8 105.55 49.8 105.75 49.95 105.75 49.95 105.55
M 58.2 106.4
L 58.2 106.25 57.95 106.25 57.95 106.4 58.2 106.4
M 58.9 105.55
L 58.6 105.55 58.6 105.75 58.9 105.75 58.9 105.55
M 55.45 110.35
L 55.45 110.65 55.6 110.65 55.6 110.35 55.45 110.35 Z"/>
</g>

<g id="Layer0_1_MEMBER_82_MEMBER_0_MEMBER_0_MEMBER_0_FILL">
<path fill="#959595" fill-opacity="0.592156862745098" stroke="none" d="
M 20.15 105.3
L 20.15 105 20 105 20 105.3 20.15 105.3
M 12.4 106.25
L 12.25 106.25 12.25 106.4 12.4 106.4 12.4 106.25
M 49.8 105
L 49.8 105.3 49.95 105.3 49.95 105 49.8 105 Z"/>
</g>

<g id="Layer0_1_MEMBER_83_MEMBER_0_MEMBER_0_MEMBER_0_FILL">
<path fill="#B9B9B9" fill-opacity="0.7333333333333333" stroke="none" d="
M 20 105.45
L 20.15 105.45 20.15 105.3 20 105.3 20 105.45
M 12.25 106.25
L 11.95 106.25 11.95 106.4 12.25 106.4 12.25 106.25
M 57.9 106.25
L 57.6 106.25 57.6 106.4 57.9 106.4 57.9 106.25
M 49.95 105.3
L 49.8 105.3 49.8 105.45 49.95 105.45 49.95 105.3 Z"/>
</g>

<g id="Layer0_1_MEMBER_84_MEMBER_0_MEMBER_0_MEMBER_0_FILL">
<path fill="#AAAAAA" fill-opacity="0.6745098039215687" stroke="none" d="
M 15.15 112.25
L 14.95 112.25 14.95 112.5 15.15 112.5 15.15 112.25
M 11.9 106.25
L 11.9 106.1 11.65 106.1 11.65 106.25 11.9 106.25
M 58.2 106.25
L 58.2 106.1 57.95 106.1 57.95 106.25 58.2 106.25
M 32.1 93
L 16 93 16 93.2 32.1 93.2 32.1 93
M 37.8 93
L 37.8 93.2 53.85 93.2 53.85 93 37.8 93 Z"/>
</g>

<g id="Layer0_1_MEMBER_85_MEMBER_0_MEMBER_0_MEMBER_0_FILL">
<path fill="#252525" fill-opacity="0.15294117647058825" stroke="none" d="
M 12.25 106.25
L 12.25 106.1 11.95 106.1 11.95 106.25 12.25 106.25
M 57.9 106.1
L 57.6 106.1 57.6 106.25 57.9 106.25 57.9 106.1 Z"/>
</g>

<g id="Layer0_1_MEMBER_86_MEMBER_0_MEMBER_0_MEMBER_0_FILL">
<path fill="#E1E1E1" fill-opacity="0.8901960784313725" stroke="none" d="
M 11.65 106.1
L 11.45 106.1 11.45 106.25 11.65 106.25 11.65 106.1
M 58.9 105.45
L 58.6 105.45 58.6 105.55 58.9 105.55 58.9 105.45 Z"/>
</g>

<g id="Layer0_1_MEMBER_87_MEMBER_0_MEMBER_0_MEMBER_0_FILL">
<path fill="#FCFCFC" fill-opacity="0.996078431372549" stroke="none" d="
M 19.65 106.4
L 19.65 106.25 19.45 106.25 19.45 106.4 19.65 106.4
M 20.15 105.75
L 20 105.75 20 105.9 20.15 105.9 20.15 105.75
M 11.65 106.25
L 11.45 106.25 11.45 106.4 11.65 106.4 11.65 106.25
M 11.9 102
L 11.9 101.8 11.65 101.8 11.65 102 11.9 102
M 19.45 101.8
L 19.25 101.8 19.25 102 19.45 102 19.45 101.8
M 49.8 105.75
L 49.8 105.9 49.95 105.9 49.95 105.75 49.8 105.75
M 58.6 105.9
L 58.9 105.9 58.9 105.75 58.6 105.75 58.6 105.9
M 50.65 102
L 50.65 101.8 50.4 101.8 50.4 102 50.65 102
M 57.95 102
L 58.2 102 58.2 101.8 57.95 101.8 57.95 102
M 50.95 82.45
L 50.95 82.3 50.7 82.3 50.7 82.45 50.95 82.45
M 19.05 82.45
L 19.05 82.3 18.9 82.3 18.9 82.45 19.05 82.45 Z"/>
</g>

<g id="Layer0_1_MEMBER_88_MEMBER_0_MEMBER_0_MEMBER_0_FILL">
<path fill="#262626" fill-opacity="0.1568627450980392" stroke="none" d="
M 11.65 105.75
L 11.45 105.75 11.45 105.9 11.65 105.9 11.65 105.75
M 53.4 91.6
L 53.4 91.4 53.25 91.4 53.25 91.6 53.4 91.6
M 53.55 88.1
L 53.75 88.1 53.75 88 53.55 88 53.55 88.1
M 16.7 91.6
L 16.7 91.4 16.5 91.4 16.5 91.6 16.7 91.6
M 16.4 88
L 16.15 88 16.15 88.1 16.4 88.1 16.4 88 Z"/>
</g>

<g id="Layer0_1_MEMBER_89_MEMBER_0_MEMBER_0_MEMBER_0_FILL">
<path fill="#909090" fill-opacity="0.5725490196078431" stroke="none" d="
M 58.6 105.75
L 58.25 105.75 58.25 105.9 58.6 105.9 58.6 105.75 Z"/>
</g>

<g id="Layer0_1_MEMBER_90_MEMBER_0_MEMBER_0_MEMBER_0_FILL">
<path fill="#E4E4E4" fill-opacity="0.9019607843137255" stroke="none" d="
M 11.35 105.9
L 11.35 105.75 11.15 105.75 11.15 105.9 11.35 105.9 Z"/>
</g>

<g id="Layer0_1_MEMBER_91_MEMBER_0_MEMBER_0_MEMBER_0_FILL">
<path fill="#F9F9F9" fill-opacity="0.984313725490196" stroke="none" d="
M 19.8 105.9
L 19.8 106.1 20 106.1 20 105.9 19.8 105.9
M 19.8 106.1
L 19.65 106.1 19.65 106.25 19.8 106.25 19.8 106.1
M 11.15 106.1
L 11.35 106.1 11.35 105.9 11.15 105.9 11.15 106.1
M 11.45 106.25
L 11.45 106.1 11.35 106.1 11.35 106.25 11.45 106.25
M 11.05 102.65
L 11.15 102.65 11.15 102.4 11.05 102.4 11.05 102.65
M 50.05 105.9
L 49.95 105.9 49.95 106.1 50.05 106.1 50.05 105.9
M 50.25 106.25
L 50.25 106.1 50.05 106.1 50.05 106.25 50.25 106.25
M 58.9 102.4
L 58.6 102.4 58.6 102.65 58.9 102.65 58.9 102.4
M 58.6 106.1
L 58.25 106.1 58.25 106.25 58.6 106.25 58.6 106.1 Z"/>
</g>

<g id="Layer0_1_MEMBER_92_MEMBER_0_MEMBER_0_MEMBER_0_FILL">
<path fill="#D9D9D9" fill-opacity="0.8588235294117647" stroke="none" d="
M 11.45 105.9
L 11.35 105.9 11.35 106.1 11.45 106.1 11.45 105.9
M 58.25 106.1
L 58.6 106.1 58.6 105.9 58.25 105.9 58.25 106.1 Z"/>
</g>

<g id="Layer0_1_MEMBER_93_MEMBER_0_MEMBER_0_MEMBER_0_FILL">
<path fill="#C3C3C3" fill-opacity="0.7725490196078432" stroke="none" d="
M 11.05 105.45
L 11.15 105.45 11.15 105.3 11.05 105.3 11.05 105.45
M 58.9 105.3
L 58.6 105.3 58.6 105.45 58.9 105.45 58.9 105.3 Z"/>
</g>

<g id="Layer0_1_MEMBER_94_MEMBER_0_MEMBER_0_MEMBER_0_FILL">
<path fill="#323232" fill-opacity="0.20392156862745098" stroke="none" d="
M 11.15 105.45
L 11.35 105.45 11.35 105.3 11.15 105.3 11.15 105.45 Z"/>
</g>

<g id="Layer0_1_MEMBER_95_MEMBER_0_MEMBER_0_MEMBER_0_FILL">
<path fill="#727272" fill-opacity="0.4549019607843137" stroke="none" d="
M 11.15 105.55
L 11.35 105.55 11.35 105.45 11.15 105.45 11.15 105.55 Z"/>
</g>

<g id="Layer0_1_MEMBER_96_MEMBER_0_MEMBER_0_MEMBER_0_FILL">
<path fill="#373737" fill-opacity="0.2235294117647059" stroke="none" d="
M 11.45 105.75
L 11.45 105.55 11.35 105.55 11.35 105.75 11.45 105.75
M 58.6 105.75
L 58.6 105.55 58.25 105.55 58.25 105.75 58.6 105.75 Z"/>
</g>

<g id="Layer0_1_MEMBER_97_MEMBER_0_MEMBER_0_MEMBER_0_FILL">
<path fill="#A3A3A3" fill-opacity="0.6470588235294118" stroke="none" d="
M 11.15 105.3
L 11.15 105 11.05 105 11.05 105.3 11.15 105.3
M 58.9 105.3
L 58.9 105 58.6 105 58.6 105.3 58.9 105.3 Z"/>
</g>

<g id="Layer0_1_MEMBER_98_MEMBER_0_MEMBER_0_MEMBER_0_FILL">
<path fill="#7D7D7D" fill-opacity="0.4980392156862745" stroke="none" d="
M 11.05 104.7
L 11.05 104.95 11.15 104.95 11.15 104.7 11.05 104.7
M 58.9 104.95
L 58.9 104.7 58.6 104.7 58.6 104.95 58.9 104.95
M 16.15 92.65
L 16.15 92.55 16 92.55 16 92.65 16.15 92.65 Z"/>
</g>

<g id="Layer0_1_MEMBER_99_MEMBER_0_MEMBER_0_MEMBER_0_FILL">
<path fill="#777777" fill-opacity="0.4745098039215686" stroke="none" d="
M 11.05 104.7
L 11.15 104.7 11.15 104.55 11.05 104.55 11.05 104.7
M 58.6 104.55
L 58.6 104.7 58.9 104.7 58.9 104.55 58.6 104.55
M 54.75 110.05
L 54.5 110.05 54.5 110.2 54.75 110.2 54.75 110.05 Z"/>
</g>

<g id="Layer0_1_MEMBER_100_MEMBER_0_MEMBER_0_MEMBER_0_FILL">
<path fill="#7A7A7A" fill-opacity="0.48627450980392156" stroke="none" d="
M 58.9 103.65
L 58.9 103.55 58.6 103.55 58.6 103.65 58.9 103.65
M 52.55 89.55
L 52.55 89.4 52.25 89.4 52.25 89.55 52.55 89.55
M 17.55 89.4
L 17.3 89.4 17.3 89.55 17.55 89.55 17.55 89.4 Z"/>
</g>

<g id="Layer0_1_MEMBER_101_MEMBER_0_MEMBER_0_MEMBER_0_FILL">
<path fill="#131313" fill-opacity="0.08235294117647059" stroke="none" d="
M 53.25 86.9
L 52.9 86.9 52.9 87 53.25 87 53.25 86.9
M 15.25 89.9
L 15.25 90.15 15.4 90.15 15.4 89.9 15.25 89.9 Z"/>
</g>

<g id="Layer0_1_MEMBER_102_MEMBER_0_MEMBER_0_MEMBER_0_FILL">
<path fill="#F6F6F6" fill-opacity="0.9725490196078431" stroke="none" d="
M 19.25 102
L 19.25 101.8 19.05 101.8 19.05 102 19.25 102
M 55.3 94.75
L 55.45 94.75 55.45 94.55 55.3 94.55 55.3 94.75
M 14.5 94.75
L 14.6 94.75 14.6 94.55 14.5 94.55 14.5 94.75 Z"/>
</g>

<g id="Layer0_1_MEMBER_103_MEMBER_0_MEMBER_0_MEMBER_0_FILL">
<path fill="#666666" fill-opacity="0.40784313725490196" stroke="none" d="
M 12.25 102.1
L 12.25 102 11.95 102 11.95 102.1 12.25 102.1
M 57.6 102.1
L 57.9 102.1 57.9 102 57.6 102 57.6 102.1
M 50.95 102.1
L 50.95 102 50.7 102 50.7 102.1 50.95 102.1 Z"/>
</g>

<g id="Layer0_1_MEMBER_104_MEMBER_0_MEMBER_0_MEMBER_0_FILL">
<path fill="#D1D1D1" fill-opacity="0.8274509803921568" stroke="none" d="
M 11.65 102
L 11.65 102.1 11.9 102.1 11.9 102 11.65 102
M 57.95 102
L 57.95 102.1 58.2 102.1 58.2 102 57.95 102
M 37.35 93.2
L 37.5 93.2 37.5 93 37.35 93 37.35 93.2 Z"/>
</g>

<g id="Layer0_1_MEMBER_105_MEMBER_0_MEMBER_0_MEMBER_0_FILL">
<path fill="#EBEBEB" fill-opacity="0.9294117647058824" stroke="none" d="
M 11.15 102.8
L 11.15 102.65 11.05 102.65 11.05 102.8 11.15 102.8
M 11.95 101.8
L 11.95 102 12.25 102 12.25 101.8 11.95 101.8
M 19.05 101.8
L 18.9 101.8 18.9 102 19.05 102 19.05 101.8
M 50.95 102
L 50.95 101.8 50.7 101.8 50.7 102 50.95 102
M 58.9 102.65
L 58.6 102.65 58.6 102.8 58.9 102.8 58.9 102.65
M 57.9 102
L 57.9 101.8 57.6 101.8 57.6 102 57.9 102
M 52.85 86.25
L 52.6 86.25 52.6 86.45 52.85 86.45 52.85 86.25
M 17.05 86.45
L 17.15 86.45 17.15 86.25 17.05 86.25 17.05 86.45 Z"/>
</g>

<g id="Layer0_1_MEMBER_106_MEMBER_0_MEMBER_0_MEMBER_0_FILL">
<path fill="#D0D0D0" fill-opacity="0.8235294117647058" stroke="none" d="
M 11.15 103.05
L 11.15 102.8 11.05 102.8 11.05 103.05 11.15 103.05
M 12.6 101.8
L 12.6 102 12.7 102 12.7 101.8 12.6 101.8
M 18.6 101.8
L 18.4 101.8 18.4 102 18.6 102 18.6 101.8
M 51.35 102
L 51.5 102 51.5 101.8 51.35 101.8 51.35 102
M 57.35 101.8
L 57.2 101.8 57.2 102 57.35 102 57.35 101.8
M 58.9 103.05
L 58.9 102.8 58.6 102.8 58.6 103.05 58.9 103.05 Z"/>
</g>

<g id="Layer0_1_MEMBER_107_MEMBER_0_MEMBER_0_MEMBER_0_FILL">
<path fill="#D5D5D5" fill-opacity="0.8431372549019608" stroke="none" d="
M 18.6 102
L 18.7 102 18.7 101.8 18.6 101.8 18.6 102
M 12.6 102
L 12.6 101.8 12.4 101.8 12.4 102 12.6 102
M 57.5 102
L 57.5 101.8 57.35 101.8 57.35 102 57.5 102
M 51.35 102
L 51.35 101.8 51.05 101.8 51.05 102 51.35 102
M 52.25 85.1
L 52.15 85.1 52.15 85.3 52.25 85.3 52.25 85.1
M 17.8 85.3
L 17.8 85.1 17.55 85.1 17.55 85.3 17.8 85.3 Z"/>
</g>

<g id="Layer0_1_MEMBER_108_MEMBER_0_MEMBER_0_MEMBER_0_FILL">
<path fill="#B1B1B1" fill-opacity="0.7019607843137254" stroke="none" d="
M 11.65 102.1
L 11.45 102.1 11.45 102.3 11.65 102.3 11.65 102.1
M 50.05 102.4
L 50.25 102.4 50.25 102.3 50.05 102.3 50.05 102.4
M 54.15 89.9
L 54.45 89.9 54.45 89.7 54.15 89.7 54.15 89.9
M 15.4 89.9
L 15.7 89.9 15.7 89.7 15.4 89.7 15.4 89.9 Z"/>
</g>

<g id="Layer0_1_MEMBER_109_MEMBER_0_MEMBER_0_MEMBER_0_FILL">
<path fill="#B2B2B2" fill-opacity="0.7058823529411765" stroke="none" d="
M 17.15 89.7
L 17.15 89.9 17.3 89.9 17.3 89.7 17.15 89.7 Z"/>
</g>

<g id="Layer0_1_MEMBER_110_MEMBER_0_MEMBER_0_MEMBER_0_FILL">
<path fill="#EFEFEF" fill-opacity="0.9450980392156862" stroke="none" d="
M 11.15 102.4
L 11.35 102.4 11.35 102.3 11.15 102.3 11.15 102.4 Z"/>
</g>

<g id="Layer0_1_MEMBER_111_MEMBER_0_MEMBER_0_MEMBER_0_FILL">
<path fill="#4A4A4A" fill-opacity="0.2980392156862745" stroke="none" d="
M 11.65 102.3
L 11.45 102.3 11.45 102.4 11.65 102.4 11.65 102.3 Z"/>
</g>

<g id="Layer0_1_MEMBER_112_MEMBER_0_MEMBER_0_MEMBER_0_FILL">
<path fill="#8B8B8B" fill-opacity="0.5529411764705883" stroke="none" d="
M 11.35 102.8
L 11.35 102.65 11.15 102.65 11.15 102.8 11.35 102.8 Z"/>
</g>

<g id="Layer0_1_MEMBER_113_MEMBER_0_MEMBER_0_MEMBER_0_FILL">
<path fill="#C6C6C6" fill-opacity="0.7843137254901961" stroke="none" d="
M 19.8 102.65
L 20 102.65 20 102.4 19.8 102.4 19.8 102.65
M 11.35 102.4
L 11.15 102.4 11.15 102.65 11.35 102.65 11.35 102.4
M 50.05 102.4
L 49.95 102.4 49.95 102.65 50.05 102.65 50.05 102.4 Z"/>
</g>

<g id="Layer0_1_MEMBER_114_MEMBER_0_MEMBER_0_MEMBER_0_FILL">
<path fill="#FDFDFD" stroke="none" d="
M 14.3 110.2
L 14.3 110.35 14.5 110.35 14.5 110.2 14.3 110.2
M 11.15 102.1
L 11.15 102.3 11.35 102.3 11.35 102.1 11.15 102.1
M 20 102.3
L 20 102.1 19.8 102.1 19.8 102.3 20 102.3
M 50.05 102.3
L 50.05 102.1 49.95 102.1 49.95 102.3 50.05 102.3
M 55.45 110.35
L 55.6 110.35 55.6 110.2 55.45 110.2 55.45 110.35
M 55.45 92.55
L 55.45 92.65 55.6 92.65 55.6 92.55 55.45 92.55
M 52.15 88.75
L 52.15 88.55 51.95 88.55 51.95 88.75 52.15 88.75
M 17.9 88.55
L 17.8 88.55 17.8 88.75 17.9 88.75 17.9 88.55
M 14.5 92.65
L 14.5 92.55 14.3 92.55 14.3 92.65 14.5 92.65 Z"/>
</g>

<g id="Layer0_1_MEMBER_115_MEMBER_0_MEMBER_0_MEMBER_0_FILL">
<path fill="#ABABAB" fill-opacity="0.6784313725490196" stroke="none" d="
M 19.8 105.55
L 19.8 105.75 20 105.75 20 105.55 19.8 105.55
M 50.05 105.75
L 50.05 105.55 49.95 105.55 49.95 105.75 50.05 105.75 Z"/>
</g>

<g id="Layer0_1_MEMBER_116_MEMBER_0_MEMBER_0_MEMBER_0_FILL">
<path fill="#D6D6D6" fill-opacity="0.8470588235294118" stroke="none" d="
M 19.65 105.9
L 19.65 106.1 19.8 106.1 19.8 105.9 19.65 105.9
M 50.25 105.9
L 50.05 105.9 50.05 106.1 50.25 106.1 50.25 105.9 Z"/>
</g>

<g id="Layer0_1_MEMBER_117_MEMBER_0_MEMBER_0_MEMBER_0_FILL">
<path fill="#2A2A2A" fill-opacity="0.17254901960784313" stroke="none" d="
M 19.8 105.45
L 20 105.45 20 105.3 19.8 105.3 19.8 105.45
M 49.95 105.45
L 50.05 105.45 50.05 105.3 49.95 105.3 49.95 105.45 Z"/>
</g>

<g id="Layer0_1_MEMBER_118_MEMBER_0_MEMBER_0_MEMBER_0_FILL">
<path fill="#DBDBDB" fill-opacity="0.8666666666666667" stroke="none" d="
M 14.8 112.5
L 14.95 112.5 14.95 112.25 14.8 112.25 14.8 112.5
M 20 105.55
L 20.15 105.55 20.15 105.45 20 105.45 20 105.55
M 49.95 105.45
L 49.8 105.45 49.8 105.55 49.95 105.55 49.95 105.45
M 54.8 112.5
L 55.15 112.5 55.15 112.25 54.8 112.25 54.8 112.5 Z"/>
</g>

<g id="Layer0_1_MEMBER_119_MEMBER_0_MEMBER_0_MEMBER_0_FILL">
<path fill="#626262" fill-opacity="0.39215686274509803" stroke="none" d="
M 19.45 102.1
L 19.25 102.1 19.25 102.3 19.45 102.3 19.45 102.1
M 20 104.55
L 20 104.7 20.15 104.7 20.15 104.55 20 104.55
M 50.65 102.3
L 50.65 102.1 50.4 102.1 50.4 102.3 50.65 102.3
M 49.8 104.7
L 49.95 104.7 49.95 104.55 49.8 104.55 49.8 104.7
M 19.25 85.75
L 19.25 85.65 19.05 85.65 19.05 85.75 19.25 85.75 Z"/>
</g>

<g id="Layer0_1_MEMBER_120_MEMBER_0_MEMBER_0_MEMBER_0_FILL">
<path fill="#636363" fill-opacity="0.396078431372549" stroke="none" d="
M 20.15 103.65
L 20.15 103.55 20 103.55 20 103.65 20.15 103.65
M 49.8 103.65
L 49.95 103.65 49.95 103.55 49.8 103.55 49.8 103.65
M 50.7 86.15
L 50.95 86.15 50.95 85.9 50.7 85.9 50.7 86.15
M 19.05 86.15
L 19.05 85.9 18.9 85.9 18.9 86.15 19.05 86.15 Z"/>
</g>

<g id="Layer0_1_MEMBER_121_MEMBER_0_MEMBER_0_MEMBER_0_FILL">
<path fill="#6E6E6E" fill-opacity="0.4392156862745098" stroke="none" d="
M 20 103.4
L 20 103.55 20.15 103.55 20.15 103.4 20 103.4
M 49.8 103.55
L 49.95 103.55 49.95 103.4 49.8 103.4 49.8 103.55 Z"/>
</g>

<g id="Layer0_1_MEMBER_122_MEMBER_0_MEMBER_0_MEMBER_0_FILL">
<path fill="#DEDEDE" fill-opacity="0.8784313725490196" stroke="none" d="
M 19.65 106.1
L 19.45 106.1 19.45 106.25 19.65 106.25 19.65 106.1
M 50.4 106.25
L 50.4 106.1 50.25 106.1 50.25 106.25 50.4 106.25 Z"/>
</g>

<g id="Layer0_1_MEMBER_123_MEMBER_0_MEMBER_0_MEMBER_0_FILL">
<path fill="#939393" fill-opacity="0.5843137254901961" stroke="none" d="
M 18.7 106.4
L 18.9 106.4 18.9 106.25 18.7 106.25 18.7 106.4 Z"/>
</g>

<g id="Layer0_1_MEMBER_124_MEMBER_0_MEMBER_0_MEMBER_0_FILL">
<path fill="#B7B7B7" fill-opacity="0.7254901960784313" stroke="none" d="
M 50.7 106.25
L 50.7 106.4 50.95 106.4 50.95 106.25 50.7 106.25
M 17.05 86.9
L 17.05 86.65 16.8 86.65 16.8 86.9 17.05 86.9 Z"/>
</g>

<g id="Layer0_1_MEMBER_125_MEMBER_0_MEMBER_0_MEMBER_0_FILL">
<path fill="#DADADA" fill-opacity="0.8627450980392157" stroke="none" d="
M 19.05 106.4
L 19.25 106.4 19.25 106.25 19.05 106.25 19.05 106.4 Z"/>
</g>

<g id="Layer0_1_MEMBER_126_MEMBER_0_MEMBER_0_MEMBER_0_FILL">
<path fill="#F1F1F1" fill-opacity="0.9529411764705882" stroke="none" d="
M 19.25 106.25
L 19.25 106.4 19.45 106.4 19.45 106.25 19.25 106.25
M 50.4 106.25
L 50.4 106.4 50.65 106.4 50.65 106.25 50.4 106.25 Z"/>
</g>

<g id="Layer0_1_MEMBER_127_MEMBER_0_MEMBER_0_MEMBER_0_FILL">
<path fill="#555555" fill-opacity="0.3411764705882353" stroke="none" d="
M 12.95 106.4
L 18.25 106.4 18.25 106.25 12.95 106.25 12.95 106.4
M 51.7 106.4
L 57 106.4 57 106.25 51.7 106.25 51.7 106.4
M 53.75 92.1
L 53.55 92.1 53.55 92.35 53.75 92.35 53.75 92.1
M 16.8 90.75
L 17.05 90.75 17.05 90.65 16.8 90.65 16.8 90.75
M 16.4 92.1
L 16.15 92.1 16.15 92.35 16.4 92.35 16.4 92.1
M 17.15 85.75
L 17.15 85.9 17.3 85.9 17.3 85.75 17.15 85.75 Z"/>
</g>

<g id="Layer0_1_MEMBER_128_MEMBER_0_MEMBER_0_MEMBER_0_FILL">
<path fill="#737373" fill-opacity="0.4588235294117647" stroke="none" d="
M 51.05 106.25
L 51.05 106.4 51.35 106.4 51.35 106.25 51.05 106.25 Z"/>
</g>

<g id="Layer0_1_MEMBER_129_MEMBER_0_MEMBER_0_MEMBER_0_FILL">
<path fill="#646464" fill-opacity="0.4" stroke="none" d="
M 19.25 106.25
L 19.25 106.1 19.05 106.1 19.05 106.25 19.25 106.25 Z"/>
</g>

<g id="Layer0_1_MEMBER_130_MEMBER_0_MEMBER_0_MEMBER_0_FILL">
<path fill="#1E1E1E" fill-opacity="0.12549019607843137" stroke="none" d="
M 19.65 105.75
L 19.45 105.75 19.45 105.9 19.65 105.9 19.65 105.75 Z"/>
</g>

<g id="Layer0_1_MEMBER_131_MEMBER_0_MEMBER_0_MEMBER_0_FILL">
<path fill="#868686" fill-opacity="0.5333333333333333" stroke="none" d="
M 19.65 105.9
L 19.45 105.9 19.45 106.1 19.65 106.1 19.65 105.9
M 50.4 105.9
L 50.25 105.9 50.25 106.1 50.4 106.1 50.4 105.9
M 56 93.2
L 55.7 93.2 55.7 93.3 56 93.3 56 93.2
M 55.3 91.8
L 55.3 91.6 55.15 91.6 55.15 91.8 55.3 91.8
M 51.7 88
L 51.85 88 51.85 87.8 51.7 87.8 51.7 88
M 14.1 93.2
L 13.85 93.2 13.85 93.3 14.1 93.3 14.1 93.2
M 14.6 91.8
L 14.8 91.8 14.8 91.6 14.6 91.6 14.6 91.8
M 18.25 88
L 18.25 87.8 18.05 87.8 18.05 88 18.25 88 Z"/>
</g>

<g id="Layer0_1_MEMBER_132_MEMBER_0_MEMBER_0_MEMBER_0_FILL">
<path fill="#212121" fill-opacity="0.13725490196078433" stroke="none" d="
M 19.05 106.25
L 19.05 106.1 18.9 106.1 18.9 106.25 19.05 106.25
M 50.95 106.25
L 50.95 106.1 50.7 106.1 50.7 106.25 50.95 106.25 Z"/>
</g>

<g id="Layer0_1_MEMBER_133_MEMBER_0_MEMBER_0_MEMBER_0_FILL">
<path fill="#CECFCF" fill-opacity="0.8196078431372549" stroke="none" d="
M 12.7 102
L 18.4 102 18.4 101.8 12.7 101.8 12.7 102 Z"/>
</g>

<g id="Layer0_1_MEMBER_134_MEMBER_0_MEMBER_0_MEMBER_0_FILL">
<path fill="#D2D2D2" fill-opacity="0.8313725490196079" stroke="none" d="
M 14.1 111.1
L 14.1 111.45 14.3 111.45 14.3 111.1 14.1 111.1
M 19.25 102
L 19.25 102.1 19.45 102.1 19.45 102 19.25 102
M 50.4 102.1
L 50.65 102.1 50.65 102 50.4 102 50.4 102.1
M 55.6 111.45
L 55.7 111.45 55.7 111.1 55.6 111.1 55.6 111.45 Z"/>
</g>

<g id="Layer0_1_MEMBER_135_MEMBER_0_MEMBER_0_MEMBER_0_FILL">
<path fill="#0B0B0B" fill-opacity="0.050980392156862744" stroke="none" d="
M 51.35 102
L 51.05 102 51.05 102.1 51.35 102.1 51.35 102
M 51.5 87.8
L 51.7 87.8 51.7 87.65 51.5 87.65 51.5 87.8
M 54.1 88.9
L 54.1 88.75 53.85 88.75 53.85 88.9 54.1 88.9
M 16.8 90.75
L 16.8 91 17.05 91 17.05 90.75 16.8 90.75
M 16 88.75
L 15.75 88.75 15.75 88.9 16 88.9 16 88.75
M 18.4 87.8
L 18.4 87.65 18.25 87.65 18.25 87.8 18.4 87.8 Z"/>
</g>

<g id="Layer0_1_MEMBER_136_MEMBER_0_MEMBER_0_MEMBER_0_FILL">
<path fill="#363636" fill-opacity="0.2196078431372549" stroke="none" d="
M 18.7 102.1
L 18.9 102.1 18.9 102 18.7 102 18.7 102.1
M 51.35 87.3
L 51.5 87.3 51.5 87.2 51.35 87.2 51.35 87.3
M 52.85 86.25
L 52.85 86.15 52.6 86.15 52.6 86.25 52.85 86.25
M 18.6 87.3
L 18.6 87.2 18.4 87.2 18.4 87.3 18.6 87.3 Z"/>
</g>

<g id="Layer0_1_MEMBER_137_MEMBER_0_MEMBER_0_MEMBER_0_FILL">
<path fill="#9F9F9F" fill-opacity="0.6313725490196078" stroke="none" d="
M 19.25 102
L 19.05 102 19.05 102.1 19.25 102.1 19.25 102 Z"/>
</g>

<g id="Layer0_1_MEMBER_138_MEMBER_0_MEMBER_0_MEMBER_0_FILL">
<path fill="#B3B3B3" fill-opacity="0.7098039215686275" stroke="none" d="
M 19.45 102.3
L 19.65 102.3 19.65 102.1 19.45 102.1 19.45 102.3
M 50.4 102.3
L 50.4 102.1 50.25 102.1 50.25 102.3 50.4 102.3
M 32.15 93.2
L 32.35 93.2 32.35 93 32.15 93 32.15 93.2
M 37.75 93.2
L 37.75 93 37.5 93 37.5 93.2 37.75 93.2 Z"/>
</g>

<g id="Layer0_1_MEMBER_139_MEMBER_0_MEMBER_0_MEMBER_0_FILL">
<path fill="#8A8A8A" fill-opacity="0.5490196078431373" stroke="none" d="
M 19.8 102.8
L 20 102.8 20 102.65 19.8 102.65 19.8 102.8
M 50.05 102.8
L 50.05 102.65 49.95 102.65 49.95 102.8 50.05 102.8 Z"/>
</g>

<g id="Layer0_1_MEMBER_140_MEMBER_0_MEMBER_0_MEMBER_0_FILL">
<path fill="#848484" fill-opacity="0.5254901960784314" stroke="none" d="
M 20.15 103.4
L 20.15 103.15 20 103.15 20 103.4 20.15 103.4
M 49.95 103.4
L 49.95 103.15 49.8 103.15 49.8 103.4 49.95 103.4 Z"/>
</g>

<g id="Layer0_1_MEMBER_141_MEMBER_0_MEMBER_0_MEMBER_0_FILL">
<path fill="#CACACA" fill-opacity="0.8" stroke="none" d="
M 20 103.05
L 20.15 103.05 20.15 102.8 20 102.8 20 103.05
M 49.95 102.8
L 49.8 102.8 49.8 103.05 49.95 103.05 49.95 102.8 Z"/>
</g>

<g id="Layer0_1_MEMBER_142_MEMBER_0_MEMBER_0_MEMBER_0_FILL">
<path fill="#474747" fill-opacity="0.28627450980392155" stroke="none" d="
M 20 102.8
L 19.8 102.8 19.8 103.05 20 103.05 20 102.8
M 49.95 102.8
L 49.95 103.05 50.05 103.05 50.05 102.8 49.95 102.8 Z"/>
</g>

<g id="Layer0_1_MEMBER_143_MEMBER_0_MEMBER_0_MEMBER_0_FILL">
<path fill="#4D4D4D" fill-opacity="0.30980392156862746" stroke="none" d="
M 19.45 102.4
L 19.65 102.4 19.65 102.3 19.45 102.3 19.45 102.4 Z"/>
</g>

<g id="Layer0_1_MEMBER_144_MEMBER_0_MEMBER_0_MEMBER_0_FILL">
<path fill="#E8E8E8" fill-opacity="0.9176470588235294" stroke="none" d="
M 20.15 102.8
L 20.15 102.65 20 102.65 20 102.8 20.15 102.8
M 49.95 102.65
L 49.8 102.65 49.8 102.8 49.95 102.8 49.95 102.65 Z"/>
</g>

<g id="Layer0_1_MEMBER_145_MEMBER_0_MEMBER_0_MEMBER_0_FILL">
<path fill="#F0F0F0" fill-opacity="0.9490196078431372" stroke="none" d="
M 14.5 112.2
L 14.5 111.9 14.3 111.9 14.3 112.2 14.5 112.2
M 19.8 102.4
L 20 102.4 20 102.3 19.8 102.3 19.8 102.4
M 55.45 111.9
L 55.45 112.2 55.6 112.2 55.6 111.9 55.45 111.9 Z"/>
</g>

<g id="Layer0_1_MEMBER_146_MEMBER_0_MEMBER_0_MEMBER_0_FILL">
<path fill="#828282" fill-opacity="0.5176470588235295" stroke="none" d="
M 14.3 111.55
L 14.5 111.55 14.5 111.45 14.3 111.45 14.3 111.55
M 55.45 111.55
L 55.6 111.55 55.6 111.45 55.45 111.45 55.45 111.55 Z"/>
</g>

<g id="Layer0_1_MEMBER_147_MEMBER_0_MEMBER_0_MEMBER_0_FILL">
<path fill="#B4B4B4" fill-opacity="0.7137254901960784" stroke="none" d="
M 14.6 112.2
L 14.6 111.9 14.5 111.9 14.5 112.2 14.6 112.2
M 55.45 112.2
L 55.45 111.9 55.3 111.9 55.3 112.2 55.45 112.2 Z"/>
</g>

<g id="Layer0_1_MEMBER_148_MEMBER_0_MEMBER_0_MEMBER_0_FILL">
<path fill="#353535" fill-opacity="0.21568627450980393" stroke="none" d="
M 14.6 111.75
L 14.6 111.55 14.5 111.55 14.5 111.75 14.6 111.75
M 55.45 111.75
L 55.45 111.55 55.3 111.55 55.3 111.75 55.45 111.75 Z"/>
</g>

<g id="Layer0_1_MEMBER_149_MEMBER_0_MEMBER_0_MEMBER_0_FILL">
<path fill="#CBCBCB" fill-opacity="0.803921568627451" stroke="none" d="
M 14.5 110.65
L 14.3 110.65 14.3 110.8 14.5 110.8 14.5 110.65
M 14.5 111.75
L 14.3 111.75 14.3 111.9 14.5 111.9 14.5 111.75
M 55.6 110.65
L 55.45 110.65 55.45 110.8 55.6 110.8 55.6 110.65
M 55.45 111.9
L 55.6 111.9 55.6 111.75 55.45 111.75 55.45 111.9 Z"/>
</g>

<g id="Layer0_1_MEMBER_150_MEMBER_0_MEMBER_0_MEMBER_0_FILL">
<path fill="#A0A0A0" fill-opacity="0.6352941176470588" stroke="none" d="
M 14.5 111.55
L 14.3 111.55 14.3 111.75 14.5 111.75 14.5 111.55
M 55.45 111.75
L 55.6 111.75 55.6 111.55 55.45 111.55 55.45 111.75 Z"/>
</g>

<g id="Layer0_1_MEMBER_151_MEMBER_0_MEMBER_0_MEMBER_0_FILL">
<path fill="#EDEDED" fill-opacity="0.9372549019607843" stroke="none" d="
M 14.3 110.8
L 14.1 110.8 14.1 110.95 14.3 110.95 14.3 110.8
M 14.3 111.55
L 14.1 111.55 14.1 111.75 14.3 111.75 14.3 111.55
M 55.6 111.55
L 55.6 111.75 55.7 111.75 55.7 111.55 55.6 111.55 Z"/>
</g>

<g id="Layer0_1_MEMBER_152_MEMBER_0_MEMBER_0_MEMBER_0_FILL">
<path fill="#DCDCDC" fill-opacity="0.8705882352941177" stroke="none" d="
M 14.3 111.1
L 14.3 110.95 14.1 110.95 14.1 111.1 14.3 111.1
M 14.3 111.55
L 14.3 111.45 14.1 111.45 14.1 111.55 14.3 111.55
M 55.7 111.1
L 55.7 110.95 55.6 110.95 55.6 111.1 55.7 111.1 Z"/>
</g>

<g id="Layer0_1_MEMBER_153_MEMBER_0_MEMBER_0_MEMBER_0_FILL">
<path fill="#747474" fill-opacity="0.4627450980392157" stroke="none" d="
M 14.3 111.45
L 14.5 111.45 14.5 111.1 14.3 111.1 14.3 111.45
M 55.45 111.45
L 55.6 111.45 55.6 111.1 55.45 111.1 55.45 111.45 Z"/>
</g>

<g id="Layer0_1_MEMBER_154_MEMBER_0_MEMBER_0_MEMBER_0_FILL">
<path fill="#F4F4F4" fill-opacity="0.9647058823529412" stroke="none" d="
M 14.6 112.5
L 14.8 112.5 14.8 112.25 14.6 112.25 14.6 112.5
M 55.15 112.25
L 55.15 112.5 55.3 112.5 55.3 112.25 55.15 112.25 Z"/>
</g>

<g id="Layer0_1_MEMBER_155_MEMBER_0_MEMBER_0_MEMBER_0_FILL">
<path fill="#656565" fill-opacity="0.403921568627451" stroke="none" d="
M 15.15 112.5
L 15.25 112.5 15.25 112.25 15.15 112.25 15.15 112.5
M 54.5 112.5
L 54.75 112.5 54.75 112.25 54.5 112.25 54.5 112.5 Z"/>
</g>

<g id="Layer0_1_MEMBER_156_MEMBER_0_MEMBER_0_MEMBER_0_FILL">
<path fill="#181818" fill-opacity="0.10196078431372549" stroke="none" d="
M 15.25 112.5
L 15.4 112.5 15.4 112.25 15.25 112.25 15.25 112.5 Z"/>
</g>

<g id="Layer0_1_MEMBER_157_MEMBER_0_MEMBER_0_MEMBER_0_FILL">
<path fill="#696969" fill-opacity="0.4196078431372549" stroke="none" d="
M 14.8 110.2
L 14.8 110.35 14.95 110.35 14.95 110.2 14.8 110.2
M 54.8 110.35
L 55.15 110.35 55.15 110.2 54.8 110.2 54.8 110.35 Z"/>
</g>

<g id="Layer0_1_MEMBER_158_MEMBER_0_MEMBER_0_MEMBER_0_FILL">
<path fill="#B5B5B5" fill-opacity="0.7176470588235294" stroke="none" d="
M 14.6 110.65
L 14.6 110.35 14.5 110.35 14.5 110.65 14.6 110.65
M 15.15 110.2
L 15.15 110.05 14.95 110.05 14.95 110.2 15.15 110.2
M 55.45 110.65
L 55.45 110.35 55.3 110.35 55.3 110.65 55.45 110.65 Z"/>
</g>

<g id="Layer0_1_MEMBER_159_MEMBER_0_MEMBER_0_MEMBER_0_FILL">
<path fill="#F8F8F8" fill-opacity="0.9803921568627451" stroke="none" d="
M 14.8 110.05
L 14.6 110.05 14.6 110.2 14.8 110.2 14.8 110.05
M 55.3 110.2
L 55.3 110.05 55.15 110.05 55.15 110.2 55.3 110.2 Z"/>
</g>

<g id="Layer0_1_MEMBER_160_MEMBER_0_MEMBER_0_MEMBER_0_FILL">
<path fill="#545454" fill-opacity="0.33725490196078434" stroke="none" d="
M 14.8 110.35
L 14.6 110.35 14.6 110.65 14.8 110.65 14.8 110.35
M 55.3 110.65
L 55.3 110.35 55.15 110.35 55.15 110.65 55.3 110.65 Z"/>
</g>

<g id="Layer0_1_MEMBER_161_MEMBER_0_MEMBER_0_MEMBER_0_FILL">
<path fill="#858585" fill-opacity="0.5294117647058824" stroke="none" d="
M 14.5 111.1
L 14.5 110.95 14.3 110.95 14.3 111.1 14.5 111.1
M 55.6 111.1
L 55.6 110.95 55.45 110.95 55.45 111.1 55.6 111.1 Z"/>
</g>

<g id="Layer0_1_MEMBER_162_MEMBER_0_MEMBER_0_MEMBER_0_FILL">
<path fill="#A2A2A2" fill-opacity="0.6431372549019608" stroke="none" d="
M 14.5 110.8
L 14.3 110.8 14.3 110.95 14.5 110.95 14.5 110.8
M 55.6 110.8
L 55.45 110.8 55.45 110.95 55.6 110.95 55.6 110.8 Z"/>
</g>

<g id="Layer0_1_MEMBER_163_MEMBER_0_MEMBER_0_MEMBER_0_FILL">
<path fill="#5C5C5C" fill-opacity="0.3686274509803922" stroke="none" d="
M 54.75 90.45
L 54.5 90.45 54.5 90.65 54.75 90.65 54.75 90.45
M 55.6 94.55
L 55.45 94.55 55.45 94.75 55.6 94.75 55.6 94.55
M 15.25 90.65
L 15.25 90.45 15.15 90.45 15.15 90.65 15.25 90.65
M 14.3 94.75
L 14.5 94.75 14.5 94.55 14.3 94.55 14.3 94.75 Z"/>
</g>

<g id="Layer0_1_MEMBER_164_MEMBER_0_MEMBER_0_MEMBER_0_FILL">
<path fill="#B8B8B8" fill-opacity="0.7294117647058823" stroke="none" d="
M 53.25 91.4
L 53.4 91.4 53.4 91.3 53.25 91.3 53.25 91.4
M 53.75 88.35
L 53.75 88.1 53.55 88.1 53.55 88.35 53.75 88.35
M 14.1 94.55
L 14.3 94.55 14.3 94.45 14.1 94.45 14.1 94.55
M 16.7 91.4
L 16.7 91.3 16.5 91.3 16.5 91.4 16.7 91.4
M 16.15 88.1
L 16.15 88.35 16.4 88.35 16.4 88.1 16.15 88.1 Z"/>
</g>

<g id="Layer0_1_MEMBER_165_MEMBER_0_MEMBER_0_MEMBER_0_FILL">
<path fill="#9A9A9A" fill-opacity="0.611764705882353" stroke="none" d="
M 56 94.2
L 55.7 94.2 55.7 94.45 56 94.45 56 94.2
M 13.85 94.45
L 14.1 94.45 14.1 94.2 13.85 94.2 13.85 94.45 Z"/>
</g>

<g id="Layer0_1_MEMBER_166_MEMBER_0_MEMBER_0_MEMBER_0_FILL">
<path fill="#161616" fill-opacity="0.09411764705882353" stroke="none" d="
M 55.3 91.6
L 55.3 91.4 55.15 91.4 55.15 91.6 55.3 91.6
M 55.7 93
L 55.7 93.2 56 93.2 56 93 55.7 93
M 52.25 85.3
L 52.25 85.45 52.55 85.45 52.55 85.3 52.25 85.3
M 14.1 93
L 13.85 93 13.85 93.2 14.1 93.2 14.1 93
M 14.8 91.4
L 14.6 91.4 14.6 91.6 14.8 91.6 14.8 91.4
M 18.9 86.45
L 18.7 86.45 18.7 86.65 18.9 86.65 18.9 86.45
M 17.55 85.3
L 17.3 85.3 17.3 85.45 17.55 85.45 17.55 85.3 Z"/>
</g>

<g id="Layer0_1_MEMBER_167_MEMBER_0_MEMBER_0_MEMBER_0_FILL">
<path fill="#C1C1C1" fill-opacity="0.7647058823529411" stroke="none" d="
M 14.1 93
L 14.3 93 14.3 92.85 14.1 92.85 14.1 93 Z"/>
</g>

<g id="Layer0_1_MEMBER_168_MEMBER_0_MEMBER_0_MEMBER_0_FILL">
<path fill="#BDBDBD" fill-opacity="0.7490196078431373" stroke="none" d="
M 55.15 91.3
L 54.8 91.3 54.8 91.4 55.15 91.4 55.15 91.3 Z"/>
</g>

<g id="Layer0_1_MEMBER_169_MEMBER_0_MEMBER_0_MEMBER_0_FILL">
<path fill="#FBFBFB" fill-opacity="0.9921568627450981" stroke="none" d="
M 15.15 91.1
L 15.15 91 14.95 91 14.95 91.1 15.15 91.1 Z"/>
</g>

<g id="Layer0_1_MEMBER_170_MEMBER_0_MEMBER_0_MEMBER_0_FILL">
<path fill="#3A3A3A" fill-opacity="0.23529411764705882" stroke="none" d="
M 52.6 90.25
L 52.6 90.45 52.85 90.45 52.85 90.25 52.6 90.25
M 51.95 88.75
L 51.95 88.9 52.15 88.9 52.15 88.75 51.95 88.75
M 17.15 90.45
L 17.15 90.25 17.05 90.25 17.05 90.45 17.15 90.45
M 15.15 90.75
L 14.95 90.75 14.95 91 15.15 91 15.15 90.75 Z"/>
</g>

<g id="Layer0_1_MEMBER_171_MEMBER_0_MEMBER_0_MEMBER_0_FILL">
<path fill="#808080" fill-opacity="0.5098039215686274" stroke="none" d="
M 53.25 91
L 52.9 91 52.9 91.1 53.25 91.1 53.25 91 Z"/>
</g>

<g id="Layer0_1_MEMBER_172_MEMBER_0_MEMBER_0_MEMBER_0_FILL">
<path fill="#7E7E7E" fill-opacity="0.5019607843137255" stroke="none" d="
M 53.85 88.55
L 53.75 88.55 53.75 88.75 53.85 88.75 53.85 88.55
M 16.15 88.75
L 16.15 88.55 16 88.55 16 88.75 16.15 88.75 Z"/>
</g>

<g id="Layer0_1_MEMBER_173_MEMBER_0_MEMBER_0_MEMBER_0_FILL">
<path fill="#222222" fill-opacity="0.1411764705882353" stroke="none" d="
M 54.45 89.7
L 54.45 89.55 54.15 89.55 54.15 89.7 54.45 89.7
M 15.7 89.7
L 15.7 89.55 15.4 89.55 15.4 89.7 15.7 89.7 Z"/>
</g>

<g id="Layer0_1_MEMBER_174_MEMBER_0_MEMBER_0_MEMBER_0_FILL">
<path fill="#3C3C3C" fill-opacity="0.24313725490196078" stroke="none" d="
M 53.55 87.8
L 53.55 87.65 53.4 87.65 53.4 87.8 53.55 87.8
M 16.5 87.8
L 16.5 87.65 16.4 87.65 16.4 87.8 16.5 87.8 Z"/>
</g>

<g id="Layer0_1_MEMBER_175_MEMBER_0_MEMBER_0_MEMBER_0_FILL">
<path fill="#535353" fill-opacity="0.3333333333333333" stroke="none" d="
M 53.25 87.3
L 53.25 87.55 53.4 87.55 53.4 87.3 53.25 87.3
M 16.5 87.55
L 16.7 87.55 16.7 87.3 16.5 87.3 16.5 87.55 Z"/>
</g>

<g id="Layer0_1_MEMBER_176_MEMBER_0_MEMBER_0_MEMBER_0_FILL">
<path fill="#7C7C7C" fill-opacity="0.49411764705882355" stroke="none" d="
M 53.25 87
L 52.9 87 52.9 87.2 53.25 87.2 53.25 87
M 16.7 87.2
L 16.8 87.2 16.8 87 16.7 87 16.7 87.2 Z"/>
</g>

<g id="Layer0_1_MEMBER_177_MEMBER_0_MEMBER_0_MEMBER_0_FILL">
<path fill="#242424" fill-opacity="0.14901960784313725" stroke="none" d="
M 51.95 88.35
L 51.85 88.35 51.85 88.55 51.95 88.55 51.95 88.35
M 50.7 82.15
L 50.7 82.3 50.95 82.3 50.95 82.15 50.7 82.15
M 17.3 90.15
L 17.3 89.9 17.15 89.9 17.15 90.15 17.3 90.15
M 17.9 88.55
L 18.05 88.55 18.05 88.35 17.9 88.35 17.9 88.55
M 17.05 86.45
L 16.8 86.45 16.8 86.65 17.05 86.65 17.05 86.45 Z"/>
</g>

<g id="Layer0_1_MEMBER_178_MEMBER_0_MEMBER_0_MEMBER_0_FILL">
<path fill="#414141" fill-opacity="0.2627450980392157" stroke="none" d="
M 52.25 84.85
L 52.15 84.85 52.15 85.1 52.25 85.1 52.25 84.85
M 17.55 85.1
L 17.8 85.1 17.8 84.85 17.55 84.85 17.55 85.1 Z"/>
</g>

<g id="Layer0_1_MEMBER_179_MEMBER_0_MEMBER_0_MEMBER_0_FILL">
<path fill="#4B4B4B" fill-opacity="0.30196078431372547" stroke="none" d="
M 51.7 83.55
L 51.5 83.55 51.5 83.7 51.7 83.7 51.7 83.55
M 18.4 83.55
L 18.25 83.55 18.25 83.7 18.4 83.7 18.4 83.55 Z"/>
</g>

<g id="Layer0_1_MEMBER_180_MEMBER_0_MEMBER_0_MEMBER_0_FILL">
<path fill="#9E9E9E" fill-opacity="0.6274509803921569" stroke="none" d="
M 50.65 81.95
L 50.4 81.95 50.4 82.15 50.65 82.15 50.65 81.95
M 19.45 81.95
L 19.25 81.95 19.25 82.15 19.45 82.15 19.45 81.95 Z"/>
</g>

<g id="Layer0_1_MEMBER_181_MEMBER_0_MEMBER_0_MEMBER_0_FILL">
<path fill="#CCCCCC" fill-opacity="0.807843137254902" stroke="none" d="
M 53.85 93
L 53.85 93.2 54.1 93.2 54.1 93 53.85 93
M 16 93.2
L 16 93 15.75 93 15.75 93.2 16 93.2 Z"/>
</g>

<g id="Layer0_1_MEMBER_182_MEMBER_0_MEMBER_0_MEMBER_0_FILL">
<path fill="#333333" fill-opacity="0.20784313725490197" stroke="none" d="
M 53.4 92.05
L 53.55 92.05 53.55 91.8 53.4 91.8 53.4 92.05
M 16.4 92.05
L 16.5 92.05 16.5 91.8 16.4 91.8 16.4 92.05 Z"/>
</g>

<g id="Layer0_1_MEMBER_183_MEMBER_0_MEMBER_0_MEMBER_0_FILL">
<path fill="#E9E9E9" fill-opacity="0.9215686274509803" stroke="none" d="
M 53.4 91.8
L 53.55 91.8 53.55 91.6 53.4 91.6 53.4 91.8
M 16.5 91.8
L 16.5 91.6 16.4 91.6 16.4 91.8 16.5 91.8 Z"/>
</g>

<g id="Layer0_1_MEMBER_184_MEMBER_0_MEMBER_0_MEMBER_0_FILL">
<path fill="#5D5D5D" fill-opacity="0.37254901960784315" stroke="none" d="
M 17.8 89.2
L 17.8 89.1 17.55 89.1 17.55 89.2 17.8 89.2 Z"/>
</g>

<g id="Layer0_1_MEMBER_185_MEMBER_0_MEMBER_0_MEMBER_0_FILL">
<path fill="#0F0F0F" fill-opacity="0.06666666666666667" stroke="none" d="
M 50.95 86.25
L 50.95 86.15 50.7 86.15 50.7 86.25 50.95 86.25
M 52.25 89.2
L 52.15 89.2 52.15 89.4 52.25 89.4 52.25 89.2
M 17.8 89.2
L 17.55 89.2 17.55 89.4 17.8 89.4 17.8 89.2 Z"/>
</g>

<g id="Layer0_1_MEMBER_186_MEMBER_0_MEMBER_0_MEMBER_0_FILL">
<path fill="#BABABA" fill-opacity="0.7372549019607844" stroke="none" d="
M 51.85 88.35
L 51.95 88.35 51.95 88.1 51.85 88.1 51.85 88.35
M 17.9 88.35
L 18.05 88.35 18.05 88.1 17.9 88.1 17.9 88.35 Z"/>
</g>

<g id="Layer0_1_MEMBER_187_MEMBER_0_MEMBER_0_MEMBER_0_FILL">
<path fill="#282828" fill-opacity="0.16470588235294117" stroke="none" d="
M 51.05 87
L 51.35 87 51.35 86.9 51.05 86.9 51.05 87 Z"/>
</g>

<g id="Layer0_1_MEMBER_188_MEMBER_0_MEMBER_0_MEMBER_0_FILL">
<path fill="#C4C4C4" fill-opacity="0.7764705882352941" stroke="none" d="
M 51.35 86.9
L 51.35 86.65 51.05 86.65 51.05 86.9 51.35 86.9
M 18.7 86.9
L 18.7 86.65 18.6 86.65 18.6 86.9 18.7 86.9 Z"/>
</g>
</defs>

<g transform="matrix( 1, 0, 0, 1, 0,0) ">
<use xlink:href="#Layer0_0_MEMBER_0_MEMBER_0_MEMBER_0_FILL"/>
</g>

<g transform="matrix( 1.0179290771484375, 0, 0, 1.0179290771484375, -0.55,-5.4) ">
<use xlink:href="#Layer0_1_MEMBER_0_MEMBER_0_MEMBER_0_MEMBER_0_FILL"/>
</g>

<g transform="matrix( 1.0179290771484375, 0, 0, 1.0179290771484375, -0.55,-5.4) ">
<use xlink:href="#Layer0_1_MEMBER_1_MEMBER_0_MEMBER_0_MEMBER_0_FILL"/>
</g>

<g transform="matrix( 1.0179290771484375, 0, 0, 1.0179290771484375, -0.55,-5.4) ">
<use xlink:href="#Layer0_1_MEMBER_2_MEMBER_0_MEMBER_0_MEMBER_0_FILL"/>
</g>

<g transform="matrix( 1.0179290771484375, 0, 0, 1.0179290771484375, -0.55,-5.4) ">
<use xlink:href="#Layer0_1_MEMBER_3_MEMBER_0_MEMBER_0_MEMBER_0_FILL"/>
</g>

<g transform="matrix( 1.0179290771484375, 0, 0, 1.0179290771484375, -0.55,-5.4) ">
<use xlink:href="#Layer0_1_MEMBER_4_MEMBER_0_MEMBER_0_MEMBER_0_FILL"/>
</g>

<g transform="matrix( 1.0179290771484375, 0, 0, 1.0179290771484375, -0.55,-5.4) ">
<use xlink:href="#Layer0_1_MEMBER_5_MEMBER_0_MEMBER_0_MEMBER_0_FILL"/>
</g>

<g transform="matrix( 1.0179290771484375, 0, 0, 1.0179290771484375, -0.55,-5.4) ">
<use xlink:href="#Layer0_1_MEMBER_6_MEMBER_0_MEMBER_0_MEMBER_0_FILL"/>
</g>

<g transform="matrix( 1.0179290771484375, 0, 0, 1.0179290771484375, -0.55,-5.4) ">
<use xlink:href="#Layer0_1_MEMBER_7_MEMBER_0_MEMBER_0_MEMBER_0_FILL"/>
</g>

<g transform="matrix( 1.0179290771484375, 0, 0, 1.0179290771484375, -0.55,-5.4) ">
<use xlink:href="#Layer0_1_MEMBER_8_MEMBER_0_MEMBER_0_MEMBER_0_FILL"/>
</g>

<g transform="matrix( 1.0179290771484375, 0, 0, 1.0179290771484375, -0.55,-5.4) ">
<use xlink:href="#Layer0_1_MEMBER_9_MEMBER_0_MEMBER_0_MEMBER_0_FILL"/>
</g>

<g transform="matrix( 1.0179290771484375, 0, 0, 1.0179290771484375, -0.55,-5.4) ">
<use xlink:href="#Layer0_1_MEMBER_10_MEMBER_0_MEMBER_0_MEMBER_0_FILL"/>
</g>

<g transform="matrix( 1.0179290771484375, 0, 0, 1.0179290771484375, -0.55,-5.4) ">
<use xlink:href="#Layer0_1_MEMBER_11_MEMBER_0_MEMBER_0_MEMBER_0_FILL"/>
</g>

<g transform="matrix( 1.0179290771484375, 0, 0, 1.0179290771484375, -0.55,-5.4) ">
<use xlink:href="#Layer0_1_MEMBER_12_MEMBER_0_MEMBER_0_MEMBER_0_FILL"/>
</g>

<g transform="matrix( 1.0179290771484375, 0, 0, 1.0179290771484375, -0.55,-5.4) ">
<use xlink:href="#Layer0_1_MEMBER_13_MEMBER_0_MEMBER_0_MEMBER_0_FILL"/>
</g>

<g transform="matrix( 1.0179290771484375, 0, 0, 1.0179290771484375, -0.55,-5.4) ">
<use xlink:href="#Layer0_1_MEMBER_14_MEMBER_0_MEMBER_0_MEMBER_0_FILL"/>
</g>

<g transform="matrix( 1.0179290771484375, 0, 0, 1.0179290771484375, -0.55,-5.4) ">
<use xlink:href="#Layer0_1_MEMBER_15_MEMBER_0_MEMBER_0_MEMBER_0_FILL"/>
</g>

<g transform="matrix( 1.0179290771484375, 0, 0, 1.0179290771484375, -0.55,-5.4) ">
<use xlink:href="#Layer0_1_MEMBER_16_MEMBER_0_MEMBER_0_MEMBER_0_FILL"/>
</g>

<g transform="matrix( 1.0179290771484375, 0, 0, 1.0179290771484375, -0.55,-5.4) ">
<use xlink:href="#Layer0_1_MEMBER_17_MEMBER_0_MEMBER_0_MEMBER_0_FILL"/>
</g>

<g transform="matrix( 1.0179290771484375, 0, 0, 1.0179290771484375, -0.55,-5.4) ">
<use xlink:href="#Layer0_1_MEMBER_18_MEMBER_0_MEMBER_0_MEMBER_0_FILL"/>
</g>

<g transform="matrix( 1.0179290771484375, 0, 0, 1.0179290771484375, -0.55,-5.4) ">
<use xlink:href="#Layer0_1_MEMBER_19_MEMBER_0_MEMBER_0_MEMBER_0_FILL"/>
</g>

<g transform="matrix( 1.0179290771484375, 0, 0, 1.0179290771484375, -0.55,-5.4) ">
<use xlink:href="#Layer0_1_MEMBER_20_MEMBER_0_MEMBER_0_MEMBER_0_FILL"/>
</g>

<g transform="matrix( 1.0179290771484375, 0, 0, 1.0179290771484375, -0.55,-5.4) ">
<use xlink:href="#Layer0_1_MEMBER_21_MEMBER_0_MEMBER_0_MEMBER_0_FILL"/>
</g>

<g transform="matrix( 1.0179290771484375, 0, 0, 1.0179290771484375, -0.55,-5.4) ">
<use xlink:href="#Layer0_1_MEMBER_22_MEMBER_0_MEMBER_0_MEMBER_0_FILL"/>
</g>

<g transform="matrix( 1.0179290771484375, 0, 0, 1.0179290771484375, -0.55,-5.4) ">
<use xlink:href="#Layer0_1_MEMBER_23_MEMBER_0_MEMBER_0_MEMBER_0_FILL"/>
</g>

<g transform="matrix( 1.0179290771484375, 0, 0, 1.0179290771484375, -0.55,-5.4) ">
<use xlink:href="#Layer0_1_MEMBER_24_MEMBER_0_MEMBER_0_MEMBER_0_FILL"/>
</g>

<g transform="matrix( 1.0179290771484375, 0, 0, 1.0179290771484375, -0.55,-5.4) ">
<use xlink:href="#Layer0_1_MEMBER_25_MEMBER_0_MEMBER_0_MEMBER_0_FILL"/>
</g>

<g transform="matrix( 1.0179290771484375, 0, 0, 1.0179290771484375, -0.55,-5.4) ">
<use xlink:href="#Layer0_1_MEMBER_26_MEMBER_0_MEMBER_0_MEMBER_0_FILL"/>
</g>

<g transform="matrix( 1.0179290771484375, 0, 0, 1.0179290771484375, -0.55,-5.4) ">
<use xlink:href="#Layer0_1_MEMBER_27_MEMBER_0_MEMBER_0_MEMBER_0_FILL"/>
</g>

<g transform="matrix( 1.0179290771484375, 0, 0, 1.0179290771484375, -0.55,-5.4) ">
<use xlink:href="#Layer0_1_MEMBER_28_MEMBER_0_MEMBER_0_MEMBER_0_FILL"/>
</g>

<g transform="matrix( 1.0179290771484375, 0, 0, 1.0179290771484375, -0.55,-5.4) ">
<use xlink:href="#Layer0_1_MEMBER_29_MEMBER_0_MEMBER_0_MEMBER_0_FILL"/>
</g>

<g transform="matrix( 1.0179290771484375, 0, 0, 1.0179290771484375, -0.55,-5.4) ">
<use xlink:href="#Layer0_1_MEMBER_30_MEMBER_0_MEMBER_0_MEMBER_0_FILL"/>
</g>

<g transform="matrix( 1.0179290771484375, 0, 0, 1.0179290771484375, -0.55,-5.4) ">
<use xlink:href="#Layer0_1_MEMBER_31_MEMBER_0_MEMBER_0_MEMBER_0_FILL"/>
</g>

<g transform="matrix( 1.0179290771484375, 0, 0, 1.0179290771484375, -0.55,-5.4) ">
<use xlink:href="#Layer0_1_MEMBER_32_MEMBER_0_MEMBER_0_MEMBER_0_FILL"/>
</g>

<g transform="matrix( 1.0179290771484375, 0, 0, 1.0179290771484375, -0.55,-5.4) ">
<use xlink:href="#Layer0_1_MEMBER_33_MEMBER_0_MEMBER_0_MEMBER_0_FILL"/>
</g>

<g transform="matrix( 1.0179290771484375, 0, 0, 1.0179290771484375, -0.55,-5.4) ">
<use xlink:href="#Layer0_1_MEMBER_34_MEMBER_0_MEMBER_0_MEMBER_0_FILL"/>
</g>

<g transform="matrix( 1.0179290771484375, 0, 0, 1.0179290771484375, -0.55,-5.4) ">
<use xlink:href="#Layer0_1_MEMBER_35_MEMBER_0_MEMBER_0_MEMBER_0_FILL"/>
</g>

<g transform="matrix( 1.0179290771484375, 0, 0, 1.0179290771484375, -0.55,-5.4) ">
<use xlink:href="#Layer0_1_MEMBER_36_MEMBER_0_MEMBER_0_MEMBER_0_FILL"/>
</g>

<g transform="matrix( 1.0179290771484375, 0, 0, 1.0179290771484375, -0.55,-5.4) ">
<use xlink:href="#Layer0_1_MEMBER_37_MEMBER_0_MEMBER_0_MEMBER_0_FILL"/>
</g>

<g transform="matrix( 1.0179290771484375, 0, 0, 1.0179290771484375, -0.55,-5.4) ">
<use xlink:href="#Layer0_1_MEMBER_38_MEMBER_0_MEMBER_0_MEMBER_0_FILL"/>
</g>

<g transform="matrix( 1.0179290771484375, 0, 0, 1.0179290771484375, -0.55,-5.4) ">
<use xlink:href="#Layer0_1_MEMBER_39_MEMBER_0_MEMBER_0_MEMBER_0_FILL"/>
</g>

<g transform="matrix( 1.0179290771484375, 0, 0, 1.0179290771484375, -0.55,-5.4) ">
<use xlink:href="#Layer0_1_MEMBER_40_MEMBER_0_MEMBER_0_MEMBER_0_FILL"/>
</g>

<g transform="matrix( 1.0179290771484375, 0, 0, 1.0179290771484375, -0.55,-5.4) ">
<use xlink:href="#Layer0_1_MEMBER_41_MEMBER_0_MEMBER_0_MEMBER_0_FILL"/>
</g>

<g transform="matrix( 1.0179290771484375, 0, 0, 1.0179290771484375, -0.55,-5.4) ">
<use xlink:href="#Layer0_1_MEMBER_42_MEMBER_0_MEMBER_0_MEMBER_0_FILL"/>
</g>

<g transform="matrix( 1.0179290771484375, 0, 0, 1.0179290771484375, -0.55,-5.4) ">
<use xlink:href="#Layer0_1_MEMBER_43_MEMBER_0_MEMBER_0_MEMBER_0_FILL"/>
</g>

<g transform="matrix( 1.0179290771484375, 0, 0, 1.0179290771484375, -0.55,-5.4) ">
<use xlink:href="#Layer0_1_MEMBER_44_MEMBER_0_MEMBER_0_MEMBER_0_FILL"/>
</g>

<g transform="matrix( 1.0179290771484375, 0, 0, 1.0179290771484375, -0.55,-5.4) ">
<use xlink:href="#Layer0_1_MEMBER_45_MEMBER_0_MEMBER_0_MEMBER_0_FILL"/>
</g>

<g transform="matrix( 1.0179290771484375, 0, 0, 1.0179290771484375, -0.55,-5.4) ">
<use xlink:href="#Layer0_1_MEMBER_46_MEMBER_0_MEMBER_0_MEMBER_0_FILL"/>
</g>

<g transform="matrix( 1.0179290771484375, 0, 0, 1.0179290771484375, -0.55,-5.4) ">
<use xlink:href="#Layer0_1_MEMBER_47_MEMBER_0_MEMBER_0_MEMBER_0_FILL"/>
</g>

<g transform="matrix( 1.0179290771484375, 0, 0, 1.0179290771484375, -0.55,-5.4) ">
<use xlink:href="#Layer0_1_MEMBER_48_MEMBER_0_MEMBER_0_MEMBER_0_FILL"/>
</g>

<g transform="matrix( 1.0179290771484375, 0, 0, 1.0179290771484375, -0.55,-5.4) ">
<use xlink:href="#Layer0_1_MEMBER_49_MEMBER_0_MEMBER_0_MEMBER_0_FILL"/>
</g>

<g transform="matrix( 1.0179290771484375, 0, 0, 1.0179290771484375, -0.55,-5.4) ">
<use xlink:href="#Layer0_1_MEMBER_50_MEMBER_0_MEMBER_0_MEMBER_0_FILL"/>
</g>

<g transform="matrix( 1.0179290771484375, 0, 0, 1.0179290771484375, -0.55,-5.4) ">
<use xlink:href="#Layer0_1_MEMBER_51_MEMBER_0_MEMBER_0_MEMBER_0_FILL"/>
</g>

<g transform="matrix( 1.0179290771484375, 0, 0, 1.0179290771484375, -0.55,-5.4) ">
<use xlink:href="#Layer0_1_MEMBER_52_MEMBER_0_MEMBER_0_MEMBER_0_FILL"/>
</g>

<g transform="matrix( 1.0179290771484375, 0, 0, 1.0179290771484375, -0.55,-5.4) ">
<use xlink:href="#Layer0_1_MEMBER_53_MEMBER_0_MEMBER_0_MEMBER_0_FILL"/>
</g>

<g transform="matrix( 1.0179290771484375, 0, 0, 1.0179290771484375, -0.55,-5.4) ">
<use xlink:href="#Layer0_1_MEMBER_54_MEMBER_0_MEMBER_0_MEMBER_0_FILL"/>
</g>

<g transform="matrix( 1.0179290771484375, 0, 0, 1.0179290771484375, -0.55,-5.4) ">
<use xlink:href="#Layer0_1_MEMBER_55_MEMBER_0_MEMBER_0_MEMBER_0_FILL"/>
</g>

<g transform="matrix( 1.0179290771484375, 0, 0, 1.0179290771484375, -0.55,-5.4) ">
<use xlink:href="#Layer0_1_MEMBER_56_MEMBER_0_MEMBER_0_MEMBER_0_FILL"/>
</g>

<g transform="matrix( 1.0179290771484375, 0, 0, 1.0179290771484375, -0.55,-5.4) ">
<use xlink:href="#Layer0_1_MEMBER_57_MEMBER_0_MEMBER_0_MEMBER_0_FILL"/>
</g>

<g transform="matrix( 1.0179290771484375, 0, 0, 1.0179290771484375, -0.55,-5.4) ">
<use xlink:href="#Layer0_1_MEMBER_58_MEMBER_0_MEMBER_0_MEMBER_0_FILL"/>
</g>

<g transform="matrix( 1.0179290771484375, 0, 0, 1.0179290771484375, -0.55,-5.4) ">
<use xlink:href="#Layer0_1_MEMBER_59_MEMBER_0_MEMBER_0_MEMBER_0_FILL"/>
</g>

<g transform="matrix( 1.0179290771484375, 0, 0, 1.0179290771484375, -0.55,-5.4) ">
<use xlink:href="#Layer0_1_MEMBER_60_MEMBER_0_MEMBER_0_MEMBER_0_FILL"/>
</g>

<g transform="matrix( 1.0179290771484375, 0, 0, 1.0179290771484375, -0.55,-5.4) ">
<use xlink:href="#Layer0_1_MEMBER_61_MEMBER_0_MEMBER_0_MEMBER_0_FILL"/>
</g>

<g transform="matrix( 1.0179290771484375, 0, 0, 1.0179290771484375, -0.55,-5.4) ">
<use xlink:href="#Layer0_1_MEMBER_62_MEMBER_0_MEMBER_0_MEMBER_0_FILL"/>
</g>

<g transform="matrix( 1.0179290771484375, 0, 0, 1.0179290771484375, -0.55,-5.4) ">
<use xlink:href="#Layer0_1_MEMBER_63_MEMBER_0_MEMBER_0_MEMBER_0_FILL"/>
</g>

<g transform="matrix( 1.0179290771484375, 0, 0, 1.0179290771484375, -0.55,-5.4) ">
<use xlink:href="#Layer0_1_MEMBER_64_MEMBER_0_MEMBER_0_MEMBER_0_FILL"/>
</g>

<g transform="matrix( 1.0179290771484375, 0, 0, 1.0179290771484375, -0.55,-5.4) ">
<use xlink:href="#Layer0_1_MEMBER_65_MEMBER_0_MEMBER_0_MEMBER_0_FILL"/>
</g>

<g transform="matrix( 1.0179290771484375, 0, 0, 1.0179290771484375, -0.55,-5.4) ">
<use xlink:href="#Layer0_1_MEMBER_66_MEMBER_0_MEMBER_0_MEMBER_0_FILL"/>
</g>

<g transform="matrix( 1.0179290771484375, 0, 0, 1.0179290771484375, -0.55,-5.4) ">
<use xlink:href="#Layer0_1_MEMBER_67_MEMBER_0_MEMBER_0_MEMBER_0_FILL"/>
</g>

<g transform="matrix( 1.0179290771484375, 0, 0, 1.0179290771484375, -0.55,-5.4) ">
<use xlink:href="#Layer0_1_MEMBER_68_MEMBER_0_MEMBER_0_MEMBER_0_FILL"/>
</g>

<g transform="matrix( 1.0179290771484375, 0, 0, 1.0179290771484375, -0.55,-5.4) ">
<use xlink:href="#Layer0_1_MEMBER_69_MEMBER_0_MEMBER_0_MEMBER_0_FILL"/>
</g>

<g transform="matrix( 1.0179290771484375, 0, 0, 1.0179290771484375, -0.55,-5.4) ">
<use xlink:href="#Layer0_1_MEMBER_70_MEMBER_0_MEMBER_0_MEMBER_0_FILL"/>
</g>

<g transform="matrix( 1.0179290771484375, 0, 0, 1.0179290771484375, -0.55,-5.4) ">
<use xlink:href="#Layer0_1_MEMBER_71_MEMBER_0_MEMBER_0_MEMBER_0_FILL"/>
</g>

<g transform="matrix( 1.0179290771484375, 0, 0, 1.0179290771484375, -0.55,-5.4) ">
<use xlink:href="#Layer0_1_MEMBER_72_MEMBER_0_MEMBER_0_MEMBER_0_FILL"/>
</g>

<g transform="matrix( 1.0179290771484375, 0, 0, 1.0179290771484375, -0.55,-5.4) ">
<use xlink:href="#Layer0_1_MEMBER_73_MEMBER_0_MEMBER_0_MEMBER_0_FILL"/>
</g>

<g transform="matrix( 1.0179290771484375, 0, 0, 1.0179290771484375, -0.55,-5.4) ">
<use xlink:href="#Layer0_1_MEMBER_74_MEMBER_0_MEMBER_0_MEMBER_0_FILL"/>
</g>

<g transform="matrix( 1.0179290771484375, 0, 0, 1.0179290771484375, -0.55,-5.4) ">
<use xlink:href="#Layer0_1_MEMBER_75_MEMBER_0_MEMBER_0_MEMBER_0_FILL"/>
</g>

<g transform="matrix( 1.0179290771484375, 0, 0, 1.0179290771484375, -0.55,-5.4) ">
<use xlink:href="#Layer0_1_MEMBER_76_MEMBER_0_MEMBER_0_MEMBER_0_FILL"/>
</g>

<g transform="matrix( 1.0179290771484375, 0, 0, 1.0179290771484375, -0.55,-5.4) ">
<use xlink:href="#Layer0_1_MEMBER_77_MEMBER_0_MEMBER_0_MEMBER_0_FILL"/>
</g>

<g transform="matrix( 1.0179290771484375, 0, 0, 1.0179290771484375, -0.55,-5.4) ">
<use xlink:href="#Layer0_1_MEMBER_78_MEMBER_0_MEMBER_0_MEMBER_0_FILL"/>
</g>

<g transform="matrix( 1.0179290771484375, 0, 0, 1.0179290771484375, -0.55,-5.4) ">
<use xlink:href="#Layer0_1_MEMBER_79_MEMBER_0_MEMBER_0_MEMBER_0_FILL"/>
</g>

<g transform="matrix( 1.0179290771484375, 0, 0, 1.0179290771484375, -0.55,-5.4) ">
<use xlink:href="#Layer0_1_MEMBER_80_MEMBER_0_MEMBER_0_MEMBER_0_FILL"/>
</g>

<g transform="matrix( 1.0179290771484375, 0, 0, 1.0179290771484375, -0.55,-5.4) ">
<use xlink:href="#Layer0_1_MEMBER_81_MEMBER_0_MEMBER_0_MEMBER_0_FILL"/>
</g>

<g transform="matrix( 1.0179290771484375, 0, 0, 1.0179290771484375, -0.55,-5.4) ">
<use xlink:href="#Layer0_1_MEMBER_82_MEMBER_0_MEMBER_0_MEMBER_0_FILL"/>
</g>

<g transform="matrix( 1.0179290771484375, 0, 0, 1.0179290771484375, -0.55,-5.4) ">
<use xlink:href="#Layer0_1_MEMBER_83_MEMBER_0_MEMBER_0_MEMBER_0_FILL"/>
</g>

<g transform="matrix( 1.0179290771484375, 0, 0, 1.0179290771484375, -0.55,-5.4) ">
<use xlink:href="#Layer0_1_MEMBER_84_MEMBER_0_MEMBER_0_MEMBER_0_FILL"/>
</g>

<g transform="matrix( 1.0179290771484375, 0, 0, 1.0179290771484375, -0.55,-5.4) ">
<use xlink:href="#Layer0_1_MEMBER_85_MEMBER_0_MEMBER_0_MEMBER_0_FILL"/>
</g>

<g transform="matrix( 1.0179290771484375, 0, 0, 1.0179290771484375, -0.55,-5.4) ">
<use xlink:href="#Layer0_1_MEMBER_86_MEMBER_0_MEMBER_0_MEMBER_0_FILL"/>
</g>

<g transform="matrix( 1.0179290771484375, 0, 0, 1.0179290771484375, -0.55,-5.4) ">
<use xlink:href="#Layer0_1_MEMBER_87_MEMBER_0_MEMBER_0_MEMBER_0_FILL"/>
</g>

<g transform="matrix( 1.0179290771484375, 0, 0, 1.0179290771484375, -0.55,-5.4) ">
<use xlink:href="#Layer0_1_MEMBER_88_MEMBER_0_MEMBER_0_MEMBER_0_FILL"/>
</g>

<g transform="matrix( 1.0179290771484375, 0, 0, 1.0179290771484375, -0.55,-5.4) ">
<use xlink:href="#Layer0_1_MEMBER_89_MEMBER_0_MEMBER_0_MEMBER_0_FILL"/>
</g>

<g transform="matrix( 1.0179290771484375, 0, 0, 1.0179290771484375, -0.55,-5.4) ">
<use xlink:href="#Layer0_1_MEMBER_90_MEMBER_0_MEMBER_0_MEMBER_0_FILL"/>
</g>

<g transform="matrix( 1.0179290771484375, 0, 0, 1.0179290771484375, -0.55,-5.4) ">
<use xlink:href="#Layer0_1_MEMBER_91_MEMBER_0_MEMBER_0_MEMBER_0_FILL"/>
</g>

<g transform="matrix( 1.0179290771484375, 0, 0, 1.0179290771484375, -0.55,-5.4) ">
<use xlink:href="#Layer0_1_MEMBER_92_MEMBER_0_MEMBER_0_MEMBER_0_FILL"/>
</g>

<g transform="matrix( 1.0179290771484375, 0, 0, 1.0179290771484375, -0.55,-5.4) ">
<use xlink:href="#Layer0_1_MEMBER_93_MEMBER_0_MEMBER_0_MEMBER_0_FILL"/>
</g>

<g transform="matrix( 1.0179290771484375, 0, 0, 1.0179290771484375, -0.55,-5.4) ">
<use xlink:href="#Layer0_1_MEMBER_94_MEMBER_0_MEMBER_0_MEMBER_0_FILL"/>
</g>

<g transform="matrix( 1.0179290771484375, 0, 0, 1.0179290771484375, -0.55,-5.4) ">
<use xlink:href="#Layer0_1_MEMBER_95_MEMBER_0_MEMBER_0_MEMBER_0_FILL"/>
</g>

<g transform="matrix( 1.0179290771484375, 0, 0, 1.0179290771484375, -0.55,-5.4) ">
<use xlink:href="#Layer0_1_MEMBER_96_MEMBER_0_MEMBER_0_MEMBER_0_FILL"/>
</g>

<g transform="matrix( 1.0179290771484375, 0, 0, 1.0179290771484375, -0.55,-5.4) ">
<use xlink:href="#Layer0_1_MEMBER_97_MEMBER_0_MEMBER_0_MEMBER_0_FILL"/>
</g>

<g transform="matrix( 1.0179290771484375, 0, 0, 1.0179290771484375, -0.55,-5.4) ">
<use xlink:href="#Layer0_1_MEMBER_98_MEMBER_0_MEMBER_0_MEMBER_0_FILL"/>
</g>

<g transform="matrix( 1.0179290771484375, 0, 0, 1.0179290771484375, -0.55,-5.4) ">
<use xlink:href="#Layer0_1_MEMBER_99_MEMBER_0_MEMBER_0_MEMBER_0_FILL"/>
</g>

<g transform="matrix( 1.0179290771484375, 0, 0, 1.0179290771484375, -0.55,-5.4) ">
<use xlink:href="#Layer0_1_MEMBER_100_MEMBER_0_MEMBER_0_MEMBER_0_FILL"/>
</g>

<g transform="matrix( 1.0179290771484375, 0, 0, 1.0179290771484375, -0.55,-5.4) ">
<use xlink:href="#Layer0_1_MEMBER_101_MEMBER_0_MEMBER_0_MEMBER_0_FILL"/>
</g>

<g transform="matrix( 1.0179290771484375, 0, 0, 1.0179290771484375, -0.55,-5.4) ">
<use xlink:href="#Layer0_1_MEMBER_102_MEMBER_0_MEMBER_0_MEMBER_0_FILL"/>
</g>

<g transform="matrix( 1.0179290771484375, 0, 0, 1.0179290771484375, -0.55,-5.4) ">
<use xlink:href="#Layer0_1_MEMBER_103_MEMBER_0_MEMBER_0_MEMBER_0_FILL"/>
</g>

<g transform="matrix( 1.0179290771484375, 0, 0, 1.0179290771484375, -0.55,-5.4) ">
<use xlink:href="#Layer0_1_MEMBER_104_MEMBER_0_MEMBER_0_MEMBER_0_FILL"/>
</g>

<g transform="matrix( 1.0179290771484375, 0, 0, 1.0179290771484375, -0.55,-5.4) ">
<use xlink:href="#Layer0_1_MEMBER_105_MEMBER_0_MEMBER_0_MEMBER_0_FILL"/>
</g>

<g transform="matrix( 1.0179290771484375, 0, 0, 1.0179290771484375, -0.55,-5.4) ">
<use xlink:href="#Layer0_1_MEMBER_106_MEMBER_0_MEMBER_0_MEMBER_0_FILL"/>
</g>

<g transform="matrix( 1.0179290771484375, 0, 0, 1.0179290771484375, -0.55,-5.4) ">
<use xlink:href="#Layer0_1_MEMBER_107_MEMBER_0_MEMBER_0_MEMBER_0_FILL"/>
</g>

<g transform="matrix( 1.0179290771484375, 0, 0, 1.0179290771484375, -0.55,-5.4) ">
<use xlink:href="#Layer0_1_MEMBER_108_MEMBER_0_MEMBER_0_MEMBER_0_FILL"/>
</g>

<g transform="matrix( 1.0179290771484375, 0, 0, 1.0179290771484375, -0.55,-5.4) ">
<use xlink:href="#Layer0_1_MEMBER_109_MEMBER_0_MEMBER_0_MEMBER_0_FILL"/>
</g>

<g transform="matrix( 1.0179290771484375, 0, 0, 1.0179290771484375, -0.55,-5.4) ">
<use xlink:href="#Layer0_1_MEMBER_110_MEMBER_0_MEMBER_0_MEMBER_0_FILL"/>
</g>

<g transform="matrix( 1.0179290771484375, 0, 0, 1.0179290771484375, -0.55,-5.4) ">
<use xlink:href="#Layer0_1_MEMBER_111_MEMBER_0_MEMBER_0_MEMBER_0_FILL"/>
</g>

<g transform="matrix( 1.0179290771484375, 0, 0, 1.0179290771484375, -0.55,-5.4) ">
<use xlink:href="#Layer0_1_MEMBER_112_MEMBER_0_MEMBER_0_MEMBER_0_FILL"/>
</g>

<g transform="matrix( 1.0179290771484375, 0, 0, 1.0179290771484375, -0.55,-5.4) ">
<use xlink:href="#Layer0_1_MEMBER_113_MEMBER_0_MEMBER_0_MEMBER_0_FILL"/>
</g>

<g transform="matrix( 1.0179290771484375, 0, 0, 1.0179290771484375, -0.55,-5.4) ">
<use xlink:href="#Layer0_1_MEMBER_114_MEMBER_0_MEMBER_0_MEMBER_0_FILL"/>
</g>

<g transform="matrix( 1.0179290771484375, 0, 0, 1.0179290771484375, -0.55,-5.4) ">
<use xlink:href="#Layer0_1_MEMBER_115_MEMBER_0_MEMBER_0_MEMBER_0_FILL"/>
</g>

<g transform="matrix( 1.0179290771484375, 0, 0, 1.0179290771484375, -0.55,-5.4) ">
<use xlink:href="#Layer0_1_MEMBER_116_MEMBER_0_MEMBER_0_MEMBER_0_FILL"/>
</g>

<g transform="matrix( 1.0179290771484375, 0, 0, 1.0179290771484375, -0.55,-5.4) ">
<use xlink:href="#Layer0_1_MEMBER_117_MEMBER_0_MEMBER_0_MEMBER_0_FILL"/>
</g>

<g transform="matrix( 1.0179290771484375, 0, 0, 1.0179290771484375, -0.55,-5.4) ">
<use xlink:href="#Layer0_1_MEMBER_118_MEMBER_0_MEMBER_0_MEMBER_0_FILL"/>
</g>

<g transform="matrix( 1.0179290771484375, 0, 0, 1.0179290771484375, -0.55,-5.4) ">
<use xlink:href="#Layer0_1_MEMBER_119_MEMBER_0_MEMBER_0_MEMBER_0_FILL"/>
</g>

<g transform="matrix( 1.0179290771484375, 0, 0, 1.0179290771484375, -0.55,-5.4) ">
<use xlink:href="#Layer0_1_MEMBER_120_MEMBER_0_MEMBER_0_MEMBER_0_FILL"/>
</g>

<g transform="matrix( 1.0179290771484375, 0, 0, 1.0179290771484375, -0.55,-5.4) ">
<use xlink:href="#Layer0_1_MEMBER_121_MEMBER_0_MEMBER_0_MEMBER_0_FILL"/>
</g>

<g transform="matrix( 1.0179290771484375, 0, 0, 1.0179290771484375, -0.55,-5.4) ">
<use xlink:href="#Layer0_1_MEMBER_122_MEMBER_0_MEMBER_0_MEMBER_0_FILL"/>
</g>

<g transform="matrix( 1.0179290771484375, 0, 0, 1.0179290771484375, -0.55,-5.4) ">
<use xlink:href="#Layer0_1_MEMBER_123_MEMBER_0_MEMBER_0_MEMBER_0_FILL"/>
</g>

<g transform="matrix( 1.0179290771484375, 0, 0, 1.0179290771484375, -0.55,-5.4) ">
<use xlink:href="#Layer0_1_MEMBER_124_MEMBER_0_MEMBER_0_MEMBER_0_FILL"/>
</g>

<g transform="matrix( 1.0179290771484375, 0, 0, 1.0179290771484375, -0.55,-5.4) ">
<use xlink:href="#Layer0_1_MEMBER_125_MEMBER_0_MEMBER_0_MEMBER_0_FILL"/>
</g>

<g transform="matrix( 1.0179290771484375, 0, 0, 1.0179290771484375, -0.55,-5.4) ">
<use xlink:href="#Layer0_1_MEMBER_126_MEMBER_0_MEMBER_0_MEMBER_0_FILL"/>
</g>

<g transform="matrix( 1.0179290771484375, 0, 0, 1.0179290771484375, -0.55,-5.4) ">
<use xlink:href="#Layer0_1_MEMBER_127_MEMBER_0_MEMBER_0_MEMBER_0_FILL"/>
</g>

<g transform="matrix( 1.0179290771484375, 0, 0, 1.0179290771484375, -0.55,-5.4) ">
<use xlink:href="#Layer0_1_MEMBER_128_MEMBER_0_MEMBER_0_MEMBER_0_FILL"/>
</g>

<g transform="matrix( 1.0179290771484375, 0, 0, 1.0179290771484375, -0.55,-5.4) ">
<use xlink:href="#Layer0_1_MEMBER_129_MEMBER_0_MEMBER_0_MEMBER_0_FILL"/>
</g>

<g transform="matrix( 1.0179290771484375, 0, 0, 1.0179290771484375, -0.55,-5.4) ">
<use xlink:href="#Layer0_1_MEMBER_130_MEMBER_0_MEMBER_0_MEMBER_0_FILL"/>
</g>

<g transform="matrix( 1.0179290771484375, 0, 0, 1.0179290771484375, -0.55,-5.4) ">
<use xlink:href="#Layer0_1_MEMBER_131_MEMBER_0_MEMBER_0_MEMBER_0_FILL"/>
</g>

<g transform="matrix( 1.0179290771484375, 0, 0, 1.0179290771484375, -0.55,-5.4) ">
<use xlink:href="#Layer0_1_MEMBER_132_MEMBER_0_MEMBER_0_MEMBER_0_FILL"/>
</g>

<g transform="matrix( 1.0179290771484375, 0, 0, 1.0179290771484375, -0.55,-5.4) ">
<use xlink:href="#Layer0_1_MEMBER_133_MEMBER_0_MEMBER_0_MEMBER_0_FILL"/>
</g>

<g transform="matrix( 1.0179290771484375, 0, 0, 1.0179290771484375, -0.55,-5.4) ">
<use xlink:href="#Layer0_1_MEMBER_134_MEMBER_0_MEMBER_0_MEMBER_0_FILL"/>
</g>

<g transform="matrix( 1.0179290771484375, 0, 0, 1.0179290771484375, -0.55,-5.4) ">
<use xlink:href="#Layer0_1_MEMBER_135_MEMBER_0_MEMBER_0_MEMBER_0_FILL"/>
</g>

<g transform="matrix( 1.0179290771484375, 0, 0, 1.0179290771484375, -0.55,-5.4) ">
<use xlink:href="#Layer0_1_MEMBER_136_MEMBER_0_MEMBER_0_MEMBER_0_FILL"/>
</g>

<g transform="matrix( 1.0179290771484375, 0, 0, 1.0179290771484375, -0.55,-5.4) ">
<use xlink:href="#Layer0_1_MEMBER_137_MEMBER_0_MEMBER_0_MEMBER_0_FILL"/>
</g>

<g transform="matrix( 1.0179290771484375, 0, 0, 1.0179290771484375, -0.55,-5.4) ">
<use xlink:href="#Layer0_1_MEMBER_138_MEMBER_0_MEMBER_0_MEMBER_0_FILL"/>
</g>

<g transform="matrix( 1.0179290771484375, 0, 0, 1.0179290771484375, -0.55,-5.4) ">
<use xlink:href="#Layer0_1_MEMBER_139_MEMBER_0_MEMBER_0_MEMBER_0_FILL"/>
</g>

<g transform="matrix( 1.0179290771484375, 0, 0, 1.0179290771484375, -0.55,-5.4) ">
<use xlink:href="#Layer0_1_MEMBER_140_MEMBER_0_MEMBER_0_MEMBER_0_FILL"/>
</g>

<g transform="matrix( 1.0179290771484375, 0, 0, 1.0179290771484375, -0.55,-5.4) ">
<use xlink:href="#Layer0_1_MEMBER_141_MEMBER_0_MEMBER_0_MEMBER_0_FILL"/>
</g>

<g transform="matrix( 1.0179290771484375, 0, 0, 1.0179290771484375, -0.55,-5.4) ">
<use xlink:href="#Layer0_1_MEMBER_142_MEMBER_0_MEMBER_0_MEMBER_0_FILL"/>
</g>

<g transform="matrix( 1.0179290771484375, 0, 0, 1.0179290771484375, -0.55,-5.4) ">
<use xlink:href="#Layer0_1_MEMBER_143_MEMBER_0_MEMBER_0_MEMBER_0_FILL"/>
</g>

<g transform="matrix( 1.0179290771484375, 0, 0, 1.0179290771484375, -0.55,-5.4) ">
<use xlink:href="#Layer0_1_MEMBER_144_MEMBER_0_MEMBER_0_MEMBER_0_FILL"/>
</g>

<g transform="matrix( 1.0179290771484375, 0, 0, 1.0179290771484375, -0.55,-5.4) ">
<use xlink:href="#Layer0_1_MEMBER_145_MEMBER_0_MEMBER_0_MEMBER_0_FILL"/>
</g>

<g transform="matrix( 1.0179290771484375, 0, 0, 1.0179290771484375, -0.55,-5.4) ">
<use xlink:href="#Layer0_1_MEMBER_146_MEMBER_0_MEMBER_0_MEMBER_0_FILL"/>
</g>

<g transform="matrix( 1.0179290771484375, 0, 0, 1.0179290771484375, -0.55,-5.4) ">
<use xlink:href="#Layer0_1_MEMBER_147_MEMBER_0_MEMBER_0_MEMBER_0_FILL"/>
</g>

<g transform="matrix( 1.0179290771484375, 0, 0, 1.0179290771484375, -0.55,-5.4) ">
<use xlink:href="#Layer0_1_MEMBER_148_MEMBER_0_MEMBER_0_MEMBER_0_FILL"/>
</g>

<g transform="matrix( 1.0179290771484375, 0, 0, 1.0179290771484375, -0.55,-5.4) ">
<use xlink:href="#Layer0_1_MEMBER_149_MEMBER_0_MEMBER_0_MEMBER_0_FILL"/>
</g>

<g transform="matrix( 1.0179290771484375, 0, 0, 1.0179290771484375, -0.55,-5.4) ">
<use xlink:href="#Layer0_1_MEMBER_150_MEMBER_0_MEMBER_0_MEMBER_0_FILL"/>
</g>

<g transform="matrix( 1.0179290771484375, 0, 0, 1.0179290771484375, -0.55,-5.4) ">
<use xlink:href="#Layer0_1_MEMBER_151_MEMBER_0_MEMBER_0_MEMBER_0_FILL"/>
</g>

<g transform="matrix( 1.0179290771484375, 0, 0, 1.0179290771484375, -0.55,-5.4) ">
<use xlink:href="#Layer0_1_MEMBER_152_MEMBER_0_MEMBER_0_MEMBER_0_FILL"/>
</g>

<g transform="matrix( 1.0179290771484375, 0, 0, 1.0179290771484375, -0.55,-5.4) ">
<use xlink:href="#Layer0_1_MEMBER_153_MEMBER_0_MEMBER_0_MEMBER_0_FILL"/>
</g>

<g transform="matrix( 1.0179290771484375, 0, 0, 1.0179290771484375, -0.55,-5.4) ">
<use xlink:href="#Layer0_1_MEMBER_154_MEMBER_0_MEMBER_0_MEMBER_0_FILL"/>
</g>

<g transform="matrix( 1.0179290771484375, 0, 0, 1.0179290771484375, -0.55,-5.4) ">
<use xlink:href="#Layer0_1_MEMBER_155_MEMBER_0_MEMBER_0_MEMBER_0_FILL"/>
</g>

<g transform="matrix( 1.0179290771484375, 0, 0, 1.0179290771484375, -0.55,-5.4) ">
<use xlink:href="#Layer0_1_MEMBER_156_MEMBER_0_MEMBER_0_MEMBER_0_FILL"/>
</g>

<g transform="matrix( 1.0179290771484375, 0, 0, 1.0179290771484375, -0.55,-5.4) ">
<use xlink:href="#Layer0_1_MEMBER_157_MEMBER_0_MEMBER_0_MEMBER_0_FILL"/>
</g>

<g transform="matrix( 1.0179290771484375, 0, 0, 1.0179290771484375, -0.55,-5.4) ">
<use xlink:href="#Layer0_1_MEMBER_158_MEMBER_0_MEMBER_0_MEMBER_0_FILL"/>
</g>

<g transform="matrix( 1.0179290771484375, 0, 0, 1.0179290771484375, -0.55,-5.4) ">
<use xlink:href="#Layer0_1_MEMBER_159_MEMBER_0_MEMBER_0_MEMBER_0_FILL"/>
</g>

<g transform="matrix( 1.0179290771484375, 0, 0, 1.0179290771484375, -0.55,-5.4) ">
<use xlink:href="#Layer0_1_MEMBER_160_MEMBER_0_MEMBER_0_MEMBER_0_FILL"/>
</g>

<g transform="matrix( 1.0179290771484375, 0, 0, 1.0179290771484375, -0.55,-5.4) ">
<use xlink:href="#Layer0_1_MEMBER_161_MEMBER_0_MEMBER_0_MEMBER_0_FILL"/>
</g>

<g transform="matrix( 1.0179290771484375, 0, 0, 1.0179290771484375, -0.55,-5.4) ">
<use xlink:href="#Layer0_1_MEMBER_162_MEMBER_0_MEMBER_0_MEMBER_0_FILL"/>
</g>

<g transform="matrix( 1.0179290771484375, 0, 0, 1.0179290771484375, -0.55,-5.4) ">
<use xlink:href="#Layer0_1_MEMBER_163_MEMBER_0_MEMBER_0_MEMBER_0_FILL"/>
</g>

<g transform="matrix( 1.0179290771484375, 0, 0, 1.0179290771484375, -0.55,-5.4) ">
<use xlink:href="#Layer0_1_MEMBER_164_MEMBER_0_MEMBER_0_MEMBER_0_FILL"/>
</g>

<g transform="matrix( 1.0179290771484375, 0, 0, 1.0179290771484375, -0.55,-5.4) ">
<use xlink:href="#Layer0_1_MEMBER_165_MEMBER_0_MEMBER_0_MEMBER_0_FILL"/>
</g>

<g transform="matrix( 1.0179290771484375, 0, 0, 1.0179290771484375, -0.55,-5.4) ">
<use xlink:href="#Layer0_1_MEMBER_166_MEMBER_0_MEMBER_0_MEMBER_0_FILL"/>
</g>

<g transform="matrix( 1.0179290771484375, 0, 0, 1.0179290771484375, -0.55,-5.4) ">
<use xlink:href="#Layer0_1_MEMBER_167_MEMBER_0_MEMBER_0_MEMBER_0_FILL"/>
</g>

<g transform="matrix( 1.0179290771484375, 0, 0, 1.0179290771484375, -0.55,-5.4) ">
<use xlink:href="#Layer0_1_MEMBER_168_MEMBER_0_MEMBER_0_MEMBER_0_FILL"/>
</g>

<g transform="matrix( 1.0179290771484375, 0, 0, 1.0179290771484375, -0.55,-5.4) ">
<use xlink:href="#Layer0_1_MEMBER_169_MEMBER_0_MEMBER_0_MEMBER_0_FILL"/>
</g>

<g transform="matrix( 1.0179290771484375, 0, 0, 1.0179290771484375, -0.55,-5.4) ">
<use xlink:href="#Layer0_1_MEMBER_170_MEMBER_0_MEMBER_0_MEMBER_0_FILL"/>
</g>

<g transform="matrix( 1.0179290771484375, 0, 0, 1.0179290771484375, -0.55,-5.4) ">
<use xlink:href="#Layer0_1_MEMBER_171_MEMBER_0_MEMBER_0_MEMBER_0_FILL"/>
</g>

<g transform="matrix( 1.0179290771484375, 0, 0, 1.0179290771484375, -0.55,-5.4) ">
<use xlink:href="#Layer0_1_MEMBER_172_MEMBER_0_MEMBER_0_MEMBER_0_FILL"/>
</g>

<g transform="matrix( 1.0179290771484375, 0, 0, 1.0179290771484375, -0.55,-5.4) ">
<use xlink:href="#Layer0_1_MEMBER_173_MEMBER_0_MEMBER_0_MEMBER_0_FILL"/>
</g>

<g transform="matrix( 1.0179290771484375, 0, 0, 1.0179290771484375, -0.55,-5.4) ">
<use xlink:href="#Layer0_1_MEMBER_174_MEMBER_0_MEMBER_0_MEMBER_0_FILL"/>
</g>

<g transform="matrix( 1.0179290771484375, 0, 0, 1.0179290771484375, -0.55,-5.4) ">
<use xlink:href="#Layer0_1_MEMBER_175_MEMBER_0_MEMBER_0_MEMBER_0_FILL"/>
</g>

<g transform="matrix( 1.0179290771484375, 0, 0, 1.0179290771484375, -0.55,-5.4) ">
<use xlink:href="#Layer0_1_MEMBER_176_MEMBER_0_MEMBER_0_MEMBER_0_FILL"/>
</g>

<g transform="matrix( 1.0179290771484375, 0, 0, 1.0179290771484375, -0.55,-5.4) ">
<use xlink:href="#Layer0_1_MEMBER_177_MEMBER_0_MEMBER_0_MEMBER_0_FILL"/>
</g>

<g transform="matrix( 1.0179290771484375, 0, 0, 1.0179290771484375, -0.55,-5.4) ">
<use xlink:href="#Layer0_1_MEMBER_178_MEMBER_0_MEMBER_0_MEMBER_0_FILL"/>
</g>

<g transform="matrix( 1.0179290771484375, 0, 0, 1.0179290771484375, -0.55,-5.4) ">
<use xlink:href="#Layer0_1_MEMBER_179_MEMBER_0_MEMBER_0_MEMBER_0_FILL"/>
</g>

<g transform="matrix( 1.0179290771484375, 0, 0, 1.0179290771484375, -0.55,-5.4) ">
<use xlink:href="#Layer0_1_MEMBER_180_MEMBER_0_MEMBER_0_MEMBER_0_FILL"/>
</g>

<g transform="matrix( 1.0179290771484375, 0, 0, 1.0179290771484375, -0.55,-5.4) ">
<use xlink:href="#Layer0_1_MEMBER_181_MEMBER_0_MEMBER_0_MEMBER_0_FILL"/>
</g>

<g transform="matrix( 1.0179290771484375, 0, 0, 1.0179290771484375, -0.55,-5.4) ">
<use xlink:href="#Layer0_1_MEMBER_182_MEMBER_0_MEMBER_0_MEMBER_0_FILL"/>
</g>

<g transform="matrix( 1.0179290771484375, 0, 0, 1.0179290771484375, -0.55,-5.4) ">
<use xlink:href="#Layer0_1_MEMBER_183_MEMBER_0_MEMBER_0_MEMBER_0_FILL"/>
</g>

<g transform="matrix( 1.0179290771484375, 0, 0, 1.0179290771484375, -0.55,-5.4) ">
<use xlink:href="#Layer0_1_MEMBER_184_MEMBER_0_MEMBER_0_MEMBER_0_FILL"/>
</g>

<g transform="matrix( 1.0179290771484375, 0, 0, 1.0179290771484375, -0.55,-5.4) ">
<use xlink:href="#Layer0_1_MEMBER_185_MEMBER_0_MEMBER_0_MEMBER_0_FILL"/>
</g>

<g transform="matrix( 1.0179290771484375, 0, 0, 1.0179290771484375, -0.55,-5.4) ">
<use xlink:href="#Layer0_1_MEMBER_186_MEMBER_0_MEMBER_0_MEMBER_0_FILL"/>
</g>

<g transform="matrix( 1.0179290771484375, 0, 0, 1.0179290771484375, -0.55,-5.4) ">
<use xlink:href="#Layer0_1_MEMBER_187_MEMBER_0_MEMBER_0_MEMBER_0_FILL"/>
</g>

<g transform="matrix( 1.0179290771484375, 0, 0, 1.0179290771484375, -0.55,-5.4) ">
<use xlink:href="#Layer0_1_MEMBER_188_MEMBER_0_MEMBER_0_MEMBER_0_FILL"/>
</g>
</svg>
