
<svg xmlns="http://www.w3.org/2000/svg" version="1.1" xmlns:xlink="http://www.w3.org/1999/xlink" preserveAspectRatio="none" x="0px" y="0px" width="370px" height="183px" viewBox="0 0 370 183">
<defs>
<g id="Layer0_0_MEMBER_0_MEMBER_0_MEMBER_0_FILL">
<path fill="#000000" stroke="none" d="
M 336.75 60.25
Q 335.95 59.2 335.5 58.85 334.8 58.5 333.55 58.3
L 332.2 58.3
Q 330.6 58.3 330 58.4 329.2 58.55 328.4 59.55
L 327.7 61.5
Q 327.45 62.5 326.55 63.2
L 324.65 64.8
Q 323.7 65.95 323.7 67.1 323 71.5 320.85 74.1 319.55 74.45 318.9 74.45
L 315.8 74.45 315 74.65
Q 313.2 75.1 310.3 75.1 308.35 75 305.75 74.3 304 73.65 303.1 73.5 301.3 73.5 300.9 73.65 299.85 73.9 299.2 74.55 298.05 75.5 297.25 75.7 296.35 76.2 295.2 76.25
L 292.35 76.85
Q 290.75 77.15 289.8 78.1
L 289.15 78.9 286.7 79.45 278.7 82.8
Q 274.3 84.4 273.1 85.1 272.25 85.65 271.85 86.25
L 271.15 87.7 271.25 89.9
Q 271.45 90.9 272.2 91.85
L 273.2 92.5 274.35 92.75
Q 278 92.4 281.45 93.2 283.9 93.95 286.95 94.45 289.7 94.8 292.55 94
L 293.6 93.65 293.8 95.6
Q 294.05 96.5 293.5 97.55
L 292.9 98.35 290.4 99.5 289.15 100.55
Q 288.45 101.2 288.45 102 288.45 103.4 287.85 104.75 287.6 105.5 286.25 107.05 283.95 109.95 282.25 113
L 281.9 113.6 282.5 108.2
Q 283.2 104.35 283.05 102.85 283.05 100 281.8 97.8
L 280.2 95.5
Q 279.2 94.5 277.9 94.1
L 276.65 94 275.75 93.65
Q 273.8 92.9 272.75 92.75 271.7 92.4 269.55 92.4
L 268.5 92.4
Q 265.75 92.4 264.85 92.65 263.05 92.95 261.4 94
L 260.95 94.45 260.95 90.45
Q 261.1 88.3 260.95 87.85 260.95 86.4 260.25 85.4
L 259.35 84.95 258.45 84.85 256.05 84.85
Q 255.45 84.85 254.9 85.4
L 254.3 86.1
Q 252.45 88.6 252.25 88.95
L 251.45 90.8 249.3 91.5
Q 248 92.8 247.8 93.2 247.2 94.1 247.2 95.4
L 247 96.85 246.3 98.35 243.55 102.95
Q 242.5 105.15 241.7 107.85
L 241.6 108.55 240.9 108.2 241.25 103.05 241.7 102.7 242.3 101.8
Q 243.5 99.6 243.9 98.25 244.7 96.4 244.25 94.45
L 243.45 93.65 243.55 88.85
Q 243.35 87.8 242.85 86.9 241.85 86.3 241.05 86.25
L 238.95 86.1 237.7 86.7 236.8 87.7
Q 235.15 89.4 234.6 89.55 234.1 90 232 90.45
L 225.45 92.3
Q 225.15 92.3 223.95 93 223.1 93.9 222.25 94.1 221.2 94.6 220.2 94.6
L 218.8 94.8
Q 218.25 94.8 217.65 95.25
L 217 95.85 215.15 96.85 213.65 98
Q 211.85 98.45 210.1 99.6 208.75 100.8 207.35 102.5
L 202.45 107.4 202.55 106.15
Q 202.75 104.85 203.25 103.5 206.15 98.25 207.15 91.7 208.15 84.55 206.8 79.45
L 206.2 76.95
Q 205.95 75.1 205.75 74.45 205.45 73 204.6 72.15
L 201.5 67.35
Q 200.5 66.65 199.8 66.65 199.55 66.5 196.6 66.75
L 196.25 67.2 194.4 66.75
Q 190.45 66.7 188.7 66.75 185.5 66.9 183.3 68.35
L 182.4 69.5 182.05 72.6 181.5 73.3 180.8 73.5
Q 176.6 74.75 172.2 78.1 171.5 78.7 169.35 79.95 167.9 80.6 167.3 81.2 166.25 82.25 165.8 83
L 163.85 85.55
Q 162.85 86.9 161.8 87.85 160.35 89 159.85 89.75 158.6 91.45 158.25 92.05
L 155.15 96.75 154.35 98.6
Q 153.75 100.3 153.1 101.1
L 149.9 106.85
Q 148.3 109.6 147.6 112.1 146.8 115.05 146.65 117.8
L 146.55 121.5 145.05 129.6
Q 143.3 128.5 142.45 128.25 141.25 127.65 139.55 127.65
L 136.35 127.8
Q 135.3 127.9 134.2 128.7 132.6 129.95 132 131 131.2 132.15 130.85 133.95 130.65 136.25 131 137.75 131.5 139.75 132.6 141.15 133.5 142.2 134.65 142.9 135.85 143.4 137.3 143.6
L 140.7 143.45 142.65 142.9 143.6 142.3 145.75 144.15
Q 150.55 147.5 154 148.75 158.45 150.55 163.25 150
L 163.95 149.55 164.65 149.9 168.65 150 169.55 149.55 170.85 149.3
Q 173.15 148.6 173.35 148.4 174.55 148 175.65 146.8
L 176.2 146.35
Q 178.3 144.5 179.65 142.45
L 184.45 136.25
Q 185.9 134.7 186.85 133.05 187.95 131.4 188.45 130.75 190.15 129.1 192.15 125.6 195.35 119.55 196.95 117.25
L 196.35 121.6
Q 196.25 122.55 195.35 123.3
L 194.4 124.1
Q 193.15 127.9 193.75 133.6
L 194.4 134.3 197.3 139.1
Q 198.85 141 200.95 142.1
L 201.65 142.3 201.65 143 196.6 143.35
Q 195.45 143.6 194.55 144.4
L 193.05 145.75
Q 190.8 147.3 188.8 149.65
L 184.45 153.75
Q 183.2 155.35 182.75 156.4
L 182.4 157.2
Q 181.65 158.75 181.25 160.4 180.8 162.3 180.8 163.85
L 180.8 164.75
Q 181 169.4 181.25 171.15 182.35 176.65 187.9 180.2
L 190.2 182.05
Q 193.8 183.8 199.7 182.85 202 182.3 205.75 182.05
L 210.9 181.95 212.65 181.45 213.9 180.35
Q 214.3 179.85 214.7 178.85
L 214.8 178.25 215.5 178.25
Q 217.2 177.55 218.45 176.45 219.75 175.25 220.4 173.7 221.6 171.1 222.8 169.8
L 224.9 167.05
Q 226.05 165.25 226.5 163.95
L 227.85 160.75
Q 229 158.95 229.45 156.95
L 229.9 155.6
Q 230.05 154.95 230.5 154.25 232.7 151.75 233.35 147.6 233.35 146.6 233.7 145.75 233.9 145 234.75 144.15 235.05 146.05 236 147.6
L 237.35 148.15 239.65 148.25
Q 240.45 148.2 241.15 147.7 241.7 147.55 242.2 146.65
L 243.9 144.5 249.6 140.5
Q 251.25 139.05 251.7 137.05
L 252 135.7 252.6 134.3 253.75 132.45
Q 254.1 131.65 254.1 130.55
L 253.95 129.25 255 129.15 255.7 128.8 256.95 127.55 257.5 125.7 257.65 124.45 258.45 123.65
Q 258.65 123.6 258.9 122.65
L 259 116.9
Q 259.2 115 259.8 113 260.6 111.55 260.75 110.5
L 260.95 109.7 261.65 109.6 262.2 109.1 262.65 108.55 263.15 110.4
Q 263.35 112.35 263.25 113.8
L 260.4 122.5
Q 258.85 126.25 258.8 127.3
L 257.85 130.4
Q 257.4 132 256.5 133.3 255.2 135.5 255 136.25 254.45 137.55 254.2 139.55
L 254.2 141.3
Q 254.05 142.3 253.65 143
L 252.6 145.4 252.35 148.15 252.5 153.4
Q 252.7 156.25 253.4 157.45 254.8 158 255.45 158 256.4 158.2 257.65 157.9
L 259.1 156.75 260.15 155.15
Q 260.85 153.55 261.55 152.95
L 263.35 150.8
Q 263.9 150.05 264.05 148.05
L 264.15 147.35 265.65 147.25 267.25 145.85 267.85 144.85 268.05 143.7
Q 268.05 142.5 268.4 141.65 268.55 141.15 269.3 139.9
L 273.2 134.3 273.55 143
Q 273.7 144.4 274.35 146.1
L 275.6 147.35
Q 276.3 147.85 277.2 148.05
L 279.4 148.05
Q 280.4 147.85 280.65 147.6
L 281.55 146.65 283.05 145.5 288.55 143.35 290.25 142.1
Q 291.1 141.25 291.4 140.05
L 291.75 138.75 292.35 137.95 293 137.3
Q 293.75 136.55 294.3 135 294.5 133.95 294.4 132.45
L 294.3 130.4 294.75 128.45 295.55 127 298.15 120.25 299.45 115.4 300.45 113.25 302.2 110.6
Q 302.8 109.2 302.85 108.1 303.1 106.85 302.4 97.9
L 302.2 96.85 302.3 95.85
Q 303.05 95.1 303.35 95.05
L 304.6 94.6 307 94.45 307.35 94 309.15 93 310.65 91.6 312.5 90.8 310.65 95.95
Q 309.8 98.5 308.5 100.9 306.4 104.25 305.5 108.65 305.05 111.75 304.35 113.45 300.8 123.25 301.15 131.9
L 300.35 151.95
Q 300.6 153.45 301.15 154.1 301.9 154.6 302.65 154.8
L 304.35 154.9 305.6 154.35
Q 306.45 153.5 307.1 152.5
L 308.25 151.15
Q 309.1 150.3 309.3 149.9
L 310.3 147 312.25 143.1 313.4 139.55
Q 314.05 138.05 315.35 136.35 316.65 134.65 317.2 133.5 318 132.15 318.35 130.4 318.85 127.5 319.95 125.5 321.05 123.35 321.65 120.8
L 322.55 114.5 322.9 113.35 325.1 108
Q 327 102.95 328.05 100.75 329.35 98.35 330 96.4
L 330.1 95.75
Q 331.1 93.2 331.15 91.25
L 331.4 90.1 333.55 90.1
Q 335.1 90.1 335.85 89.75 338.3 89.1 339.3 89.1 341.3 88.85 342.85 88.85
L 350.15 88.75 350.95 88.5 350.6 92.2 343.75 91.7
Q 342.75 91.7 342.25 91.95 341.45 92.2 340.3 93.2
L 336.75 95.6
Q 334.3 96.9 333 98.35 331.6 99.95 330.7 102.6 329.9 105.1 329.2 106.25 326.6 111.2 325.3 116.9 324.15 123.1 324.15 128.25
L 324.3 134.1
Q 324.35 136.45 325.55 138.75
L 326.45 140.6
Q 327.3 142 327.85 142.55 328.75 143.2 329.9 143.6
L 331.05 144.05 332.05 144.85
Q 333.75 146.55 335.95 147 337.9 147.6 340.45 147.6
L 344.45 147.6
Q 345.9 147.45 347.05 146.8
L 350.6 143.8 351.3 143 351.4 141.85 351.3 140.85 352.25 140.7
Q 353.8 140.05 354.95 138.65 356 137.85 356.8 135.9
L 357.15 135.1 357.85 135.1 359 134.2 360 133.05
Q 360.65 131.85 361.5 131
L 363.1 128.95
Q 363.95 127.75 364 126.5
L 364.7 124
Q 367.55 119 368.6 112.65
L 369.05 110.05
Q 369.7 108.25 370 105.55
L 369.75 100.55
Q 369.35 97.9 369.05 97.35 368.6 95.8 367.35 94.8
L 364.7 94 364 92.5 360.35 88.95 362.9 88.5 364 87.85 364.7 86.8 365.05 84.95
Q 365.05 84 364.7 83.15 363.55 81.7 362.4 81.2
L 359.65 79.95
Q 355.3 78.7 353.7 77.85 351.25 76.8 350.5 76.6 349 76.55 346.95 76.6
L 344.45 76.95 335.75 75.9 337.1 71.1 338.25 69.75
Q 338.65 67.65 338.25 64.95 337.6 61.95 336.75 60.25
M 352.1 104.2
L 353.15 104.55
Q 352.1 110.05 349.95 115.2
L 348.45 118.6
Q 348.1 119.4 346.75 120.9 346.2 121.3 345 122.75 344.8 123.8 343.85 124.8 343.4 125.65 342.25 126.5
L 338.25 129.6 337.9 128.8 339.4 127.2 340.65 125.25 341.1 124.1
Q 342 123.45 342.4 122.85 342.6 122.55 342.85 121.25
L 342.95 120.25 345.15 114.15 346.05 112.65 346.75 111.85 347.75 108.55 348.7 107.3 349.5 106.7 352.1 104.2
M 180.2 96.65
L 181.85 94
Q 182.8 91.5 182.85 91.05 183.5 88.7 184.7 86.8 185.8 84.75 187.55 83.15
L 187.9 83.15
Q 188.15 84.15 187.9 84.85 187.9 85.25 187.45 86.35 185.8 89.55 185.15 91.6
L 184.7 93.3 183.9 94.6 183.45 95.85
Q 182.9 98.65 181.5 101.9
L 178.4 107.75
Q 176.8 109.5 176.1 111.2
L 175.75 111.85 174.95 114.4 174.75 116.9
Q 174.85 118.4 174.75 119.2 174.15 120.7 173.8 121.25
L 168.3 128.8
Q 166.95 130.55 164.55 131.8
L 161.8 133.05 159.6 133.6 159.85 132.15 160.55 130.75
Q 162.55 127.7 163.25 125.25 163.95 123.35 164.75 122.05 165.85 120.45 166.35 119.2
L 167.95 115.9
Q 169.45 113.7 170.15 113 171.5 111.9 172.1 111.2 172.5 110.7 173.35 108.8
L 174.05 106.95 175.05 105.25
Q 176.55 103.5 178.3 100.3 178.95 98.85 180.2 96.65
M 208.5 146.55
L 208.6 145.2 215.5 144.85
Q 215.1 146.95 214.25 149.9 213.05 152.55 211.5 154.1 210 155.85 209.1 157.55
L 207.95 159.4
Q 207.45 160.2 206.45 161 204.55 161.8 202.3 163.5
L 198.55 166.45 198.1 167.05 196.6 166.25 199.6 158.6 200.7 156.85 202.8 154.7 204.6 152.15
Q 206.4 149.9 207.15 149.3 207.85 148.7 208.05 148.15 208.25 147.95 208.5 146.55
M 213.3 120.1
L 214.7 119.3 217.45 116.9
Q 219.05 115.4 220.65 115.4 220 116.85 219.75 118.15
L 219.5 125.25 218.15 127.3 217 128.1 214 128.35
Q 212.25 128.35 211.15 127.65
L 210.8 125.85 211.15 123.75 211.95 121.7
Q 212.4 120.7 213.3 120.1 Z"/>
</g>

<g id="Layer0_1_MEMBER_0_MEMBER_0_MEMBER_0_FILL">
<path fill="#FFFFFF" stroke="none" d="
M 43.75 37.7
L 42.1 36.45 12.7 36.45
Q 11.75 36.85 10.7 37.7 10.1 38.35 9.8 39.1
L 10 59.65 10.25 60.65 10.25 64.05 9.9 64.85
Q 9.65 67.85 9.8 68.45 9.8 70.5 10.35 72 11.4 74.6 11.8 77.6 12.1 79.25 11.9 83.3
L 11.55 95.9
Q 11.75 98 12.3 99.95 13.45 102.45 13.75 105.5
L 13.65 117.65
Q 13.65 120.85 14.45 123.9 15.3 126.85 15.45 130.75
L 15.75 136.15 16.2 137.6 19.5 142.95 20.6 143.75
Q 21.2 144.1 21.95 144.1
L 23.25 144.1 23.7 145.85
Q 24 147.45 24.8 148.5
L 25.7 149.05 26.75 149.15 30.5 149.05
Q 34.25 145.3 36.15 141.65 38.3 137.6 38.55 132.95
L 38.7 129.95
Q 39.35 127.85 39.35 124.65
L 39.35 120.4
Q 38.2 117.85 39.35 114.1 40.3 110.95 40.75 106.8 41.1 103.4 41 99.55
L 40.9 91.5
Q 41.1 87.1 41.9 83.55 43.55 76.35 42.55 69.1
L 42.3 64.25
Q 42.3 59.7 42.8 56.65
L 43.85 46.3 44.2 44.85 44.35 39.8 44.2 38.7 43.75 37.7 Z"/>
</g>

<g id="Layer0_2_MEMBER_0_MEMBER_0_MEMBER_0_FILL">
<path fill="#000000" stroke="none" d="
M 94.55 95.85
L 93.4 94.7
Q 92.95 94.3 91.8 94.25 90.25 94.05 89.4 93.65 87.45 92.9 86.55 92.75 85.3 92.4 83.45 92.4
L 82.45 92.4
Q 79.9 92.4 78.9 92.65 77.05 92.95 75.55 94
L 75 94.45 74.65 86.45
Q 74.05 85.5 73.6 85.3
L 72.25 84.75
Q 69.95 84.75 68.7 85.75 67.8 86.55 66.3 88.95
L 65.5 90.8 64.9 90.9 63.75 91.4 62.75 92.05
Q 61.65 92.9 61.6 93.45
L 61 97.1 60.1 98.8
Q 57.05 103.55 55.3 108.8
L 52.4 115.4
Q 51.6 116.55 51.3 117.8 50.85 118.5 50.6 120.45
L 50.35 121.95 49.9 123.45
Q 49.6 124.05 49.1 126.05
L 49 126.85
Q 48.6 129.5 48.05 135.9
L 48.05 137.65
Q 48 139.65 48.2 142.8 48.85 145.85 50.25 147.45 50.65 147.9 51.85 148.4
L 53.55 148.5
Q 54.75 148.1 55.3 147.45
L 58.5 144.05 62.6 141.15 64.55 139.45
Q 65.35 138.35 65.5 137.15
L 66.05 135.1 67.9 131.9 68.1 130.2 68.1 129.25 69.15 129.25 70.5 127.9 71.2 126.2 71.3 124.9
Q 72.2 123.7 72.6 122.5
L 72.9 115.75
Q 73.55 112.95 74.2 111.75 75.15 109.65 76.8 108.55
L 77.5 113.25 72.8 126.75
Q 72.4 128.8 71.65 130.65
L 68.7 137.05 68.1 142.3
Q 67.05 143.95 66.75 145.05 66.4 146.3 66.5 148.05
L 66.5 153.4
Q 66.65 155.95 67.55 157.3 68.25 157.85 69.5 158.1 71.05 158.1 71.8 157.9
L 73.05 156.65
Q 73.3 156.5 74.05 155.05
L 74.5 154 76.35 151.8
Q 76.85 151.2 77.15 150.1
L 77.85 148.5 79 147.35 79.55 146.9
Q 80.85 146.2 81.15 145.4 81.5 144.95 81.95 143.45
L 82.45 141.4 83.45 139.45 87.35 133.95 87.9 136.25 90.55 143 91.6 144.15 92.85 144.7 94.7 144.95 96.3 145.5 99.35 146.2
Q 100.25 146.45 102.6 146.45
L 107.05 146.45
Q 108.5 146.45 110.15 146
L 111.3 145.5
Q 114.35 144.75 116.3 143.35 118.25 142.1 120 139.25
L 120.35 138.3 121.5 137.05 122.3 135.45 123.4 132.35 123.9 129.85
Q 124.15 127.5 124.45 126.75 125.7 124.25 125.85 120.55
L 125.95 118.85
Q 125.95 118.05 125.25 117.35
L 124.7 116.9 127.1 115.75
Q 128.25 115.2 129.15 114.25 131.9 111.45 132.8 109 133.85 106.55 133.85 102.7
L 133.85 98.6
Q 133.45 96.6 132.7 95.75
L 132 94.8 130.2 91.6 128.35 89.75
Q 126.6 88.6 125.6 88.4 124.95 88.3 119.55 88.05
L 113.35 88.15 111.75 88.75 110.85 89.3 109.8 89.55 106.6 89.65 106.15 90.1
Q 103.05 92.3 101.1 95.15 99.4 97.4 97.45 101.35
L 97.1 102
Q 96.9 100.5 96.3 99.15
L 94.55 95.85
M 116.3 108.8
L 115.5 110.4 114.95 111.05
Q 114.2 112.35 113.8 114.25 113.75 115.75 113.8 117.6
L 114.6 118.3 117.1 119.1 116.8 120.1 115.85 121.25
Q 115.6 121.5 114.6 121.85 113.25 122.3 112.55 122.85 111.5 123.55 110.95 124.45
L 110.25 125.5 108.55 127.45
Q 108 128.05 107.85 128.95
L 107.6 131.1
Q 105.75 132.95 102.9 133.3 102.85 131.1 103.5 128 103.9 126.7 105.35 123.1 107.6 117.05 108.65 111.85
L 109.1 109.8
Q 109.5 108.85 110.35 108.2
L 113.45 105.7 116.8 107.05 116.3 108.8 Z"/>
</g>

<g id="Layer0_3_MEMBER_0_MEMBER_0_MEMBER_0_FILL">
<path fill="#000000" stroke="none" d="
M 44.2 5.85
L 42.7 4.5
Q 34 -1.35 22.4 0.6 17.15 1.45 12.35 4.05 7.3 6.8 4 10.2
L 1.25 13.1
Q 0.1 14.25 0 15.15
L 0 18.7
Q 0.3 21.5 1.8 23.85 2.9 25.8 5.45 28.05
L 8.2 30.25
Q 9.25 31.15 10.6 31.6
L 11.45 31.95
Q 13.1 32.75 16.25 33.8
L 22.65 35.15 21.6 35.65 15 35.5
Q 13.6 35.5 12.35 35.85 11.3 36.25 10.05 37.25 9.45 37.9 9.15 38.7
L 9.35 60 9.6 61.05 9.6 64.6 9.25 65.4
Q 9 68.55 9.15 69.15 9.15 71.3 9.7 72.85 10.8 75.55 11.2 78.65 11.55 80.4 11.3 84.6
L 10.95 97.65
Q 11.15 99.85 11.75 101.9 12.95 104.45 13.25 107.65
L 13.15 120.25
Q 13.15 123.6 13.95 126.75 14.85 129.8 15 133.85
L 15.3 139.45 15.8 140.95 19.2 146.55 20.35 147.35
Q 21 147.7 21.75 147.7
L 23.1 147.7 23.55 149.55
Q 23.9 151.2 24.7 152.3
L 25.65 152.85 26.75 152.95 30.65 152.85
Q 34.55 148.95 36.5 145.2 38.75 140.95 39 136.15
L 39.15 133.05
Q 39.85 130.85 39.85 127.55
L 39.85 123.1
Q 38.65 120.45 39.85 116.55 40.8 113.3 41.3 109 41.65 105.45 41.55 101.45
L 41.45 93.1
Q 41.65 88.55 42.45 84.85 44.2 77.35 43.15 69.85
L 42.9 64.8
Q 42.9 60.1 43.4 56.9
L 44.5 46.15 44.85 44.65 45 39.4 44.85 38.25 44.4 37.25 42.7 35.95
Q 42.25 35.75 40.75 35.5
L 32.15 35.65
Q 31 35.3 30.65 35.15
L 35 34.5
Q 37.45 34.3 40.4 33.35 43.2 32.45 45.2 30.8
L 49.55 27.25
Q 53.2 23.3 53.2 18.55 53.2 15.6 52.2 13.75 51.35 12.35 49 10
L 48.55 9.4
Q 45.65 6.85 45.1 6.45
L 44.2 5.85
M 41.55 43.2
L 41.2 44.35 39.5 60.95
Q 39.15 66.4 39.7 70.45 40.15 73.85 40.15 75.1 40.3 77.15 39.95 79.7 38.85 84.05 38.45 89.1 38.2 92.25 38.2 98.6 38.5 103.9 38.2 105.55 38.15 109.4 37.2 112.55 35.45 117.6 36.15 123.75 37 126.55 36.3 129.4 35.85 131.25 35.45 135.45 35.45 137.25 35.15 138.45 35 139.6 34.1 141.3
L 31.9 145.3
Q 31.15 146.9 30 148.5
L 29.2 148.5 29.2 149.2 27.45 149.55 26.9 147.6 25.15 144.15 21.95 144.15 20.45 141.65
Q 19.4 140.05 18.85 138.3 18.35 136.45 18.3 134.65 18.3 131.65 18.05 130.05 18.05 127.6 17.4 125.6
L 16.45 119.3
Q 16.4 118.2 16.6 113
L 16.6 106.7
Q 16.45 103.75 15.45 100.65 14.7 98.85 14.5 98 14.3 97.2 14.3 95.25
L 14.75 86.55
Q 15 83.05 15 79.25 14.6 75.1 13.35 72.25 12.55 70.1 12.55 67.2
L 12.9 65.75 12.9 59.2
Q 12.45 56.8 12.45 53.85
L 12.55 40.65 12.9 39.5
Q 14.35 38.9 15.8 38.7
L 18.85 39.05
Q 20.3 39.45 21.85 39.2 23.3 39.2 24.8 38.5
L 26.45 37.9 28.15 37.8 28.5 39.5
Q 32.2 38.9 35.95 38.7
L 39.25 38.85
Q 40.4 38.9 41.55 39.5
L 41.55 43.2 Z"/>
</g>

<g id="Layer0_4_MEMBER_0_MEMBER_0_MEMBER_0_FILL">
<path fill="#FEFEFE" stroke="none" d="
M 221 97.9
Q 220 98.3 219.15 98.95
L 218.45 99.85 217.65 100.1 217 100.2 215.6 101.1 214.25 101.7
Q 213.6 101.75 212.65 102.25 212.05 102.6 211.35 103.4 209.9 105.55 207.25 108
L 204.05 110.95
Q 202.55 112.7 201.65 114.4
L 201.3 115.4
Q 200.3 118.9 200.05 120.9 199.8 122.5 199.8 126.5
L 199.9 127.8 198.75 127.8 198.45 125.6 197.75 125.95 197.3 128
Q 196.95 129.9 197.05 130.75 197.3 132.1 197.95 133.15
L 198.75 134.3
Q 200.05 136.5 201.3 137.75 203.25 139.5 204.6 140.15 208.35 141.75 212.05 141.75 215.55 142 219.6 140.35
L 220.2 140.15
Q 219.55 145.2 218.45 148.5 216.85 153.4 214.35 155.95 212.8 158 211.95 159.25 211.2 160.8 210.35 162 209.35 163.35 207.8 164.2
L 205.65 165.35
Q 204.1 166.3 203.7 166.8
L 200.4 169.8
Q 199.5 170.35 198.55 170.35 197 170.35 196.6 170.25
L 194.1 169.1 193.5 168.1 193.3 166.95 193.4 164.4 193.75 163.85 196.7 156.75 197.85 155.05 199.7 153.1
Q 200.95 151.8 201.3 151 202.2 149.65 203.35 148.5 204.85 146.8 205.3 145.5
L 204.25 145.5
Q 203.35 146.1 203 146.1 202.35 146.45 201.65 146.45
L 198.9 146.55
Q 197.35 146.7 196.35 147.7
L 193.05 150.35 191.55 152.05
Q 190.6 153.45 189.6 154.25 188.5 154.9 187.45 155.95 186.65 156.95 186.05 158.25
L 185.7 159.05
Q 184.4 161.85 184.35 163.95 184 165.75 184.55 169.1 185.15 171.45 186.3 173.55 187.65 175.6 189.6 176.9
L 192.25 178.7
Q 193.8 179.65 195 179.75 195.95 179.9 197.75 179.5 201.3 178.85 203.95 178.85
L 210.1 178.5 210.8 178.15 211.15 177.7
Q 212 176.15 212.4 175.75 213.2 174.95 214.25 174.5 215.65 174.05 216.5 173.35
L 216.85 172.75 217 170.6 217.65 170.6 221.7 165.2 224.65 158.9
Q 225.6 157.65 225.8 156.4
L 226.25 154.55 227.05 152.85
Q 228.2 151.2 229 149.55 229.65 147.65 230.05 145.85
L 230.4 144.15 231.05 142.65
Q 231.75 141.8 231.85 141.3
L 232.2 139.8
Q 232.65 137.15 233.7 134.3 235.25 129.75 236.2 125.7 237.1 122.1 237.35 121.5
L 238.15 118.75
Q 238.5 117.2 238.4 115.9
L 238.15 112.8
Q 238.1 111.9 237.25 110.7
L 236.9 112.55 235.9 112.55 236.7 107.85 237.6 105.25 237.7 102.7 238.75 100.3
Q 240.05 98.1 240.55 96.2
L 239.45 96.2 239.9 90.1 239.45 90.1
Q 238.4 91.75 237 92.5 235.6 93.35 233.7 93.8
L 225.7 96.2 225.35 97.35
Q 224.55 97.65 222.95 97.65
L 221 97.9
M 228.15 107.25
Q 227.9 108.2 227.6 108.6
L 224.8 111.4 223.9 113.95
Q 223.35 116.85 222.25 119.05 221.95 119.65 221.95 120.05
L 221.95 121
Q 222.15 125.25 222.1 125.8 221.95 126.6 220.8 128.05
L 219.75 128.9
Q 219.3 129.3 218.55 129.6
L 217.85 130.75 217.4 131.25 216.2 131.3 215.15 131 215.15 130.15 212.4 130.45 211.05 130.25 209.85 129.6 209.4 129
Q 209.15 128.7 208.8 128.5
L 207.7 128.6
Q 207.55 127.7 207.8 126.65
L 208.7 124.2 208.7 123.2
Q 209.25 120.8 210.45 118.75
L 213.7 116.7 214.25 116.2 214.65 115.65
Q 214.9 115.2 215.5 114.75
L 217.8 113.6 218.85 112.8 220.7 112.5 221.2 111.65 221.55 110.65 223.15 109.3 226.85 107.4 228.15 107.25 Z"/>
</g>

<g id="Layer0_5_MEMBER_0_MEMBER_0_MEMBER_0_FILL">
<path fill="#FEFEFE" stroke="none" d="
M 185.7 71.55
L 188.25 71.9 191.45 73.65 193.05 75.1
Q 193.4 78.15 192.25 80.15
L 191.45 81.4 191.1 82.9
Q 191.25 84.05 191 86.25 190.1 88.75 189.75 89.3 188.65 91.35 188 93.45
L 187.55 95.15 186.75 96.4 186.3 97.65
Q 185.9 100.25 184.35 103.75
L 180.9 110.05
Q 178.9 112.25 178.4 115.75
L 181 114.75 180.7 115.75 179.65 117.8
Q 178.7 119.8 177.45 121.7
L 173.7 127.45
Q 171.85 130.3 169.9 132.15 167.7 134.3 164.9 135.45
L 162.6 136.6
Q 162.15 136.7 157.65 139
L 157.1 139.45 157.1 135.8 155.95 135.1
Q 155.7 133.2 156.3 131.9 156.55 130.8 157.65 128.95 159.3 126.25 160.4 123.55 161 121.45 161.8 120.35
L 165.1 114.15
Q 165.75 112.85 167.3 111.3 168.5 110.2 169.1 109.35 169.45 109 170.5 107.05
L 171.2 105.1 172.1 103.4
Q 174.2 100.75 175.4 98.5 176.7 95.65 177.35 94.8
L 178.6 92.85
Q 179.1 92.05 179.55 90.6 180.25 87.8 181.25 85.9 182.45 83.45 184.1 81.75 185.45 80.7 186.85 78.65
L 189.05 75.1 185.25 75.45
Q 184.8 75.45 183.9 76.05
L 183.2 76.6 182.5 76.85
Q 178.75 77.75 174.05 81.4 173.25 82.15 171.85 82.8
L 170.05 83.8
Q 169.3 84.35 168.65 85.4 166.75 88.35 165 90.1 163.55 91 163.25 91.4 162.4 92.25 162 93.2
L 161.45 94.8
Q 160 95.7 159.25 97
L 157.9 99.75
Q 157.1 101.7 155.6 104.2
L 153.45 108.2
Q 151.75 111 150.9 113.8 150.1 116.25 150.1 119.75
L 150.9 119.75 148.95 127.45
Q 148 131.1 147.8 132.95 147.5 135.55 148.4 138.45
L 148.75 139 147.6 138.65 146.1 137.65 145.75 138.3
Q 147.05 140.5 148.25 141.65 149.95 142.8 154.35 144.7
L 155.35 145.2
Q 156.65 145.95 158.8 146.65
L 160.65 146.8
Q 161.8 146.55 162.25 146.2 164.65 144.35 168.3 143
L 166.8 146.35 169 146
Q 171.35 145.4 173.25 144.05 174.9 142.8 176.45 140.6
L 178.15 137.95 185.15 129.15
Q 188.35 125.05 190.75 120.1
L 194.3 114.6
Q 197.45 111.35 198.9 105.45 199.4 103.1 200.05 101.55 202.1 97.55 203 92.65
L 203.95 86.45
Q 204.15 83.55 203.6 81.3
L 203.15 79.8
Q 202.85 77.15 202.3 75.9 201.8 74.25 200.25 72.35
L 198.45 70.1 198.45 73.4 197.3 72.95 195.9 71.55
Q 193.45 70.15 190.65 69.95 187.35 69.75 185.7 71.55 Z"/>
</g>

<g id="Layer0_6_MEMBER_0_MEMBER_0_MEMBER_0_FILL">
<path fill="#FEFEFE" stroke="none" d="
M 344 95.5
Q 342.9 95.95 341.35 97
L 338.25 98.95
Q 336.4 99.9 335.5 101.1 334.55 102.3 333.9 104.3 333.2 107 332.4 108.1 327.75 117.15 327.5 127.8
L 327.6 133.05
Q 328 134.9 328.85 136.8
L 329.65 138.9 330.45 139.8 332.85 140.85 333.9 141.5
Q 336.35 144.2 341.6 144.4 343.2 144.4 344.9 143.6
L 347.65 141.65 347.3 140.85 345.15 140.85 345.45 139.8 350.5 137.4
Q 352.5 136.1 353.5 134.3
L 354.4 132.8
Q 355.05 132.25 355.8 131.9
L 356.7 131.45 357.15 130.75 357.5 129.95 359.65 127.2
Q 360.2 126.2 360.6 124.8
L 361.4 122.4 363.45 117.8 363.7 116.9
Q 364.95 112.8 365.15 111.4
L 365.5 109.7
Q 366.3 107 366.3 103.85 366.3 102.15 365.5 98
L 364.7 98 364.35 100.9 363.7 100.9 361.15 95.05
Q 360.65 94.4 360 94
L 359.35 93.65
Q 358.15 91.65 357.85 91.4 357.25 90.8 354.15 88.95
L 354.15 93.65 354.85 94.7 355.1 95.6 355.3 98
Q 352.7 97.55 351.3 96.75 348.95 95.6 346.95 95.15 345.15 94.9 344 95.5
M 354.9 101.4
L 354.9 103.35 355 104.05 355.65 104.95
Q 355.65 106.8 355.45 107.5 354.95 109.25 354.6 110.1
L 351.1 120.25
Q 350.5 121.25 348.95 122.6
L 347.6 124.75
Q 347.2 125.8 346.5 126.5 346.3 126.9 344.9 127.95
L 338.3 133.6 336.75 133.6 336.15 132.55 336.25 131.85 336.45 131.2 335.45 130.9
Q 334.65 129.4 335.45 126.5
L 336.75 122.2 337.1 122.85 337.65 122.85 337.65 123.4 338.3 123.4 339 121.25 339.55 120.7
Q 339.85 120.3 340.05 119.75
L 340.15 118.7
Q 340.25 117.7 340.75 116.95
L 343.3 111
Q 344.15 109.65 344.35 108.55
L 345.6 106.55 348.15 104.25 348.65 103.45 350 102.4 352.7 101.3 353.8 101.05
Q 354.2 101.05 354.9 101.4 Z"/>
</g>

<g id="Layer0_7_MEMBER_0_MEMBER_0_MEMBER_0_FILL">
<path fill="#FEFEFE" stroke="none" d="
M 333.2 61.75
L 331.4 61.75 331.05 63.65
Q 330.6 64.7 329.9 65.15
L 329 65.75 327.5 67.2
Q 327.25 67.65 326.8 69.3 326.25 71.6 325.3 73.75
L 323 77.75 317.55 77.75 315 78.1 307 78.1
Q 304.1 77.65 302.85 77.2
L 302.3 76.95 301.15 78.2 293.25 80.6 293.6 82.1
Q 289.7 82.1 286.6 83.6
L 275.05 88.15 275.05 89.3 279.5 89.3
Q 281.85 89.45 283.75 90
L 286.5 90.8 289.25 91.15
Q 291.45 90.45 294.3 90.25
L 298.3 90.1 298.3 91.15 297.25 91.5 297.25 93.65 299.8 93.3 299.8 92.5 300.45 92.5 301.95 91.4
Q 302.8 91.05 303.9 91.05
L 305.15 91.15 305.5 90.1 306.9 89.75 308 88.95 308.8 88.15
Q 310.25 87.4 311.25 87.25 311.9 87.05 313.75 87.05
L 318.2 87.15 317.85 88.15
Q 316.05 92.05 315 95.05 313.9 98.3 311.8 102.7 309.6 106.4 308.8 110.5 308.65 111.5 307.7 115.3 304.15 124.75 304.35 134.3
L 304.35 138.2
Q 304.15 139.2 304.15 141.65
L 303.8 147 303.8 150.7 304.45 150 305.15 148.05 306.3 147.7 306.65 146.35
Q 307.65 144.55 308.95 141.3
L 310.3 137.5
Q 311 135.75 312.25 134.1 313.15 133.35 313.75 132.15 314.35 131.1 314.65 129.85 315.05 127.65 315.35 127.1 315.5 126.35 316.25 124.45 317.3 122.5 317.75 121.15
L 318.55 117.6
Q 318.95 114.05 319.7 111.65
L 326.45 95.5 327.25 92.5
Q 327.25 91.35 327.05 90.8
L 326.55 91.85 325.55 91.85 327.05 86.45 332.3 86.7 334.95 86.45
Q 336.3 85.65 337.35 85.55 338.6 85.35 339.85 85.4 345.95 86 350.4 85.3 354.25 84.95 359.8 84.95
L 361.15 84.95 360.35 84.3 357.95 83.35
Q 353.75 82.05 350.85 80.6
L 349.6 80.05
Q 349.15 79.9 348.2 80.05 346.3 80.4 344.55 80.25
L 330.25 78.8 331.75 75.45
Q 332.35 74.35 333 72.15
L 333.9 69.75 334.95 67.9
Q 334.95 66.2 334.7 65.6
L 333.2 61.75 Z"/>
</g>

<g id="Layer0_8_MEMBER_0_MEMBER_0_MEMBER_0_FILL">
<path fill="#FEFEFE" stroke="none" d="
M 250.75 95.6
L 250.75 96.4
Q 250.75 97.5 250.2 99.05
L 248.95 101.35
Q 247.15 104.15 245.85 107.2 244.7 109.9 243.55 113.35
L 243 115.05 242.2 116.55
Q 241.15 117.9 240.55 119.3
L 239.45 124.45 238.5 126.75 238.15 129.15
Q 237.6 132.05 237.6 135.1
L 237.95 136.25 237.8 137.5
Q 237.5 139.55 237.8 141.05 238.1 142.9 238.75 144.5
L 239.45 144.5 240.55 142.65 241.6 141.65 241.95 140.5 243.2 140.25
Q 244.35 139.85 245.95 138.65
L 247.65 137.3
Q 248.2 136.35 248.6 135.2
L 249.05 133.4
Q 249.1 133 249.85 131.65 250.5 130.9 250.75 130.05 250.85 129.8 250.55 127.45
L 249.95 124.1 251.1 124.45
Q 251.5 125.2 251.7 125.25
L 253.3 125.95 253.95 123.45 254.75 122.5
Q 255.45 121.8 255.45 121.25 255.6 120.8 255.45 119.4
L 255.1 116.2 257.3 109.45
Q 258.2 107.6 259.95 105.7 261.65 104.45 263.35 103.65 265 103.05 267.5 103.05
L 267.5 105.25 266.55 107.05
Q 266.35 108.05 266.45 108.9 266.8 111.4 266.7 115.75
L 266.2 116.8 261.2 132.25
Q 260.35 134.5 259.8 135.1
L 258.2 138.1
Q 257.65 139.55 257.5 141.4
L 257.4 143.25 256.95 144.95
Q 255.7 146.9 255.45 148.25
L 256.15 154.35 256.6 154.35 257.4 152.05 258.9 150.2 259.7 149.55 260.15 148.4 260.5 147 261.2 145.75 262.35 144.85 263.95 143.9
Q 264.35 143.6 264.6 143
L 265.3 139.45
Q 265.55 138.7 266.7 137.4 268.7 135 270 132
L 271.05 129.95
Q 272.55 128 272.85 126.75
L 273.9 124.35
Q 274.55 122.65 275.05 121.95
L 276.85 118.85
Q 277.35 117.5 277.7 115.55
L 277.9 112.9 278.5 111.2 278.8 109.45 278.95 106.95
Q 278.95 105.55 279.3 104.45
L 279.5 103.75
Q 279.85 102.7 279.6 101.9
L 278.25 99.15 277.55 98.5 276.65 98.15 275.85 98
Q 273.45 96.6 271.15 95.95 268.25 95.65 266 95.85
L 264.85 96.65 263.6 97.1
Q 262.3 97.55 260.6 98.35
L 257.65 100.2 257.65 94.45
Q 257.65 93.75 257.3 88.5
L 256.95 88.5 254.3 92.4
Q 253.8 93.15 252.85 93.8
L 251.1 94.95 250.75 95.6 Z"/>
</g>

<g id="Layer0_9_MEMBER_0_MEMBER_0_MEMBER_0_FILL">
<path fill="#FEFEFE" stroke="none" d="
M 88.4 97.35
Q 86.4 96.35 84.35 95.95 81.9 95.5 80 95.85
L 79 96.55 75.9 97.65
Q 74.6 98.25 73.95 98.8 71.9 100.35 71.3 100.55 71.9 99.15 71.9 97.2 71.9 94.6 71.3 88.5
L 70.95 88.5 69.15 91.5
Q 68.4 92.7 67.2 93.55
L 64.8 95.15
Q 64.45 96.35 64.45 98
L 64.1 99.4 63.4 100.65
Q 60.4 105.35 58.5 110.6
L 55.75 117.25
Q 54.75 118.75 54.5 119.65
L 53.7 123.75 53.2 125.25
Q 52.7 126.25 52.4 128
L 52.2 128.8
Q 51.6 132.85 51.6 136.25
L 51.75 138.3 51.5 139.8
Q 51.4 140.4 51.6 141.3
L 52.9 144.5 53.55 143.8
Q 55.25 141.85 55.3 141.75 56.45 140.6 57.35 140.15
L 59.5 138.9 61.35 137.4
Q 62.05 136.55 62.4 135.35 62.4 134.35 62.6 133.95
L 63.05 132.8
Q 64.3 130.9 64.45 129.15 64.55 128 64.35 125.25
L 64.1 124.1 65.15 124.1 65.15 124.9 65.8 125.5 66.6 125.95 67.75 125.6 67.65 124
Q 67.8 123.1 68.35 122.5
L 69.15 121.6 69.5 120 69.35 118.4
Q 69.3 115.75 69.35 114.75 69.35 114.35 70.5 111.2
L 71.8 108.2
Q 72.35 107.15 73.15 106.7
L 74.2 106.05 75.65 104.2
Q 78.55 102.95 81.5 103.05
L 81.5 105.25
Q 81 105.95 80.6 107.3
L 80.5 109.35
Q 80.8 111.7 80.8 115.4
L 80.15 116.9 75 132.45 72 138.9
Q 71.55 140.7 71.55 141.75
L 71.45 143.35 70.95 144.85 70.15 146
Q 69.5 147.2 69.7 149.9 69.7 151 70.3 153.9
L 70.65 153.9 71.8 151.35 73.05 150
Q 73.65 149.1 73.95 148.25 74.15 147.35 74.65 146.2 75.2 145.3 76.25 144.6
L 77.95 143.45 78.55 142.65 78.65 141.65 79.2 139.35 80.6 137.3
Q 82.65 134.7 84.05 132
L 84.85 130.3
Q 86.25 127.8 87.1 125.4 88.1 123 88.6 122.3 89.85 120.7 90.8 118.95 91.5 117.35 91.8 115.2 92.05 112.3 92.4 111.2
L 93.1 107.85
Q 93.55 104.75 93.3 102.6 93 99.85 91.35 97.65
L 90.9 98.35 88.4 97.35 Z"/>
</g>

<g id="Layer0_10_MEMBER_0_MEMBER_0_MEMBER_0_FILL">
<path fill="#FFFFFF" stroke="none" d="
M 49.45 15.95
Q 48.8 14.75 48.05 14.1
L 47.4 13.4
Q 45.5 11.4 43.4 9.75
L 42.25 9.05 40.85 7.8
Q 33.2 2.65 23.2 4.05 13.15 5.4 7.2 12.4
L 5.35 14.35 3.85 15.6
Q 3.4 16.45 3.4 17.45
L 3.75 19.25 5.35 22.7
Q 6.5 24.45 8.1 25.2
L 8.9 25.45 8.9 26.15 9.5 26.7
Q 14.6 30.05 20.45 31.15 26.75 32.45 32.25 31.4
L 38.55 30.15
Q 41.1 29.35 43.05 27.95
L 43.05 27.25 44.75 26.45 46.35 25.3
Q 48.05 23.7 48.75 22.1 49.75 20.25 50 18.1 50 17 49.45 15.95 Z"/>
</g>

<g id="Layer0_11_MEMBER_0_MEMBER_0_MEMBER_0_FILL">
<path fill="#FEFEFE" stroke="none" d="
M 112.65 92.4
Q 110.2 94.1 108.1 95.15
L 108.1 93.65
Q 106.75 94.3 105.55 95.25 105.05 95.75 103.6 97.65
L 103.25 98.5
Q 101.8 100.85 100.4 103.85
L 99.25 106.35
Q 98.05 108.1 97.65 110.05
L 97.1 111.75 95.5 114.75
Q 95.5 116.2 95.15 117.15 94.65 118.45 94.1 119.3
L 91.45 123.2
Q 90.25 125.55 90.45 127.55
L 90.8 132
Q 90.85 133.85 91.6 135.45
L 92.4 137.15 92.95 139.35 93.9 141.15 94.7 141.65 96.95 141.85 98.25 142.2
Q 100.7 143.35 103.85 143.35 106.9 143.2 109.55 142.3
L 110.5 142.1
Q 112.55 141.45 114.05 140.35 115.75 139.25 116.65 137.5
L 117.1 136.5 118.25 135.1 120.1 130.4
Q 120.55 129.45 120.55 128 120.55 127 121.25 124.8 121.75 123.9 121.95 122.5
L 122.15 120.1 119.65 121.6 119.3 122.75 118.25 123.75 117 124.45 114.85 125.25
Q 113.65 126.15 113.35 126.85
L 112.75 128.1 111.4 129.4
Q 110.85 130.1 110.85 130.85 110.7 132.75 110.15 133.95 109.25 135 107.6 135.45
L 106.6 135.8
Q 102.75 137.1 98.9 137.15 99.35 135.15 99.35 134.3 99.35 131.75 100.3 127.55 101.2 124 102.35 121.25 104.9 114.65 105.65 110.15
L 105.9 108.65 106.95 106.5
Q 107.05 106.25 108.9 104.9
L 110.95 103.5 111.3 102.35 114.6 102.35
Q 115.35 102.35 115.85 102.95
L 116.45 103.5 117.25 103.85 120 104.55 120.35 106.6
Q 120.35 109.5 118.15 112.55 117.55 113.15 117.35 113.8
L 117.1 115.4 118.95 115.4 118.95 114.75 121.25 114.15 122.5 113.6
Q 124.75 112.95 126.3 111.75 127.5 110.85 129.15 108.65 130.3 106.7 130.65 103.95 130.85 101.4 130.4 99.05 129.95 97.9 129.6 97.55
L 128.25 96.4 127.65 96.2 127.65 94.45 127.3 94 125.5 92.2
Q 123.1 91.15 118.95 91.15 114.9 91 112.65 92.4 Z"/>
</g>

<g id="Layer0_12_MEMBER_0_MEMBER_0_MEMBER_0_FILL">
<path fill="#FEFEFE" stroke="none" d="
M 297.95 97.35
L 297.25 98.25
Q 296.3 99.7 295.2 100.9 294.1 102 292.45 102.7
L 291.75 103.05 291.65 105.45
Q 291.2 106.5 290.5 107.4
L 286.5 113.15 285.9 114.4 284.55 116.55 283.75 118.6 282.6 120.45
Q 280.75 122.7 280.75 122.75 280 123.7 279.6 125.4
L 279.6 126.2 279.4 127.1
Q 278.1 129.1 277.35 131.55 276.6 133.9 277 136.6 277.2 137.6 277.2 141.05
L 277.2 142.65 277.55 144.15 278.7 144.5
Q 279.65 143.45 280.65 142.8 281.85 141.9 283.05 141.65
L 286.5 140.35 287.5 139.55 288.1 138.45
Q 288.1 137.85 288.45 137.15
L 289.15 136.15 289.8 135.45
Q 290.9 134.3 290.95 133.05 291.35 132.55 291.05 130.4
L 290.95 128.35
Q 291.15 127.05 291.55 126.5
L 292.35 125.15 296.35 113.15 297.6 110.6
Q 298.75 108.8 299.2 107.65 299.65 105.8 299.55 104.3
L 298.65 97.35 297.95 97.35 Z"/>
</g>

<g id="Layer0_13_MEMBER_0_MEMBER_0_MEMBER_0_FILL">
<path fill="#000000" stroke="none" d="
M 356.8 103.5
L 356.1 102.5 356 101.7 356 99.5
Q 355.2 99.15 354.75 99.15
L 353.5 99.4 350.5 100.65 349 101.8 348.45 102.7 345.6 105.25 344.2 107.5
Q 344 108.7 343.05 110.25
L 340.2 116.9
Q 339.65 117.7 339.5 118.85
L 339.4 120
Q 339.2 120.6 338.85 121.05
L 338.25 121.7 337.45 124.1 336.75 124.1 336.75 123.45 336.1 123.45 335.75 122.75 334.25 127.55
Q 333.4 130.8 334.25 132.45
L 335.4 132.8 335.15 133.5 335.05 134.3 335.75 135.45 337.45 135.45 344.8 129.15
Q 346.4 128 346.6 127.55 347.4 126.75 347.85 125.6
L 349.35 123.2
Q 351.05 121.65 351.75 120.55
L 355.65 109.25
Q 356.05 108.3 356.6 106.35 356.8 105.55 356.8 103.5
M 348.7 107.3
L 352.1 104.2 353.15 104.55
Q 352.1 110.05 349.95 115.2
L 348.45 118.6
Q 348.1 119.4 346.75 120.9 346.2 121.3 345 122.75 344.8 123.8 343.85 124.8 343.4 125.65 342.25 126.5
L 338.25 129.6 337.9 128.8 339.4 127.2 340.65 125.25 341.1 124.1
Q 342 123.45 342.4 122.85 342.6 122.55 342.85 121.25
L 342.95 120.25 345.15 114.15 346.05 112.65 346.75 111.85 347.75 108.55 348.7 107.3 Z"/>
</g>

<g id="Layer0_14_MEMBER_0_MEMBER_0_MEMBER_0_FILL">
<path fill="#000000" stroke="none" d="
M 228.9 104.75
L 224.55 106.95 222.7 108.55 222.25 109.7 221.7 110.7 219.5 111.05 218.25 112 215.6 113.35
Q 214.85 113.9 214.6 114.4
L 214.1 115.05 213.45 115.65 209.65 118.05
Q 208.25 120.45 207.6 123.3
L 207.6 124.45 206.55 127.3
Q 206.25 128.55 206.45 129.6
L 207.7 129.5
Q 208.15 129.75 208.4 130.05
L 208.95 130.75 210.35 131.55 211.95 131.8 215.15 131.45 215.15 132.45 216.4 132.8 217.8 132.7 218.35 132.15 219.15 130.75
Q 220.05 130.45 220.55 129.95
L 221.8 128.95
Q 223.15 127.25 223.3 126.3 223.4 125.7 223.15 120.7
L 223.15 119.55
Q 223.15 119.1 223.5 118.4 224.8 115.8 225.45 112.45
L 226.5 109.45 229.8 106.15
Q 230.15 105.7 230.4 104.55
L 228.9 104.75
M 213.3 120.1
L 214.7 119.3 217.45 116.9
Q 219.05 115.4 220.65 115.4 220 116.85 219.75 118.15
L 219.5 125.25 218.15 127.3 217 128.1 214 128.35
Q 212.25 128.35 211.15 127.65
L 210.8 125.85 211.15 123.75 211.95 121.7
Q 212.4 120.7 213.3 120.1 Z"/>
</g>

<g id="Layer0_15_MEMBER_0_MEMBER_0_MEMBER_0_FILL">
<path fill="#FEFEFE" stroke="none" d="
M 139.1 131.1
Q 137.45 130.95 136 131.8 135.15 132.75 134.65 133.95 134.4 134.7 134.4 136.5 134.65 137.75 135.2 138.3
L 136.7 139.8
Q 138.55 140.35 140.6 139.9 142 139 142.55 138.2 143.25 137.5 143.6 135.9
L 143.35 133.85
Q 143.1 133.25 142.1 132 140.45 131.1 139.1 131.1 Z"/>
</g>

<g id="Layer0_16_MEMBER_0_MEMBER_0_MEMBER_0_FILL">
<path fill="#000000" stroke="none" d="
M 20.45 14.7
L 20.8 12.4
Q 18.85 12.4 16.45 13.75 15.55 14.3 12.8 16.6
L 12 17.9 11.75 19.25
Q 12.45 20.05 13.25 20.5
L 15.65 21.9 18.4 23.05
Q 19.35 23.4 21.25 23.6
L 21.15 22.25
Q 21.15 21.65 20.95 21.3
L 20.25 18.25 20.15 15.25
Q 20.45 15.1 20.45 14.7 Z"/>
</g>

<g id="Layer0_17_MEMBER_0_MEMBER_0_MEMBER_0_FILL">
<path fill="#000000" stroke="none" d="
M 41.55 19.6
L 41.9 17.9
Q 40.7 16.15 38.35 14.55 36.2 13.05 33.85 12.75
L 33.4 18.55
Q 33.4 19.9 32.85 21.1 32.3 22.1 32.15 23.6 33.95 23.6 35 23.25
L 40.85 20.3 40.85 19.6 41.55 19.6 Z"/>
</g>

<g id="Layer0_18_MEMBER_0_MEMBER_0_MEMBER_0_FILL">
<path fill="#030303" stroke="none" d="
M 96.4 135.1
L 96.95 135.45 98.25 135.8 97.9 133.95 97.1 133.5 96.4 133.3 96.4 135.1 Z"/>
</g>
</defs>

<g transform="matrix( 1, 0, 0, 1, 0,0) ">
<use xlink:href="#Layer0_0_MEMBER_0_MEMBER_0_MEMBER_0_FILL"/>
</g>

<g transform="matrix( 1, 0, 0, 1, 0,0) ">
<use xlink:href="#Layer0_1_MEMBER_0_MEMBER_0_MEMBER_0_FILL"/>
</g>

<g transform="matrix( 1, 0, 0, 1, 0,0) ">
<use xlink:href="#Layer0_2_MEMBER_0_MEMBER_0_MEMBER_0_FILL"/>
</g>

<g transform="matrix( 1, 0, 0, 1, 0,0) ">
<use xlink:href="#Layer0_3_MEMBER_0_MEMBER_0_MEMBER_0_FILL"/>
</g>

<g transform="matrix( 1, 0, 0, 1, 0,0) ">
<use xlink:href="#Layer0_4_MEMBER_0_MEMBER_0_MEMBER_0_FILL"/>
</g>

<g transform="matrix( 1, 0, 0, 1, 0,0) ">
<use xlink:href="#Layer0_5_MEMBER_0_MEMBER_0_MEMBER_0_FILL"/>
</g>

<g transform="matrix( 1, 0, 0, 1, 0,0) ">
<use xlink:href="#Layer0_6_MEMBER_0_MEMBER_0_MEMBER_0_FILL"/>
</g>

<g transform="matrix( 1, 0, 0, 1, 0,0) ">
<use xlink:href="#Layer0_7_MEMBER_0_MEMBER_0_MEMBER_0_FILL"/>
</g>

<g transform="matrix( 1, 0, 0, 1, 0,0) ">
<use xlink:href="#Layer0_8_MEMBER_0_MEMBER_0_MEMBER_0_FILL"/>
</g>

<g transform="matrix( 1, 0, 0, 1, 0,0) ">
<use xlink:href="#Layer0_9_MEMBER_0_MEMBER_0_MEMBER_0_FILL"/>
</g>

<g transform="matrix( 1, 0, 0, 1, 0,0) ">
<use xlink:href="#Layer0_10_MEMBER_0_MEMBER_0_MEMBER_0_FILL"/>
</g>

<g transform="matrix( 1, 0, 0, 1, 0,0) ">
<use xlink:href="#Layer0_11_MEMBER_0_MEMBER_0_MEMBER_0_FILL"/>
</g>

<g transform="matrix( 1, 0, 0, 1, 0,0) ">
<use xlink:href="#Layer0_12_MEMBER_0_MEMBER_0_MEMBER_0_FILL"/>
</g>

<g transform="matrix( 1, 0, 0, 1, 0,0) ">
<use xlink:href="#Layer0_13_MEMBER_0_MEMBER_0_MEMBER_0_FILL"/>
</g>

<g transform="matrix( 1, 0, 0, 1, 0,0) ">
<use xlink:href="#Layer0_14_MEMBER_0_MEMBER_0_MEMBER_0_FILL"/>
</g>

<g transform="matrix( 1, 0, 0, 1, 0,0) ">
<use xlink:href="#Layer0_15_MEMBER_0_MEMBER_0_MEMBER_0_FILL"/>
</g>

<g transform="matrix( 1, 0, 0, 1, 0,0) ">
<use xlink:href="#Layer0_16_MEMBER_0_MEMBER_0_MEMBER_0_FILL"/>
</g>

<g transform="matrix( 1, 0, 0, 1, 0,0) ">
<use xlink:href="#Layer0_17_MEMBER_0_MEMBER_0_MEMBER_0_FILL"/>
</g>

<g transform="matrix( 1, 0, 0, 1, 0,0) ">
<use xlink:href="#Layer0_18_MEMBER_0_MEMBER_0_MEMBER_0_FILL"/>
</g>
</svg>
