
<svg xmlns="http://www.w3.org/2000/svg" version="1.1" xmlns:xlink="http://www.w3.org/1999/xlink" preserveAspectRatio="none" x="0px" y="0px" width="210px" height="630px" viewBox="0 0 210 630">
<defs>
<g id="Layer0_0_FILL">
<path fill="#FFFFFF" stroke="none" d="
M 27.55 79.4
Q 27.75 84 26.9 88.45 21.7 89 18.75 92.1 17.2 96.35 23.45 98.45 23.75 101.55 26.15 103.8 22.95 104.85 20.85 107.6
L 18.35 103.85 18.35 101.2 17.1 101.2 15.75 103.65 14.1 103.65 13.05 104.75 16.4 105.9 18.45 111.7
Q 17.75 113.25 17.15 115.15 14.05 124.65 22 130 22.65 130.45 23.35 130.8 30.9 135 41.05 132.15 43.15 131.55 44.9 130.8 52.1 127.7 52.35 122.35 52.55 115.65 51.35 112.9 51 112.2 50.7 111.55
L 54.8 107.7 56.95 107.7 56.95 106.75 55.2 105.35 55.2 102.95 53.7 102.95 52.5 106.7 49.6 109.65
Q 47.4 106.4 44.15 104.4 45.75 103 46.65 100.8 51.65 100.95 51.55 98.7 51.4 96.4 50.7 95.7 50 95 49.4 94.2 48.4 93.55 47.3 92.95 47.85 86.9 49.45 82.1 38.8 72.95 27.55 79.4
M 26.7 96.95
Q 26.45 96.35 26.7 95.95 27.05 95.55 27.95 95.55 28.95 95.55 29.65 95.9 30.3 96.35 30.3 96.95 30.3 97.5 29.85 97.75 29.5 98.05 28.55 98.05 27.55 98.05 27.25 97.75 26.9 97.5 26.7 96.95
M 36.85 97.15
Q 37.7 96.65 38.9 96.65 40.1 96.65 40.5 97.2 40.9 97.7 40.55 98.4 40.2 99.15 39.85 99.45 39.4 99.8 38.2 99.8 37 99.8 36.5 99.45 35.95 99.15 35.95 98.4 35.95 97.7 36.85 97.15
M 34.95 101.05
Q 32.9 103.7 30.65 106.2 28.25 108.8 25.55 111.05 26.15 107.75 27.25 104.7 28.1 102.2 29.25 99.85 32.85 97.95 34.95 101.05
M 27.55 113.25
Q 28.45 112.75 29.65 112.75 30.85 112.75 31.25 113.3 31.6 113.8 31.3 114.5 30.95 115.2 30.55 115.55 30.15 115.85 28.95 115.85 27.75 115.85 27.25 115.55 26.7 115.2 26.7 114.5 26.7 113.8 27.55 113.25
M 24.95 121.55
Q 24.1 121 24.1 120.3 24.1 119.55 24.65 119.25 25.1 118.9 26.3 118.9 27.5 118.9 27.95 119.25 28.35 119.55 28.65 120.3 29 121 28.6 121.5 28.25 122.05 27.05 122.05 25.85 122.05 24.95 121.55
M 29.15 126.5
Q 28.85 127.2 28.45 127.55 28 127.85 26.8 127.85 25.6 127.85 25.1 127.55 24.55 127.2 24.55 126.5 24.55 125.8 25.45 125.25 26.3 124.75 27.5 124.75 28.7 124.75 29.1 125.3 29.5 125.8 29.15 126.5 Z"/>
</g>

<g id="Layer0_1_FILL">
<path fill="#FFFFFF" stroke="none" d="
M 19.75 458.5
Q 18.85 458.5 18.2 459.15 17.55 459.8 17.55 460.75 17.55 461.65 18.2 462.3 18.85 462.95 19.75 462.95 20.7 462.95 21.35 462.3 22 461.65 22 460.75 22 459.8 21.35 459.15 20.7 458.5 19.75 458.5 Z"/>
</g>

<g id="Layer0_2_FILL">
<path fill="#FFFFFF" stroke="none" d="
M 26 431.7
Q 25.05 431.7 24.4 432.35 23.75 433 23.75 433.9 23.75 434.85 24.4 435.5 25.05 436.15 26 436.15 26.9 436.15 27.55 435.5 28.2 434.85 28.2 433.9 28.2 433 27.55 432.35 26.9 431.7 26 431.7 Z"/>
</g>

<g id="Layer0_3_FILL">
<path fill="#FFFFFF" stroke="none" d="
M 33.65 470
L 35.25 472.15
Q 38.65 475.55 43.35 475.55 48.1 475.55 51.45 472.15 54.9 468.8 54.9 464 54.95 459.25 51.55 455.85
L 51.55 455.8
Q 50.75 454.95 49.65 454.3
L 25.55 439 32.05 451.3 14.15 439.3 33.65 470
M 36.4 463.9
Q 36.4 461 38.5 458.9 40.55 456.85 43.5 456.85 46.4 456.85 48.5 458.9 50.55 461 50.55 463.95 50.55 466.9 48.5 468.9 46.4 471 43.5 471 40.55 471 38.5 468.9 36.4 466.85 36.4 463.9 Z"/>
</g>

<g id="Layer0_4_FILL">
<path fill="#FFFFFF" stroke="none" d="
M 53.9 246.55
Q 50.15 247.4 48.5 245.85 47.3 244.6 47.15 242.9 47.05 241.65 47.5 240.45 47.55 240.25 47.35 240.05 47.2 239.9 47 239.95 43.5 240.8 42.05 238.95 40.25 236.4 42.25 233.75 42.65 233.3 42 233.05 39.15 232.5 38.05 231.15 36.6 229.3 37.75 226.35 34.6 225.9 31.55 226.45 25.3 227.6 20.95 232.35 16.6 237.15 16.05 243.45 15.4 251.8 21.05 257.95 26.7 264.05 35 264.05 42.5 264.05 47.95 259 53.4 253.9 53.9 246.55
M 35 238.5
Q 37.65 238.5 39.6 240.4 41.5 242.3 41.5 245 41.5 247.7 39.6 249.6 37.7 251.5 35 251.5 32.25 251.5 30.4 249.6 28.5 247.75 28.5 245 28.5 242.3 30.4 240.4 32.25 238.5 35 238.5 Z"/>
</g>

<g id="Layer0_5_FILL">
<path fill="#FFFFFF" stroke="none" d="
M 45.9 220.25
L 45.9 220.2
Q 44 219.75 43.6 220.4 43.5 220.7 43.4 225 43.4 225.45 44.8 226.15 45.35 226.35 45.6 226
L 47.7 221.65
Q 47.75 221.4 47.2 220.9 46.6 220.4 45.9 220.25 Z"/>
</g>

<g id="Layer0_6_FILL">
<path fill="#FFFFFF" stroke="none" d="
M 52.25 232.85
Q 53.25 226.15 51.2 226.65 48.55 227.25 47.9 229.35 47.55 230.45 47.8 231.8 48.1 233.35 49 233.65 49.7 233.9 50.85 233.6 52.05 233.3 52.25 232.85 Z"/>
</g>

<g id="Layer0_7_FILL">
<path fill="#FFFFFF" stroke="none" d="
M 187 237
L 163 237 160 246.5 190 246.5 187 237 Z"/>
</g>

<g id="Layer0_8_FILL">
<path fill="#FFFFFF" stroke="none" d="
M 157 251
L 154 261 196 261 193 251 157 251 Z"/>
</g>

<g id="Layer0_9_FILL">
<path fill="#FFFFFF" stroke="none" d="
M 183 223.5
L 167 223.5 167 232.5 171.65 232.5 171.65 228 178.15 228 178.15 232.5 183 232.5 183 223.5 Z"/>
</g>

<g id="Layer0_10_FILL">
<path fill="#FFFFFF" stroke="none" d="
M 195.85 469.2
L 174.85 433.9 154.05 469.2 195.85 469.2
M 177.95 456.55
Q 176.7 457.8 175 457.8 173.25 457.8 172 456.55 170.8 455.35 170.8 453.6 170.8 451.85 172 450.65 173.25 449.4 175 449.4 176.7 449.4 177.95 450.65 179.15 451.85 179.15 453.6 179.15 455.35 177.95 456.55 Z"/>
</g>

<g id="Layer0_11_FILL">
<path fill="#FFFFFF" stroke="none" d="
M 93.05 254.15
L 89.15 250.2
Q 86.75 252.6 84.65 258.65 90.65 256.5 93.05 254.15 Z"/>
</g>

<g id="Layer0_12_FILL">
<path fill="#FFFFFF" stroke="none" d="
M 99.9 260.9
L 96 257
Q 94.45 258.5 92.85 262.1 92 263.9 91.5 265.4 97.5 263.3 99.9 260.9 Z"/>
</g>

<g id="Layer0_13_FILL">
<path fill="#FFFFFF" stroke="none" d="
M 123.9 231.1
Q 123.95 228 123.05 227.1 122.2 226.2 119.1 226.2 115.75 226.2 113.9 227.4
L 102.8 234.1 90.6 233.9 84.9 239.6 110.7 265.4 116.4 259.7 116.05 247.4 122.75 236.3
Q 123.9 234.4 123.9 231.1
M 113.55 244.8
L 105.25 236.6 116.35 229.9 120.25 233.8 113.55 244.8 Z"/>
</g>

<g id="Layer0_14_FILL">
<path fill="#FFFFFF" stroke="none" d="
M 114.05 370.5
Q 114.65 368.3 114.5 367.65 114.45 367.4 113.9 367.05
L 113.4 366.75
Q 113.15 366.65 112.8 366.55 112.2 366.35 112 366.45 111.65 366.65 110.8 367.6 110.35 368.1 110 368.55 103.55 366.65 98.65 367.15 95.6 367.45 91.4 368.85
L 87.85 370.15 86.05 373.75
Q 87.2 375.1 92.25 378.45 94.05 376 94.75 375.45 95.7 374.65 96.75 375.25 97.85 375.95 95.35 380.35 97.25 381.65 102.35 384.25 104.75 379.45 106.65 380.35 108.5 381.2 106.15 386.15 112.15 388.9 113.45 389.35 115.4 384.65 116.65 385.15 117.75 385.55 117.75 386.85 117.75 387.95 116.85 390.65 122.15 392.65 124.45 392.75
L 126.25 389.15
Q 124.65 382.85 122.05 378.65 120.45 376 117.1 373
L 114.05 370.5 Z"/>
</g>

<g id="Layer0_15_FILL">
<path fill="#FFFFFF" stroke="none" d="
M 103.7 391.35
L 99.7 389.35 92.4 404.15 96.4 406.15 103.7 391.35 Z"/>
</g>

<g id="Layer0_16_FILL">
<path fill="#FFFFFF" stroke="none" d="
M 181.65 381
L 175.55 376.9 169.45 381 169.45 371.8 163.35 363.6 157.25 371.8 157.25 402.5 171.05 402.5 171.05 395.65
Q 171.05 393.75 172.4 392.4 173.8 391 175.65 391 177.5 391 178.9 392.4 180.25 393.75 180.25 395.65
L 180.25 402.5 194.05 402.5 194.05 381 187.8 376.9 181.65 381 Z"/>
</g>

<g id="Layer0_17_FILL">
<path fill="#FFFFFF" stroke="none" d="
M 25.55 388.5
Q 19.05 393.1 17.35 394.1 16.05 394.9 16.95 396 17.35 396.4 20.35 399.5 20.65 399.9 23.85 402.9 24.2 403.25 24.7 403.25 25.25 403.2 25.75 402.5
L 31.35 394.3
Q 38.2 398.4 44.55 399.25 48.9 399.85 54.35 398.9 59.15 398.25 58.25 396.8 54.85 392.2 50.25 388.3 47.4 385.95 44.5 384.3
L 42.15 383.1 44.95 378
Q 45.7 376.7 46.15 375.45 46.7 373.9 46.35 373.5 45.8 372.95 41.85 374.9
L 36.75 377.7
Q 35.35 374.2 31.55 369.6 27.25 364.35 23.05 361.6 21.8 360.7 20.95 365.5 20 370.95 20.6 375.3 21.45 381.6 25.55 388.5 Z"/>
</g>

<g id="Layer0_18_FILL">
<path fill="#FFFFFF" stroke="none" d="
M 118.95 457.7
Q 114.65 452.45 108.3 449.9 101.95 447.35 95.25 448.25 89.6 448.95 82.3 452.4 85.25 460 88.85 464.4 93.1 469.6 99.5 472.15 105.85 474.7 112.5 473.85 118.15 473.1 125.5 469.65 122.55 462.15 118.95 457.7
M 110.4 463.65
Q 109.35 466.35 106.65 467.5 103.95 468.6 101.2 467.5 98.5 466.5 97.35 463.8 96.2 461.05 97.3 458.3 98.35 455.6 101.05 454.45 103.75 453.3 106.5 454.4 109.2 455.55 110.35 458.2 111.5 460.95 110.4 463.65 Z"/>
</g>

<g id="Layer0_19_FILL">
<path fill="#FFFFFF" stroke="none" d="
M 89.4 436.15
Q 87.65 437.3 88.6 437.9 89.1 438.25 90.85 437.85 92.4 437.5 92.5 438 92.6 438.55 91.65 439.1 90.25 439.85 90 440.15 89.3 440.9 89.8 441.3 90.4 441.75 92.6 441.4 97.5 440.7 100.85 440.85 105.35 441.1 109.8 442.8 114.45 444.6 117.55 447.25 120.35 449.7 123.7 454.5 124.25 455.35 124.8 455 125.45 454.75 125.8 454.5 126.25 454.1 126 453.3 120.65 441.5 110.8 436.65 102.65 432.65 94.2 434.3 91.2 434.95 89.4 436.15 Z"/>
</g>

<g id="Layer0_20_FILL">
<path fill="#FFFFFF" stroke="none" d="
M 170.85 95.2
Q 170.85 96.1 167.8 98.9 164.4 102.1 160.55 104.2
L 167.85 104.2
Q 167.55 105.25 164.3 108.05 160.3 111.4 155.75 113.6
L 194.3 113.6
Q 189.7 111.4 185.8 108 182.5 105.1 182.5 104.2
L 189.8 104.2
Q 186 102.1 182.55 98.9 179.5 96.05 179.5 95.2
L 186.65 95.2
Q 181.95 92.6 178.2 87.6 175.35 83.05 175.15 82.9 173.9 85.1 172.05 87.6 168.3 92.6 163.65 95.2
L 170.85 95.2 Z"/>
</g>

<g id="Layer0_21_FILL">
<path fill="#FFFFFF" stroke="none" d="
M 172.3 118.1
L 172.3 124.6 177.65 124.6 177.65 118.1 172.3 118.1 Z"/>
</g>

<g id="Layer0_22_FILL">
<path fill="#FFFFFF" stroke="none" d="
M 89.95 97.4
Q 90.45 97.95 91.2 97.95
L 101.9 97.95 101.9 117.85
Q 95.65 116.45 90.3 111.95
L 85 113.45
Q 88.75 118.45 94.95 121.95 100.6 125.15 105 125.45 109.35 125.15 115 121.95 121.2 118.45 125 113.45
L 119.65 112
Q 114.4 116.55 108.05 117.95
L 108.05 97.95 118.75 97.95
Q 119.5 97.95 120.05 97.4 120.55 96.85 120.55 96.1 120.55 95.35 120.05 94.85 119.5 94.3 118.75 94.3
L 108.45 94.3
Q 111.25 92.5 111.25 89.1 111.25 86.5 109.45 84.7 107.6 82.95 105.05 82.95 102.45 82.95 100.65 84.75 98.9 86.55 98.9 89.1 98.9 92.5 101.7 94.3
L 91.2 94.3
Q 90.45 94.3 89.95 94.85 89.4 95.35 89.4 96.1 89.4 96.85 89.95 97.4
M 102.3 89.25
Q 102.25 88.15 103.05 87.3 103.85 86.45 105 86.45 106.15 86.45 106.95 87.2 107.8 88 107.8 89.1 107.8 90.25 107 91.1 106.2 91.95 105.1 91.95 103.95 91.95 103.15 91.15 102.3 90.35 102.3 89.25 Z"/>
</g>

<g id="Layer0_23_FILL">
<path fill="#FFFFFF" stroke="none" d="
M 32.05 85.15
Q 30.3 89.85 25.1 94.6 22.4 97.1 22.45 100.95 22.45 104.7 25 107.3 28.65 110.95 32.9 112.2 30.65 109.55 30.3 106.3 30.05 103.3 31.4 101.1 33.05 98.6 34.6 96.55
L 35.8 95 37.95 97
Q 40.15 99.75 40.2 103.5 40.45 108.85 37 112.2 39.6 111.75 41.85 110.35 44.15 108.85 45.5 106.8 47.55 103.7 47.7 99.85 47.85 95.9 46 92.7 43.3 88 37.8 84.25
L 32.8 81.4 32.05 85.15 Z"/>
</g>

<g id="Layer0_24_FILL">
<path fill="#FFFFFF" stroke="none" d="
M 46.6 117.45
Q 45.95 116.85 45.05 116.85
L 24.85 116.85
Q 23.95 116.85 23.3 117.45 22.65 118.05 22.65 118.95
L 22.65 125.45 47.25 125.45 47.25 118.95
Q 47.25 118.05 46.6 117.45 Z"/>
</g>

<g id="Layer0_25_FILL">
<path fill="#FFFFFF" stroke="none" d="
M 48.85 29.9
Q 48.15 29.2 47.2 29.25
L 44.4 29.25 44.4 23.85
Q 44.4 20.45 41.7 17.7 38.8 14.8 34.9 14.75 31 14.75 28.15 17.65 25.4 20.45 25.4 23.85
L 25.4 29.25 22.8 29.25
Q 21.85 29.25 21.15 29.9 20.5 30.55 20.5 31.5
L 20.5 48.8
Q 20.5 49.8 21.15 50.45 21.85 51.1 22.8 51.1
L 47.2 51.1
Q 48.2 51.1 48.85 50.45 49.5 49.8 49.5 48.8
L 49.5 31.6
Q 49.5 30.6 48.85 29.9
M 40.9 23.95
L 40.9 29.35 28.9 29.35 28.9 23.95
Q 28.9 22 30.5 20.3 32.3 18.35 34.9 18.35 37.5 18.35 39.3 20.3 40.9 22 40.9 23.95 Z"/>
</g>

<g id="Layer0_26_FILL">
<path fill="#FFFFFF" stroke="none" d="
M 57.2 524.7
L 57 518.45
Q 55.75 518.7 53.85 519.35 50.05 520.65 46.9 522.85
L 47 525.05
Q 47 535.2 40.9 543.65 48.6 542.6 53.2 536.55 56.65 531.85 57.2 524.7 Z"/>
</g>

<g id="Layer0_27_FILL">
<path fill="#FFFFFF" stroke="none" d="
M 23.9 517.95
Q 24.4 515.8 25.5 513 23.7 511.3 21.7 510.05
L 20.1 509.15 19.55 510.9
Q 19 513.1 18.8 515.45 21.3 516.4 23.9 517.95 Z"/>
</g>

<g id="Layer0_28_FILL">
<path fill="#FFFFFF" stroke="none" d="
M 38.7 511.35
L 35 506.5 31.3 511.35
Q 27.6 517.7 27.6 525 27.6 532.35 31.3 538.65 33.15 541.8 35 543.5 36.85 541.8 38.7 538.65 42.4 532.35 42.4 525 42.4 517.7 38.7 511.35 Z"/>
</g>

<g id="Layer0_29_FILL">
<path fill="#FFFFFF" stroke="none" d="
M 51.15 515.45
L 51.2 515.45
Q 51 513 50.45 510.85
L 49.9 509.15 48.35 510.05
Q 46.4 511.3 44.5 513.05 45.75 516.5 46.05 517.95 48.55 516.45 51.15 515.45 Z"/>
</g>

<g id="Layer0_30_FILL">
<path fill="#FFFFFF" stroke="none" d="
M 13 518.45
L 12.95 518.45 12.75 524.7
Q 13.25 531.85 16.75 536.55 21.45 542.65 29.1 543.65 23 535.2 23 525.05
L 23.1 522.85
Q 20 520.65 16.2 519.35
L 13 518.45 Z"/>
</g>

<g id="Layer0_31_FILL">
<path fill="#FFFFFF" stroke="none" d="
M 123 518.5
L 124 514.5 86 514.5 87 518.5 87 544 98.3 544 98.3 525.25
Q 98.3 522.45 100.25 520.45 102.2 518.5 105 518.5 107.75 518.5 109.7 520.45 111.65 522.45 111.65 525.25
L 111.65 544 123 544 123 518.5 Z"/>
</g>

<g id="Layer0_32_FILL">
<path fill="#FFFFFF" stroke="none" d="
M 89 506
L 88 510 122 510 121 506 111.15 506 105 502 98.8 506 89 506 Z"/>
</g>

<g id="Layer0_33_FILL">
<path fill="#FFFFFF" stroke="none" d="
M 194 513.85
L 194 513.8
Q 190.75 511.4 184.15 511 185.15 507.15 185.5 506.3 186.1 504.65 185.4 504.6 184.75 504.55 184 505.5 182.45 507.3 181.1 509.8 180.65 510.6 179.95 510.45 179.25 510.25 179.4 509.4 179.85 506.35 181.5 502.4 182 501.25 181.35 501.1 180.7 501 180.1 501.65 178.1 503.7 175.4 508.9 174.95 509.85 174.15 509.6 173.35 509.4 173.5 508.5 173.75 506.9 175 503.6 175.95 501.05 176.4 500.15 176.75 499.4 176.15 499.15 175.5 498.9 174.6 499.75 173.8 500.45 172.25 502.65 170.2 505.6 168.7 508.85 162.1 507.6 157.7 510.35 153.15 513.3 152.75 519.15 152.3 524.65 155.7 528.35 158.95 532 159.5 532.75 161.05 534.95 161.9 538.15 163.15 542.65 165.9 545.35 168.75 548.25 173 548.75 176.7 549.15 179.9 546.75 182.55 544.8 184.6 541.15 186.15 538.45 188.35 536.3 190.4 534.3 194.5 531.35 198.8 528.3 198.5 522.55 198.2 516.95 194 513.85
M 186 516.5
Q 188.65 516.8 190.3 518.9 191.95 521 191.6 523.7 191.3 526.35 189.2 528 187.1 529.65 184.4 529.3 181.75 529 180.1 526.9 178.45 524.8 178.8 522.1 179.05 519.45 181.2 517.8 183.3 516.15 186 516.5
M 165.1 514.3
Q 167.65 514.6 169.25 516.65 170.85 518.65 170.5 521.2 170.25 523.75 168.25 525.35 166.2 526.9 163.6 526.6 161.05 526.3 159.45 524.3 157.85 522.25 158.2 519.7 158.5 517.15 160.55 515.55 162.55 513.95 165.1 514.3
M 173.7 527.1
Q 174.4 527.25 175.25 529.9 176.05 532.5 175.8 533.6 175.4 535.25 172 534.6 169.05 534 169.6 532.1 169.85 531.1 171.4 529.1 173 526.95 173.7 527.1 Z"/>
</g>

<g id="Layer0_34_FILL">
<path fill="#FFFFFF" stroke="none" d="
M 30.25 588
L 25 582.8 24.75 573.8
Q 24.75 573.3 24.35 572.95 24 572.6 23.5 572.5 22.95 572.5 22.55 572.9 22.2 573.25 22.2 573.8
L 22 582.8 16.75 588 16.75 612.5 30.25 612.5 30.25 588 Z"/>
</g>

<g id="Layer0_35_FILL">
<path fill="#FFFFFF" stroke="none" d="
M 48.25 585.1
L 48.4 572.5 34.7 572.5 34.7 612.5 54.2 612.5 54.2 591 48.25 585.1
M 38.2 582.6
L 38.2 575.8 45 575.8 45 582.6 38.2 582.6 Z"/>
</g>

<g id="Layer0_36_FILL">
<path fill="#FFFFFF" stroke="none" d="
M 83.15 581.1
Q 82.45 581.3 82.65 582.25
L 86.75 598.75
Q 82.75 599.6 81.35 602.25 83.95 603.95 87.85 602.95
L 88.75 606.5 96.85 605.5 95.15 612.45
Q 95.35 613.15 95.75 613.15
L 106.65 610.75
Q 107.45 610.6 107.55 609.8
L 110.5 603.5 113.65 602.75
Q 117.45 601.7 120.9 600.45 126.05 598.6 129.35 596.1
L 131.65 594 130.85 591
Q 128.75 590.5 125.55 590.15 119.1 589.5 113.45 590.45
L 95.65 593.35
Q 85.05 582.25 84.5 581.65 83.8 580.9 83.15 581.1 Z"/>
</g>

<g id="Layer0_37_FILL">
<path fill="#FFFFFF" stroke="none" d="
M 109.3 582.9
Q 107.2 581.6 104.9 581.6 101.9 581.6 99.7 583.65 97.55 585.6 97 588.6
L 112.4 586.1
Q 111.35 584.1 109.3 582.9 Z"/>
</g>

<g id="Layer0_38_FILL">
<path fill="#FFFFFF" stroke="none" d="
M 186.65 607.3
L 174.35 573.75 152 607.3 186.65 607.3 Z"/>
</g>

<g id="Layer0_39_FILL">
<path fill="#FFFFFF" stroke="none" d="
M 191.5 607.35
L 199 607.35 181.3 579.45 191.5 607.35 Z"/>
</g>

<g id="Layer0_40_FILL">
<path fill="#FFFFFF" stroke="none" d="
M 205.75 68.3
L 217.4 68.3 219.05 53.95 205.75 55.15 205.75 68.3
M 201.85 68
L 201.85 55.25 188.55 55.25 190.8 68 201.85 68
M 190.35 24.9
Q 184.75 30 190.25 31.75
L 203.5 35.4 193.6 19.55
Q 190.5 21.6 190.35 24.9
M 202.25 37.4
L 184.15 38.7 185.7 47.95 187.2 47.95 188.25 53.6 202.25 52.75 202.25 37.4
M 204.7 35.4
L 216.55 28.5
Q 221.4 25.3 214.65 21.85 213.65 18.7 210.15 17.55
L 204.7 35.4
M 220.2 46.35
L 222.2 46.35 223.5 34.15 205.5 37.25 206 52.55 219.05 51.95 220.2 46.35 Z"/>
</g>

<g id="Layer0_41_MEMBER_0_FILL">
<path fill="#FFFFFF" stroke="none" d="
M 229.1 116.15
L 219.95 107.25
Q 175.95 143.95 157.8 206.15 145.5 248.3 146.3 296.15 146.3 297.35 147.15 298.25 147.95 299.15 149.15 299.25 150.3 299.35 151.3 298.65 152.25 297.9 152.5 296.75 164.95 236.15 189.15 194.55 207.4 163.25 230.85 144.95 228.3 141.35 227.3 137.05 226.25 132.65 227 128.15
L 229.1 116.15 Z"/>
</g>

<g id="Layer0_41_MEMBER_1_FILL">
<path fill="#FFFFFF" stroke="none" d="
M 121.3 166.15
Q 113.85 120.9 100.5 84.85
L 79.65 89.55 71.5 109.7
Q 92.25 139.05 108.05 199.85 118.75 241 125.9 290.9 126 291.7 126.65 292.2 127.3 292.75 128.1 292.65 128.95 292.6 129.5 292 130.05 291.45 130.05 290.6 130.6 222.75 121.3 166.15 Z"/>
</g>

<g id="Layer0_41_MEMBER_2_FILL">
<path fill="#FFFFFF" stroke="none" d="
M 234.85 240.95
Q 231.35 236.2 230.75 230.45 209.2 236.2 193.65 247.85 172.15 263.9 165.1 289.3 164.65 290.85 165.3 292.3 166 293.75 167.45 294.4 168.9 295.1 170.4 294.65 171.95 294.25 172.85 292.95 183.75 277.2 197.2 266.7 215.2 252.65 236.05 249.65
L 237.7 244.9 234.85 240.95 Z"/>
</g>

<g id="Layer0_41_MEMBER_3_FILL">
<path fill="#FFFFFF" stroke="none" d="
M 112.15 295.25
Q 112.75 294.3 112.55 293.2 103.25 238.15 80.45 206.55 77.4 210.9 72.55 213.4
L 68.25 215.65 67.65 220.5
Q 67.35 222.8 66.7 224.7 79.2 238.85 90.7 259.85 99.4 275.8 107 294.75 107.4 295.8 108.4 296.3 109.4 296.8 110.5 296.5 111.55 296.2 112.15 295.25 Z"/>
</g>

<g id="Layer0_41_MEMBER_4_FILL">
<path fill="#FFFFFF" stroke="none" d="
M 268.15 65.65
L 258.1 86 235.6 89.25
Q 234.15 89.5 233.7 90.9 233.2 92.3 234.3 93.3
L 250.55 109.15 246.75 131.55
Q 246.45 133 247.65 133.85 248.35 134.3 249.05 134.3 249.7 134.3 250.15 134.05
L 270.25 123.5 290.35 134.05
Q 290.8 134.3 291.45 134.3 292.25 134.3 292.85 133.85 294.05 133.05 293.8 131.55
L 289.95 109.15 306.25 93.3
Q 307.3 92.35 306.85 90.9 306.4 89.5 304.9 89.25
L 282.45 86 272.4 65.65
Q 271.75 64.3 270.25 64.3 268.85 64.3 268.15 65.65 Z"/>
</g>

<g id="Layer0_41_MEMBER_5_FILL">
<path fill="#FFFFFF" stroke="none" d="
M 97.25 63.75
Q 97.55 62.3 96.45 61.35
L 72.55 41.35 75.5 10.3
Q 75.6 8.8 74.35 8.1 73.85 7.75 73.15 7.75 72.4 7.75 71.85 8.1
L 45.45 24.65 16.85 12.25
Q 16.4 12.1 15.9 12.1 14.95 12.1 14.35 12.65 13.2 13.65 13.6 15.05
L 21.2 45.25 0.55 68.65
Q -0.35 69.8 0.15 71.15 0.75 72.5 2.2 72.6
L 33.3 74.7 49.15 101.55
Q 49.85 102.7 51.2 102.7
L 51.4 102.7
Q 52.8 102.6 53.4 101.25
L 65.05 72.3 95.45 65.5
Q 96.9 65.2 97.25 63.75 Z"/>
</g>

<g id="Layer0_41_MEMBER_6_FILL">
<path fill="#FFFFFF" stroke="none" d="
M 301.25 237.8
Q 302.4 236.95 302.25 235.5 302 234 300.6 233.6
L 286 228.85 281.6 214.1
Q 281.2 212.7 279.75 212.45
L 279.35 212.4
Q 278.15 212.4 277.4 213.4
L 268.4 225.85 252.95 225.45
Q 251.5 225.45 250.85 226.7 250.15 228.05 251.05 229.2
L 260.1 241.65 254.95 256.15
Q 254.45 257.55 255.5 258.6 256.2 259.3 257.2 259.3
L 257.95 259.2 272.55 254.45 284.75 263.8
Q 285.45 264.25 286.2 264.25 286.8 264.25 287.25 264.05 288.55 263.4 288.55 261.9
L 288.55 246.55 301.25 237.8 Z"/>
</g>

<g id="Layer0_41_MEMBER_7_FILL">
<path fill="#FFFFFF" stroke="none" d="
M 14.6 180.95
L 22 194.4 15.15 208.2
Q 14.5 209.5 15.4 210.65 16.1 211.6 17.3 211.6
L 17.75 211.55 32.8 208.65 43.8 219.45
Q 44.55 220.1 45.45 220.1
L 46.2 220
Q 47.65 219.55 47.8 218.05
L 49.7 202.75 63.3 195.7
Q 64.6 194.95 64.6 193.5 64.6 192.1 63.25 191.4
L 49.3 184.9 46.8 169.75
Q 46.55 168.35 45.1 167.85
L 44.45 167.75
Q 43.45 167.75 42.7 168.5
L 32.2 179.75 17 177.45 16.65 177.45
Q 15.4 177.45 14.7 178.45 13.85 179.7 14.6 180.95 Z"/>
</g>

<g id="Layer0_41_MEMBER_8_FILL">
<path fill="#FFFFFF" stroke="none" d="
M 166.2 70.85
Q 164.9 68.75 164.2 67
L 162.35 62.55 157.6 61.5
Q 152.4 60.4 148.2 57 141.7 74.35 139.5 96.45 136.9 123.3 140.8 156.15 141.05 158.05 142.95 158.05 144.9 158 145.05 156.1 147.1 134.7 151.3 115.65 157.05 89.45 166.2 70.85 Z"/>
</g>

<g id="Layer0_41_MEMBER_9_FILL">
<path fill="#FFFFFF" stroke="none" d="
M 204.2 12.55
Q 203.5 12 202.7 12 202.15 12 201.7 12.2
L 187.65 18.4 174.6 10.35
Q 173.95 9.95 173.35 9.95 172.7 9.95 172.05 10.35 170.85 11.05 170.95 12.6
L 172.5 27.9 160.8 37.85
Q 159.65 38.75 160.05 40.2 160.35 41.6 161.85 41.95
L 176.85 45.2 182.7 59.45
Q 183.3 60.8 184.75 60.9
L 184.9 60.9
Q 186.25 60.9 186.95 59.7
L 194.7 46.45 210 45.25
Q 211.5 45.15 212.05 43.8 212.55 42.4 211.6 41.35
L 201.35 29.85 205 14.95
Q 205.3 13.5 204.2 12.55 Z"/>
</g>
</defs>

<g transform="matrix( 1, 0, 0, 1, 0,0) ">
<use xlink:href="#Layer0_0_FILL"/>
</g>

<g transform="matrix( 1, 0, 0, 1, 0,0) ">
<use xlink:href="#Layer0_1_FILL"/>
</g>

<g transform="matrix( 1, 0, 0, 1, 0,0) ">
<use xlink:href="#Layer0_2_FILL"/>
</g>

<g transform="matrix( 1, 0, 0, 1, 0,0) ">
<use xlink:href="#Layer0_3_FILL"/>
</g>

<g transform="matrix( 1, 0, 0, 1, 0,70) ">
<use xlink:href="#Layer0_4_FILL"/>
</g>

<g transform="matrix( 1, 0, 0, 1, 0,70) ">
<use xlink:href="#Layer0_5_FILL"/>
</g>

<g transform="matrix( 1, 0, 0, 1, 0,70) ">
<use xlink:href="#Layer0_6_FILL"/>
</g>

<g transform="matrix( 1, 0, 0, 1, 0,70) ">
<use xlink:href="#Layer0_7_FILL"/>
</g>

<g transform="matrix( 1, 0, 0, 1, 0,70) ">
<use xlink:href="#Layer0_8_FILL"/>
</g>

<g transform="matrix( 1, 0, 0, 1, 0,70) ">
<use xlink:href="#Layer0_9_FILL"/>
</g>

<g transform="matrix( 1, 0, 0, 1, 0,0) ">
<use xlink:href="#Layer0_10_FILL"/>
</g>

<g transform="matrix( 1, 0, 0, 1, 0,70) ">
<use xlink:href="#Layer0_11_FILL"/>
</g>

<g transform="matrix( 1, 0, 0, 1, 0,70) ">
<use xlink:href="#Layer0_12_FILL"/>
</g>

<g transform="matrix( 1, 0, 0, 1, 0,70) ">
<use xlink:href="#Layer0_13_FILL"/>
</g>

<g transform="matrix( 1, 0, 0, 1, 0,0) ">
<use xlink:href="#Layer0_14_FILL"/>
</g>

<g transform="matrix( 1, 0, 0, 1, 0,0) ">
<use xlink:href="#Layer0_15_FILL"/>
</g>

<g transform="matrix( 1, 0, 0, 1, 0,0) ">
<use xlink:href="#Layer0_16_FILL"/>
</g>

<g transform="matrix( 1, 0, 0, 1, 0,0) ">
<use xlink:href="#Layer0_17_FILL"/>
</g>

<g transform="matrix( 1, 0, 0, 1, 0,0) ">
<use xlink:href="#Layer0_18_FILL"/>
</g>

<g transform="matrix( 1, 0, 0, 1, 0,0) ">
<use xlink:href="#Layer0_19_FILL"/>
</g>

<g transform="matrix( 1, 0, 0, 1, 0,140) ">
<use xlink:href="#Layer0_20_FILL"/>
</g>

<g transform="matrix( 1, 0, 0, 1, 0,140) ">
<use xlink:href="#Layer0_21_FILL"/>
</g>

<g transform="matrix( 1, 0, 0, 1, 0,140) ">
<use xlink:href="#Layer0_22_FILL"/>
</g>

<g transform="matrix( 1, 0, 0, 1, 0,140) ">
<use xlink:href="#Layer0_23_FILL"/>
</g>

<g transform="matrix( 1, 0, 0, 1, 0,140) ">
<use xlink:href="#Layer0_24_FILL"/>
</g>

<g transform="matrix( 1, 0, 0, 1, 0,0) ">
<use xlink:href="#Layer0_25_FILL"/>
</g>

<g transform="matrix( 1, 0, 0, 1, 0,0) ">
<use xlink:href="#Layer0_26_FILL"/>
</g>

<g transform="matrix( 1, 0, 0, 1, 0,0) ">
<use xlink:href="#Layer0_27_FILL"/>
</g>

<g transform="matrix( 1, 0, 0, 1, 0,0) ">
<use xlink:href="#Layer0_28_FILL"/>
</g>

<g transform="matrix( 1, 0, 0, 1, 0,0) ">
<use xlink:href="#Layer0_29_FILL"/>
</g>

<g transform="matrix( 1, 0, 0, 1, 0,0) ">
<use xlink:href="#Layer0_30_FILL"/>
</g>

<g transform="matrix( 1, 0, 0, 1, 0,0) ">
<use xlink:href="#Layer0_31_FILL"/>
</g>

<g transform="matrix( 1, 0, 0, 1, 0,0) ">
<use xlink:href="#Layer0_32_FILL"/>
</g>

<g transform="matrix( 1, 0, 0, 1, 0,0) ">
<use xlink:href="#Layer0_33_FILL"/>
</g>

<g transform="matrix( 1, 0, 0, 1, 0,-420.45) ">
<use xlink:href="#Layer0_34_FILL"/>
</g>

<g transform="matrix( 1, 0, 0, 1, 0,-420.45) ">
<use xlink:href="#Layer0_35_FILL"/>
</g>

<g transform="matrix( 1, 0, 0, 1, 0,-420.45) ">
<use xlink:href="#Layer0_36_FILL"/>
</g>

<g transform="matrix( 1, 0, 0, 1, 0,-420.45) ">
<use xlink:href="#Layer0_37_FILL"/>
</g>

<g transform="matrix( 1, 0, 0, 1, 0,-420.45) ">
<use xlink:href="#Layer0_38_FILL"/>
</g>

<g transform="matrix( 1, 0, 0, 1, 0,-420.45) ">
<use xlink:href="#Layer0_39_FILL"/>
</g>

<g transform="matrix( 1, 0, 0, 1, -98.8,62.1) ">
<use xlink:href="#Layer0_40_FILL"/>
</g>

<g transform="matrix( 0.1609954833984375, 0, 0, 0.1609954833984375, 150.25,80.3) ">
<use xlink:href="#Layer0_41_MEMBER_0_FILL"/>
</g>

<g transform="matrix( 0.1609954833984375, 0, 0, 0.1609954833984375, 150.25,80.3) ">
<use xlink:href="#Layer0_41_MEMBER_1_FILL"/>
</g>

<g transform="matrix( 0.1609954833984375, 0, 0, 0.1609954833984375, 150.25,80.3) ">
<use xlink:href="#Layer0_41_MEMBER_2_FILL"/>
</g>

<g transform="matrix( 0.1609954833984375, 0, 0, 0.1609954833984375, 150.25,80.3) ">
<use xlink:href="#Layer0_41_MEMBER_3_FILL"/>
</g>

<g transform="matrix( 0.1609954833984375, 0, 0, 0.1609954833984375, 150.25,80.3) ">
<use xlink:href="#Layer0_41_MEMBER_4_FILL"/>
</g>

<g transform="matrix( 0.1609954833984375, 0, 0, 0.1609954833984375, 150.25,80.3) ">
<use xlink:href="#Layer0_41_MEMBER_5_FILL"/>
</g>

<g transform="matrix( 0.1609954833984375, 0, 0, 0.1609954833984375, 150.25,80.3) ">
<use xlink:href="#Layer0_41_MEMBER_6_FILL"/>
</g>

<g transform="matrix( 0.1609954833984375, 0, 0, 0.1609954833984375, 150.25,80.3) ">
<use xlink:href="#Layer0_41_MEMBER_7_FILL"/>
</g>

<g transform="matrix( 0.1609954833984375, 0, 0, 0.1609954833984375, 150.25,80.3) ">
<use xlink:href="#Layer0_41_MEMBER_8_FILL"/>
</g>

<g transform="matrix( 0.1609954833984375, 0, 0, 0.1609954833984375, 150.25,80.3) ">
<use xlink:href="#Layer0_41_MEMBER_9_FILL"/>
</g>
</svg>
