<?xml version="1.0" encoding="UTF-8" standalone="no"?>
<svg
   xmlns:dc="http://purl.org/dc/elements/1.1/"
   xmlns:cc="http://creativecommons.org/ns#"
   xmlns:rdf="http://www.w3.org/1999/02/22-rdf-syntax-ns#"
   xmlns:svg="http://www.w3.org/2000/svg"
   xmlns="http://www.w3.org/2000/svg"
   xmlns:xlink="http://www.w3.org/1999/xlink"
   xmlns:sodipodi="http://sodipodi.sourceforge.net/DTD/sodipodi-0.dtd"
   xmlns:inkscape="http://www.inkscape.org/namespaces/inkscape"
   version="1.1"
   id="png"
   x="0px"
   y="0px"
   viewBox="0 0 370 80"
   style="enable-background:new 0 0 370 80;"
   xml:space="preserve"
   sodipodi:docname="title.svg"
   inkscape:version="1.0.1 (3bc2e813f5, 2020-09-07)"><metadata
   id="metadata33"><rdf:RDF><cc:Work
       rdf:about=""><dc:format>image/svg+xml</dc:format><dc:type
         rdf:resource="http://purl.org/dc/dcmitype/StillImage" /><dc:title></dc:title></cc:Work></rdf:RDF></metadata><defs
   id="defs31"><g
     id="Symbol_1_0_Layer0_0_FILL"><path
       fill="#000000"
       stroke="none"
       d=" M 13.4 32.5 Q 12.8 32.9 12.6 33.75 12.5 34.5 12.95 35.1 13.3 35.7 13.95 35.85 14.8 36 15.35 35.55 15.9 35.15 16.1 34.45 16.25 33.6 15.85 33.05 15.45 32.45 14.8 32.25 13.95 32.1 13.4 32.5 M 29.6 17.8 Q 29.25 17.15 28.55 16.95 27.8 16.9 27.2 17.3 26.6 17.65 26.45 18.45 26.3 19.15 26.75 19.8 27.05 20.4 27.8 20.55 28.55 20.7 29.15 20.3 29.7 19.9 29.85 19.1 30.05 18.4 29.6 17.8 M 61.75 12 Q 61.85 10.35 62 9.35 L 62 8.8 Q 62 8.25 61.95 7.4 61.8 6.2 61.3 4.55 60.7 3 59.6 1.8 58.45 0.5 56.65 0.05 54.5 -0.3 52.05 1.85 49.55 4.05 47.45 7.6 45.45 11.2 44.7 15.2 43.85 19.2 45.1 22.7 L 45.45 23.35 Q 45.8 24 46.65 24.55 47.4 25.2 48.55 25.35 48.7 25.35 48.9 25.3 49 25.2 49.15 25.1 49.3 24.85 49.15 24.5 49.1 24.2 48.45 23.8 48.05 22.75 48.05 20.55 48 18.3 48.45 15.45 48.85 12.7 49.75 9.9 50.65 7.15 52.05 5.1 53.45 3 55.55 2.25 56.3 2.3 56.2 3.85 56 5.4 55.3 8 54.85 10.3 54.45 13.2 54.05 16.1 54 19.15 54 19.2 54 21 53.85 22.85 53.85 25.75 53.85 28.05 53.85 30.75 52.65 34.05 50.65 35.5 48.65 36.85 46.85 37.15 48.05 36.4 48.85 35.4 49.75 34.45 50.25 33.2 49.75 33.35 49.4 33.1 49.1 32.85 48.95 32.4 48.75 31.55 49 30.5 49.35 29.55 49.65 28.65 49.2 28.9 48.75 28.85 48.3 28.7 48 28.3 47.55 27.8 47.1 27.2 46.7 26.7 46.3 26.1 46.5 26.7 46.45 27.5 46.35 28.2 45.85 28.55 45.55 28.85 44.9 28.95 44.3 29.1 43.85 28.95 44.5 29.5 44.9 30.3 45.2 31.1 44.9 31.85 44.7 32.3 44.3 32.75 43.9 33.3 43.4 33.2 44.2 34.05 44.7 35.1 45.2 36.15 45.35 37.3 45.15 37.35 45 37.35 44.9 37.35 44.8 37.35 44.7 37.4 43.75 37.2 42.7 37.15 41.2 36.7 39.75 36.25 38.3 35.2 36.9 34.2 36.1 32.4 36.2 32.45 37.35 32.25 38.55 32.05 40 31.15 41.4 30.2 42.2 27.95 42.25 27.95 42.45 26.9 42.7 25.95 42.7 24.45 42.7 23 42.05 21.65 41.4 20.25 39.6 19.45 39.55 19.35 38.2 19.1 36.8 18.75 35.1 19.3 33.35 19.8 32.05 22.25 31.1 24.45 31 26.2 30.95 28 31.2 29.1 31.45 30.1 31.55 30.1 31 30.05 30.5 30 30 29.95 29.45 29.85 L 28.6 29.6 Q 27.8 29.4 26.45 29.15 26.8 27.4 27.05 25.6 27.35 23.85 27.65 22.05 27.2 22.55 26.6 22.45 26.1 22.4 25.65 22.05 24.8 21.35 24.45 20.05 24.1 18.7 23.85 17.6 23.5 18.1 22.95 18.4 22.35 18.55 21.8 18.45 20.95 18.2 20.05 17.85 19.25 17.6 18.4 17.3 19.05 17.75 19.45 18.5 19.9 19.2 19.65 20.1 19.5 20.7 19.15 21.1 18.75 21.55 18.3 21.8 19.35 21.75 20.25 22.3 21.15 22.9 21.35 24.05 21.4 24.65 21.35 25.4 21.25 26.1 20.75 26.45 L 20.75 26.5 Q 21.85 26.7 22.9 27.3 23.9 27.85 24.75 28.7 24.1 28.55 23.45 28.45 22.75 28.3 21.95 28.1 19.95 27.6 17.6 27.1 15.2 26.65 13.2 26.5 9.4 26.25 6.95 27.4 4.5 28.45 3.15 30.05 1.7 31.6 1.2 32.85 0.65 34.05 0.65 34.2 -0.45 37.8 0.3 39.95 1 42.05 2.5 43.1 3.9 44.05 5.2 44.45 6.4 44.7 6.55 44.7 8.4 44.85 9.6 44.25 10.75 43.6 11.2 42.9 11.7 42.15 11.7 42.05 11.75 42.05 12.05 41.25 12.35 40.4 12.25 39.25 12.15 38.15 10.95 37.15 10.55 36.85 9.95 36.7 9.3 36.5 8.7 36.75 8.05 36.95 7.7 37.4 7.4 37.85 7.4 38.2 7 39.15 7.25 39.6 7.5 39.95 7.6 39.95 8.3 40.4 8.85 40.15 9.45 39.85 9.6 38.65 9.6 38.6 9.7 38.25 9.85 37.95 10.1 37.85 10.3 37.85 10.4 37.95 10.55 38 10.7 38.15 11.05 38.6 11.05 39.3 11.05 40 10.95 40.5 L 10.75 41.1 Q 10.75 41.15 10.4 41.6 10.15 42.15 9.4 42.65 8.6 43.15 7.25 43.15 6.15 43.05 5.65 42.5 5.15 42 5 41.75 4.6 40.9 4.6 39.4 4.6 37.95 5.2 35.6 5.95 33.1 8.55 31.65 11.15 30.25 15.05 30.05 19.05 29.8 24 30.85 24.7 31.05 25.35 31.15 25.9 31.3 26.5 31.4 25 31.55 23.45 31.75 21.95 31.85 20.4 32.05 21.15 32.4 21.2 33.15 21.35 33.85 21 34.45 20.35 35.75 19 36.6 17.6 37.4 16.3 38.15 17.05 38.3 17.45 38.9 17.9 39.55 17.9 40.3 17.85 41.4 17.8 42.5 17.65 43.55 17.5 44.6 17.95 43.75 18.75 42.95 19.6 42.2 20.55 42.25 21.25 42.4 22.05 42.85 22.95 43.35 23.4 43.85 23.05 42.65 23.45 41.35 23.9 40.05 25.2 39.55 25.85 39.3 26.75 39.15 27.65 39.1 28.15 39.6 L 28.25 39.6 Q 28.15 37.7 28.6 35.7 29.05 33.6 30.3 32.1 31.25 32.3 31.8 32.4 L 32.35 32.4 Q 33.45 34.85 35.25 36.25 37.1 37.7 39 38.25 38.25 38.6 37.8 39.1 37.35 39.7 37.1 40.45 37 40.9 36.9 41.35 36.8 41.75 36.65 42.15 36.35 42.9 35.85 43.5 35.35 44.05 34.7 44.5 L 34.5 44.7 Q 34.25 44.9 34.25 45.25 34.15 45.5 34.65 45.95 34.7 45.95 35.45 46.25 36.35 46.5 37.6 46.95 37.6 47.05 37.6 47.1 37.6 47.15 37.6 47.3 37.65 47.75 38 48.05 38.3 48.4 38.75 48.4 39.2 48.4 39.45 48.2 39.8 47.95 39.9 47.6 40.55 47.75 41.25 47.9 42.05 48 42.7 48 43.4 48.15 43.65 47.75 43.9 47.4 43.65 46.7 43.35 46.05 43.2 45.35 43 44.7 43.15 44 43.2 43.5 43.35 43.05 43.4 42.5 43.6 42 43.75 41.15 43.45 40.4 43.3 39.6 42.7 39.05 43.85 39.1 44.55 39.1 L 45.35 39.05 Q 49.15 38.85 51.4 37.2 52.95 36.15 53.95 34.9 54 36.9 54.05 38.9 54.25 43.55 53.8 46.2 53.35 48.85 52.75 49.95 52.5 50.4 52.75 50.85 53 51.3 53.55 51.35 55.75 51.7 57.55 50.95 59.35 50.2 60.4 47.4 61.35 44.6 61.15 38.7 60.9 32.85 60.95 28.2 61.05 23.55 61.15 20.85 61.3 18.1 61.3 18 61.35 16.9 61.5 15.2 61.6 13.6 61.75 12 M 57.55 5 L 57.05 5.65 Q 57.4 4.3 57.35 3.25 57.35 2.25 57.3 2.15 58.3 2.8 58.2 3.65 58 4.45 57.55 5 M 40.5 23.3 Q 40.75 24.5 40.55 25.55 40.45 26.55 40.35 26.65 39.85 28.5 38.75 29.3 37.6 30.05 36.55 30.2 35.6 30.3 35.45 30.3 35.35 29.4 35.35 28.4 35.35 27.35 35.4 26.1 L 35.6 25.3 Q 35.7 24.5 36.1 23.55 36.5 22.55 37.25 22 38 21.4 39.15 21.75 40.3 22.1 40.5 23.3 M 38.55 39.35 Q 39 38.9 40.1 39.05 L 39.45 39.5 Q 38.8 39.95 38.1 40.85 38.05 40.85 38.1 40.3 38.1 39.8 38.55 39.35 M 213.9 12.3 Q 213.8 10.9 213.15 9.9 212.55 8.95 211.25 8.8 210 8.75 209.3 9.45 208.6 10.1 208.25 10.9 208 11.6 208 11.75 207.5 14.2 207.95 15.45 208.4 16.75 209.1 17.2 209.75 17.75 209.8 17.75 210.35 18 211.45 17.65 212.55 17.3 213.45 15.2 213.95 13.75 213.9 12.3 M 210.4 10.5 Q 209.7 11.15 209.3 12.05 209.25 12.05 209.25 11.4 209.25 10.8 209.6 10.3 210 9.8 211.15 9.85 211.1 9.85 210.4 10.5 M 244.6 40.75 Q 244.85 39.5 244.85 39.4 245.95 33.6 245.25 29.5 244.5 25.35 242.4 23.2 240.35 21.1 237.45 21.15 236 21.2 234.6 22.55 233.25 24 232 26.1 230.75 28.3 229.7 30.75 228.65 33.2 227.9 35.5 227.9 34.05 227.9 32.65 227.9 31.15 227.95 29.65 231.75 24.05 233.4 19.15 235.05 14.3 235.3 10.65 235.55 6.9 235.25 4.9 235 2.75 234.95 2.75 234.35 1.25 233.2 0.7 232.1 0.1 230.85 0.1 229.55 0.05 228.65 0.25 L 227.75 0.45 Q 225.85 1.1 224.6 4.05 223.3 6.95 222.6 11.4 221.9 15.8 221.55 20.9 221.3 26 221.25 31.05 221.25 32.5 221.25 33.95 220.1 38.3 218.9 41.1 217.45 44.7 216.35 46.4 215.15 48.05 214.45 48.5 213.8 48.95 213.8 48.9 212.8 48.7 212.4 46.65 212 44.5 212 41.3 212 38.15 212.25 34.6 212.55 31.1 212.9 28.1 213.25 25.1 213.45 23.4 213.55 22.45 213.1 21.55 212.7 20.7 211.75 20.2 210.85 19.8 209.8 19.85 208.85 19.85 208 20.1 207.15 20.4 206.8 20.95 206.25 21.55 206.15 22.4 205.9 24.3 205.6 27.75 205.35 31.1 205.45 35.1 205.45 35.55 205.5 35.95 204.6 38.7 203.7 40.7 202.05 44.25 200.8 46 199.35 47.8 198.6 48.4 197.75 48.9 197.7 48.9 196.6 48.7 196.2 46.2 195.8 43.75 195.85 40 195.95 36.25 196.35 32.4 196.65 28.45 197.05 25.4 200.95 20.7 202.65 16.25 204.25 11.75 204.2 8.1 204.05 4.5 202.5 2.3 201.05 0.1 198.6 0 196.85 0 195.5 1.9 194.15 3.8 193.15 6.7 192.2 9.55 191.55 12.35 190.9 15.3 190.6 17.2 190.25 19.15 190.25 19.2 190.25 19.3 190.2 20.2 190.05 21.1 189.95 22.7 189.1 21.4 187.95 20.55 186.75 19.65 185.1 19.4 182 19 179.95 20.2 177.8 21.3 176.65 23 175.4 24.75 174.9 26.1 174.4 27.5 174.4 27.55 173.85 29.65 173.55 31.8 172 37.6 169.9 41.05 167.65 44.65 165.55 46.35 163.35 47.95 161.9 48.4 160.45 48.85 160.35 48.8 158.5 48.45 157.4 46.45 156.3 44.45 156 41.35 157.85 40.85 159.9 39.55 162.05 38.25 163.65 36 165.35 33.75 166 30.2 166.5 26.45 165.8 24.2 165.1 22 163.85 20.9 162.65 19.85 161.65 19.55 160.7 19.2 160.65 19.2 157.45 18.85 155.35 20.05 153.25 21.15 152.05 22.95 150.8 24.7 150.25 26.05 149.7 27.5 149.7 27.55 149.25 28.95 148.95 30.65 148.9 30.75 148.8 30.85 148.6 31.2 148.6 31.3 147.4 33.55 146 34.25 144.55 34.95 143.65 34.7 142.7 34.3 142.9 33.6 143.6 31.05 143.7 29.2 143.8 27.5 143.8 27.4 143.7 25.3 143.4 23.35 143.05 21.45 142.05 20.25 140.95 19 138.7 18.95 136.7 19 135.05 21.35 133.45 23.6 132.25 27.1 131 30.5 130.15 34 130.25 33.2 130.3 32 130.35 30.85 130.5 29.35 130.75 26.65 131 24.5 131.25 22.45 131.5 21.2 131.65 20.5 131.3 19.85 131.05 19.2 130.5 18.9 129.4 18.2 128.35 18.2 127.3 18.1 126.4 18.4 125.5 18.55 124.95 19.2 124.35 19.85 124.2 20.75 123.75 24 123.7 26.85 123.5 29.65 123.5 31.4 L 123.5 33.3 Q 122.15 38.05 120.3 41.05 118.1 44.65 115.9 46.35 113.75 47.95 112.3 48.4 110.85 48.85 110.8 48.8 108.65 48.45 107.55 46.05 106.45 43.6 106.3 40.2 106.1 36.7 106.75 33.05 106.75 32.95 107.2 31.15 107.55 29.4 108.15 27.1 108.85 24.75 109.65 23 110.4 21.3 111.25 21.15 112.2 21.15 113 22.3 113.75 23.55 114.3 25.4 114.85 27.3 115.1 29.3 115.25 29.8 115.7 29.85 116.15 29.95 116.4 29.55 118.5 25 117.25 22.2 116 19.35 111.2 18.3 108.1 17.9 105.95 19.2 103.8 20.55 102.55 22.5 101.25 24.4 100.65 25.95 100.15 27.4 100.15 27.55 99.45 29.75 99.05 32.45 97.65 37.8 96.35 41.1 94.85 44.7 93.7 46.4 92.55 48.05 91.9 48.5 91.25 48.95 91.25 48.9 90.2 48.7 89.9 46.45 89.6 44.2 89.75 40.85 89.8 37.4 90 33.8 90 33.75 90.1 32.25 90.2 30.75 90 28.55 89.9 26.4 89.3 24.2 88.65 22 87.3 20.5 85.9 19 83.45 18.95 81.55 19 80.05 21 78.5 23 77.3 26.2 76 29.35 75.1 32.95 74.15 36.5 73.5 39.75 73.4 38.05 73.35 36.45 73.3 34.75 73.35 33.2 73.55 29.2 73.95 26.05 74.3 22.9 74.65 21.2 74.8 20.5 74.45 19.85 74.2 19.2 73.6 18.9 72.5 18.2 71.5 18.2 70.45 18.1 69.55 18.4 68.65 18.55 68.05 19.2 67.5 19.9 67.35 20.75 66.9 24 66.85 26.85 66.65 29.65 66.65 31.5 66.65 33.3 66.65 33.35 66.75 37.35 67.1 41.4 67.4 45.5 68.2 49.25 68.45 50.4 69.5 50.9 70.5 51.45 71.75 51.3 72.45 51.15 73.05 50.85 73.6 50.5 74 50 74.3 49.7 74.4 49.35 74.5 48.95 74.5 48.6 L 74.6 48.6 Q 75.1 43.3 76.35 38.65 77.55 34 78.95 30.45 80.35 26.95 81.3 24.95 82.35 22.95 82.4 22.9 82.7 22.85 82.8 24.45 82.95 26 82.95 28.2 82.95 30.4 82.95 32.05 82.9 33.8 82.9 33.85 82.7 38.9 83.45 42.8 84.15 46.65 85.95 48.85 87.7 51.05 90.8 51.25 93 51.3 94.65 49.3 96.4 47.35 97.65 44.4 98.4 42.6 99 40.75 99.35 43.3 100.45 45.5 101.75 48.2 104.35 49.75 106.9 51.35 111.1 51.25 114.95 51.1 117.55 49.1 120.2 47.05 121.9 44.15 123.05 42.05 123.9 40.05 123.9 40.7 123.95 41.35 124.3 45.4 125.05 49.15 125.3 50.35 126.35 50.85 127.4 51.35 128.6 51.25 129.3 51.1 129.9 50.8 130.5 50.45 130.85 49.95 131.2 49.55 131.3 49.1 131.45 48.65 131.4 48.2 131.3 47.6 131.25 46.95 131.15 46.35 131.05 45.7 131.3 41.4 132.25 37.15 133.2 32.9 134.35 29.4 135.6 26 136.7 24.05 L 136.55 25.4 Q 136.5 26.7 136.6 28.65 136.7 30.6 137.4 32.5 138.05 34.45 139.5 35.75 141.05 37.1 143.7 37.2 145.65 37.2 147.15 36.4 147.8 36.05 148.3 35.7 148.25 37.6 148.45 39.6 148.7 42.8 150.05 45.5 151.35 48.2 154 49.75 156.5 51.35 160.7 51.25 164.5 51.1 167.15 49.1 169.8 47.05 171.45 44.15 172.65 42.15 173.4 40.15 173.6 41.75 173.95 43.3 174.7 46.7 176.4 48.9 178 51.05 180.4 51.25 182.45 51.3 184.2 49.35 185.95 47.35 187.35 44.45 188.65 41.5 189.6 38.65 189.95 42 190.75 44.85 191.7 47.6 193.25 49.35 194.8 51.1 197.25 51.25 199.6 51.25 201.5 49.25 203.35 47.3 204.7 44.3 205.45 42.8 206 41.25 206.15 41.95 206.25 42.65 207 46.25 208.7 48.65 210.35 51.05 213.35 51.25 215.55 51.3 217.3 49.3 219.05 47.35 220.25 44.4 220.85 42.95 221.35 41.6 221.45 44.8 221.55 46.85 221.65 49.35 221.65 49.4 221.65 49.5 221.8 50.05 222 50.65 222.75 51.25 223.45 51.8 225 51.8 225.95 51.7 226.55 51.45 227.1 51.1 227.45 50.7 227.75 50.35 227.9 49.95 228 49.5 228 49.05 228 48.45 228 47.25 227.95 46 227.95 44.4 228.9 47.7 230.45 49.15 231.95 50.65 233.2 50.95 234.4 51.3 234.5 51.25 236.95 51.55 238.65 50.45 240.5 49.35 241.65 47.55 242.85 45.75 243.6 43.85 244.3 42.05 244.6 40.75 M 233 5.2 Q 233.2 6.75 232.95 9.6 232.75 12.35 231.65 16.1 230.6 19.85 228.15 24.25 228.4 19 228.9 14.45 229.45 9.85 230.4 6.95 231.4 4 232.8 3.65 232.85 3.65 233 5.2 M 228.9 1.25 Q 229.65 1.4 229.65 1.45 229.2 1.45 228.4 2 227.7 2.5 227.05 2.95 226.4 3.45 226.35 3.45 226.65 2.05 227.45 1.6 228.2 1.2 228.9 1.25 M 207.05 24.65 Q 207.05 22.7 207.55 22 208 21.3 208.55 21.3 209.05 21.2 209.1 21.3 208 22.3 207.5 23.5 207.05 24.55 207.05 24.65 M 237.95 25.75 Q 238.55 26.75 238.8 29.75 239.1 32.65 238.35 38.15 238.35 38.2 238.05 39.6 237.7 41.05 237.2 42.9 236.65 44.8 235.95 46.25 235.25 47.75 234.5 47.95 233.2 48.15 232.15 46.85 231.1 45.55 230.35 43.55 229.65 41.55 229.4 39.6 230.1 37.2 231.05 34.6 231.95 32 233.05 29.75 234.1 27.5 235.2 26.05 236.3 24.7 237.25 24.7 237.3 24.65 237.95 25.75 M 197.5 1.45 Q 198.15 0.9 199.3 1.25 L 198.8 1.6 Q 198.25 2 197.55 2.5 196.85 3 196.4 3.55 L 196.6 2.75 Q 196.85 2.05 197.5 1.45 M 201.35 6.9 Q 201.75 8.8 200.95 12.2 200.25 15.55 197.6 20 197.75 18.9 198.05 16.5 198.4 14.1 198.85 11.4 199.25 8.8 199.55 6.9 199.95 5 200.15 4.95 200.95 5 201.35 6.9 M 183.55 23.95 Q 184.3 22.3 185.15 22.25 186.2 22.25 186.95 23.55 187.8 24.95 188.3 26.95 188.9 28.95 189.15 31.05 188.75 32.5 187.85 35.2 187.05 38 185.85 40.95 184.7 43.95 183.4 46.05 182.1 48.2 180.85 48.4 180.75 48.45 180.45 47.1 180.1 45.75 180.05 42.4 180.05 38.95 180.9 33.05 180.95 32.95 181.3 31.35 181.6 29.8 182.2 27.65 182.75 25.55 183.55 23.95 M 163 25.75 Q 163.6 27.65 163 30.75 162.45 33.1 161.2 34.7 160 36.25 158.55 37.2 157.15 38.2 155.8 38.6 155.8 37.2 155.9 35.8 156.05 34.4 156.3 33.05 156.3 32.95 156.7 31.3 157 29.65 157.65 27.6 158.25 25.4 159 23.8 159.85 22.1 160.7 22.05 160.75 22.05 161.6 22.95 162.35 23.8 163 25.75 M 154.65 22.75 Q 154 23.3 153.9 23.35 154.45 21.6 155.35 21.1 156.25 20.55 156.95 20.55 157.65 20.65 157.7 20.65 157.15 20.9 156.25 21.55 155.35 22.2 154.65 22.75 M 125.4 22 Q 125.45 20.4 126.15 19.9 126.85 19.4 127.5 19.4 128.15 19.55 128.3 19.55 127.05 20.1 126.2 21 125.4 21.85 125.4 22 M 104.9 22.75 Q 104.2 23.3 104.2 23.35 104.75 21.6 105.55 21.1 106.45 20.55 107.2 20.55 L 107.9 20.65 Q 107.3 20.9 106.45 21.55 105.65 22.2 104.9 22.75 M 68.75 21.65 Q 68.7 20.25 69.25 19.8 69.75 19.3 70.3 19.3 70.95 19.3 71.05 19.35 70.4 19.6 69.95 20.2 69.35 20.75 69.1 21.15 L 68.75 21.65 M 342.2 33.05 Q 341.8 33.6 341.9 34.4 342.15 35.15 342.65 35.55 343.3 36 344.1 35.8 344.8 35.7 345.1 35.05 345.55 34.45 345.45 33.75 345.25 32.9 344.65 32.5 344.1 32.1 343.3 32.25 342.6 32.45 342.2 33.05 M 332.4 22.05 Q 331.95 22.4 331.35 22.45 330.85 22.55 330.4 22.05 330.65 23.8 330.9 25.6 331.25 27.4 331.6 29.15 330.2 29.4 329.45 29.6 L 328.6 29.85 Q 328.05 29.85 327.55 30 327.05 30.05 326.5 30.1 326.6 30.1 326.85 29.1 327.1 28 327.05 26.2 327 24.45 326 22.25 324.8 19.8 322.95 19.3 321.25 18.75 319.9 19.1 318.5 19.4 318.45 19.45 316.65 20.3 316 21.65 315.35 23 315.35 24.45 315.35 25.95 315.6 26.9 315.8 27.85 315.85 27.95 316.7 30.2 318.15 31.1 319.5 32.05 320.7 32.25 321.9 32.45 321.95 32.4 321.15 34.2 319.75 35.2 318.4 36.2 316.9 36.7 315.4 37.15 314.3 37.2 313.35 37.4 313.3 37.35 313.15 37.35 313.05 37.35 312.9 37.35 312.8 37.3 312.85 36.15 313.35 35.1 313.8 34.05 314.65 33.15 314.15 33.2 313.75 32.75 313.35 32.3 313.25 31.85 312.85 31.1 313.25 30.25 313.55 29.5 314.2 28.95 313.75 29.1 313.15 28.95 312.5 28.75 312.25 28.55 311.7 28.2 311.6 27.4 311.55 26.7 311.75 26.1 311.35 26.7 310.95 27.2 310.6 27.8 310.05 28.3 309.8 28.65 309.35 28.75 308.9 28.9 308.4 28.65 308.7 29.55 309.05 30.5 309.35 31.55 309.1 32.4 308.95 32.85 308.65 33.1 308.25 33.35 307.8 33.2 308.4 34.45 309.15 35.4 310.05 36.4 311.25 37.15 309.35 36.85 307.4 35.5 305.4 34.05 304.25 30.75 303.85 30.05 303.5 29.8 302.95 29.55 302.6 29.65 302.25 29.8 302.2 30.1 302.1 30.4 302.1 30.6 301.95 31.05 301.95 31.1 300.4 37.4 298.9 41.05 297.4 44.5 296.25 46.15 295.1 47.75 294.45 48.15 293.75 48.45 293.75 48.4 292.85 48.5 291.85 47.4 290.85 46.4 289.8 44.65 288.75 42.95 287.8 41.1 286.9 39.25 286.25 37.75 288.65 34.05 290.45 30.65 292.3 27.2 293.45 24.55 294.7 22.05 295.15 20.85 295.35 20.45 295.3 19.9 295.2 19.55 294.9 19.15 294.4 18.75 293.8 18.55 293.2 18.3 292.55 18.3 292.25 18.3 291.95 18.55 291.6 18.7 291.6 19 290.2 23.1 288.4 26.75 286.65 30.45 284.65 33.6 283.75 31.05 283 28.45 282.25 25.85 281.75 23.75 281.15 21.6 280.8 20.3 280.65 19.55 280.1 19.1 279.6 18.65 278.95 18.45 277.25 18.25 276.05 18.85 274.8 19.35 274.05 20.05 273.55 20.55 273.35 21.2 273.15 21.85 273.25 22.5 273.65 24 274.35 26.5 275 28.85 276.05 31.65 275 33.3 273.7 34.75 272.1 36.5 270.25 37.75 270.3 34.85 270.1 32.85 269.9 30.85 269.85 30.75 269.85 30.7 269.6 29.4 269.4 28.2 268.75 26.4 268.1 24.5 266.95 22.7 265.85 20.85 264.1 19.55 262.35 18.3 259.9 18.25 259.8 18.2 258.3 18.45 256.75 18.85 255 20.3 253.2 21.85 252.1 25.5 251.15 26.4 250.15 27.95 249.2 29.55 248.6 31.95 247.95 34.4 247.95 37.85 247.95 37.95 248.15 39.3 248.35 40.65 248.95 42.7 249.65 44.8 251 46.8 252.4 48.8 254.8 50.05 257.25 51.35 260.95 51.25 263.95 51.1 265.8 49.6 267.65 48.15 268.7 45.85 269.65 43.6 270.05 41.1 272.35 39.85 274.05 38.2 275.7 36.45 276.75 34.75 276.9 34.6 277 34.45 277.85 36.7 278.9 39.1 L 279.1 39.55 Q 279.25 40 279.65 40.75 277.45 43.6 275.8 45.5 274.05 47.4 273.25 48.2 273.1 48.4 272.95 48.8 272.9 49.1 273 49.4 273.2 50.2 273.55 50.6 273.9 50.95 274.3 51.1 274.5 51.15 274.75 51.15 275 51.1 275.25 50.9 277 49.5 278.65 47.75 280.25 46 281.75 44.15 283 45.95 284.75 47.6 286.45 49.35 288.65 50.4 290.75 51.45 293.35 51.25 295.65 51.05 297.35 49.05 299.1 47.05 300.3 44.05 301.55 41.1 302.3 38.2 303.05 35.5 303.35 33.6 303.4 33.65 303.5 33.8 304.5 35.7 306.7 37.2 308.9 38.85 312.8 39.1 L 313.5 39.1 Q 314.15 39.1 315.3 39.1 314.8 39.6 314.5 40.4 314.3 41.15 314.5 42 314.65 42.5 314.7 43.05 314.85 43.5 314.9 44 315.05 44.7 314.85 45.35 314.7 46.05 314.45 46.7 314.15 47.4 314.45 47.75 314.65 48.15 315.35 48 316 48 316.8 47.9 317.5 47.75 318.15 47.6 318.25 47.95 318.6 48.2 318.9 48.4 319.3 48.4 319.75 48.4 320.15 48.05 320.4 47.75 320.45 47.3 320.45 47.15 320.45 47.1 320.45 47.05 320.45 46.95 321.7 46.5 322.6 46.25 323.35 45.95 323.45 45.95 323.9 45.5 323.8 45.25 323.8 44.9 323.55 44.7 L 323.35 44.5 Q 322.65 44.05 322.2 43.5 321.7 42.9 321.45 42.15 321.3 41.75 321.15 41.35 321.1 40.9 320.95 40.45 320.7 39.7 320.25 39.15 319.8 38.6 319.1 38.25 321.05 37.7 322.8 36.25 324.6 34.85 325.7 32.4 L 326.25 32.4 Q 326.8 32.3 327.75 32.1 328.9 33.6 329.35 35.7 329.8 37.7 329.8 39.7 330.4 39.1 331.3 39.15 332.15 39.3 332.85 39.6 334.1 40.15 334.55 41.35 335 42.65 334.65 43.85 335.1 43.35 335.95 42.85 336.8 42.4 337.5 42.25 338.45 42.2 339.3 42.95 340.15 43.75 340.55 44.6 340.4 43.55 340.35 42.5 340.15 41.4 340.15 40.3 340.15 39.55 340.6 38.9 341 38.3 341.75 38.15 340.45 37.4 339.1 36.6 337.7 35.75 337.05 34.45 336.7 33.85 336.8 33.1 336.9 32.4 337.55 32.05 336.1 31.85 334.55 31.75 333.05 31.55 331.55 31.4 332.15 31.3 332.8 31.15 333.35 31.05 334.1 30.85 339 29.8 342.9 30.05 346.9 30.3 349.45 31.75 352 33.1 352.8 35.6 353.45 37.95 353.45 39.4 353.4 40.9 353.05 41.75 352.95 42 352.4 42.5 351.9 43.05 350.8 43.15 349.45 43.15 348.65 42.65 347.9 42.15 347.55 41.6 347.3 41.15 347.3 41.1 L 347.1 40.5 Q 347 40 347 39.3 347 38.65 347.35 38.15 347.55 37.85 347.9 37.85 348.15 37.95 348.3 38.25 348.4 38.6 348.4 38.65 348.55 39.85 349.2 40.15 349.7 40.4 350.4 39.95 350.45 39.95 350.75 39.6 351.05 39.25 350.65 38.2 350.6 37.85 350.3 37.4 349.95 36.95 349.4 36.75 348.65 36.5 348 36.65 347.45 36.85 347.05 37.15 345.9 38.15 345.75 39.25 345.7 40.4 345.95 41.25 346.3 42.05 346.35 42.05 346.3 42.15 346.8 42.9 347.3 43.6 348.45 44.25 349.65 44.85 351.5 44.7 351.55 44.7 352.85 44.45 354.1 44.05 355.55 43.1 357 42.05 357.7 39.95 358.4 37.8 357.3 34.2 357.3 34.05 356.8 32.85 356.2 31.6 354.85 30.05 353.5 28.45 351.1 27.4 348.65 26.25 344.85 26.5 342.85 26.65 340.45 27.1 338 27.6 336 28.1 335.3 28.3 334.6 28.45 333.9 28.55 333.3 28.7 334.1 27.85 335.1 27.3 336.2 26.7 337.3 26.5 L 337.3 26.45 Q 336.8 26.1 336.7 25.4 336.65 24.55 336.7 24.05 336.9 22.9 337.8 22.3 338.7 21.75 339.75 21.8 339.3 21.55 338.9 21.1 338.55 20.65 338.35 20.1 338.15 19.2 338.6 18.5 339 17.75 339.65 17.3 338.8 17.6 337.95 17.85 337.2 18.2 336.25 18.45 335.75 18.55 335.1 18.4 334.55 18.1 334.2 17.6 333.95 18.7 333.55 20.05 333.15 21.35 332.4 22.05 M 318.9 21.75 Q 320.05 21.4 320.85 22 321.55 22.55 321.9 23.55 322.35 24.5 322.45 25.3 L 322.6 26.1 Q 322.8 27.35 322.8 28.4 322.8 29.4 322.6 30.3 322.5 30.3 321.5 30.2 320.45 30.05 319.35 29.3 318.2 28.5 317.7 26.65 317.7 26.55 317.5 25.55 317.3 24.5 317.55 23.3 317.75 22.1 318.9 21.75 M 319.5 39.35 Q 319.95 39.8 319.95 40.3 L 320 40.85 Q 319.25 39.95 318.65 39.5 L 317.95 39.05 Q 319.1 38.9 319.5 39.35 M 276.05 20.1 Q 275.6 21 275.35 21.95 275 22.85 274.9 23.55 274.25 22.25 274.65 21.55 274.9 20.75 275.45 20.45 276 20.1 276.05 20.1 M 254.8 24 Q 254.6 22.5 255.15 21.8 255.65 21.15 256.25 20.9 256.85 20.75 256.95 20.75 255.65 22.25 254.8 24 M 259.8 22.75 Q 260.55 21.95 260.6 22 262.3 22 263.5 23.5 264.7 24.9 265.4 26.75 266.1 28.7 266.45 30.2 266.75 31.65 266.75 31.75 267.05 34.05 267.15 36 267.15 37.85 266.9 39.4 265.7 39.85 264.6 39.95 263.5 39.95 262.55 39.75 261 39.35 260.1 38.2 259.15 37.05 258.6 35.75 258.15 34.45 257.95 33.5 257.85 32.5 257.85 32.4 257.6 28.2 258.3 25.95 258.95 23.6 259.8 22.75 M 257.9 47.5 Q 256.85 45.95 256.35 43.85 255.9 41.8 255.7 39.95 256.85 40.95 258.5 41.6 260.1 42.3 262.25 42.6 263.35 42.65 264.3 42.6 265.25 42.6 266.15 42.4 265.2 45.05 263.95 46.5 262.7 48.05 261.7 48.65 260.75 49.3 260.75 49.25 258.95 48.95 257.9 47.5 M 330.85 17.3 Q 330.25 16.9 329.5 16.95 328.85 17.15 328.4 17.8 328 18.4 328.15 19.1 328.35 19.85 328.9 20.3 329.5 20.7 330.25 20.5 L 330.25 20.55 Q 331 20.4 331.35 19.8 331.7 19.15 331.6 18.45 331.45 17.65 330.85 17.3 Z"
       id="path858" /></g></defs><sodipodi:namedview
   pagecolor="#ffffff"
   bordercolor="#666666"
   borderopacity="1"
   objecttolerance="10"
   gridtolerance="10"
   guidetolerance="10"
   inkscape:pageopacity="0"
   inkscape:pageshadow="2"
   inkscape:window-width="1920"
   inkscape:window-height="1018"
   id="namedview29"
   showgrid="false"
   inkscape:zoom="3.5162162"
   inkscape:cx="189.31838"
   inkscape:cy="40"
   inkscape:window-x="-6"
   inkscape:window-y="-6"
   inkscape:window-maximized="1"
   inkscape:current-layer="png" />
<style
   type="text/css"
   id="style2">
	.st0{fill:#EEEEEE;}
	.st1{fill:#999999;}
	.st2{fill:#555555;}
</style>












<use
   xlink:href="#Symbol_1_0_Layer0_0_FILL"
   id="use863"
   x="0"
   y="0"
   width="100%"
   height="100%"
   transform="matrix(0.86627555,0,0,0.86627555,0.62058984,35.094726)" /></svg>
