
<svg xmlns="http://www.w3.org/2000/svg" version="1.1" xmlns:xlink="http://www.w3.org/1999/xlink" preserveAspectRatio="none" x="0px" y="0px" width="546px" height="78px" viewBox="0 0 546 78">
<defs>
<g id="Layer0_0_FILL">
<path fill="#AAAAAA" stroke="none" d="
M 296.3 62
Q 296.0501953125 62.205859375 295.8 62.4
L 296.25 62.35 296.3 62
M 250.15 62.4
Q 249.848046875 62.190234375 249.55 61.95
L 249.6 62.35 250.15 62.4
M 279.65 67.75
L 281.7 68.35
Q 283.4541015625 67.615234375 285.35 68.5 285.6728515625 68.6541015625 285.95 68.8
L 287.25 66.55
Q 283.776953125 67.5015625 279.65 67.75
M 264.15 68.35
L 266.2 67.75
Q 262.1451171875 67.495703125 258.7 66.55
L 259.95 68.8
Q 260.2171875 68.6349609375 260.5 68.5 262.3916015625 67.6171875 264.15 68.35
M 289.1 14.9
L 285.6 8.6 278.6 10.65 273 6 267.25 10.65 260.35 8.6 256.85 14.9 249.6 15.7 248.85 22.9 242.5 26.4 244.55 33.35 240 39 244.55 44.75 243.6 47.85
Q 243.8880859375 48.266015625 244.1 48.7 245.1630859375 50.6412109375 244.25 52.65
L 246.25 53.75
Q 246.26171875 53.6677734375 246.25 53.55 245.95 51.15 247.35 49.1 249.6 50.45 250.05 52.85 250.268359375 55.0326171875 249 56.65
L 249.35 60.25
Q 249.4880859375 60.3458984375 249.6 60.45 251.0119140625 61.714453125 252.7 62.7
L 256.8 63.2
Q 256.30703125 62.580859375 256 61.75 255.2 59.55 256.1 57.2 258.45 57.7 259.6 60.2 260.35 62.4 259.2 64.7 257.7892578125 64.309765625 256.9 63.3
L 257.85 65
Q 262.75234375 66.525 269.2 66.6
L 269.2 67.85
Q 268.4513671875 67.847265625 267.7 67.8
L 273 72 278.1 67.8
Q 277.451953125 67.8474609375 276.75 67.85
L 276.75 66.6
Q 283.183203125 66.575 288.1 65
L 289.1 63.2 293.3 62.7
Q 294.9662109375 61.7005859375 296.35 60.45 296.4189453125 60.38515625 296.45 60.3
L 296.9 56.75
Q 295.62734375 55.076171875 295.85 52.85 296.3 50.5 298.6 49.1 299.95 51.15 299.7 53.55 299.6853515625 53.6693359375 299.65 53.75
L 301.6 52.7
Q 300.675390625 50.6623046875 301.75 48.7 301.981640625 48.2259765625 302.25 47.8
L 301.35 44.75 306 39 301.35 33.35 303.45 26.4 297.1 22.9 296.25 15.7 289.1 14.9
M 280.1 66.1
Q 279.45 63.8 281 61.6 282.55 59.75 285.1 59.75 285.4 62.1 283.85 64.1 282.5 66.1 280.1 66.1
M 294.75 54.7
Q 295.95 56.85 295.25 59.25 294.65 61.65 292.45 62.5 290.95 60.3 291.6 58 292.35 55.55 294.75 54.7
M 286.35 60.1
Q 287.4 57.85 289.85 57.1 290.7 59.6 289.85 61.75 289.1 64 286.75 64.6 285.5 62.55 286.35 60.1
M 265 61.6
Q 266.45 63.75 265.85 66 263.45 66.15 262 64.1 260.45 62.1 260.75 59.75 263.2 59.7 265 61.6
M 250.6 59.25
Q 250.05 56.85 251.1 54.7 253.5 55.5 254.35 58 254.95 60.25 253.5 62.45 251.25 61.55 250.6 59.25 Z"/>

<path fill="#828282" stroke="none" d="
M 246.25 53.55
Q 246.26171875 53.6677734375 246.25 53.75 246.598828125 56.0994140625 248.6 57.1 248.8158203125 56.8779296875 249 56.65 250.268359375 55.0326171875 250.05 52.85 249.6 50.45 247.35 49.1 245.95 51.15 246.25 53.55
M 259.6 60.2
Q 258.45 57.7 256.1 57.2 255.2 59.55 256 61.75 256.30703125 62.580859375 256.8 63.2 256.8685546875 63.2619140625 256.9 63.3 257.7892578125 64.309765625 259.2 64.7 260.35 62.4 259.6 60.2
M 278.1 67.8
Q 278.894921875 67.8017578125 279.65 67.75 283.776953125 67.5015625 287.25 66.55 292.1974609375 65.187109375 295.8 62.4 296.0501953125 62.205859375 296.3 62 296.83671875 61.537890625 297.35 61.05 300.95 57.75 301.85 54.25
L 300.6 54
Q 299.7185546875 57.23203125 296.45 60.3 296.4189453125 60.38515625 296.35 60.45 294.9662109375 61.7005859375 293.3 62.7 290.976171875 64.123828125 288.1 65 283.183203125 66.575 276.75 66.6
L 276.75 67.85
Q 277.451953125 67.8474609375 278.1 67.8
M 281.7 68.35
Q 281.41484375 68.5033203125 281.1 68.7 281.7 71.05 284 72.1 286.2 73.05 288.6 71.75 287.7041015625 69.8728515625 285.95 68.8 285.6728515625 68.6541015625 285.35 68.5 283.4541015625 67.615234375 281.7 68.35
M 267.7 67.8
Q 268.4513671875 67.847265625 269.2 67.85
L 269.2 66.6
Q 262.75234375 66.525 257.85 65 255.015234375 64.1037109375 252.7 62.7 251.0119140625 61.714453125 249.6 60.45 249.4880859375 60.3458984375 249.35 60.25 247.3875 58.3328125 246.25 56.2 245.4 54.6 245.35 54
L 244.1 54.25 245 56.45
Q 246.3 58.95 248.55 61.05 249.0361328125 61.5119140625 249.55 61.95 249.848046875 62.190234375 250.15 62.4 253.739453125 65.2005859375 258.7 66.55 262.1451171875 67.495703125 266.2 67.75 266.965625 67.80078125 267.7 67.8
M 264.85 68.7
Q 264.5154296875 68.50078125 264.15 68.35 262.3916015625 67.6171875 260.5 68.5 260.2171875 68.6349609375 259.95 68.8 258.1779296875 69.8328125 257.35 71.75 259.55 73.05 261.95 72.1 264.15 71.05 264.85 68.7
M 244.1 48.7
Q 243.8880859375 48.266015625 243.6 47.85 242.5958984375 46.3482421875 240.8 45.55 239.6 48 240.6 50.25 241.8 52.4 244.1 53 244.1869140625 52.83359375 244.25 52.65 245.1630859375 50.6412109375 244.1 48.7
M 251.1 54.7
Q 250.05 56.85 250.6 59.25 251.25 61.55 253.5 62.45 254.95 60.25 254.35 58 253.5 55.5 251.1 54.7
M 265.85 66
Q 266.45 63.75 265 61.6 263.2 59.7 260.75 59.75 260.45 62.1 262 64.1 263.45 66.15 265.85 66
M 289.85 57.1
Q 287.4 57.85 286.35 60.1 285.5 62.55 286.75 64.6 289.1 64 289.85 61.75 290.7 59.6 289.85 57.1
M 295.25 59.25
Q 295.95 56.85 294.75 54.7 292.35 55.55 291.6 58 290.95 60.3 292.45 62.5 294.65 61.65 295.25 59.25
M 281 61.6
Q 279.45 63.8 280.1 66.1 282.5 66.1 283.85 64.1 285.4 62.1 285.1 59.75 282.55 59.75 281 61.6
M 299.65 53.75
Q 299.6853515625 53.6693359375 299.7 53.55 299.95 51.15 298.6 49.1 296.3 50.5 295.85 52.85 295.62734375 55.076171875 296.9 56.75 297.0693359375 56.9974609375 297.25 57.2 299.2953125 56.0583984375 299.65 53.75
M 302.25 47.8
Q 301.981640625 48.2259765625 301.75 48.7 300.675390625 50.6623046875 301.6 52.7 301.674609375 52.8556640625 301.75 53 304.15 52.4 305.35 50.25 306.3 47.95 305.1 45.55 303.3072265625 46.3294921875 302.25 47.8
M 242.5 55.05
Q 240.3 53.85 238 54.35 238.25 57 240.35 58.25 242.45 59.45 244.85 58.7 244.55 56.3 242.5 55.05
M 300.7 65.75
Q 298.85 64.15 296.45 64 294.05 64 292.6 66 294.1 67.95 296.6 67.95 299.25 67.9 300.7 65.75
M 297.6 62.85
Q 299.5 64.35 301.95 63.85 304.45 63.15 305.45 60.75 303.15 59.6 300.85 60.1 298.4 60.65 297.6 62.85
M 287.5 67.75
Q 288.4 70.1 290.85 70.85 293.35 71.55 295.35 69.95 294.1 67.85 291.75 67.1 289.5 66.35 287.5 67.75
M 258.35 67.75
Q 256.5 66.35 254.1 67.1 251.8 67.85 250.6 69.95 252.55 71.55 255.1 70.85 257.55 70.05 258.35 67.75
M 245.25 65.7
Q 246.55 67.7 249.3 67.95 251.7 67.95 253.35 66 251.8 64 249.5 64 247.05 64 245.25 65.7
M 244 63.8
Q 246.25 64.4 248.35 62.8 247.4 60.55 245.05 60.1 242.65 59.6 240.55 60.75 241.45 63.1 244 63.8
M 305.5 58.25
Q 307.65 57 307.95 54.3 305.65 53.85 303.45 55 301.35 56.2 301.1 58.6 303.35 59.55 305.5 58.25 Z"/>

<path fill="#FFFFFF" fill-opacity="0.34901960784313724" stroke="none" d="
M 545.5 39.15
Q 545.5 23.3 534.25 11.95 522.9 0.65 507.05 0.65 491.1 0.65 479.85 11.95 468.55 23.25 468.55 39.15 468.55 55.2 479.85 66.4 491 77.6 507.05 77.6 523 77.6 534.25 66.4 545.5 55.15 545.5 39.15
M 467.45 38.5
Q 467.45 22.65 456.15 11.3 444.8 0 429 0 413.05 0 401.8 11.3 390.5 22.6 390.5 38.5 390.5 54.55 401.8 65.75 412.95 76.95 429 76.95 444.9 76.95 456.15 65.75 467.45 54.5 467.45 38.5 Z"/>

<path fill="#A0AAB4" stroke="none" d="
M 92.15 64.35
Q 93.00703125 64.35 93.75 64.6
L 95.3 64.3
Q 93.262890625 63.09453125 91.5 61.55
L 90.95 64.45
Q 91.5298828125 64.35 92.15 64.35
M 102.15 70.05
Q 102.89140625 69.4447265625 103.8 69 106.1 68 108.4 69.2 108.359765625 69.3369140625 108.3 69.45
L 110.1 68.25
Q 105.424609375 68 101.55 66.9
L 102.15 70.05
M 131.1 4.85
L 122.65 10.65 117 2 111.3 10.65 102.8 4.85 100.8 14.9 90.8 12.9 92.8 22.9 82.8 24.9 88.55 33.35 80 39 88.55 44.75 86.4 47.9
Q 86.4615234375 47.9728515625 86.5 48.05 87.6 50.35 86.5 52.6 85.0552734375 52.26015625 84.05 51.4
L 82.8 53.25 86.5 53.95 87.75 53.75
Q 87.8197265625 53.9939453125 87.9 54.25
L 88.95 54.45
Q 88.7470703125 53.8931640625 88.65 53.25 88.45 50.6 89.9 48.55 92.2 49.8 92.75 52.5 92.8837890625 53.944140625 92.45 55.1
L 92.8 55.2 91.8 60.05
Q 92.0595703125 60.2748046875 92.3 60.5 94.508984375 62.506640625 97.35 63.9
L 99.9 63.35
Q 99.34921875 62.72890625 99.05 61.85 98.2 59.45 99.15 57 101.8 57.85 102.8 60.25 103.7 62.6 102.4 64.95 101.6380859375 64.7259765625 101 64.35
L 101.25 65.4
Q 106.3466796875 66.9755859375 113 67
L 113 68.35
Q 112.4408203125 68.348046875 111.9 68.3
L 117 76 122.05 68.3
Q 121.488671875 68.3478515625 120.9 68.35
L 120.9 67.1
Q 127.567578125 67.0267578125 132.65 65.45
L 132.85 64.35
Q 132.2806640625 64.730859375 131.55 64.95 130.2 62.65 131.1 60.25 132.1 57.75 134.8 57 135.7 59.45 134.85 61.8 134.547265625 62.7080078125 134 63.35
L 136.55 63.9
Q 139.411328125 62.50234375 141.6 60.5 141.8423828125 60.2875 142.05 60.05
L 141.1 55.2 141.45 55.1
Q 141.0431640625 53.941796875 141.15 52.5 141.7 49.75 144.05 48.55 145.5 50.55 145.25 53.25 145.176171875 53.890234375 144.95 54.45
L 146 54.25
Q 146.0869140625 53.9984375 146.15 53.75
L 147.35 53.95 151.1 53.25 149.8 51.35
Q 148.8162109375 52.2625 147.35 52.55 146.3 50.3 147.35 48 147.39375 47.9181640625 147.45 47.85
L 145.35 44.75 154 39 145.35 33.35 151.1 24.9 141.1 22.9 143.1 12.9 133.1 14.9 131.1 4.85
M 94 54.45
Q 96.5 55.45 97.3 58 97.9 60.5 96.4 62.6 94 61.75 93.4 59.25 92.75 56.7 94 54.45
M 140 54.45
Q 141.2 56.7 140.55 59.25 139.85 61.7 137.55 62.6 136.05 60.5 136.6 58 137.6 55.35 140 54.45
M 125.4 61.75
Q 127.15 59.7 129.85 59.75 130.05 62.3 128.55 64.45 127 66.55 124.4 66.45 123.9 63.85 125.4 61.75
M 104.05 59.8
Q 106.85 59.75 108.55 61.8 110.05 63.8 109.5 66.45 106.9 66.45 105.4 64.45 103.85 62.45 104.05 59.8
M 125.6 69.45
Q 125.5875 69.34140625 125.55 69.2 127.75 68 130.1 69 131.010546875 69.4455078125 131.7 70.05
L 132.35 66.85
Q 128.5 67.980859375 123.85 68.25
L 125.6 69.45
M 141.8 64.25
Q 142.377734375 64.25 142.9 64.35
L 142.35 61.55
Q 140.6373046875 63.0978515625 138.55 64.3
L 139.95 64.55
Q 140.80234375 64.25 141.8 64.25 Z"/>

<path fill="#78828C" stroke="none" d="
M 90.95 64.45
Q 89.0966796875 64.7673828125 87.65 66.1 89.2 68.3 92 68.45 94.5 68.3 96.25 66.35 95.15703125 65.0642578125 93.75 64.6 93.00703125 64.35 92.15 64.35 91.5298828125 64.35 90.95 64.45
M 102.4 64.95
Q 103.7 62.6 102.8 60.25 101.8 57.85 99.15 57 98.2 59.45 99.05 61.85 99.34921875 62.72890625 99.9 63.35 100.3724609375 63.9529296875 101 64.35 101.6380859375 64.7259765625 102.4 64.95
M 101.55 66.9
Q 105.424609375 68 110.1 68.25 110.9826171875 68.318359375 111.9 68.3 112.4408203125 68.348046875 113 68.35
L 113 67
Q 106.3466796875 66.9755859375 101.25 65.4 99.1705078125 64.788671875 97.35 63.9 94.508984375 62.506640625 92.3 60.5 92.0595703125 60.2748046875 91.8 60.05 89.8169921875 58.0646484375 88.65 56 88.189453125 55.07890625 87.9 54.25 87.8197265625 53.9939453125 87.75 53.75
L 86.5 53.95 86.4 54 87.4 56.3
Q 88.7 58.9 91.15 61.2 91.3369140625 61.374609375 91.5 61.55 93.262890625 63.09453125 95.3 64.3 98.127734375 65.9166015625 101.55 66.9
M 103.8 69
Q 102.89140625 69.4447265625 102.15 70.05 101.0439453125 71.0392578125 100.4 72.45 102.75 73.85 105.3 72.85 107.523828125 71.808984375 108.3 69.45 108.359765625 69.3369140625 108.4 69.2 106.1 68 103.8 69
M 86.4 47.9
Q 85.3158203125 45.8130859375 83 44.8 81.7 47.15 82.8 49.75 83.2984375 50.7251953125 84.05 51.4 85.0552734375 52.26015625 86.5 52.6 87.6 50.35 86.5 48.05 86.4615234375 47.9728515625 86.4 47.9
M 108.55 61.8
Q 106.85 59.75 104.05 59.8 103.85 62.45 105.4 64.45 106.9 66.45 109.5 66.45 110.05 63.8 108.55 61.8
M 129.85 59.75
Q 127.15 59.7 125.4 61.75 123.9 63.85 124.4 66.45 127 66.55 128.55 64.45 130.05 62.3 129.85 59.75
M 140.55 59.25
Q 141.2 56.7 140 54.45 137.6 55.35 136.6 58 136.05 60.5 137.55 62.6 139.85 61.7 140.55 59.25
M 97.3 58
Q 96.5 55.45 94 54.45 92.75 56.7 93.4 59.25 94 61.75 96.4 62.6 97.9 60.5 97.3 58
M 92.45 55.1
Q 92.8837890625 53.944140625 92.75 52.5 92.2 49.8 89.9 48.55 88.45 50.6 88.65 53.25 88.7470703125 53.8931640625 88.95 54.45 89.583984375 56.1669921875 91.25 57 92.0638671875 56.162890625 92.45 55.1
M 125.55 69.2
Q 125.5875 69.34140625 125.6 69.45 126.3384765625 71.719140625 128.6 72.85 131.2 73.85 133.5 72.5 132.8568359375 71.060546875 131.7 70.05 131.010546875 69.4455078125 130.1 69 127.75 68 125.55 69.2
M 134.85 61.8
Q 135.7 59.45 134.8 57 132.1 57.75 131.1 60.25 130.2 62.65 131.55 64.95 132.2806640625 64.730859375 132.85 64.35 133.5306640625 63.9671875 134 63.35 134.547265625 62.7080078125 134.85 61.8
M 142.9 64.35
Q 142.377734375 64.25 141.8 64.25 140.80234375 64.25 139.95 64.55 138.6630859375 65.0716796875 137.75 66.35 139.4 68.35 142.05 68.35 144.65 68.3 146.3 66 144.762109375 64.6544921875 142.9 64.35
M 144.95 54.45
Q 145.176171875 53.890234375 145.25 53.25 145.5 50.55 144.05 48.55 141.7 49.75 141.15 52.5 141.0431640625 53.941796875 141.45 55.1 141.8578125 56.1611328125 142.65 57 144.3837890625 56.133203125 144.95 54.45
M 120.9 67.1
L 120.9 68.35
Q 121.488671875 68.3478515625 122.05 68.3 122.970703125 68.3078125 123.85 68.25 128.5 67.980859375 132.35 66.85 135.7744140625 65.9119140625 138.55 64.3 140.6373046875 63.0978515625 142.35 61.55 142.5611328125 61.3763671875 142.75 61.2 146.55 57.55 147.5 54
L 147.35 53.95 146.15 53.75
Q 146.0869140625 53.9984375 146 54.25 145.0662109375 57.290234375 142.05 60.05 141.8423828125 60.2875 141.6 60.5 139.411328125 62.50234375 136.55 63.9 134.7505859375 64.801171875 132.65 65.45 127.567578125 67.0267578125 120.9 67.1
M 147.45 47.85
Q 147.39375 47.9181640625 147.35 48 146.3 50.3 147.35 52.55 148.8162109375 52.2625 149.8 51.35 150.5900390625 50.7275390625 151.1 49.75 152.2 47.2 151 44.8 148.6390625 45.7154296875 147.45 47.85
M 97.05 67.6
Q 94.65 68.35 93.3 70.6 95.5 72.25 98.05 71.5 100.55 70.75 101.55 68.25 99.55 66.75 97.05 67.6
M 87.4 60.2
Q 84.95 59.6 82.65 60.85 83.7 63.35 86.3 64.1 88.95 64.65 91 63 89.85 60.65 87.4 60.2
M 132.35 68.25
Q 133.4 70.75 135.85 71.5 138.35 72.25 140.6 70.6 139.35 68.4 136.85 67.6 134.35 66.75 132.35 68.25
M 146.65 58.6
Q 149.1 59.55 151.4 58.25 153.7 56.8 154 54.05 151.4 53.55 149.15 54.8 146.95 56.1 146.65 58.6
M 146.5 60.2
Q 145.4 60.4 144.35 61.2 143.45 61.95 143 63 145.1 64.65 147.6 64 150.2 63.35 151.25 60.8 148.8 59.55 146.5 60.2
M 82.5 58.25
Q 84.8 59.6 87.25 58.6 86.95 56.1 84.75 54.8 82.5 53.55 80 54.05 80.2 56.75 82.5 58.25 Z"/>

<path fill="#CBA27A" stroke="none" d="
M 216.9 63.55
L 219.75 63.75 219.55 61.5
Q 218.3341796875 62.6421875 216.9 63.55
M 207.75 68.75
Q 208.4177734375 69.06171875 208.95 69.45
L 209.9 66.65
Q 206.187109375 67.74375 201.7 68
L 203.45 68.9
Q 205.50859375 67.7267578125 207.75 68.75
M 173 63.55
Q 171.614453125 62.6740234375 170.4 61.6
L 170.25 63.75 173 63.55
M 186.45 68.85
L 188.05 68.05
Q 183.679296875 67.7583984375 180 66.7
L 180.95 69.45
Q 181.505859375 69.0505859375 182.15 68.75 184.43359375 67.7296875 186.45 68.85
M 211.1 14.9
L 208.35 6.7 200.6 10.65 195 4 189.3 10.65 181.6 6.7 178.85 14.9 170.25 14.25 170.85 22.9 162.6 25.65 166.55 33.35 160 39 166.55 44.75 165 47.75
Q 165.1869140625 48.0443359375 165.35 48.35 166.4 50.6 165.35 52.8 163.9671875 52.474609375 163 51.65
L 162.6 52.45 167.6 54.1
Q 167.5412109375 53.8005859375 167.5 53.45 167.2 50.85 168.6 48.85 170.95 50.05 171.35 52.7 171.5623046875 54.5044921875 170.8 55.9
L 170.5 60.1
Q 170.698046875 60.3119140625 170.9 60.5 172.7953125 62.1908203125 175.15 63.4
L 178.3 63.2
Q 177.8203125 62.597265625 177.55 61.75 176.7 59.5 177.6 57 180.2 57.75 181.15 60.25 182.05 62.55 180.8 64.85 179.8341796875 64.56015625 179.1 64
L 179.5 65.2
Q 184.541796875 66.77578125 191.1 66.85
L 191.1 68.2
Q 190.5076171875 68.1916015625 189.9 68.15
L 195 74 200.05 68.05
Q 199.461328125 68.0978515625 198.85 68.1
L 198.85 66.85
Q 205.414453125 66.7759765625 210.4 65.2
L 210.8 63.95
Q 210.110546875 64.546875 209.1 64.85 207.85 62.55 208.75 60.25 209.7 57.8 212.3 57.05 213.25 59.55 212.35 61.75 212.0802734375 62.5951171875 211.55 63.2
L 214.75 63.4
Q 217.128515625 62.1939453125 219 60.5 219.2388671875 60.2818359375 219.45 60.05
L 219.15 55.95
Q 218.3369140625 54.546875 218.55 52.7 219 50.05 221.35 48.85 222.75 50.8 222.5 53.45 222.453515625 53.7892578125 222.35 54.1
L 227.3 52.45 226.9 51.65
Q 225.9201171875 52.469921875 224.6 52.8 223.45 50.6 224.6 48.35 224.7380859375 48.0474609375 224.9 47.75
L 223.35 44.75 230 39 223.35 33.35 227.3 25.65 219.1 22.9 219.75 14.25 211.1 14.9
M 182.4 59.75
Q 185.1 59.6 186.8 61.75 188.25 63.75 187.65 66.25 185.05 66.25 183.75 64.2 182.15 62.25 182.4 59.75
M 172.55 54.5
Q 175.1 55.55 175.85 58 176.35 60.45 175 62.5 172.6 61.65 172.05 59.25 171.4 56.7 172.55 54.5
M 214.1 58
Q 214.9 55.5 217.35 54.5 218.6 56.9 217.85 59.25 217.3 61.6 215 62.5 213.5 60.55 214.1 58
M 203.1 61.75
Q 204.85 59.7 207.5 59.75 207.75 62.25 206.25 64.25 204.75 66.4 202.25 66.25 201.65 63.8 203.1 61.75 Z"/>

<path fill="#90682A" stroke="none" d="
M 203.45 68.9
Q 203.403515625 68.9181640625 203.35 68.95 203.95 71.4 206.35 72.45 208.75 73.5 211.05 72.1 210.31171875 70.4826171875 208.95 69.45 208.4177734375 69.06171875 207.75 68.75 205.50859375 67.7267578125 203.45 68.9
M 212.3 57.05
Q 209.7 57.8 208.75 60.25 207.85 62.55 209.1 64.85 210.110546875 64.546875 210.8 63.95 211.25234375 63.648046875 211.55 63.2 212.0802734375 62.5951171875 212.35 61.75 213.25 59.55 212.3 57.05
M 222.35 54.1
Q 222.453515625 53.7892578125 222.5 53.45 222.75 50.8 221.35 48.85 219 50.05 218.55 52.7 218.3369140625 54.546875 219.15 55.95 219.49296875 56.54296875 220 57.05 221.8640625 56.1396484375 222.35 54.1
M 167.5 53.45
Q 167.5412109375 53.8005859375 167.6 54.1 168.1025390625 56.1443359375 170 57.05 170.482421875 56.5236328125 170.8 55.9 171.5623046875 54.5044921875 171.35 52.7 170.95 50.05 168.6 48.85 167.2 50.85 167.5 53.45
M 177.6 57
Q 176.7 59.5 177.55 61.75 177.8203125 62.597265625 178.3 63.2 178.665234375 63.6814453125 179.1 64 179.8341796875 64.56015625 180.8 64.85 182.05 62.55 181.15 60.25 180.2 57.75 177.6 57
M 200.05 68.05
Q 200.883984375 68.05390625 201.7 68 206.187109375 67.74375 209.9 66.65 213.84140625 65.5669921875 216.9 63.55 218.3341796875 62.6421875 219.55 61.5 219.8208984375 61.3181640625 220.05 61.1 223.8 57.6 224.6 54.2
L 223.35 53.8
Q 222.5123046875 57.1041015625 219.45 60.05 219.2388671875 60.2818359375 219 60.5 217.128515625 62.1939453125 214.75 63.4 212.762890625 64.494921875 210.4 65.2 205.414453125 66.7759765625 198.85 66.85
L 198.85 68.1
Q 199.461328125 68.0978515625 200.05 68.05
M 188.05 68.05
Q 188.9796875 68.1412109375 189.9 68.15 190.5076171875 68.1916015625 191.1 68.2
L 191.1 66.85
Q 184.541796875 66.77578125 179.5 65.2 177.171875 64.491796875 175.15 63.4 172.7953125 62.1908203125 170.9 60.5 170.698046875 60.3119140625 170.5 60.1 168.58984375 58.2296875 167.5 56.05 166.9 54.95 166.55 53.8
L 165.3 54.2 166.15 56.35
Q 167.6 59 169.85 61.1 170.1197265625 61.355078125 170.4 61.6 171.614453125 62.6740234375 173 63.55 176.0888671875 65.565625 180 66.7 183.679296875 67.7583984375 188.05 68.05
M 183.6 72.45
Q 185.9 71.4 186.6 68.95 186.540625 68.9146484375 186.45 68.85 184.43359375 67.7296875 182.15 68.75 181.505859375 69.0505859375 180.95 69.45 179.5994140625 70.4583984375 178.85 72.1 181.1 73.45 183.6 72.45
M 165.35 48.35
Q 165.1869140625 48.0443359375 165 47.75 163.8375 45.9845703125 161.85 45.25 160.6 47.55 161.65 50 162.1763671875 51.00703125 163 51.65 163.9671875 52.474609375 165.35 52.8 166.4 50.6 165.35 48.35
M 224.9 47.75
Q 224.7380859375 48.0474609375 224.6 48.35 223.45 50.6 224.6 52.8 225.9201171875 52.469921875 226.9 51.65 227.6876953125 50.98984375 228.25 50 229.25 47.45 228.05 45.25 225.965625 45.9447265625 224.9 47.75
M 207.5 59.75
Q 204.85 59.7 203.1 61.75 201.65 63.8 202.25 66.25 204.75 66.4 206.25 64.25 207.75 62.25 207.5 59.75
M 217.35 54.5
Q 214.9 55.5 214.1 58 213.5 60.55 215 62.5 217.3 61.6 217.85 59.25 218.6 56.9 217.35 54.5
M 175.85 58
Q 175.1 55.55 172.55 54.5 171.4 56.7 172.05 59.25 172.6 61.65 175 62.5 176.35 60.45 175.85 58
M 186.8 61.75
Q 185.1 59.6 182.4 59.75 182.15 62.25 183.75 64.2 185.05 66.25 187.65 66.25 188.25 63.75 186.8 61.75
M 213.35 71.2
Q 216 71.9 218 70.25 216.75 68.15 214.35 67.35 211.95 66.6 210 68 210.9 70.35 213.35 71.2
M 215.1 66.2
Q 216.8 68.15 219.35 68.2 222 68.05 223.5 65.95 221.6 64.2 219.1 64.2 216.65 64.2 215.1 66.2
M 228.35 60.8
Q 226.15 59.6 223.65 60.1 221.2 60.7 220.3 63 222.2 64.45 224.8 64 227.3 63.25 228.35 60.8
M 226.35 55
Q 224.15 56.1 223.85 58.7 226.3 59.5 228.5 58.25 230.7 56.9 231 54.25 228.45 53.75 226.35 55
M 180 68
Q 177.95 66.6 175.6 67.35 173.2 68.2 172 70.25 173.95 71.9 176.6 71.2 178.95 70.35 180 68
M 166.35 65.85
Q 167.8 67.95 170.55 68.2 173.05 68.2 174.8 66.2 173.3 64.15 170.8 64.2 168.3 64.2 166.35 65.85
M 165.1 64
Q 167.6 64.55 169.65 63 168.7 60.75 166.25 60.1 163.75 59.6 161.6 60.8 162.55 63.25 165.1 64
M 166.05 58.6
Q 165.75 56.15 163.6 54.95 161.3 53.65 159 54.25 159.25 56.85 161.4 58.25 163.7 59.5 166.05 58.6 Z"/>

<path fill="#EFCF19" stroke="none" d="
M 54.05 73.5
Q 52.99453125 73.724609375 51.95 73.5
L 53.9 75.1 54.05 73.5
M 45.9 68.5
L 48 70.2
Q 47.8638671875 69.8599609375 47.75 69.45 50.1 68.25 52.45 69.35 53.5181640625 69.8173828125 54.35 70.55
L 54.7 67.05
Q 50.721484375 68.202734375 45.9 68.5
M 61.75 65.15
Q 62.9494140625 64.45 64.5 64.45 65.245703125 64.45 65.95 64.6
L 65 61.6
Q 62.978515625 63.4373046875 60.45 64.8
L 61.75 65.15
M 16.15 65.15
L 17.45 64.75
Q 14.94296875 63.4310546875 12.85 61.6
L 11.95 64.65
Q 12.685546875 64.5 13.5 64.5 15.0091796875 64.4708984375 16.15 65.15
M 25.9 73.5
Q 24.8751953125 73.7236328125 23.85 73.5
L 24 75.1 25.9 73.5
M 30.1 69.45
Q 29.991796875 69.8830078125 29.8 70.25
L 31.95 68.5
Q 27.19765625 68.198828125 23.2 67.05
L 23.55 70.6
Q 24.3955078125 69.833203125 25.5 69.35 27.8 68.25 30.1 69.45
M 63.05 22.9
L 66.55 11.45 55.05 14.9 53.9 3 44.65 10.65 39 0 33.25 10.65 24 3 22.85 14.9 11.35 11.45 14.85 22.9 2.95 24.15 10.55 33.35 0 39 10.55 44.75 7.8 48.1
Q 8.8130859375 50.3599609375 7.65 52.5 6.2220703125 52.1228515625 5.2 51.25
L 3.1 53.8
Q 3.8748046875 53.89375 4.65 54.15
L 7.9 54.5 7.65 53.85 9 53.55
Q 9.027734375 53.9380859375 9.3 54.6
L 10.4 54.7
Q 10.06875 53.97890625 10 53.05 9.55 50.5 11.1 48.25 13.5 49.55 14.1 52.3 14.2111328125 53.8013671875 13.7 55.05
L 14.85 55.2 13.3 60.2
Q 13.4498046875 60.36953125 13.6 60.5 16.03984375 62.753515625 19.25 64.25
L 21.4 63.6
Q 20.8408203125 62.946875 20.5 62 19.55 59.45 20.6 57 23.25 57.65 24.45 60.25 25.25 62.8 24 65.1 23.466015625 64.9767578125 23 64.75
L 23.1 65.65
Q 28.2193359375 67.1763671875 34.9 67.2
L 34.9 68.6
Q 34.3791015625 68.5947265625 33.85 68.55
L 39 78 44.05 68.55
Q 43.5267578125 68.5947265625 43 68.6
L 43 67.2
Q 49.6826171875 67.1763671875 54.8 65.65
L 54.9 64.75
Q 54.4822265625 64.9650390625 54 65.1 52.55 62.8 53.5 60.25 54.65 57.65 57.25 56.95 58.3 59.35 57.3 61.95 56.98671875 62.9095703125 56.4 63.6
L 58.6 64.25
Q 61.8556640625 62.7576171875 64.3 60.5 64.4494140625 60.3650390625 64.6 60.2
L 63.15 55.55
Q 63.67421875 57.3896484375 63.2 59.25 62.5 61.8 60.05 62.75 58.55 60.55 59.2 57.95 59.95 55.4 62.65 54.25 62.8822265625 54.7240234375 63.05 55.2
L 64.2 55.05
Q 63.7333984375 53.7994140625 63.9 52.3 64.3 49.65 66.8 48.25 68.3 50.5 68 53.05 67.877734375 53.99296875 67.5 54.75
L 68.6 54.65
Q 68.841015625 54.10234375 69 53.55
L 70.3 53.85
Q 70.217578125 54.17109375 70.1 54.5
L 73.25 54.15
Q 74.0552734375 53.8916015625 74.85 53.8
L 72.7 51.2
Q 71.69921875 52.109765625 70.25 52.5 69.1232421875 50.340234375 70.1 48.05
L 67.4 44.75 78 39 67.4 33.35 75 24.15 63.05 22.9
M 25.75 59.75
Q 28.45 59.75 30.25 61.85 31.85 63.95 31.25 66.7 28.6 66.7 27 64.6 25.45 62.45 25.75 59.75
M 14.75 59.25
Q 14 56.65 15.3 54.25 18 55.4 18.75 57.95 19.35 60.6 17.85 62.75 15.35 61.75 14.75 59.25
M 50.8 64.6
Q 49.3 66.7 46.55 66.7 46.05 63.95 47.55 61.85 49.4 59.75 52.2 59.75 52.45 62.45 50.8 64.6 Z"/>

<path fill="#CCA70F" stroke="none" d="
M 47.75 69.45
Q 47.8638671875 69.8599609375 48 70.2 48.8796875 72.309375 51 73.2 51.4822265625 73.4009765625 51.95 73.5 52.99453125 73.724609375 54.05 73.5 55.012890625 73.3625 56 72.85 55.3619140625 71.4904296875 54.35 70.55 53.5181640625 69.8173828125 52.45 69.35 50.1 68.25 47.75 69.45
M 57.25 56.95
Q 54.65 57.65 53.5 60.25 52.55 62.8 54 65.1 54.4822265625 64.9650390625 54.9 64.75 55.803125 64.338671875 56.4 63.6 56.98671875 62.9095703125 57.3 61.95 58.3 59.35 57.25 56.95
M 64.5 64.45
Q 62.9494140625 64.45 61.75 65.15 60.9138671875 65.7080078125 60.25 66.6 62.15 68.7 64.65 68.7 67.4 68.55 69.05 66.25 67.6591796875 64.9662109375 65.95 64.6 65.245703125 64.45 64.5 64.45
M 70.1 54.5
Q 70.217578125 54.17109375 70.3 53.85
L 69 53.55
Q 68.841015625 54.10234375 68.6 54.65 67.4568359375 57.55234375 64.6 60.2 64.4494140625 60.3650390625 64.3 60.5 61.8556640625 62.7576171875 58.6 64.25 56.8419921875 65.0802734375 54.8 65.65 49.6826171875 67.1763671875 43 67.2
L 43 68.6
Q 43.5267578125 68.5947265625 44.05 68.55 44.9998046875 68.5548828125 45.9 68.5 50.721484375 68.202734375 54.7 67.05 57.8330078125 66.191796875 60.45 64.8 62.978515625 63.4373046875 65 61.6 65.2138671875 61.4251953125 65.4 61.25 69.0072265625 57.87109375 70.1 54.5
M 67.5 54.75
Q 67.877734375 53.99296875 68 53.05 68.3 50.5 66.8 48.25 64.3 49.65 63.9 52.3 63.7333984375 53.7994140625 64.2 55.05 64.599609375 56.1107421875 65.4 57 66.8642578125 56.1865234375 67.5 54.75
M 74.85 53.8
Q 74.0552734375 53.8916015625 73.25 54.15 72.65625 54.3962890625 72.05 54.75 69.75 56.05 69.5 58.6 72.1 59.6 74.3 58.25 76.6 56.8 77 54 75.9115234375 53.72265625 74.85 53.8
M 17.6 66.6
Q 16.970703125 65.698046875 16.15 65.15 15.0091796875 64.4708984375 13.5 64.5 12.685546875 64.5 11.95 64.65 10.1873046875 65.018359375 8.85 66.25 10.5 68.55 13.25 68.7 15.8 68.7 17.6 66.6
M 3.1 53.8
Q 2.0505859375 53.7212890625 1 54 1.25 56.75 3.55 58.25 5.85 59.6 8.4 58.6 8.2 56.05 5.9 54.75 5.2798828125 54.395703125 4.65 54.15 3.8748046875 53.89375 3.1 53.8
M 13.7 55.05
Q 14.2111328125 53.8013671875 14.1 52.3 13.5 49.55 11.1 48.25 9.55 50.5 10 53.05 10.06875 53.97890625 10.4 54.7 11.0083984375 56.180078125 12.55 57 13.326953125 56.112109375 13.7 55.05
M 33.85 68.55
Q 34.3791015625 68.5947265625 34.9 68.6
L 34.9 67.2
Q 28.2193359375 67.1763671875 23.1 65.65 21.066796875 65.0783203125 19.25 64.25 16.03984375 62.753515625 13.6 60.5 13.4498046875 60.36953125 13.3 60.2 11.20859375 58.33359375 9.9 55.95 9.5212890625 55.1923828125 9.3 54.6 9.027734375 53.9380859375 9 53.55
L 7.65 53.85 7.9 54.5 8.6 56.25
Q 10.1 59 12.5 61.25 12.6888671875 61.425390625 12.85 61.6 14.94296875 63.4310546875 17.45 64.75 20.1015625 66.1853515625 23.2 67.05 27.19765625 68.198828125 31.95 68.5 32.9068359375 68.5552734375 33.85 68.55
M 22 72.85
Q 22.9251953125 73.349609375 23.85 73.5 24.8751953125 73.7236328125 25.9 73.5 26.45 73.419921875 27 73.2 29.0419921875 72.2416015625 29.8 70.25 29.991796875 69.8830078125 30.1 69.45 27.8 68.25 25.5 69.35 24.3955078125 69.833203125 23.55 70.6 22.59375 71.5275390625 22 72.85
M 24.45 60.25
Q 23.25 57.65 20.6 57 19.55 59.45 20.5 62 20.8408203125 62.946875 21.4 63.6 22.0658203125 64.3623046875 23 64.75 23.466015625 64.9767578125 24 65.1 25.25 62.8 24.45 60.25
M 7.8 48.1
Q 7.7369140625 47.9203125 7.65 47.75 6.55 45.45 4.05 44.45 2.75 46.7 3.75 49.45 4.3263671875 50.53359375 5.2 51.25 6.2220703125 52.1228515625 7.65 52.5 8.8130859375 50.3599609375 7.8 48.1
M 70.25 47.75
Q 70.1767578125 47.8994140625 70.1 48.05 69.1232421875 50.340234375 70.25 52.5 71.69921875 52.109765625 72.7 51.2 73.5189453125 50.51796875 74.05 49.5 75.15 46.9 73.9 44.5 71.4 45.35 70.25 47.75
M 46.55 66.7
Q 49.3 66.7 50.8 64.6 52.45 62.45 52.2 59.75 49.4 59.75 47.55 61.85 46.05 63.95 46.55 66.7
M 15.3 54.25
Q 14 56.65 14.75 59.25 15.35 61.75 17.85 62.75 19.35 60.6 18.75 57.95 18 55.4 15.3 54.25
M 30.25 61.85
Q 28.45 59.75 25.75 59.75 25.45 62.45 27 64.6 28.6 66.7 31.25 66.7 31.85 63.95 30.25 61.85
M 63.05 55.2
Q 62.8822265625 54.7240234375 62.65 54.25 59.95 55.4 59.2 57.95 58.55 60.55 60.05 62.75 62.5 61.8 63.2 59.25 63.67421875 57.3896484375 63.15 55.55
L 63.05 55.2
M 59.4 67.85
Q 58.3 67.45 57 67.6 55.8 67.85 54.75 68.5 55.8 71.05 58.3 71.85 61.1 72.6 63.25 70.85 61.9 68.6 59.4 67.85
M 65.65 63.25
Q 67.85 64.85 70.4 64.25 73.15 63.5 74.15 61 71.9 59.55 69.3 60.25 66.8 60.75 65.65 63.25
M 18.5 67.85
Q 16 68.6 14.6 70.95 16.95 72.6 19.6 71.95 22.15 71.05 23.1 68.6 21.1 67.05 18.5 67.85
M 8.6 60.25
Q 6.1 59.6 3.75 60.95 4.8 63.55 7.5 64.2 10.05 64.8 12.25 63.2 11.2 60.7 8.6 60.25 Z"/>

<path fill="#BEBEBE" stroke="none" d="
M 381 44.75
L 383.6 39 381 33.35 381.25 27.15 376.7 22.9 374.5 17.15 368.7 14.9 364.45 10.4 358.25 10.65 352.6 8 346.95 10.65 340.75 10.4 336.5 14.9 330.7 17.15 328.5 22.9 323.95 27.15 324.1 33.35 321.6 39 324.1 44.75 323.95 50.95 328.5 55.2 330.7 61 336.5 63.2 340.75 67.7 346.95 67.45 352.6 70 358.25 67.45 364.45 67.7 368.7 63.2 374.5 61 376.7 55.2 381.25 50.95 381 44.75 Z"/>
</g>
</defs>

<g transform="matrix( 1, 0, 0, 1, 0,0) ">
<use xlink:href="#Layer0_0_FILL"/>
</g>
</svg>
