<svg xmlns="http://www.w3.org/2000/svg" viewBox="0 0 126 150"><g><g><g><path fill="#000" stroke="none" d="M 113.45 33.25 Q 105.75 29.75 96.05 27.95 L 87.9 26.95 77.6 27.5 Q 70.3 27.05 63.75 29.05 57.35 31 49.1 35.95 42.6 39.85 37.1 47.1 34.2 50.85 32.75 53.6 30.8 56.85 28.7 62.95 24.65 75 24.25 90.05 24.3 90.65 19.25 95.55 14.25 100.55 14.25 101 L 18.2 100.6 22.85 99.5 Q 22.05 115.5 14.75 125.7 11.2 130.7 8.45 132.55 14.6 132.65 18.85 130.5 21.15 129.45 22 128.35 20.8 132.25 14.2 137.45 L 8.7 141.6 Q 14.1 142.35 19.5 140.95 24.55 139.6 28.45 136.7 30.15 146.75 33.1 154.7 37.05 165.7 42.75 169.85 43.3 170.3 43.2 168.3 L 42.95 165.6 45.95 168.85 Q 49.3 172.2 53.7 174 L 54.05 174.35 54.05 174.2 110.35 174.2 Q 114.444921875 172.3451171875 117.75 168.3 120 164.95 120.05 165.25 120.3 166.1 119.9 168.2 119.3 170.75 119.3 171.85 123.3 169.2 126.25 164.95 L 128.3 161.2 129 163.6 Q 129.3 165.25 129.75 166 132.2 162 135.2 155.7 140.8 143.8 141.65 135.35 142.55 125.85 141.4 119.3 139.8 112.9 139.25 107.55 142.2 111.8 146.75 114.8 151.05 117.65 150.9 116.25 L 143.5 97.45 Q 141 89.85 140.25 80.8 138.25 68 137.25 64 135.45 57.35 131.5 50.1 128.45 44.75 125 41.25 120.1 36.35 113.45 33.25 Z" transform="matrix(0.8406371474266052, 0, 0, 0.8406371474266052, -6.550000190734863, -16.649999618530273) matrix( 1, 0, 0, 1, 0,0)"/></g></g></g><path d="M 62.241 83.651 C 62.324 89.505 60.065 94.361 56.187 98.191 C 52.326 102.107 47.486 104.209 41.629 104.209 C 35.771 104.209 30.889 102.045 27.033 98.152 C 23.123 94.292 21.017 89.452 21.017 83.597 C 21.017 77.739 23.182 72.855 27.074 69 C 30.934 65.087 36.278 73.43 42.136 73.43 C 47.996 73.43 52.359 65.131 56.212 69.031 C 58.155 70.952 59.56 73.032 60.624 75.578 C 61.167 76.854 61.544 78.067 61.823 79.447 C 61.966 80.138 62.063 80.783 62.136 81.496 C 62.158 81.706 62.174 81.967 62.186 82.275 L 62.242 83.382 L 62.241 83.651 Z M 67.241 83.679 C 67.232 83.357 67.194 81.868 67.111 81.006 C 67.025 80.176 66.885 79.256 66.718 78.432 C 66.375 76.806 65.856 75.136 65.233 73.644 C 63.936 70.668 61.99 67.784 59.765 65.512 C 55.181 61.108 48.215 74.007 41.325 74.007 C 34.433 74.007 28.148 61.045 23.57 65.435 C 19.182 70.014 16.017 76.704 16.017 83.597 C 16.017 90.491 19.079 97.08 23.467 101.656 C 28.045 106.044 34.736 109.209 41.629 109.209 C 48.521 109.209 55.114 106.147 59.692 101.756 C 64.067 97.194 67.097 90.555 67.241 83.679 Z" style="fill:#111c2b"/><path d="M 105.465 82.651 C 105.548 88.505 103.289 93.361 99.411 97.191 C 95.55 101.107 90.71 103.209 84.853 103.209 C 78.995 103.209 74.113 101.045 70.257 97.152 C 66.347 93.292 64.241 88.452 64.241 82.597 C 64.241 76.739 66.406 71.855 70.298 68 C 74.158 64.087 79.502 72.43 85.36 72.43 C 91.22 72.43 95.583 64.131 99.436 68.031 C 101.379 69.952 102.784 72.032 103.848 74.578 C 104.391 75.854 104.768 77.067 105.047 78.447 C 105.19 79.138 105.287 79.783 105.36 80.496 C 105.382 80.706 105.398 80.967 105.41 81.275 L 105.466 82.382 L 105.465 82.651 Z M 110.465 82.679 C 110.456 82.357 110.418 80.868 110.335 80.006 C 110.249 79.176 110.109 78.256 109.942 77.432 C 109.599 75.806 109.08 74.136 108.457 72.644 C 107.16 69.668 105.214 66.784 102.989 64.512 C 98.405 60.108 91.439 73.007 84.549 73.007 C 77.657 73.007 71.372 60.045 66.794 64.435 C 62.406 69.014 59.241 75.704 59.241 82.597 C 59.241 89.491 62.303 96.08 66.691 100.656 C 71.269 105.044 77.96 108.209 84.853 108.209 C 91.745 108.209 98.338 105.147 102.916 100.756 C 107.291 96.194 110.321 89.555 110.465 82.679 Z" style="fill:#111c2b"/><g><path d="M 66.802 99.291 C 66.765 105.777 64.082 111.7 59.885 115.971 C 55.596 120.182 49.668 122.884 43.19 122.884 C 36.71 122.884 30.777 120.173 26.488 115.964 C 22.28 111.676 19.578 105.751 19.578 99.272 C 19.578 92.792 22.289 86.859 26.498 82.57 C 30.787 78.36 36.711 75.66 43.19 75.66 C 49.669 75.66 55.589 78.352 59.881 82.57 C 61.999 84.705 63.741 87.268 64.945 90.079 C 65.537 91.486 66.003 92.977 66.32 94.508 C 66.478 95.278 66.599 96.074 66.681 96.861 C 66.706 97.12 66.727 97.45 66.744 97.782 L 66.805 97.782 L 66.804 98.283 Z M 65.802 99.292 C 65.798 99.13 65.76 97.718 65.686 96.96 C 65.607 96.198 65.494 95.454 65.34 94.71 C 65.037 93.227 64.599 91.83 64.023 90.468 C 62.867 87.743 61.232 85.34 59.174 83.277 C 55.027 79.16 49.463 76.66 43.19 76.66 C 36.917 76.66 31.347 79.171 27.203 83.28 C 23.095 87.424 20.578 92.998 20.578 99.272 C 20.578 105.545 23.091 111.116 27.198 115.259 C 31.342 119.367 36.916 121.884 43.19 121.884 C 49.462 121.884 55.036 119.371 59.181 115.261 C 63.276 111.136 65.809 105.571 65.802 99.292 Z" style="fill:none" transform="matrix(1, 0, 0, 1, 16.80900192260745, -18.74788475036621)"/><path d="M 66.802 99.291 C 66.765 105.777 64.082 111.7 59.885 115.971 C 55.596 120.182 49.668 122.884 43.19 122.884 C 36.71 122.884 30.777 120.173 26.488 115.964 C 22.28 111.676 19.578 105.751 19.578 99.272 C 19.578 92.792 22.289 86.859 26.498 82.57 C 30.787 78.36 36.711 75.66 43.19 75.66 C 49.669 75.66 55.589 78.352 59.881 82.57 C 61.999 84.705 63.741 87.268 64.945 90.079 C 65.537 91.486 66.003 92.977 66.32 94.508 C 66.478 95.278 66.599 96.074 66.681 96.861 C 66.706 97.12 66.727 97.45 66.744 97.782 L 66.805 97.782 L 66.804 98.283 Z M 65.802 99.292 C 65.798 99.13 65.76 97.718 65.686 96.96 C 65.607 96.198 65.494 95.454 65.34 94.71 C 65.037 93.227 64.599 91.83 64.023 90.468 C 62.867 87.743 61.232 85.34 59.174 83.277 C 55.027 79.16 49.463 76.66 43.19 76.66 C 36.917 76.66 31.347 79.171 27.203 83.28 C 23.095 87.424 20.578 92.998 20.578 99.272 C 20.578 105.545 23.091 111.116 27.198 115.259 C 31.342 119.367 36.916 121.884 43.19 121.884 C 49.462 121.884 55.036 119.371 59.181 115.261 C 63.276 111.136 65.809 105.571 65.802 99.292 Z" style="fill:none" transform="matrix(1, 0, 0, 1, 16.80900192260745, -18.74788475036621)"/><path d="M 66.802 99.291 C 66.765 105.777 64.082 111.7 59.885 115.971 C 55.596 120.182 49.668 122.884 43.19 122.884 C 36.71 122.884 30.777 120.173 26.488 115.964 C 22.28 111.676 19.578 105.751 19.578 99.272 C 19.578 92.792 22.289 86.859 26.498 82.57 C 30.787 78.36 36.711 75.66 43.19 75.66 C 49.669 75.66 55.589 78.352 59.881 82.57 C 61.999 84.705 63.741 87.268 64.945 90.079 C 65.537 91.486 66.003 92.977 66.32 94.508 C 66.478 95.278 66.599 96.074 66.681 96.861 C 66.706 97.12 66.727 97.45 66.744 97.782 L 66.805 97.782 L 66.804 98.283 L 66.802 99.291 Z M 65.802 99.292 C 65.798 99.13 65.76 97.718 65.686 96.96 C 65.607 96.198 65.494 95.454 65.34 94.71 C 65.037 93.227 64.599 91.83 64.023 90.468 C 62.867 87.743 61.232 85.34 59.174 83.277 C 55.027 79.16 49.26 91.769 42.987 91.769 C 36.714 91.769 31.347 79.171 27.203 83.28 C 23.095 87.424 20.578 92.998 20.578 99.272 C 20.578 105.545 23.091 111.116 27.198 115.259 C 31.342 119.367 36.916 121.884 43.19 121.884 C 49.462 121.884 55.036 119.371 59.181 115.261 C 63.276 111.136 65.809 105.571 65.802 99.292 Z" style="fill:none" transform="matrix(1, 0, 0, 1, 16.80900192260745, -18.74788475036621)"/><path d="M 66.802 99.291 C 66.765 105.777 64.082 111.7 59.885 115.971 C 55.596 120.182 49.668 122.884 43.19 122.884 C 36.71 122.884 30.777 120.173 26.488 115.964 C 22.28 111.676 19.578 105.751 19.578 99.272 C 19.578 92.792 22.289 86.859 26.498 82.57 C 30.787 78.36 36.508 91.581 42.987 91.581 C 49.466 91.581 55.589 78.352 59.881 82.57 C 61.999 84.705 63.741 87.268 64.945 90.079 C 65.537 91.486 66.003 92.977 66.32 94.508 C 66.478 95.278 66.599 96.074 66.681 96.861 C 66.706 97.12 66.727 97.45 66.744 97.782 L 66.805 97.782 L 66.804 98.283 L 66.802 99.291 Z M 65.802 99.292 C 65.798 99.13 65.76 97.718 65.686 96.96 C 65.607 96.198 65.494 95.454 65.34 94.71 C 65.037 93.227 64.599 91.83 64.023 90.468 C 62.867 87.743 61.232 85.34 59.174 83.277 C 55.027 79.16 48.652 88.626 42.379 88.626 C 36.106 88.626 31.347 79.171 27.203 83.28 C 23.095 87.424 20.578 92.998 20.578 99.272 C 20.578 105.545 23.091 111.116 27.198 115.259 C 31.342 119.367 36.916 121.884 43.19 121.884 C 49.462 121.884 55.036 119.371 59.181 115.261 C 63.276 111.136 65.809 105.571 65.802 99.292 Z" style="fill:none" transform="matrix(1, 0, 0, 1, 16.80900192260745, -18.74788475036621)"/><path d="M 63.802 99.326 C 63.885 105.18 61.626 110.036 57.748 113.866 C 53.887 117.782 49.047 119.884 43.19 119.884 C 37.332 119.884 32.45 117.72 28.594 113.827 C 24.684 109.967 22.578 105.127 22.578 99.272 C 22.578 93.414 24.743 88.53 28.635 84.675 C 32.495 80.762 37.839 89.105 43.697 89.105 C 49.557 89.105 53.92 80.806 57.773 84.706 C 59.716 86.627 61.121 88.707 62.185 91.253 C 62.728 92.529 63.105 93.742 63.384 95.122 C 63.527 95.813 63.624 96.458 63.697 97.171 C 63.719 97.381 63.735 97.642 63.747 97.95 L 63.803 99.057 L 63.802 99.326 Z M 68.802 99.354 C 68.793 99.032 68.755 97.543 68.672 96.681 C 68.586 95.851 68.446 94.931 68.279 94.107 C 67.936 92.481 67.417 90.811 66.794 89.319 C 65.497 86.343 63.551 83.459 61.326 81.187 C 56.742 76.783 49.776 89.682 42.886 89.682 C 35.994 89.682 29.709 76.72 25.131 81.11 C 20.743 85.689 17.578 92.379 17.578 99.272 C 17.578 106.166 20.64 112.755 25.028 117.331 C 29.606 121.719 36.297 124.884 43.19 124.884 C 50.082 124.884 56.675 121.822 61.253 117.431 C 65.628 112.869 68.658 106.23 68.802 99.354 Z" style="fill:#111c2b" transform="matrix(1, 0, 0, 1, 16.80900192260745, -18.74788475036621)"/></g><g><g><path fill="#D3D3D3" stroke="none" d="M 97.75 46.9 Q 96.95 43 94.7 44.2 81.25 51.2 69.2 54.9 58.8 58.1 59.8 56.65 62.8 53.4 64.9 51.05 68.95 46.55 67.15 47.65 49.3 58.2 28.45 61.5 27.75 70.1 27.7 73.4 27.7 76.3 28.15 81.4 28.45 84.85 29.75 88.3 31.15 92.2 31.3 93.15 31.95 96.95 32.15 104.2 32.35 111.5 32.8 114.35 32.8357421875 114.930859375 32.9 115.5 33.445703125 121.3013671875 35.95 125.9 37.3 128.4 38.6 129.6 40.95 131.85 41.5 132.45 42 133 45.05 136.6 50.7 143.25 54.45 146.05 58.45 149 62.05 149 65.3 149 70.4 145.15 71.15 144.55 76.8 139.6 78.3 138.25 80.9 135.45 84.2 131.95 86.2 129.8 86.95 129.15 87.95 126.85 89.705078125 122.6470703125 90.7 115.5 90.819921875 114.91015625 90.9 114.3 91.5 107.95 91.9 104.35 92.6 97.8 94.4 92.75 96.3 87.7 96.9 84 L 97.1 81.3 Q 97.75 75.95 98 63.35 L 98.1 51.85 Q 97.9 47.85 97.75 46.9 Z"/></g></g><path d="M 51.319 81.524 C 51.319 86.257 49.361 90.637 46.267 93.735 C 43.173 96.832 38.797 98.793 34.069 98.793 C 29.341 98.793 24.965 96.832 21.871 93.735 C 18.777 90.637 16.819 86.257 16.819 81.524 C 16.819 76.791 18.777 72.411 21.871 69.313 C 24.965 66.216 29.341 64.255 34.069 64.255 C 38.797 64.255 43.173 66.216 46.267 69.313 C 49.361 72.411 51.319 76.791 51.319 81.524 Z M 45.559 70.02 C 42.591 67.048 38.592 65.255 34.069 65.255 C 29.546 65.255 25.547 67.048 22.579 70.02 C 19.611 72.991 17.819 76.995 17.819 81.524 C 17.819 86.053 19.611 90.057 22.579 93.028 C 25.547 96 29.546 97.793 34.069 97.793 C 38.592 97.793 42.591 96 45.559 93.028 C 48.527 90.057 50.319 86.053 50.319 81.524 C 50.319 76.995 48.527 72.991 45.559 70.02 Z" style="fill:none"/><path d="M 51.319 81.524 C 51.319 86.257 49.361 90.637 46.267 93.735 C 43.173 96.832 38.797 98.793 34.069 98.793 C 29.341 98.793 24.965 96.832 21.871 93.735 C 18.777 90.637 16.819 86.257 16.819 81.524 C 16.819 76.791 18.777 72.411 21.871 69.313 C 24.965 66.216 29.341 64.255 34.069 64.255 C 38.797 64.255 43.173 66.216 46.267 69.313 C 49.361 72.411 51.319 76.791 51.319 81.524 Z M 45.559 70.02 C 42.591 67.048 38.592 65.255 34.069 65.255 C 29.546 65.255 25.547 67.048 22.579 70.02 C 19.611 72.991 17.819 76.995 17.819 81.524 C 17.819 86.053 19.611 90.057 22.579 93.028 C 25.547 96 29.546 97.793 34.069 97.793 C 38.592 97.793 42.591 96 45.559 93.028 C 48.527 90.057 50.319 86.053 50.319 81.524 C 50.319 76.995 48.527 72.991 45.559 70.02 Z" style="fill:none"/><path d="M 51.319 81.524 C 51.319 86.257 49.361 90.637 46.267 93.735 C 43.173 96.832 38.797 98.793 34.069 98.793 C 29.341 98.793 24.965 96.832 21.871 93.735 C 18.777 90.637 16.819 86.257 16.819 81.524 C 16.819 76.791 18.777 72.411 21.871 69.313 C 24.965 66.216 29.341 64.255 34.069 64.255 C 38.797 64.255 43.173 66.216 46.267 69.313 C 49.361 72.411 51.319 76.791 51.319 81.524 Z M 45.559 70.02 C 42.591 67.048 38.592 65.255 34.069 65.255 C 29.546 65.255 25.547 67.048 22.579 70.02 C 19.611 72.991 17.819 76.995 17.819 81.524 C 17.819 86.053 19.611 90.057 22.579 93.028 C 25.547 96 29.546 97.793 34.069 97.793 C 38.592 97.793 42.591 96 45.559 93.028 C 48.527 90.057 50.319 86.053 50.319 81.524 C 50.319 76.995 48.527 72.991 45.559 70.02 Z" style="fill:none"/><path d="M 51.319 81.524 C 51.319 86.257 49.361 90.637 46.267 93.735 C 43.173 96.832 38.797 98.793 34.069 98.793 C 29.341 98.793 24.965 96.832 21.871 93.735 C 18.777 90.637 16.819 86.257 16.819 81.524 C 16.819 76.791 18.777 72.411 21.871 69.313 C 24.965 66.216 29.341 64.255 34.069 64.255 C 38.797 64.255 43.173 66.216 46.267 69.313 C 49.361 72.411 51.319 76.791 51.319 81.524 Z M 45.559 70.02 C 42.591 67.048 38.592 65.255 34.069 65.255 C 29.546 65.255 25.547 67.048 22.579 70.02 C 19.611 72.991 17.819 76.995 17.819 81.524 C 17.819 86.053 19.611 90.057 22.579 93.028 C 25.547 96 29.546 97.793 34.069 97.793 C 38.592 97.793 42.591 96 45.559 93.028 C 48.527 90.057 50.319 86.053 50.319 81.524 C 50.319 76.995 48.527 72.991 45.559 70.02 Z" style="fill:none"/><g transform="matrix(1, 0, 0, 1, 0, -12)"><ellipse style="stroke:#bf7331;fill:#bf7331" cx="19.387" cy="83.579" rx="15" ry="15"/><rect width="30" height="68" x="4.386" y="15.826" style="fill:#bf7331;stroke:#bf7331"/><path style="fill:#d39a43" d="M 20.572 99.022 C 20.572 99.022 15.058 95.024 14.64 87.566 C 14.427 80.089 14.834 12.9 14.834 12.827 L 10.559 12.823 L 10.308 87.491 C 10.301 87.812 10.167 89.28 11.264 91.592 C 12.294 93.928 14.874 96.765 19.434 99.078"/><path d="M 21.694 98.909 C 21.694 98.909 15.451 94.805 15.14 87.552 C 14.927 80.083 15.334 13.902 15.334 13.827 L 15.334 13.327 L 14.834 13.327 L 10.559 13.323 L 10.061 13.323 L 10.059 14.633 L 9.808 87.485 C 9.801 87.8 9.687 89.352 10.807 91.794 C 11.866 94.18 13.328 96.626 17.974 99.011 L 19.489 99.084 C 15.015 96.843 12.716 93.664 11.716 91.378 C 10.642 89.196 10.8 87.831 10.808 87.493 L 11.057 14.323 L 14.331 14.327 C 14.295 20.477 13.928 80.108 14.141 87.594 C 14.673 95.248 20.537 99.026 20.537 99.026 C 20.785 99.004 21.433 98.936 21.694 98.909 Z" style="fill:#d39a43"/></g><ellipse style="fill:#080f1e;stroke:#080f1e" cx="19.389" cy="3.31" rx="15" ry="2.612"/><path d="M 145.381 82.164 C 145.344 88.65 142.661 94.573 138.464 98.844 C 134.175 103.055 128.247 105.757 121.769 105.757 C 115.289 105.757 109.356 103.046 105.067 98.837 C 100.859 94.549 98.157 88.624 98.157 82.145 C 98.157 75.665 100.868 69.732 105.077 65.443 C 109.366 61.233 115.29 58.533 121.769 58.533 C 128.248 58.533 134.168 61.225 138.46 65.443 C 140.578 67.578 142.32 70.141 143.524 72.952 C 144.116 74.359 144.582 75.85 144.899 77.381 C 145.057 78.151 145.178 78.947 145.26 79.734 C 145.285 79.993 145.306 80.323 145.323 80.655 L 145.384 80.655 L 145.383 81.156 L 145.381 82.164 Z M 144.381 82.165 C 144.377 82.003 144.339 80.591 144.265 79.833 C 144.186 79.071 144.073 78.327 143.919 77.583 C 143.616 76.1 143.178 74.703 142.602 73.341 C 141.446 70.616 139.811 68.213 137.753 66.15 C 133.606 62.033 128.042 59.533 121.769 59.533 C 115.496 59.533 109.926 62.044 105.782 66.153 C 101.674 70.297 99.157 75.871 99.157 82.145 C 99.157 88.418 101.67 93.989 105.777 98.132 C 109.921 102.24 115.495 104.757 121.769 104.757 C 128.041 104.757 133.615 102.244 137.76 98.134 C 141.855 94.009 144.388 88.444 144.381 82.165 Z" style="fill:none"/><path d="M 145.381 82.164 C 145.344 88.65 142.661 94.573 138.464 98.844 C 134.175 103.055 128.247 105.757 121.769 105.757 C 115.289 105.757 109.356 103.046 105.067 98.837 C 100.859 94.549 98.157 88.624 98.157 82.145 C 98.157 75.665 100.868 69.732 105.077 65.443 C 109.366 61.233 115.29 58.533 121.769 58.533 C 128.248 58.533 134.168 61.225 138.46 65.443 C 140.578 67.578 142.32 70.141 143.524 72.952 C 144.116 74.359 144.582 75.85 144.899 77.381 C 145.057 78.151 145.178 78.947 145.26 79.734 C 145.285 79.993 145.306 80.323 145.323 80.655 L 145.384 80.655 L 145.383 81.156 L 145.381 82.164 Z M 144.381 82.165 C 144.377 82.003 144.339 80.591 144.265 79.833 C 144.186 79.071 144.073 78.327 143.919 77.583 C 143.616 76.1 143.178 74.703 142.602 73.341 C 141.446 70.616 139.811 68.213 137.753 66.15 C 133.606 62.033 128.042 59.533 121.769 59.533 C 115.496 59.533 109.926 62.044 105.782 66.153 C 101.674 70.297 99.157 75.871 99.157 82.145 C 99.157 88.418 101.67 93.989 105.777 98.132 C 109.921 102.24 115.495 104.757 121.769 104.757 C 128.041 104.757 133.615 102.244 137.76 98.134 C 141.855 94.009 144.388 88.444 144.381 82.165 Z" style="fill:none"/><path d="M 145.381 82.164 C 145.344 88.65 142.661 94.573 138.464 98.844 C 134.175 103.055 128.247 105.757 121.769 105.757 C 115.289 105.757 109.356 103.046 105.067 98.837 C 100.859 94.549 98.157 88.624 98.157 82.145 C 98.157 75.665 100.868 69.732 105.077 65.443 C 109.366 61.233 115.29 58.533 121.769 58.533 C 128.248 58.533 134.168 61.225 138.46 65.443 C 140.578 67.578 142.32 70.141 143.524 72.952 C 144.116 74.359 144.582 75.85 144.899 77.381 C 145.057 78.151 145.178 78.947 145.26 79.734 C 145.285 79.993 145.306 80.323 145.323 80.655 L 145.384 80.655 L 145.383 81.156 L 145.381 82.164 Z M 144.381 82.165 C 144.377 82.003 144.339 80.591 144.265 79.833 C 144.186 79.071 144.073 78.327 143.919 77.583 C 143.616 76.1 143.178 74.703 142.602 73.341 C 141.446 70.616 139.811 68.213 137.753 66.15 C 133.606 62.033 127.839 74.642 121.566 74.642 C 115.293 74.642 109.926 62.044 105.782 66.153 C 101.674 70.297 99.157 75.871 99.157 82.145 C 99.157 88.418 101.67 93.989 105.777 98.132 C 109.921 102.24 115.495 104.757 121.769 104.757 C 128.041 104.757 133.615 102.244 137.76 98.134 C 141.855 94.009 144.388 88.444 144.381 82.165 Z" style="fill:none"/><path d="M 145.381 82.164 C 145.344 88.65 142.661 94.573 138.464 98.844 C 134.175 103.055 128.247 105.757 121.769 105.757 C 115.289 105.757 109.356 103.046 105.067 98.837 C 100.859 94.549 98.157 88.624 98.157 82.145 C 98.157 75.665 100.868 69.732 105.077 65.443 C 109.366 61.233 115.087 74.454 121.566 74.454 C 128.045 74.454 134.168 61.225 138.46 65.443 C 140.578 67.578 142.32 70.141 143.524 72.952 C 144.116 74.359 144.582 75.85 144.899 77.381 C 145.057 78.151 145.178 78.947 145.26 79.734 C 145.285 79.993 145.306 80.323 145.323 80.655 L 145.384 80.655 L 145.383 81.156 L 145.381 82.164 Z M 144.381 82.165 C 144.377 82.003 144.339 80.591 144.265 79.833 C 144.186 79.071 144.073 78.327 143.919 77.583 C 143.616 76.1 143.178 74.703 142.602 73.341 C 141.446 70.616 139.811 68.213 137.753 66.15 C 133.606 62.033 127.231 71.499 120.958 71.499 C 114.685 71.499 109.926 62.044 105.782 66.153 C 101.674 70.297 99.157 75.871 99.157 82.145 C 99.157 88.418 101.67 93.989 105.777 98.132 C 109.921 102.24 115.495 104.757 121.769 104.757 C 128.041 104.757 133.615 102.244 137.76 98.134 C 141.855 94.009 144.388 88.444 144.381 82.165 Z" style="fill:none"/><ellipse style="stroke:#bf7331;fill:#bf7331" cx="106.612" cy="72.2" rx="15" ry="15"/><rect width="30" height="68" x="91.611" y="4.447" style="fill:#bf7331;stroke:#bf7331"/><path style="fill:#d39a43" d="M 107.797 87.643 C 107.797 87.643 102.283 83.645 101.865 76.187 C 101.652 68.71 102.059 1.521 102.059 1.448 L 97.784 1.444 L 97.533 76.112 C 97.526 76.433 97.392 77.901 98.489 80.213 C 99.519 82.549 102.099 85.386 106.659 87.699"/><path d="M 108.919 87.53 C 108.919 87.53 102.676 83.426 102.365 76.173 C 102.152 68.704 102.559 2.523 102.559 2.448 L 102.559 1.948 L 102.059 1.948 L 97.784 1.944 L 97.286 1.944 L 97.284 3.254 L 97.033 76.106 C 97.026 76.421 96.912 77.973 98.032 80.415 C 99.091 82.801 100.553 85.247 105.199 87.632 L 106.714 87.705 C 102.24 85.464 99.941 82.285 98.941 79.999 C 97.867 77.817 98.025 76.452 98.033 76.114 L 98.282 2.944 L 101.556 2.948 C 101.52 9.098 101.153 68.729 101.366 76.215 C 101.898 83.869 107.762 87.647 107.762 87.647 C 108.01 87.625 108.658 87.557 108.919 87.53 Z" style="fill:#d39a43"/><ellipse style="fill:#080f1e;stroke:#080f1e" cx="106.614" cy="3.931" rx="15" ry="2.612"/></svg>