<?xml version="1.0" encoding="UTF-8"?>
<!DOCTYPE svg PUBLIC "-//W3C//DTD SVG 1.1//EN" "http://www.w3.org/Graphics/SVG/1.1/DTD/svg11.dtd">
<svg xmlns="http://www.w3.org/2000/svg" version="1.1" width="370px" height="80px" style="shape-rendering:geometricPrecision; text-rendering:geometricPrecision; image-rendering:optimizeQuality; fill-rule:evenodd; clip-rule:evenodd" xmlns:xlink="http://www.w3.org/1999/xlink">
<g><path style="opacity:0.915" fill="#18a0b3" d="M 357.5,2.5 C 360.968,6.14054 364.302,9.97387 367.5,14C 362.938,15.543 358.271,16.8764 353.5,18C 354.64,19.9734 355.973,21.8067 357.5,23.5C 349.521,24.6649 341.521,24.8316 333.5,24C 335.717,22.7246 338.051,21.7246 340.5,21C 338.651,19.907 336.984,18.5737 335.5,17C 343.009,12.3037 350.343,7.47033 357.5,2.5 Z"/></g>
<g><path style="opacity:0.725" fill="#1069b3" d="M 328.5,4.5 C 331.885,5.36176 334.885,7.02842 337.5,9.5C 335.54,11.1563 333.54,12.823 331.5,14.5C 332.737,15.2807 333.737,16.2807 334.5,17.5C 329.782,20.6077 324.949,22.6077 320,23.5C 319.493,22.0039 319.993,20.8373 321.5,20C 320.672,19.0853 319.672,18.4186 318.5,18C 321.665,13.3407 324.998,8.84073 328.5,4.5 Z"/></g>
<g><path style="opacity:0.822" fill="#000000" d="M 55.5,7.5 C 57.5273,7.33788 59.5273,7.50454 61.5,8C 61.9574,8.41395 62.2907,8.91395 62.5,9.5C 56.6245,31.7908 50.9579,54.1241 45.5,76.5C 43.1432,76.6633 40.8098,76.4966 38.5,76C 37.9781,75.4387 37.6448,74.772 37.5,74C 43.1211,51.6781 49.1211,29.5114 55.5,7.5 Z"/></g>
<g><path style="opacity:0.822" fill="#000000" d="M 284.5,7.5 C 286.527,7.33788 288.527,7.50454 290.5,8C 291.022,8.5613 291.355,9.22797 291.5,10C 285.768,28.7703 280.601,47.6036 276,66.5C 277.022,65.646 277.855,64.646 278.5,63.5C 282.456,61.9581 284.289,63.2915 284,67.5C 281.131,70.7041 277.965,73.5374 274.5,76C 270.058,78.7414 267.224,77.5748 266,72.5C 260.816,79.3269 256.149,78.9936 252,71.5C 251.429,57.8769 254.929,45.3769 262.5,34C 264.167,33 265.833,32 267.5,31C 271.002,30.718 274.335,30.5513 277.5,30.5C 279.686,22.7465 282.02,15.0799 284.5,7.5 Z M 270.5,36.5 C 272.714,36.2907 274.381,37.124 275.5,39C 273.31,47.546 270.144,55.7126 266,63.5C 264.316,65.3513 262.483,67.018 260.5,68.5C 259.585,67.6721 258.919,66.6721 258.5,65.5C 260.072,57.2149 262.572,49.2149 266,41.5C 267.366,39.6383 268.866,37.9717 270.5,36.5 Z"/></g>
<g><path style="opacity:0.821" fill="#000000" d="M 181.5,9.5 C 188.33,8.83269 192.496,11.8327 194,18.5C 194.811,22.4963 195.144,26.4963 195,30.5C 192.934,32.64 190.6,33.3067 188,32.5C 187.717,27.4077 186.55,22.5743 184.5,18C 180.74,16.8238 177.907,17.9904 176,21.5C 172.967,26.1055 171.967,31.1055 173,36.5C 177.888,38.7944 182.555,41.4611 187,44.5C 190.262,56.6065 187.095,66.7731 177.5,75C 171.725,79.3545 165.891,79.5212 160,75.5C 156.584,69.5192 155.751,63.1859 157.5,56.5C 159.548,55.23 161.548,54.8967 163.5,55.5C 163.994,60.7963 164.994,65.963 166.5,71C 171.462,71.3991 174.962,69.2324 177,64.5C 179.277,60.0653 180.277,55.3986 180,50.5C 179.692,49.6919 179.192,49.0253 178.5,48.5C 173.511,47.011 169.011,44.6777 165,41.5C 163.052,32.3188 165.052,23.9854 171,16.5C 173.998,13.2623 177.498,10.9289 181.5,9.5 Z"/></g>
<g><path style="opacity:0.826" fill="#000000" d="M 13.5,10.5 C 24.1719,10.3335 34.8385,10.5002 45.5,11C 47.0181,13.9247 46.3514,16.258 43.5,18C 37.1754,18.4995 30.8421,18.6662 24.5,18.5C 22.8878,26.449 20.8878,34.2823 18.5,42C 24.1667,42.3333 29.8333,42.6667 35.5,43C 36.2854,45.0417 35.952,47.0417 34.5,49C 28.5092,49.4995 22.5092,49.6662 16.5,49.5C 14.6503,58.2321 12.4836,66.8988 10,75.5C 7.6194,76.435 5.1194,76.7683 2.5,76.5C 6.45961,57.1616 11.1263,37.9949 16.5,19C 11.099,17.8804 10.099,15.047 13.5,10.5 Z"/></g>
<g><path style="opacity:0.832" fill="#000000" d="M 209.5,14.5 C 211.833,14.5 214.167,14.5 216.5,14.5C 216.295,19.6539 215.295,24.6539 213.5,29.5C 215.396,30.4656 217.396,30.7989 219.5,30.5C 219.951,36.3823 217.284,38.7157 211.5,37.5C 208.338,50.1477 205.171,62.8143 202,75.5C 199.619,76.435 197.119,76.7683 194.5,76.5C 196.865,63.7068 199.865,51.0401 203.5,38.5C 201.955,37.5481 200.288,37.2148 198.5,37.5C 198.018,32.1871 200.351,29.8538 205.5,30.5C 206.521,25.0829 207.854,19.7496 209.5,14.5 Z"/></g>
<g><path style="opacity:0.749" fill="#000000" d="M 299.5,16.5 C 305.989,16.1563 307.989,18.9896 305.5,25C 300.954,27.6186 297.954,26.4519 296.5,21.5C 296.757,19.3076 297.757,17.6409 299.5,16.5 Z"/></g>
<g><path style="opacity:0.831" fill="#000000" d="M 72.5,29.5 C 81.3721,29.5398 85.7055,34.0398 85.5,43C 85.3343,53.8296 82.1676,63.6629 76,72.5C 70.4754,78.1915 64.4754,78.8582 58,74.5C 53.7113,60.624 55.7113,47.624 64,35.5C 66.3218,32.6047 69.1552,30.6047 72.5,29.5 Z M 72.5,37.5 C 73.8333,37.5 75.1667,37.5 76.5,37.5C 77.7489,46.918 76.2489,55.918 72,64.5C 70.6912,66.9757 68.8579,68.9757 66.5,70.5C 65.2011,69.91 64.3678,68.91 64,67.5C 62.8001,56.292 65.6334,46.292 72.5,37.5 Z"/></g>
<g><path style="opacity:0.838" fill="#000000" d="M 133.5,29.5 C 136.097,29.6432 138.431,30.4766 140.5,32C 136.255,47.8195 129.588,62.4862 120.5,76C 117.303,76.9865 114.47,76.4865 112,74.5C 112,67.8333 112,61.1667 112,54.5C 108.717,62.2403 104.55,69.407 99.5,76C 96.9009,76.769 94.4009,76.6023 92,75.5C 91.5001,60.5037 91.3334,45.5037 91.5,30.5C 94.1194,30.2317 96.6194,30.565 99,31.5C 99.5751,42.8736 99.5751,54.207 99,65.5C 105.058,54.4925 109.224,42.8259 111.5,30.5C 114.119,30.2317 116.619,30.565 119,31.5C 119.333,42.5 119.667,53.5 120,64.5C 125.394,53.1466 129.894,41.4799 133.5,29.5 Z"/></g>
<g><path style="opacity:0.836" fill="#000000" d="M 320.5,29.5 C 325.814,28.7397 329.647,30.7397 332,35.5C 334.225,48.9295 331.558,61.2628 324,72.5C 320.117,77.0086 315.284,78.5086 309.5,77C 307,75.8333 305.167,74 304,71.5C 301.581,56.4309 305.415,43.2643 315.5,32C 317.315,31.2432 318.981,30.4098 320.5,29.5 Z M 319.5,37.5 C 321.144,37.2865 322.644,37.6198 324,38.5C 325.645,48.9199 323.645,58.5865 318,67.5C 315.991,70.2583 313.991,70.5916 312,68.5C 310.629,57.1814 313.129,46.848 319.5,37.5 Z"/></g>
<g><path style="opacity:0.838" fill="#000000" d="M 224.5,30.5 C 227.247,30.1866 229.914,30.52 232.5,31.5C 228.69,43.4122 225.523,55.4122 223,67.5C 230.922,55.9964 238.088,43.9964 244.5,31.5C 246.743,30.5258 249.076,30.1924 251.5,30.5C 248.637,45.2881 245.137,59.9548 241,74.5C 238.343,76.9838 235.51,77.1504 232.5,75C 234.507,70.3235 235.674,65.4901 236,60.5C 233.02,66.2906 229.187,71.4573 224.5,76C 221.833,76.6667 219.167,76.6667 216.5,76C 214.544,72.4054 214.044,68.572 215,64.5C 218.171,53.1483 221.337,41.8149 224.5,30.5 Z"/></g>
<g><path style="opacity:0.832" fill="#000000" d="M 295.5,30.5 C 298.167,30.5 300.833,30.5 303.5,30.5C 300.148,45.9098 296.481,61.2432 292.5,76.5C 289.833,76.5 287.167,76.5 284.5,76.5C 287.85,61.0989 291.517,45.7656 295.5,30.5 Z"/></g>
</svg>
