<svg xmlns="http://www.w3.org/2000/svg" xmlns:xlink="http://www.w3.org/1999/xlink" width="210" height="630" x="0" y="0" preserveAspectRatio="none" version="1.1" viewBox="0 0 210 630"><defs><g id="Layer1_0_MEMBER_0_FILL"><path fill="#FFF" stroke="none" d="M 48.85 29.9 Q 48.15 29.2 47.2 29.25 L 44.4 29.25 44.4 23.85 Q 44.4 20.45 41.7 17.7 38.8 14.8 34.9 14.75 31 14.75 28.15 17.65 25.4 20.45 25.4 23.85 L 25.4 29.25 22.8 29.25 Q 21.85 29.25 21.15 29.9 20.5 30.55 20.5 31.5 L 20.5 48.8 Q 20.5 49.8 21.15 50.45 21.85 51.1 22.8 51.1 L 47.2 51.1 Q 48.2 51.1 48.85 50.45 49.5 49.8 49.5 48.8 L 49.5 31.6 Q 49.5 30.6 48.85 29.9 M 40.9 23.95 L 40.9 29.35 28.9 29.35 28.9 23.95 Q 28.9 22 30.5 20.3 32.3 18.35 34.9 18.35 37.5 18.35 39.3 20.3 40.9 22 40.9 23.95 Z"/></g><g id="Layer1_0_MEMBER_1_FILL"><path fill="#FFF" stroke="none" d="M 30.25 588 L 25 582.8 24.75 573.8 Q 24.75 573.3 24.35 572.95 24 572.6 23.5 572.5 22.95 572.5 22.55 572.9 22.2 573.25 22.2 573.8 L 22 582.8 16.75 588 16.75 612.5 30.25 612.5 30.25 588 Z"/></g><g id="Layer1_0_MEMBER_2_FILL"><path fill="#FFF" stroke="none" d="M 48.25 585.1 L 48.4 572.5 34.7 572.5 34.7 612.5 54.2 612.5 54.2 591 48.25 585.1 M 38.2 582.6 L 38.2 575.8 45 575.8 45 582.6 38.2 582.6 Z"/></g><g id="Layer1_0_MEMBER_3_FILL"><path fill="#FFF" stroke="none" d="M 83.15 581.1 Q 82.45 581.3 82.65 582.25 L 86.75 598.75 Q 82.75 599.6 81.35 602.25 83.95 603.95 87.85 602.95 L 88.75 606.5 96.85 605.5 95.15 612.45 Q 95.35 613.15 95.75 613.15 L 106.65 610.75 Q 107.45 610.6 107.55 609.8 L 110.5 603.5 113.65 602.75 Q 117.45 601.7 120.9 600.45 126.05 598.6 129.35 596.1 L 131.65 594 130.85 591 Q 128.75 590.5 125.55 590.15 119.1 589.5 113.45 590.45 L 95.65 593.35 Q 85.05 582.25 84.5 581.65 83.8 580.9 83.15 581.1 Z"/></g><g id="Layer1_0_MEMBER_4_FILL"><path fill="#FFF" stroke="none" d="M 109.3 582.9 Q 107.2 581.6 104.9 581.6 101.9 581.6 99.7 583.65 97.55 585.6 97 588.6 L 112.4 586.1 Q 111.35 584.1 109.3 582.9 Z"/></g><g id="Layer1_0_MEMBER_5_FILL"><path fill="#FFF" stroke="none" d="M 186.65 607.3 L 174.35 573.75 152 607.3 186.65 607.3 Z"/></g><g id="Layer1_0_MEMBER_6_FILL"><path fill="#FFF" stroke="none" d="M 191.5 607.35 L 199 607.35 181.3 579.45 191.5 607.35 Z"/></g><g id="Layer0_0_FILL"><path fill="#F1F3F5" fill-opacity="0" stroke="none" d="M 0 0 L 0 70 70 70 70 0 0 0 Z"/></g><g id="Tween_2_0_Layer0_0_FILL"><path fill="#39414D" stroke="none" d="M 48 51.2 Q 47.7 51.8 47.4 52.4 46.4 54.15 45.2 55.85 L 45.2 56.8 47.05 56.8 47.05 56.35 Q 47 55.85 47.1 55.4 47.5 53.25 48 51.2 Z"/><path fill="#FDD302" stroke="none" d="M 57.8 56.25 L 57.8 49.8 Q 56.8 50.25 55.7 50.6 54.3 51.25 52.55 51.85 52.05 52.4 51.45 52.9 49.9 54.4 48.45 55.85 L 48.45 56.8 57.8 56.25 M 56.3 41.55 Q 57.15 42 57.8 42.35 L 57.8 40.45 Q 56.05 39.3 54.05 39.4 53.8 39.2 53.65 39 53.6 38.85 53.6 38.75 L 53.6 38.15 52.45 38.15 Q 52.4 38.65 52.3 39.1 52.1 39.9 51.25 40 L 51.25 40.95 51.75 40.95 51.75 40.45 Q 54.1 40.6 56.3 41.55 Z"/><path fill="#34404C" stroke="none" d="M 19.05 51.65 Q 19.05 51.2 18.7 51.4 18.4 51.45 18.15 51.65 L 18.15 56.8 19.05 56.8 19.05 51.65 Z"/><path fill="#F3F4F6" stroke="none" d="M 22.8 53.05 Q 22.9 53.05 23.05 53.05 23.1 53 23.1 52.95 23.15 52.9 23.15 52.85 23.2 52.7 23.25 52.6 23.3 51.9 22.8 51.75 20.95 51.25 19.05 51.65 L 19.05 56.8 23.75 56.8 Q 23.2 55.4 23 54 22.9 53.5 22.8 53.05 Z"/><path fill="#37404E" stroke="none" d="M 25.15 51.2 Q 24.7 51.5 24.25 51.8 23.75 52.2 23.25 52.6 23.2 52.7 23.15 52.85 23.15 52.9 23.1 52.95 23.1 53 23.05 53.05 22.9 53.05 22.8 53.05 22.9 53.5 23 54 23.2 55.4 23.75 56.8 L 24.65 56.8 24.25 53.15 Q 24.7 52.15 25.15 51.2 Z"/><path fill="#FBFCFC" stroke="none" d="M 38.65 47.45 L 38.2 47.45 Q 37.95 47.65 37.75 47.9 36.3 49.65 34.25 50.95 L 33.45 50.9 Q 32.35 51.65 31.1 51.95 28.45 51.5 27 53.55 27 53.95 27.05 54.4 27.1 55.7 27.45 56.8 L 37.25 56.8 37.25 55.4 Q 38.3 53.9 38.5 51.9 38.55 51.05 38.75 50.35 39.1 48.85 38.65 47.45 Z"/><path fill="#444B57" stroke="none" d="M 40.05 47.95 L 39.7 47.3 38.65 47 38.65 47.45 Q 39.1 48.85 38.75 50.35 38.55 51.05 38.5 51.9 38.3 53.9 37.25 55.4 L 37.25 56.8 38.2 56.8 Q 38.55 54.4 39.1 52.1 39.35 51.15 39.45 50.2 39.6 49.1 40.05 47.95 Z"/><path fill="#F1F3F5" stroke="none" d="M 36.8 44.65 Q 36.4 45.45 36 46.3 35.05 48.2 32.95 49 30.85 49.85 28.7 49.9 26.7 50.15 24.65 49.35 L 19.05 49.35 19.05 49.8 Q 18.1 51 17.25 52.3 16 54.25 14.85 56.35 L 14.85 56.8 18.15 56.8 18.15 51.65 Q 18.4 51.45 18.7 51.4 19.05 51.2 19.05 51.65 20.95 51.25 22.8 51.75 23.3 51.9 23.25 52.6 23.75 52.2 24.25 51.8 24.7 51.5 25.15 51.2 24.7 52.15 24.25 53.15 L 24.65 56.8 27.45 56.8 Q 27.1 55.7 27.05 54.4 27 53.95 27 53.55 28.45 51.5 31.1 51.95 32.35 51.65 33.45 50.9 L 34.25 50.95 Q 36.3 49.65 37.75 47.9 37.95 47.65 38.2 47.45 38 47.25 37.95 47.05 37.65 45.85 37.6 44.55 L 36.8 44.65 M 16.05 39.65 Q 15.95 39.35 15.8 39.05 L 15.8 46.55 Q 16.85 47.45 18.05 47.9 18.25 47.85 18.45 47.9 19.2 47.6 19.35 46.7 19.5 45.95 19.55 45.15 20.15 46.2 20.5 47.4 20.95 48.7 22.35 48.7 23.75 48.65 25.05 48.35 L 25.7 48.8 27.95 48.85 Q 29.55 49.1 31.05 49.1 31.55 49 32.05 48.9 32.4 48.65 32.45 48.3 32.55 47.8 32.6 47.3 32.65 46.7 32.7 46.15 32.9 46.4 33.1 46.75 33.4 47.15 33.7 47.55 33.75 47.6 33.9 47.6 34.9 46.85 35.6 45.8 36.2 45 36.8 44.2 L 36.8 43.75 38.6 40.95 38.2 40 Q 38 39.9 37.8 39.8 37.45 39.75 37.15 39.7 L 36.8 39.05 35.85 39.05 35.4 38.6 33.8 38.4 Q 33.25 39.05 32.8 39.85 31.7 41.55 30 42.65 30.15 42.2 30.4 41.85 31.5 40.25 32.6 38.6 L 31.7 38.1 Q 31.6 38 31.6 37.9 31.6 37.75 31.65 37.65 29.5 36.15 27 36.1 24.9 35.75 22.8 35.8 23.3 36.25 23.8 36.75 L 23.75 36.75 23.05 37.45 Q 23.5 37.5 23.95 37.6 24.35 37.75 24.75 37.95 25.05 38.15 25.35 38.35 L 20.45 38.6 20.45 40 24.65 40.45 Q 26.45 40.3 28.2 40.25 L 28.2 40.3 Q 27.55 40.8 26.6 41.2 25.35 41.9 24 42.3 21.8 43 19.75 42.6 18.95 42.4 18.2 42.1 16.5 41.4 16.05 39.65 M 50.3 44.85 Q 49.45 47.05 47.8 48.5 46.05 50 43.8 50.1 41.45 49.9 40.05 47.95 39.6 49.1 39.45 50.2 39.35 51.15 39.1 52.1 38.55 54.4 38.2 56.8 L 45.2 56.8 45.2 55.85 Q 46.4 54.15 47.4 52.4 47.7 51.8 48 51.2 47.5 53.25 47.1 55.4 47 55.85 47.05 56.35 L 47.05 55.85 Q 48.35 54.05 49.95 52.4 50.7 51.6 51.6 50.9 52.85 50.1 53.9 49.1 53.6 47.5 52.6 46.45 52.2 46.05 52.2 45.5 52.3 43.15 51.75 40.95 L 51.25 40.95 Q 51.1 41.85 50.9 42.8 50.7 43.8 50.3 44.85 Z"/><path fill="#3A4252" stroke="none" d="M 27.95 48.85 Q 27.8 49 27.65 48.95 26.25 49.4 24.65 49.35 26.7 50.15 28.7 49.9 30.85 49.85 32.95 49 35.05 48.2 36 46.3 36.4 45.45 36.8 44.65 L 36.8 44.2 Q 36.2 45 35.6 45.8 34.9 46.85 33.9 47.6 33.75 47.6 33.7 47.55 33.4 47.15 33.1 46.75 32.9 46.4 32.7 46.15 32.65 46.7 32.6 47.3 32.55 47.8 32.45 48.3 32.4 48.65 32.05 48.9 31.55 49 31.05 49.1 29.55 49.1 27.95 48.85 Z"/><path fill="#185C02" stroke="none" d="M 39.55 30.1 L 39.45 30.05 Q 39.45 30.8 39.55 31.6 38.7 32.9 38.05 34.25 37.05 36.4 35.4 38.15 L 35.4 38.6 35.85 39.05 36.8 39.05 Q 36.9 38.45 37.1 37.9 37.7 36 39.1 34.25 40.7 32.15 39.55 30.1 Z"/><path fill="#E4E6ED" stroke="none" d="M 19.15 41.65 Q 19.6 41.85 20.15 41.9 22.05 41.7 23.95 41.55 L 23.25 40.95 20.95 40.95 17.2 40.95 Q 18.15 41.35 19.15 41.65 Z"/><path fill="#666973" stroke="none" d="M 15.8 39.05 Q 15.95 39.35 16.05 39.65 16.5 41.4 18.2 42.1 18.95 42.4 19.75 42.6 21.8 43 24 42.3 25.35 41.9 26.6 41.2 27.55 40.8 28.2 40.3 L 28.2 40.25 Q 26.45 40.3 24.65 40.45 24.6 40.5 24.55 40.55 23.9 40.75 23.25 40.95 L 23.95 41.55 Q 22.05 41.7 20.15 41.9 19.6 41.85 19.15 41.65 18.15 41.35 17.2 40.95 L 20.95 40.95 Q 20.7 40.75 20.5 40.65 18.65 40.95 17.1 40.2 L 16.75 39.55 16.55 38.6 15.8 38.6 15.35 38.6 Q 15.45 40.55 15.4 42.6 15.35 44.65 15.8 46.55 L 15.8 39.05 Z"/><path fill="#2F323A" stroke="none" d="M 19.05 40 Q 18.8 40 18.6 40 17.5 40.2 16.75 39.55 L 17.1 40.2 Q 18.65 40.95 20.5 40.65 20.7 40.75 20.95 40.95 L 23.25 40.95 Q 23.9 40.75 24.55 40.55 24.6 40.5 24.65 40.45 L 20.45 40 19.05 40 Z"/><path fill="#6C727C" stroke="none" d="M 19.45 39.55 Q 19.25 39.8 19.05 40 L 20.45 40 20.45 38.6 25.35 38.35 Q 25.05 38.15 24.75 37.95 24.35 37.75 23.95 37.6 23.5 37.5 23.05 37.45 L 23.75 36.75 20.45 36.75 20 37.2 Q 19.4 37.4 18.8 37.45 18.25 37.65 17.65 37.65 18.8 38.05 19.4 38.65 19.6 38.85 19.85 39.05 19.65 39.3 19.45 39.55 Z"/><path fill="#D8E1E2" stroke="none" d="M 20 35.35 Q 20.05 35.75 20.15 36.15 20.25 36.45 20.45 36.75 L 23.75 36.75 23.8 36.75 Q 23.3 36.25 22.8 35.8 L 22.8 35.35 21.25 34.8 20 35.35 Z"/><path fill="#E8EDEF" stroke="none" d="M 17.2 35.8 L 15.8 35.8 15.8 38.6 16.55 38.6 16.75 39.55 Q 17.5 40.2 18.6 40 18.8 40 19.05 40 19.25 39.8 19.45 39.55 19.65 39.3 19.85 39.05 19.6 38.85 19.4 38.65 18.8 38.05 17.65 37.65 18.25 37.65 18.8 37.45 19.4 37.4 20 37.2 19.4 37.2 19 36.8 18.6 36.4 18.6 35.8 L 17.2 35.8 Z"/><path fill="#54C921" stroke="none" d="M 17.1 35.75 Q 17.15 35.75 17.2 35.8 L 18.6 35.8 19.05 35.45 17.95 35.1 19.2 35.15 20.1 34.35 Q 20.2 33.55 20.35 32.75 20.05 32.75 19.75 32.8 17.7 32.7 15.8 32.05 15.65 34.1 17.1 35.75 Z"/><path fill="#28611D" stroke="none" d="M 16.25 30.2 L 15.8 30.2 15.8 32.05 Q 17.7 32.7 19.75 32.8 20.05 32.75 20.35 32.75 20.2 33.55 20.1 34.35 L 19.2 35.15 17.95 35.1 19.05 35.45 18.6 35.8 Q 18.6 36.4 19 36.8 19.4 37.2 20 37.2 L 20.45 36.75 Q 20.25 36.45 20.15 36.15 20.05 35.75 20 35.35 L 21.25 34.8 22.8 35.35 Q 23.1 35.2 23.45 35.1 L 22.55 34.6 Q 22.3 34.6 22.1 34.65 21.45 34.65 21.05 33.95 22.7 32.2 22.35 29.9 22.25 30.2 22.15 30.55 22 31.25 21.85 31.7 21.6 31.85 21.35 32 21.2 32 21.1 32 L 20.45 31.6 Q 19.85 31.85 19.25 31.85 17.85 32.3 16.55 31.6 L 16.25 30.2 Z"/><path fill="#D9DFDD" stroke="none" d="M 17.65 30.65 L 17.3 29.5 16.25 29.25 16.25 30.2 16.55 31.6 Q 17.85 32.3 19.25 31.85 19.85 31.85 20.45 31.6 L 21.1 30.75 20.95 29.65 Q 20.65 29.45 20.35 29.25 19.45 29.25 18.6 29.25 L 18.5 30.5 17.65 30.65 Z"/><path fill="#0D0D08" stroke="none" d="M 57.8 42.35 Q 57.15 42 56.3 41.55 54.1 40.6 51.75 40.45 L 51.75 40.95 Q 52.3 43.15 52.2 45.5 52.2 46.05 52.6 46.45 53.6 47.5 53.9 49.1 52.85 50.1 51.6 50.9 50.7 51.6 49.95 52.4 48.35 54.05 47.05 55.85 L 47.05 56.35 47.05 56.8 48.45 56.8 48.45 55.85 Q 49.9 54.4 51.45 52.9 52.05 52.4 52.55 51.85 54.3 51.25 55.7 50.6 56.8 50.25 57.8 49.8 L 57.8 42.35 Z"/><path fill="#EFCE12" stroke="none" d="M 57.8 40.45 L 57.65 37.7 53.6 38.15 53.6 38.75 Q 53.6 38.85 53.65 39 53.8 39.2 54.05 39.4 56.05 39.3 57.8 40.45 Z"/><path fill="#52B618" stroke="none" d="M 42.4 21.35 Q 42.05 21.6 41.65 21.8 38.25 24.25 34.25 24.35 34.6 24.7 34.95 25.05 35.55 25.65 36.25 26.2 37.6 27.35 37.95 29 35.8 28.3 33.45 28.15 33.15 28.15 32.85 28.15 32.05 28.1 31.25 28.1 29.7 27.9 28.2 28.15 27.1 28.5 26.05 28.8 L 25.85 28.1 25.15 27.7 Q 25.15 27.4 25.1 27.1 25 26.1 25.35 25.4 25.55 25.25 25.8 25.15 26 24.95 26.2 24.7 26.3 24.6 26.4 24.5 26 24 25.55 23.75 24.85 23.3 24.1 23.1 22.85 23.25 21.75 22.7 22.45 22.3 23.15 21.9 23.3 21.75 23.45 21.65 22.15 21.35 20.9 21.1 21.6 20.95 22.25 20.8 L 22.25 20.75 Q 19.5 20.25 17.2 21.8 17.15 22.55 17.15 23.3 17.15 24.3 18 24.2 18.5 24.1 19 24 21.5 23.05 23.75 24.25 24.2 25.75 23.6 27.25 L 23.2 27.55 17.9 27.3 Q 19 27.5 20.1 27.65 21.25 27.7 20.85 28.25 20.7 28.35 20.5 28.4 19.7 28.75 18.6 29.25 19.45 29.25 20.35 29.25 20.65 29.45 20.95 29.65 L 21.1 30.75 20.45 31.6 21.1 32 Q 21.2 32 21.35 32 21.6 31.85 21.85 31.7 22 31.25 22.15 30.55 22.25 30.2 22.35 29.9 22.7 32.2 21.05 33.95 21.45 34.65 22.1 34.65 22.3 34.6 22.55 34.6 L 23.45 35.1 Q 23.1 35.2 22.8 35.35 L 22.8 35.8 Q 24.9 35.75 27 36.1 29.5 36.15 31.65 37.65 31.6 37.75 31.6 37.9 31.6 38 31.7 38.1 L 32.6 38.6 Q 31.5 40.25 30.4 41.85 30.15 42.2 30 42.65 31.7 41.55 32.8 39.85 33.25 39.05 33.8 38.4 L 35.4 38.6 35.4 38.15 Q 37.05 36.4 38.05 34.25 38.7 32.9 39.55 31.6 39.45 30.8 39.45 30.05 L 39.55 30.1 Q 40.7 32.15 39.1 34.25 37.7 36 37.1 37.9 36.9 38.45 36.8 39.05 L 37.15 39.7 Q 37.45 39.75 37.8 39.8 38 39.9 38.2 40 38.8 39.7 39.3 39.3 39.35 39.25 39.35 39.1 39.3 38.6 39.4 38.15 39.55 37.15 39.8 36.2 40.1 35.15 40.5 34.1 41.25 31.9 41.75 29.65 41.85 29.35 41.9 29 42 28.3 42.1 27.6 42.6 24.45 42.4 21.35 M 32.6 29.75 L 33.25 30.6 Q 32.75 32.45 31.05 33.35 28.65 34.45 26.1 33.5 23.9 32.85 24.2 30.65 24.4 30.65 24.65 30.65 25.25 30.8 25.15 30.2 L 25.15 29.75 Q 27.7 28.85 30.4 28.8 32.05 28.8 32.6 29.75 M 33.5 35.15 Q 33.5 34.75 33.55 34.4 L 34.4 34.35 Q 34.5 34.1 34.5 33.9 34.55 33.65 34.55 33.4 34.8 33.4 35.05 33.5 35.85 33.7 36.8 33.45 36.5 35.2 34.85 35.7 33.85 36.1 33.6 35.5 33.5 35.3 33.5 35.15 Z"/><path fill="#63DF00" stroke="none" d="M 33.55 34.4 Q 33.5 34.75 33.5 35.15 33.5 35.3 33.6 35.5 33.85 36.1 34.85 35.7 36.5 35.2 36.8 33.45 35.85 33.7 35.05 33.5 34.8 33.4 34.55 33.4 34.55 33.65 34.5 33.9 34.5 34.1 34.4 34.35 L 33.55 34.4 Z"/><path fill="#2B402A" stroke="none" d="M 32.6 29.75 Q 32.05 28.8 30.4 28.8 27.7 28.85 25.15 29.75 L 25.15 30.2 25.8 30.75 26.05 32 Q 26.25 31.95 26.5 31.95 26.8 31.8 27.15 31.65 27.25 31.55 27.4 31.45 27.5 31.15 27.5 30.9 27.5 30.3 27.45 29.75 L 32.6 29.75 Z"/><path fill="#ECF3EC" stroke="none" d="M 33.25 30.6 L 32.6 29.75 27.45 29.75 Q 27.5 30.3 27.5 30.9 27.5 31.15 27.4 31.45 27.25 31.55 27.15 31.65 26.8 31.8 26.5 31.95 26.25 31.95 26.05 32 L 25.8 30.75 25.15 30.2 Q 25.25 30.8 24.65 30.65 24.4 30.65 24.2 30.65 23.9 32.85 26.1 33.5 28.65 34.45 31.05 33.35 32.75 32.45 33.25 30.6 Z"/><path fill="#040805" stroke="none" d="M 41.65 21.8 Q 42.05 21.6 42.4 21.35 42.6 24.45 42.1 27.6 42 28.3 41.9 29 41.85 29.35 41.75 29.65 41.25 31.9 40.5 34.1 40.1 35.15 39.8 36.2 39.55 37.15 39.4 38.15 39.3 38.6 39.35 39.1 39.35 39.25 39.3 39.3 38.8 39.7 38.2 40 L 38.6 40.95 36.8 43.75 36.8 44.2 36.8 44.65 37.6 44.55 Q 37.65 45.85 37.95 47.05 38 47.25 38.2 47.45 L 38.65 47.45 38.65 47 39.7 47.3 40.05 47.95 Q 41.45 49.9 43.8 50.1 46.05 50 47.8 48.5 49.45 47.05 50.3 44.85 50.7 43.8 50.9 42.8 51.1 41.85 51.25 40.95 L 51.25 40 Q 52.1 39.9 52.3 39.1 52.4 38.65 52.45 38.15 L 52.5 38.1 Q 52.55 37.4 52.55 36.75 52.6 36.05 52.65 35.35 L 53.15 35.35 Q 53.75 33.3 53.65 31.15 53.5 28.4 54.6 26.05 55.1 24.9 55.25 23.4 55.5 21.25 55.2 19.25 54.85 17.15 53.85 15.35 53 13.8 52.65 12 L 18.6 12 Q 17.95 13.7 17.05 15.55 16.6 16.35 15.85 16.8 14.45 17.7 13 17.15 L 13 17.6 Q 13.5 18.05 14.1 18.45 14.65 18.8 15.2 19.2 16.2 20 16.5 21.35 16.85 22.95 16.75 24.65 16.6 26.95 15.65 29.25 14.7 31.4 14.5 33.75 14.3 36.05 14.4 38.3 14.45 40.15 13.85 41.85 L 13.85 45.55 Q 13.2646484375 51.436328125 13.15 48.8 L 13.15 48.45 Q 13.25 50.8 13.2 53.05 13.2 54.85 13.6 56.8 L 14.85 56.8 14.85 56.35 Q 16 54.25 17.25 52.3 18.1 51 19.05 49.8 L 19.05 49.35 24.65 49.35 Q 26.25 49.4 27.65 48.95 27.8 49 27.95 48.85 L 25.7 48.8 25.05 48.35 Q 23.75 48.65 22.35 48.7 20.95 48.7 20.5 47.4 20.15 46.2 19.55 45.15 19.5 45.95 19.35 46.7 19.2 47.6 18.45 47.9 18.25 47.85 18.05 47.9 16.85 47.45 15.8 46.55 15.35 44.65 15.4 42.6 15.45 40.55 15.35 38.6 L 15.8 38.6 15.8 35.8 17.2 35.8 Q 17.15 35.75 17.1 35.75 15.65 34.1 15.8 32.05 L 15.8 30.2 16.25 30.2 16.25 29.25 17.3 29.5 17.65 30.65 18.5 30.5 18.6 29.25 Q 19.7 28.75 20.5 28.4 20.7 28.35 20.85 28.25 21.25 27.7 20.1 27.65 19 27.5 17.9 27.3 L 23.2 27.55 23.6 27.25 Q 24.2 25.75 23.75 24.25 21.5 23.05 19 24 18.5 24.1 18 24.2 17.15 24.3 17.15 23.3 17.15 22.55 17.2 21.8 19.5 20.25 22.25 20.75 L 22.25 20.8 Q 21.6 20.95 20.9 21.1 22.15 21.35 23.45 21.65 23.3 21.75 23.15 21.9 22.45 22.3 21.75 22.7 22.85 23.25 24.1 23.1 24.85 23.3 25.55 23.75 26 24 26.4 24.5 26.3 24.6 26.2 24.7 26 24.95 25.8 25.15 25.55 25.25 25.35 25.4 25 26.1 25.1 27.1 25.15 27.4 25.15 27.7 L 25.85 28.1 26.05 28.8 Q 27.1 28.5 28.2 28.15 29.7 27.9 31.25 28.1 32.05 28.1 32.85 28.15 33.15 28.15 33.45 28.15 35.8 28.3 37.95 29 37.6 27.35 36.25 26.2 35.55 25.65 34.95 25.05 34.6 24.7 34.25 24.35 38.25 24.25 41.65 21.8 M 47.55 30.45 Q 48.9 30.6 48.9 32.05 48.9 35.85 46.65 38.65 46.05 39.4 45.2 39.95 L 44.3 39.9 Q 43.65 39.6 43.5 38.65 43.35 37.7 43.35 36.75 44.8 35 45.4 32.75 45.85 31 47.55 30.45 Z"/><path fill="#D2D5DC" stroke="none" d="M 48.9 32.05 Q 48.9 30.6 47.55 30.45 45.85 31 45.4 32.75 44.8 35 43.35 36.75 43.35 37.7 43.5 38.65 43.65 39.6 44.3 39.9 L 45.2 39.95 Q 46.05 39.4 46.65 38.65 48.9 35.85 48.9 32.05 M 47.05 31.65 L 47.9 31.95 Q 47.7 34.9 45.95 37.65 45.25 38.7 44.45 38.4 44.3 38.3 44.25 38.15 46.45 37.05 46.75 34.55 46.95 33.05 47.05 31.65 Z"/><path fill="#484B56" stroke="none" d="M 47.9 31.95 L 47.05 31.65 Q 46.95 33.05 46.75 34.55 46.45 37.05 44.25 38.15 44.3 38.3 44.45 38.4 45.25 38.7 45.95 37.65 47.7 34.9 47.9 31.95 Z"/></g></defs><g transform="matrix( 1, 0, 0, 1, 0,0)"><use xlink:href="#Layer1_0_MEMBER_0_FILL"/></g><g transform="matrix( 1, 0, 0, 1, 0,0)"><use xlink:href="#Layer1_0_MEMBER_1_FILL"/></g><g transform="matrix( 1, 0, 0, 1, 0,0)"><use xlink:href="#Layer1_0_MEMBER_2_FILL"/></g><g transform="matrix( 1, 0, 0, 1, 0,0)"><use xlink:href="#Layer1_0_MEMBER_3_FILL"/></g><g transform="matrix( 1, 0, 0, 1, 0,0)"><use xlink:href="#Layer1_0_MEMBER_4_FILL"/></g><g transform="matrix( 1, 0, 0, 1, 0,0)"><use xlink:href="#Layer1_0_MEMBER_5_FILL"/></g><g transform="matrix( 1, 0, 0, 1, 0,0)"><use xlink:href="#Layer1_0_MEMBER_6_FILL"/></g><g transform="matrix( 1, 0, 0, 1, 0,70)"><use xlink:href="#Layer0_0_FILL"/></g><g><g transform="matrix( 1, 0, 0, 1, 35,105) matrix( 1, 0, 0, 1, -35.4,-34.4)"><use xlink:href="#Tween_2_0_Layer0_0_FILL"/></g></g></svg>