<svg xmlns="http://www.w3.org/2000/svg" xmlns:xlink="http://www.w3.org/1999/xlink" width="126" height="150" x="0" y="0" preserveAspectRatio="none" version="1.1" viewBox="0 0 126 150"><defs><g id="Layer3_0_FILL"><path fill="#C9753E" stroke="none" d="M 98.1 54.7 Q 100.141015625 53.6666015625 103.45 52.35 L 103.45 49.3 80.25 49.3 80.25 15.05 Q 74.6482421875 17.642578125 52.7 30.9 L 28.3 45.8 Q 23.55 48.45 19.3 52.75 L 21.55 52.3 22.95 53.85 Q 20.5 55.4 18.5 56.65 15.75 58.35 10.45 64 3.4 71.5 3.8 75.4 4.25 79.35 9.55 80.8 13.3 81.8 17.3 81.35 L 17.55 81.35 Q 32.7 79.3 45.05 76.25 53.75 74.2 59.7 72.15 66.7 69.75 73.1 66.35 L 96 54.8 98.1 54.7 Z"/><path fill="#EFB04A" stroke="none" d="M 98.1 54.7 L 96 54.8 73.1 66.35 Q 66.7 69.75 59.7 72.15 53.75 74.2 45.05 76.25 32.7 79.3 17.55 81.35 L 17.3 81.35 Q 13.3 81.8 9.55 80.8 4.25 79.35 3.8 75.4 3.4 71.5 10.45 64 15.75 58.35 18.5 56.65 20.5 55.4 22.95 53.85 L 21.55 52.3 19.3 52.75 Q 16.35 53.65 14.3 55.75 10.55 59.25 7.2 63.3 0.55 71.35 1 75.7 1.5 80.35 7.9 82.5 12.9 84.05 17.55 83.55 L 39.05 79.85 54.7 76.05 Q 64.3 73.5 69.25 71 L 102.3 54.45 98.1 54.7 Z"/></g><g id="Layer2_0_FILL"><path fill="#D2D2D2" stroke="none" d="M 45.25 136.8 Q 51 143.5 54.8 146.3 58.75 149.35 62.4 149.3 65.65 149.3 70.8 145.4 L 77.15 139.85 86.55 129.85 Q 88.75 122.6 90 119.65 91.3 116.45 92.15 107.55 92.5259765625 102.6341796875 93.3 98.7 61.9419921875 91.84375 31.95 98.7 32.1880859375 102.0162109375 32.35 106.85 32.6 115.15 34.05 118.55 35.75 122.4 38.95 129.6 L 45.25 136.8 Z"/><path fill="#41854F" stroke="none" d="M 98.55 63.05 L 98.7 51.45 Q 98.7 41.95 95.25 43.75 81.7 50.85 69.55 54.55 59.05 57.75 60.15 56.3 L 65.3 50.7 Q 69.3 46.2 67.55 47.2 55.4 54.45 40.8 58.55 33.35 60.6 28.6 61.15 28.15 66.8 27.95 70.3 27.85 71.95 27.8 73.15 27.8 76.35 28.25 81.2 28.6 84.55 29.9 88.15 L 31.4 93.05 Q 31.7224609375 94.850390625 31.95 98.7 61.9419921875 91.84375 93.3 98.7 93.978125 95.3107421875 94.95 92.65 96.75 87.85 97.45 83.85 L 97.7 81.2 Q 98.3 76.25 98.55 63.05 Z"/><path fill="#000" stroke="none" d="M 107.65 35.8 Q 108 30.9 104.65 24.8 102.1 20.25 99.15 17.3 95 13.15 89.4 10.5 82.85 7.55 74.65 6 L 67.75 5.15 59 5.65 Q 52.85 5.25 47.3 6.95 41.85 8.6 34.9 12.8 29.4 16.1 24.7 22.25 22.25 25.4 21.1 28.1 19.95 30.75 19 39.15 18.05 47.5 16 53.3 13.9 59.1 9.6 63.25 5.35 67.5 5.35 67.9 L 8.7 67.55 12.65 66.6 Q 11.95 80.15 5.8 88.8 2.8 93.05 0.45 94.6 5.65 94.7 9.25 92.85 11.2 92 11.95 91.05 10.9 94.35 5.35 98.75 L 0.65 102.25 Q 5.25 102.9 9.8 101.7 14.1 100.6 17.4 98.1 18.85 106.65 21.35 113.35 24.7 122.7 29.5 126.2 29.95 126.6 29.9 124.9 L 29.7 122.6 32.2 125.35 Q 35.05 128.2 38.95 129.6 35.75 122.4 34.05 118.55 32.6 115.15 32.35 106.85 32.1880859375 102.0162109375 31.95 98.7 31.7224609375 94.850390625 31.4 93.05 L 29.9 88.15 Q 28.6 84.55 28.25 81.2 27.8 76.35 27.8 73.15 27.85 71.95 27.95 70.3 28.15 66.8 28.6 61.15 33.35 60.6 40.8 58.55 55.4 54.45 67.55 47.2 69.3 46.2 65.3 50.7 L 60.15 56.3 Q 59.05 57.75 69.55 54.55 81.7 50.85 95.25 43.75 98.7 41.95 98.7 51.45 L 98.55 63.05 Q 98.3 76.25 97.7 81.2 L 97.45 83.85 Q 96.75 87.85 94.95 92.65 93.978125 95.3107421875 93.3 98.7 92.5259765625 102.6341796875 92.15 107.55 91.3 116.45 90 119.65 88.75 122.6 86.55 129.85 90.2 128.35 93.05 124.9 94.95 122.05 94.95 122.3 95.2 123 94.85 124.8 94.35 126.95 94.35 127.9 97.75 125.65 100.2 122.05 L 101.95 118.85 102.55 120.9 Q 102.8 122.3 103.2 122.95 105.25 119.55 107.8 114.2 112.55 104.15 113.25 97 114.05 88.95 113.05 83.4 111.7 77.95 111.25 73.45 113.75 77.05 117.6 79.6 121.25 82 121.1 80.8 L 114.85 64.9 Q 112.7 58.45 110.45 56.9 107.25 40.7 107.65 35.8 Z"/></g><g id="Tween_9_0_Layer3_0_FILL"><path fill="#EFB04A" stroke="none" d="M 32.4 -31.15 Q 23.65 -34.35 10.05 -34.85 L 1.4 -35 0.4 -34.9 Q -20.05 -34.5 -30.65 -30.05 -43.75 -24.6 -50 -10.5 -52.2 -5.45 -54.9 6.9 -57.45 18.8 -59.45 33.15 -56.35 33.8 -55.8 33.5 -37.7 35.2 -10.05 34.25 L 1.2 33.9 0.8 33.9 1.05 23.65 1.1 23.65 Q 1.75 3.6 17.15 2.5 28.75 1.75 33.8 5.2 39.95 9.4 41.1 22 46.25 22.35 46.65 25.95 46.95 28.7 45.25 30.4 43.95 31.7 41.7 32.15 L 41.7 32.2 59.45 32.2 Q 58.15 23.25 56.85 10.5 55.5 -2.25 53.65 -9.1 51.8 -16 45.6 -22.6 40.35 -28.2 32.4 -31.15 Z"/></g><g id="Mask_Tween_9_0_2_MASK_0_FILL"><path fill="#FFF" stroke="none" d="M 32.4 -31.15 Q 23.65 -34.35 10.05 -34.85 L 1.4 -35 0.4 -34.9 Q -20.05 -34.5 -30.65 -30.05 -43.75 -24.6 -50 -10.5 -52.2 -5.45 -54.9 6.9 -57.45 18.8 -59.45 33.15 -56.35 33.8 -55.8 33.5 -37.7 35.2 -10.05 34.25 L 1.2 33.9 0.8 33.9 1.05 23.65 1.1 23.65 Q 1.75 3.6 17.15 2.5 28.75 1.75 33.8 5.2 39.95 9.4 41.1 22 46.25 22.35 46.65 25.95 46.95 28.7 45.25 30.4 43.95 31.7 41.7 32.15 L 41.7 32.2 59.45 32.2 Q 58.15 23.25 56.85 10.5 55.5 -2.25 53.65 -9.1 51.8 -16 45.6 -22.6 40.35 -28.2 32.4 -31.15 Z"/></g><g id="Tween_9_0_Layer2_0_FILL"><path fill="#E29446" stroke="none" d="M -54.35 17.2 Q -54.35 15.95 -55.25 15.05 -56.1 14.15 -57.4 14.15 -58.65 14.15 -59.55 15.05 -60.45 15.95 -60.45 17.2 -60.45 18.45 -59.55 19.35 -58.65 20.25 -57.4 20.25 -56.1 20.25 -55.25 19.35 -54.35 18.45 -54.35 17.2 M -28.9 -1.35 Q -31.25 -3.7 -34.6 -3.7 -37.95 -3.7 -40.35 -1.35 -42.7 1.05 -42.7 4.4 -42.7 7.75 -40.35 10.1 -37.95 12.5 -34.6 12.5 -31.25 12.5 -28.9 10.1 -26.5 7.75 -26.5 4.4 -26.5 1.05 -28.9 -1.35 M -44.45 -26.75 Q -47.05 -26.75 -48.95 -24.9 -50.75 -23.05 -50.75 -20.45 -50.75 -17.8 -48.95 -16 -47.05 -14.15 -44.45 -14.15 -41.85 -14.15 -40.05 -16 -38.15 -17.8 -38.15 -20.45 -38.15 -23.05 -40.05 -24.9 -41.85 -26.75 -44.45 -26.75 M 78.25 -12.35 L 57.5 -18.8 75.7 -18.8 71.6 -36.2 -2.3 -36.2 Q -5.8 -36.1 -8.25 -33.65 -10.8 -31.1 -10.8 -27.5 -10.8 -25.1 -9.65 -23.2 L -17.45 -23.2 Q -20.95 -23.1 -23.4 -20.65 -25.95 -18.1 -25.95 -14.5 -25.95 -10.9 -23.4 -8.35 -20.95 -5.9 -17.45 -5.8 L -3.9 -5.8 Q -4.15 -4.8 -4.15 -3.65 -4.15 -0.65 -2.4 1.6 L -7.7 1.6 Q -11.2 1.7 -13.65 4.15 -16.2 6.7 -16.2 10.3 -16.2 13.9 -13.65 16.45 -11.2 18.9 -7.7 19 L 25.75 19 Q 23.85 21.3 23.85 24.4 23.85 28 26.4 30.55 28.85 33 32.35 33.1 L 110.35 33.1 106.25 15.7 69.55 15.7 67.05 5.05 82.35 5.05 78.25 -12.35 M 13.25 -25.1 Q 14.95 -26.75 17.25 -26.75 19.6 -26.75 21.25 -25.1 22.9 -23.4 22.9 -21.1 22.9 -18.75 21.25 -17.1 19.6 -15.45 17.25 -15.45 14.95 -15.45 13.25 -17.1 11.6 -18.75 11.6 -21.1 11.6 -23.4 13.25 -25.1 M 31.55 -17.3 Q 32.85 -17.3 33.8 -16.4 34.75 -15.45 34.75 -14.1 34.75 -12.8 33.8 -11.85 32.85 -10.9 31.55 -10.9 30.2 -10.9 29.25 -11.85 28.35 -12.8 28.35 -14.1 28.35 -15.45 29.25 -16.4 30.2 -17.3 31.55 -17.3 M 5.6 7.45 Q 6.9 8.75 6.9 10.6 6.9 12.45 5.6 13.7 4.3 15.05 2.5 15.05 0.65 15.05 -0.65 13.7 -1.95 12.45 -1.95 10.6 -1.95 8.75 -0.65 7.45 0.65 6.2 2.5 6.2 4.3 6.2 5.6 7.45 Z"/><path fill="#C9753E" stroke="none" d="M 6.9 10.6 Q 6.9 8.75 5.6 7.45 4.3 6.2 2.5 6.2 0.65 6.2 -0.65 7.45 -1.95 8.75 -1.95 10.6 -1.95 12.45 -0.65 13.7 0.65 15.05 2.5 15.05 4.3 15.05 5.6 13.7 6.9 12.45 6.9 10.6 M 33.8 -16.4 Q 32.85 -17.3 31.55 -17.3 30.2 -17.3 29.25 -16.4 28.35 -15.45 28.35 -14.1 28.35 -12.8 29.25 -11.85 30.2 -10.9 31.55 -10.9 32.85 -10.9 33.8 -11.85 34.75 -12.8 34.75 -14.1 34.75 -15.45 33.8 -16.4 M 17.25 -26.75 Q 14.95 -26.75 13.25 -25.1 11.6 -23.4 11.6 -21.1 11.6 -18.75 13.25 -17.1 14.95 -15.45 17.25 -15.45 19.6 -15.45 21.25 -17.1 22.9 -18.75 22.9 -21.1 22.9 -23.4 21.25 -25.1 19.6 -26.75 17.25 -26.75 Z"/></g><g id="Tween_9_0_Layer1_0_FILL"><path fill="#C9753E" stroke="none" d="M 55.15 -102.4 Q 51.65 -102.3 49.2 -99.85 46.65 -97.3 46.65 -93.7 46.65 -90.6 48.55 -88.3 L 15.1 -88.3 Q 11.6 -88.2 9.15 -85.75 6.6 -83.2 6.6 -79.6 6.6 -76 9.15 -73.45 11.6 -71 15.1 -70.9 L 20.4 -70.9 Q 18.65 -68.65 18.65 -65.65 18.65 -64.5 18.9 -63.5 L 5.35 -63.5 Q 1.85 -63.4 -0.6 -60.95 -3.15 -58.4 -3.15 -54.8 -3.15 -51.2 -0.6 -48.65 1.85 -46.2 5.35 -46.1 L 13.15 -46.1 Q 12 -44.2 12 -41.8 12 -38.2 14.55 -35.65 17 -33.2 20.5 -33.1 L 32.6 -33.1 Q 31.95 -32.65 31.35 -32.05 28.8 -29.5 28.8 -25.9 28.8 -22.3 31.35 -19.75 33.8 -17.3 37.3 -17.2 L 42.6 -17.2 Q 40.85 -14.95 40.85 -11.95 40.85 -10.8 41.1 -9.8 L 27.55 -9.8 Q 24.05 -9.7 21.6 -7.25 19.05 -4.7 19.05 -1.1 19.05 2.5 21.6 5.05 24.05 7.5 27.55 7.6 L 35.35 7.6 Q 34.2 9.5 34.2 11.9 34.2 15.5 36.75 18.05 39.2 20.5 42.7 20.6 L 59.2 20.6 Q 55.7 20.7 53.25 23.15 50.7 25.7 50.7 29.3 50.7 32.4 52.6 34.7 L 19.15 34.7 Q 15.65 34.8 13.2 37.25 10.65 39.8 10.65 43.4 10.65 47 13.2 49.55 15.65 52 19.15 52.1 L 24.45 52.1 Q 22.7 54.35 22.7 57.35 22.7 58.5 22.95 59.5 L 9.4 59.5 Q 5.9 59.6 3.45 62.05 0.9 64.6 0.9 68.2 0.9 71.8 3.45 74.35 5.9 76.8 9.4 76.9 L 17.2 76.9 Q 16.05 78.8 16.05 81.2 16.05 84.8 18.6 87.35 21.05 89.8 24.55 89.9 L 98.45 89.9 102.55 72.5 84.35 72.5 105.1 66.05 109.2 48.65 93.9 48.65 96.4 38 133.1 38 137.2 20.6 116.6 20.6 120.7 3.2 102.5 3.2 123.25 -3.25 127.35 -20.65 112.05 -20.65 114.55 -31.3 151.25 -31.3 155.35 -48.7 98.1 -48.7 98.5 -50.5 80.3 -50.5 101.05 -56.95 105.15 -74.35 89.85 -74.35 92.35 -85 129.05 -85 133.15 -102.4 55.15 -102.4 Z"/></g><g id="Layer1_1_FILL"><path fill="#C9753E" stroke="none" d="M 3.2 -32.95 L 2.95 -22.7 23.35 -23.2 43.85 -24.45 Q 46.1 -24.9 47.4 -26.2 49.1 -27.9 48.8 -30.65 48.4 -34.25 43.25 -34.6 L 3.2 -32.95 M 3.55 -91.6 L 12.2 -91.45 Q 11.75 -93.05 10.55 -93.65 9.35 -94.3 7 -94.35 3.85 -94.35 2.55 -91.5 L 3.55 -91.6 Z"/></g><g id="Layer0_0_FILL"><path fill="#000" stroke="none" d="M 59.9 56.65 Q 58.8 58.1 68.9 55 80.05 51.6 92.35 45.25 L 67.45 48 Q 67.15 48.7 64.8 51.3 L 59.9 56.65 Z"/></g></defs><g transform="matrix( 1, 0, 0, 1, 0,0)"><use xlink:href="#Layer3_0_FILL"/></g><g transform="matrix( 1, 0, 0, 1, 0,0)"><use xlink:href="#Layer2_0_FILL"/></g><g transform="matrix( 0.814300537109375, 0, 0, 0.814300537109375, 62.2,30.75)"><g transform="matrix( 1, 0, 0, 1, 0,0)"><use xlink:href="#Tween_9_0_Layer3_0_FILL"/></g><mask id="Mask_Mask_1"><g transform="matrix( 1, 0, 0, 1, 0,0)"><use xlink:href="#Mask_Tween_9_0_2_MASK_0_FILL"/></g></mask><g mask="url(#Mask_Mask_1)"><g transform="matrix( 1, 0, 0, 1, 0,0)"><use xlink:href="#Tween_9_0_Layer2_0_FILL"/></g></g><g mask="url(#Mask_Mask_1)"><g transform="matrix( 1, 0, 0, 1, 0,0)"><use xlink:href="#Tween_9_0_Layer1_0_FILL"/></g></g></g><g transform="matrix( 0.814300537109375, 0, 0, 0.814300537109375, 60.45,76.85)"><use xlink:href="#Layer1_1_FILL"/></g><g transform="matrix( 1, 0, 0, 1, 0,0)"><use xlink:href="#Layer0_0_FILL"/></g></svg>