
<svg xmlns="http://www.w3.org/2000/svg" version="1.1" xmlns:xlink="http://www.w3.org/1999/xlink" preserveAspectRatio="none" x="0px" y="0px" width="120px" height="148px" viewBox="0 0 120 148">
<defs>
<g id="Layer3_0_FILL">
<path fill="#FF5874" stroke="none" d="
M 18.4 19.05
Q 17.5 13.15 17.25 7.15 26.55 11.05 35.15 16.75 39.15 14.5 43.5 13 27.2 3.85 9.15 0.1 9.05 2.1 9 4.05 8.5 22.2 13.95 40.6 16.4 33.65 20.25 28.9 19.05 24 18.4 19.05 Z"/>

<path fill="#25144B" stroke="none" d="
M 30.7 19.5
Q 32.85 18 35.15 16.75 26.55 11.05 17.25 7.15 17.5 13.15 18.4 19.05 19.05 24 20.25 28.9 21.85 26.85 23.7 25.25 27 22.05 30.7 19.5
M 106.4 19.05
Q 107.25 13.15 107.5 7.15 98.3 11 89.8 16.65 92.05 17.9 94.3 19.4 98.05 21.95 101.45 25.25 103.15 26.75 104.65 28.5 105.75 23.85 106.4 19.05 Z"/>

<path fill="#FD928C" stroke="none" d="
M 115.8 4.05
Q 115.75 2.1 115.6 0.1 97.65 3.85 81.4 12.95 85.7 14.4 89.75 16.6
L 89.8 16.65
Q 98.3 11 107.5 7.15 107.25 13.15 106.4 19.05 105.75 23.85 104.65 28.5 108.35 33.05 110.85 39.65 110.9 39.9 111 40.1 116.25 21.95 115.8 4.05 Z"/>
</g>

<g id="Layer2_0_FILL">
<path fill="#C42464" stroke="none" d="
M 13 67.5
Q 13.55 64.95 16.1 64.95
L 17.3 46.5 6.2 54.15 6.2 81.4 12.85 81.4 12.85 71.65
Q 12.85 68.15 13 67.5 Z"/>
</g>

<g id="Layer2_1_FILL">
<path fill="#C42464" stroke="none" d="
M 110.4 64.95
Q 112.95 64.95 113.55 67.5 113.65 68.05 113.65 71.65
L 113.65 81.4 120.3 81.4 120.3 54.15 109.25 46.5 110.4 64.95 Z"/>
</g>

<g id="Layer2_2_FILL">
<path fill="#FF5874" stroke="none" d="
M 18.25 65.05
L 16.1 65
Q 13.55 65 13 67.55 12.85 68.1 12.85 71.7
L 12.85 88.5
Q 13.05 90 14.15 91 15.25 92 16.75 92.05
L 18.25 92.05 18.25 65.05 Z"/>
</g>

<g id="Layer2_3_FILL">
<path fill="#D2D2D2" stroke="none" d="
M 97.75 46.9
Q 96.95 43 94.7 44.2 81.25 51.2 69.2 54.9 58.8 58.1 59.8 56.65 62.8 53.4 64.9 51.05 68.95 46.55 67.15 47.65 49.3 58.2 28.45 61.5 27.75 70.1 27.7 73.4 27.7 76.3 28.15 81.4 28.45 84.85 29.75 88.3 31.15 92.2 31.3 93.15 31.95 96.95 32.15 104.2 32.35 111.5 32.8 114.35 33.2 120.85 35.95 125.9 37.3 128.4 38.6 129.6 40.95 131.85 41.5 132.45 42 133 45.05 136.6 50.7 143.25 54.45 146.05 58.45 149 62.05 149 65.3 149 70.4 145.15 71.15 144.55 76.8 139.6 78.3 138.25 80.9 135.45 84.2 131.95 86.2 129.8 86.95 129.15 87.95 126.85 89.85 122.3 90.9 114.3 91.5 107.95 91.9 104.35 92.6 97.8 94.4 92.75 96.3 87.7 96.9 84
L 97.1 81.3
Q 97.75 75.95 98 63.35
L 98.1 51.85
Q 97.9 47.85 97.75 46.9 Z"/>
</g>

<g id="Layer2_4_FILL">
<path fill="#632AAD" stroke="none" d="
M 106.95 60.8
Q 105.4 59.2 102.6 59.2 99.6 59.3 98 61.75 97.7 76.05 97.05 81.35 97.1 82.75 96.8 84.35
L 96.8 92.35
Q 96.8 94.2 98.35 96.1 100.05 98.15 102.15 98.15 104.6 98.15 106.4 96.45 108.2 94.8 108.4 92.35
L 108.4 64.7
Q 108.4 62.25 106.95 60.8 Z"/>
</g>

<g id="Layer2_5_FILL">
<path fill="#632AAD" stroke="none" d="
M 27.7 73.4
Q 27.75 70.1 28.45 61.5 26.7 59.15 23.75 59.25 21.6 59.1 20 60.55 18.4 61.95 18.25 64.1
L 18.25 92.35
Q 18.5 94.75 20.3 96.4 22.05 98.1 24.5 98.15 26.6 98.15 28.3 96.1 29.85 94.2 29.85 92.35
L 29.85 88.7
Q 28.45 85 28.15 81.4 27.7 76.3 27.7 73.4 Z"/>
</g>

<g id="Layer2_6_FILL">
<path fill="#FF5874" stroke="none" d="
M 113.5 67.5
Q 112.95 65 110.4 65
L 108.4 65 108.4 92 109.75 92
Q 111.25 92 112.35 91 113.45 89.95 113.6 88.45
L 113.6 71.65
Q 113.7 68.3 113.5 67.5 Z"/>
</g>

<g id="Layer2_7_FILL">
<path fill="#7D1E46" stroke="none" d="
M 108 39.7
Q 108.890234375 43.2611328125 109.3 46.5
L 117.05 51.9
Q 115.35 34.8 109.55 24.95 105.45 18 96.8 11.5 83.25 1.55 64.2 1
L 62.3 1
Q 43.2 1.5 29.75 11.5 21.05 17.95 17 24.95 11.2 34.8 9.5 51.9
L 17.3 46.5
Q 17.7 43.3 18.6 39.6 23.45 25.1 34.6 16.95 41.55 11.95 50.4 9.65 56.75 8 63.25 7.9 69.8 8 76.15 9.65 85.05 11.95 92 17 103.15 25.15 108 39.7 Z"/>
</g>

<g id="Layer2_8_FILL">
<path fill="#000000" stroke="none" d="
M 3.5 91.85
Q 1.6 93.95 0.55 94.75 5.65 94.8 9.35 93 11.2 92.1 12 91.2 10.9 94.5 5.35 98.8 2.65 100.85 0.7 102.35 5.15 102.95 9.45 101.85 13.75 100.8 17.35 98.15 18.8 106.8 21.25 113.35 24.65 122.6 29.4 126.1 29.85 126.45 29.75 124.8 29.55 122.9 29.55 122.5 29.85 122.7 32.05 125.25 34.85 128.05 38.55 129.6 37.3 128.4 35.95 125.9 33.2 120.85 32.8 114.35 32.35 111.55 32.15 104.2 31.95 96.95 31.3 93.15 30.75 90.7 29.85 88.7
L 29.85 92.35
Q 29.85 94.2 28.3 96.1 26.6 98.15 24.5 98.15 22.05 98.1 20.3 96.4 18.5 94.75 18.25 92.35
L 18.25 92 16.75 92
Q 15.25 92 14.15 91 13.05 89.95 12.85 88.45
L 12.85 81.4 9.8 81.4
Q 7.5 87.55 3.5 91.85 Z"/>
</g>

<g id="Layer2_9_FILL">
<path fill="#000000" stroke="none" d="
M 98.4 96.1
Q 96.8 94.2 96.8 92.35
L 96.8 84.35
Q 96.05 88.2 94.4 92.85 92.6 97.9 91.85 104.45 91.45 108 90.85 114.35 89.8 122.35 87.9 126.9 86.9 129.2 86.15 129.85 89.7 128.25 92.45 124.85 94.35 121.95 94.4 122.25 94.6 122.9 94.25 124.7 93.8 126.85 93.8 127.8 98.85 124.35 101.35 118.8 101.6 119.35 101.9 120.85 102.2 122.25 102.55 122.9 104.8 119.3 107.15 114.25 111.85 104.2 112.55 97.1 112.95 92.85 112.95 90.45 111.75 92 109.75 92
L 108.4 92 108.4 92.35
Q 108.2 94.8 106.45 96.45 104.65 98.1 102.2 98.15 100.1 98.15 98.4 96.1 Z"/>
</g>

<g id="Layer2_10_FILL">
<path fill="#000000" stroke="none" d="
M 107.95 39.7
Q 103.05 25 92 17.05 85.1 12 76.15 9.7 69.9 8.05 63.25 7.9 56.65 8.05 50.4 9.7 41.5 12 34.6 17.05 23.5 25.1 18.6 39.7 17.7 43.3 17.3 46.6
L 16.15 65 18.25 65 18.25 64.7
Q 18.15 62.55 19.6 60.95 21 59.35 23.15 59.25
L 23.75 59.25
Q 26.7 59.25 28.45 61.55 49.2 58.3 67.15 47.65 69 46.55 64.9 51.1 62.8 53.45 59.8 56.65 58.7 58.05 69.2 54.85 81.35 51.2 94.7 44.2 98.1 42.4 98.1 51.85
L 98.05 51.85 98 61.75
Q 99.7 59.3 102.6 59.2 105.4 59.2 106.95 60.75 108.4 62.25 108.4 64.7
L 108.4 65 110.4 65 109.25 46.6
Q 108.85 43.3 107.95 39.7 Z"/>
</g>

<g id="Layer0_0_FILL">
<path fill="#FD928C" stroke="none" d="
M 11.6 55.75
Q 11.6 54.9 11 54.35 10.5 53.85 9.7 53.85 8.9 53.85 8.35 54.35 7.85 54.9 7.85 55.75 7.85 56.5 8.35 57 8.9 57.6 9.7 57.6 10.5 57.6 11 57 11.6 56.5 11.6 55.75
M -123.65 48.25
Q -124.15 47.75 -124.95 47.75 -125.75 47.75 -126.3 48.25 -126.8 48.8 -126.8 49.65 -126.8 50.4 -126.3 50.9 -125.75 51.5 -124.95 51.5 -124.15 51.5 -123.65 50.9 -123.05 50.4 -123.05 49.65 -123.05 48.8 -123.65 48.25
M -19.35 -11.05
Q -19.4 -13 -19.55 -15 -37.5 -11.25 -53.75 -2.15 -49.45 -0.7 -45.4 1.5
L -45.35 1.55
Q -36.85 -4.1 -27.65 -7.95 -27.9 -1.95 -28.75 3.95 -29.4 8.75 -30.5 13.4 -26.8 17.95 -24.3 24.55 -24.25 24.8 -24.15 25 -18.9 6.85 -19.35 -11.05 Z"/>

<path fill="#632AAD" stroke="none" d="
M -106.95 53.7
Q -109.1 49.9 -114.15 51.85 -116.55 52.9 -116.5 56.7 -116.5 57.4 -116.4 58.25
L -116.4 84.35
Q -116.1 90.55 -110.5 89.95 -103.4 88.95 -105.5 80.1 -109.25 68.25 -106.95 53.7
M -28.8 56.65
Q -28.75 52.9 -31.15 51.8 -36.2 49.85 -38.35 53.65 -40.05 67.6 -40.2 80.1 -40.3 89.25 -34.75 89.9 -29.2 90.5 -28.9 84.3
L -28.9 58.2
Q -28.8 57.35 -28.8 56.65 Z"/>

<path fill="#FF5874" stroke="none" d="
M -122.35 73.5
L -122.35 81.05
Q -122.4 84.3 -119.8 84.35
L -116.4 84.35 -116.4 58.25
Q -116.5 57.4 -116.5 56.7
L -119.15 56.7
Q -122.5 56.55 -122.35 59.4
L -122.35 73.5
M -28.8 56.65
Q -28.8 57.35 -28.9 58.2
L -28.9 84.3 -25.45 84.3
Q -22.85 84.25 -22.9 81.05
L -22.9 73.5 -22.9 59.4
Q -22.95 56.85 -26.4 56.65 -27.05 56.65 -27.75 56.65
L -28.8 56.65
M -126 -15
Q -126.1 -13 -126.15 -11.05 -126.65 7.1 -121.2 25.5 -118.75 18.55 -114.9 13.8 -116.1 8.9 -116.75 3.95 -117.65 -1.95 -117.9 -7.95 -108.6 -4.05 -100 1.65 -96 -0.6 -91.65 -2.1 -107.95 -11.25 -126 -15 Z"/>

<path fill="#C42464" stroke="none" d="
M -125.1 44.55
Q -128.4 46.2 -128.35 48.6
L -128.35 70.45
Q -128.5 73.55 -126.6 73.5
L -122.35 73.5 -122.35 59.4
Q -122.5 56.55 -119.15 56.7 -118.45 48 -117.05 40.9
L -124.35 44.25
Q -124.7 44.4 -125.1 44.55
M -124.95 47.75
Q -124.15 47.75 -123.65 48.25 -123.05 48.8 -123.05 49.65 -123.05 50.4 -123.65 50.9 -124.15 51.5 -124.95 51.5 -125.75 51.5 -126.3 50.9 -126.8 50.4 -126.8 49.65 -126.8 48.8 -126.3 48.25 -125.75 47.75 -124.95 47.75
M -20.45 44.55
Q -20.75 44.4 -21.15 44.25
L -27.9 41.15
Q -26.55 48.15 -26.4 56.65 -22.95 56.85 -22.9 59.4
L -22.9 73.5 -18.9 73.5
Q -17 73.55 -17.15 70.45
L -17.15 48.6
Q -17.05 46.3 -20.1 44.7 -20.3 44.6 -20.45 44.55 Z"/>

<path fill="#25144B" stroke="none" d="
M -116.75 3.95
Q -116.1 8.9 -114.9 13.8 -113.3 11.75 -111.45 10.15 -108.15 6.95 -104.45 4.4 -102.3 2.9 -100 1.65 -108.6 -4.05 -117.9 -7.95 -117.65 -1.95 -116.75 3.95
M -30.5 13.4
Q -29.4 8.75 -28.75 3.95 -27.9 -1.95 -27.65 -7.95 -36.85 -4.1 -45.35 1.55 -43.1 2.8 -40.85 4.3 -37.1 6.85 -33.7 10.15 -32 11.65 -30.5 13.4 Z"/>

<path fill="#7D1E46" stroke="none" d="
M -53.9 -2.2
Q -62.6 -5.1 -72.65 -5.15 -82.85 -5.1 -91.65 -2.1 -96 -0.6 -100 1.65 -102.3 2.9 -104.45 4.4 -108.15 6.95 -111.45 10.15 -113.3 11.75 -114.9 13.8 -118.75 18.55 -121.2 25.5 -124.1 33.6 -125.1 44.55 -124.7 44.4 -124.35 44.25
L -117.05 40.9
Q -113 19.75 -102.8 12.15 -92.7 4.05 -76.2 2.3 -72.6 1.95 -68.95 2.3 -52.55 3.85 -42.15 12.15 -32 19.75 -27.95 40.9 -27.9 41.05 -27.9 41.15
L -21.15 44.25
Q -20.75 44.4 -20.45 44.55 -20.3 44.6 -20.1 44.7 -21.15 33.25 -24.15 25 -24.25 24.8 -24.3 24.55 -26.8 17.95 -30.5 13.4 -32 11.65 -33.7 10.15 -37.1 6.85 -40.85 4.3 -43.1 2.8 -45.35 1.55
L -45.4 1.5
Q -49.45 -0.7 -53.75 -2.15 -53.85 -2.2 -53.9 -2.2 Z"/>
</g>
</defs>

<g transform="matrix( 1, 0, 0, 1, 0,0) ">
<use xlink:href="#Layer3_0_FILL"/>
</g>

<g transform="matrix( 1, 0, 0, 1, -0.55,-1) ">
<use xlink:href="#Layer2_0_FILL"/>
</g>

<g transform="matrix( 1, 0, 0, 1, -0.55,-1) ">
<use xlink:href="#Layer2_1_FILL"/>
</g>

<g transform="matrix( 1, 0, 0, 1, -0.55,-1) ">
<use xlink:href="#Layer2_2_FILL"/>
</g>

<g transform="matrix( 1, 0, 0, 1, -0.55,-1) ">
<use xlink:href="#Layer2_3_FILL"/>
</g>

<g transform="matrix( 1, 0, 0, 1, -0.55,-1) ">
<use xlink:href="#Layer2_4_FILL"/>
</g>

<g transform="matrix( 1, 0, 0, 1, -0.55,-1) ">
<use xlink:href="#Layer2_5_FILL"/>
</g>

<g transform="matrix( 1, 0, 0, 1, -0.55,-1) ">
<use xlink:href="#Layer2_6_FILL"/>
</g>

<g transform="matrix( 1, 0, 0, 1, -0.55,-1) ">
<use xlink:href="#Layer2_7_FILL"/>
</g>

<g transform="matrix( 1, 0, 0, 1, -0.55,-1) ">
<use xlink:href="#Layer2_8_FILL"/>
</g>

<g transform="matrix( 1, 0, 0, 1, -0.55,-1) ">
<use xlink:href="#Layer2_9_FILL"/>
</g>

<g transform="matrix( 1, 0, 0, 1, -0.55,-1) ">
<use xlink:href="#Layer2_10_FILL"/>
</g>

<g transform="matrix( 1, 0, 0, 1, 0,0) ">
<use xlink:href="#Layer0_0_FILL"/>
</g>
</svg>
