<svg version="1.1" xmlns="http://www.w3.org/2000/svg" xmlns:xlink="http://www.w3.org/1999/xlink" width="412.37946" height="78.47939" viewBox="0,0,412.37946,78.47939"><g transform="translate(-33.81027,-140.76031)"><g data-paper-data="{&quot;isPaintingLayer&quot;:true}" fill-rule="nonzero" stroke="none" stroke-width="1" stroke-linecap="butt" stroke-linejoin="miter" stroke-miterlimit="10" stroke-dasharray="" stroke-dashoffset="0" style="mix-blend-mode: normal"><path d="M215.25104,210.17679c2.349,-1.99265 4.12252,-4.26793 6.0906,-6.96713c0.40549,-0.55704 0.897,-0.79256 1.47453,-0.70654c0.78642,0.11878 2.00699,1.12228 2.77088,1.63836c1.18576,0.80075 2.07047,1.53187 0.91953,2.90194c-1.85817,2.21315 -3.81943,4.23857 -5.88376,6.07627c-3.02072,2.68691 -6.34045,4.51163 -10.30323,5.27552c-0.96868,0.18636 -1.40694,-0.36659 -1.72028,-1.23696c-0.64988,-1.80083 -1.28884,-3.59893 -1.91688,-5.3943c-0.00767,-0.02108 -0.02622,-0.03631 -0.04839,-0.03972c-0.02218,-0.00341 -0.04445,0.00553 -0.0581,0.02334c-1.66703,2.28142 -3.71088,4.3949 -6.13771,5.86942c-1.42811,0.86697 -2.84528,0.85536 -4.25154,-0.03482c-3.39755,-2.15035 -6.54525,-5.7404 -6.62717,-9.90593c-0.08397,-4.17167 0.82123,-8.64849 1.93736,-12.65224c1.33253,-4.78811 3.07944,-9.71479 5.24071,-14.78005c1.43561,-3.36273 3.24396,-7.15349 5.72607,-9.695c4.1471,-4.25154 11.0876,-5.48031 16.41227,-2.25889c0.01839,0.01132 0.04101,0.01347 0.06086,0.00577c0.01985,-0.0077 0.03452,-0.0243 0.03949,-0.04468c2.26913,-8.41435 4.53826,-16.83688 6.80738,-25.26761c0.51199,-1.90664 2.05614,-2.18926 3.93821,-2.21588c1.15641,-0.01638 2.09301,-0.00546 2.80978,0.03277c1.17552,0.0628 1.81107,0.53315 1.90664,1.41104c0.03823,0.34815 -0.08124,1.00486 -0.35839,1.97013c-6.32953,21.9745 -12.65906,43.93808 -18.98859,65.89074c-0.06144,0.21163 -0.00819,0.24643 0.15974,0.10445zM203.38522,182.03591c-1.56463,3.89725 -9.38371,24.6184 -4.93965,27.14762c0.43143,0.24439 0.89154,0.22391 1.38032,-0.06144c5.25709,-3.06988 8.60754,-9.01098 10.89304,-14.67356c2.66643,-6.61079 4.8434,-13.48166 6.67836,-20.36686c0.01229,-0.04915 -0.00273,-0.08601 -0.04505,-0.11059c-3.86244,-2.2978 -7.77197,-2.07047 -10.55514,1.79401c-1.34755,1.86909 -2.48484,3.95937 -3.41188,6.27083z" fill="#000000"/><path d="M363.86463,217.95491c-1.32093,-0.04301 -2.58656,-0.54066 -2.72787,-1.99675c-0.0314,-0.31675 0.07305,-0.9366 0.31334,-1.85954c6.09197,-23.45585 12.18735,-46.9117 18.28615,-70.36756c0.42802,-1.64041 0.96049,-2.82617 2.71353,-2.9429c0.49151,-0.03277 1.61788,-0.03413 3.37912,-0.0041c0.10922,0.00136 0.32904,0.04505 0.65944,0.13107c1.38646,0.35634 1.26973,1.31274 0.96459,2.50669c-6.1575,24.15625 -12.31569,48.31318 -18.47455,72.47081c-0.61234,2.39815 -3.19071,2.12782 -5.11373,2.06228z" fill="#ff0000"/><path d="M41.99243,215.70831c-0.3543,1.3967 -1.32503,2.21997 -2.78111,2.24865c-1.12364,0.02184 -2.24933,0.0198 -3.37707,-0.00614c-1.67727,-0.03891 -2.29166,-1.7428 -1.91893,-3.1948c5.83119,-22.75136 11.65079,-45.50613 17.45877,-68.26432c0.69016,-2.70124 3.52452,-2.23226 5.61753,-2.1995c2.6992,0.04096 2.70739,1.88821 2.18517,3.94026c-5.72471,22.49332 -11.45282,44.98527 -17.18435,67.47586z" fill="#000000"/><path d="M262.60374,185.77546c-2.54355,9.99127 -5.09394,19.9955 -7.65114,30.0127c-0.23347,0.90929 -0.72361,1.53733 -1.47043,1.88411c-1.06493,0.49151 -3.15384,0.31334 -4.50753,0.30105c-1.57078,-0.01638 -2.32852,-1.47453 -1.95989,-2.92448c5.38338,-21.24134 10.77221,-42.47653 16.16652,-63.70558c0.00309,-0.01324 0.00004,-0.02718 -0.00831,-0.03791c-0.00835,-0.01073 -0.0211,-0.01712 -0.0347,-0.01739c-0.98984,-0.01092 -1.98037,-0.01161 -2.97157,-0.00205c-0.64852,0.00546 -1.13388,-0.07509 -1.45609,-0.24166c-1.81039,-0.93796 -0.8499,-3.1518 -0.49355,-4.57512c0.26009,-1.03012 1.24925,-2.18311 2.43092,-2.18311c5.78478,-0.00273 11.57024,-0.00478 17.35638,-0.00614c8.10374,-0.00205 14.92751,4.16963 15.18555,12.9881c0.32972,11.22481 -4.85159,23.2729 -16.26072,27.05547c-0.04282,0.01445 -0.06883,0.05782 -0.06144,0.10239c1.57009,10.07045 3.13541,20.13203 4.69595,30.18474c0.21094,1.36803 -0.10239,3.29515 -1.86978,3.34021c-1.97149,0.05051 -3.45557,0.04984 -4.45225,-0.00205c-0.59254,-0.03004 -0.96117,-0.31334 -1.1059,-0.8499c-0.24576,-0.91953 -0.65534,-1.78376 -1.16528,-2.54765c-0.05051,-0.07509 -0.08192,-0.15701 -0.0942,-0.24576l-3.85629,-28.60781c-0.00421,-0.03975 -0.03784,-0.06985 -0.07782,-0.06963l-6.24829,0.07578c-0.0431,-0.00012 -0.08053,0.02965 -0.09011,0.07168zM284.68064,155.68289c-0.76798,-2.45754 -3.11903,-3.98327 -5.65439,-4.11638c-2.52717,-0.13107 -5.0598,-0.19182 -7.59789,-0.18227c-0.03823,0 -0.06212,0.01843 -0.07168,0.0553l-6.88521,27.23569c-0.00652,0.02645 -0.00014,0.05442 0.01723,0.07541c0.01736,0.02099 0.04363,0.03252 0.07084,0.03108c1.72711,-0.08055 3.44534,-0.17271 5.15469,-0.27647c1.91278,-0.11741 3.26648,-0.2717 4.06109,-0.46284c8.83895,-2.12987 11.29445,-12.386 11.17362,-20.18664c-0.01365,-0.92431 -0.10308,-1.6486 -0.26828,-2.17288z" fill="#ff0000"/><path d="M250.44711,158.60327c-1.18781,1.63222 -2.97157,2.15854 -4.97857,2.08481c-3.70679,-0.13721 -5.67077,-4.26998 -3.91159,-7.39924c0.89495,-1.59126 2.50874,-2.50669 4.3949,-2.47802c1.495,0.02048 2.32033,0.06349 3.48356,1.07722c2.0029,1.7469 2.63776,4.47886 1.01168,6.71523z" fill="#000000"/><path d="M349.15011,210.06825c2.58042,-1.91893 4.31708,-4.15529 6.46333,-7.03062c0.75364,-1.00964 1.68137,-0.68811 2.61933,-0.06553c1.19737,0.79051 1.96398,1.30591 2.29985,1.5462c1.18576,0.8458 0.77617,1.80424 -0.02457,2.76473c-4.15119,4.97242 -9.18301,9.85269 -15.79174,11.09579c-1.11818,0.20889 -1.54006,-0.61234 -1.87388,-1.58511c-0.57616,-1.68478 -1.13866,-3.36819 -1.68751,-5.05025c-0.00925,-0.02709 -0.03262,-0.04692 -0.06086,-0.05163c-0.02823,-0.0047 -0.05677,0.00647 -0.07431,0.02909c-1.89026,2.5497 -4.32117,5.3943 -7.30094,6.47152c-1.06289,0.38501 -2.51693,-0.42802 -3.53271,-1.18166c-2.88147,-2.13601 -5.75064,-5.48441 -5.78751,-9.26083c-0.02867,-2.88215 0.25804,-5.73221 0.86014,-8.55019c0.48605,-2.28005 1.07108,-4.53553 1.75509,-6.76642c1.38305,-4.51095 3.02619,-8.92565 4.92942,-13.24409c2.85074,-6.46538 6.72956,-12.37781 14.59164,-12.66862c2.62957,-0.09693 5.02362,0.48605 7.18216,1.74895c0.06553,0.03823 0.10785,0.02116 0.12697,-0.0512c0.68607,-2.53536 1.76943,-2.21588 4.08771,-2.349c2.88556,-0.16793 4.05494,1.13457 3.21119,3.94435c-4.01534,13.38677 -8.03957,26.78582 -12.07266,40.19716c-0.03004,0.09966 -0.00341,0.11878 0.07987,0.05734zM337.62834,183.45104c-2.67462,6.86883 -5.24685,14.35203 -5.84894,21.73899c-0.06553,0.80826 -0.04711,1.46292 0.0553,1.96398c0.21503,1.03831 1.4438,2.62548 2.7463,2.27322c0.49015,-0.13243 0.97755,-0.37682 1.46224,-0.73316c4.49934,-3.31563 7.46683,-8.76932 9.46153,-13.86053c2.68691,-6.86063 4.80449,-13.97316 6.76848,-21.07546c0.00819,-0.02867 -0.00136,-0.0512 -0.02867,-0.06759c-2.42887,-1.38851 -5.3943,-2.07457 -7.86413,-0.62872c-3.1989,1.87388 -5.46393,7.07771 -6.75209,10.38925z" fill="#ff0000"/><path d="M114.35264,178.48886c-4.56488,6.97941 -7.51802,14.97461 -8.40069,23.27086c-0.21299,2.00085 -0.17817,3.98941 0.02457,5.9452c0.0983,0.95434 0.5782,1.76601 1.43971,2.43501c0.83351,0.64715 2.54355,1.66498 3.53476,1.05265c2.38995,-1.47862 4.41128,-3.51633 6.21553,-5.64825c0.83147,-0.98301 1.62812,-1.49295 2.82617,-0.84785c1.42401,0.76457 2.29234,1.31137 2.60499,1.64041c1.51753,1.58921 -1.0506,4.25769 -2.12372,5.31238c-2.23226,2.19404 -4.48979,4.10068 -6.77257,5.71992c-0.598,0.42324 -1.34618,0.83284 -2.24455,1.22877c-2.90194,1.27997 -10.47731,-2.7504 -11.73885,-5.5479c-2.03157,-4.50753 -1.61174,-10.04315 -0.68401,-14.76982c1.50115,-7.65524 3.93001,-15.47635 8.38021,-21.85982c1.84111,-2.63981 3.89725,-5.11782 6.28311,-7.27636c1.7469,-1.57692 3.91363,-2.74016 6.21962,-3.10469c4.9458,-0.78436 9.02737,2.55789 12.08085,6.11518c0.80484,0.93592 1.15299,1.9947 0.27443,3.00639c-0.99803,1.14549 -1.67727,1.90186 -2.03771,2.26913c-0.81303,0.82532 -1.96603,1.10794 -2.78726,0.0942c-1.32093,-1.63836 -4.11024,-4.43996 -6.31178,-4.50549c-0.31811,-0.00819 -0.72566,0.07645 -1.22263,0.25395c-2.33467,0.83557 -4.26383,3.23371 -5.56019,5.21613z" fill="#000000"/><path d="M146.43378,179.57223c2.55789,-4.17167 5.39225,-8.2901 8.76523,-11.88835c0.80143,-0.85468 1.78376,-1.36735 2.947,-1.53801c1.84315,-0.2676 3.39619,-0.29559 4.65909,-0.08397c0.86424,0.14609 1.22467,0.67719 1.08132,1.5933c-0.28466,1.80629 -3.11288,3.88292 -4.32117,5.21408c-2.09301,2.30736 -4.03105,4.73964 -5.81413,7.29685c-0.63896,0.91543 -1.42947,2.08276 -1.32503,3.16203c0.18227,1.86773 1.11204,3.31563 2.44935,4.57512c0.97482,0.91543 0.30924,1.71004 -0.75979,1.91484c-0.95025,0.18022 -1.90118,0.35157 -2.8528,0.51403c-1.03353,0.17613 -1.63495,0.26487 -1.80424,0.26623c-1.6998,0.01434 -2.26708,-1.12023 -3.21733,-2.65619c-0.44236,-0.71678 -0.84922,-1.43834 -1.22058,-2.16469c-0.08192,-0.16384 -0.14609,-0.15701 -0.19251,0.02048c-2.57905,9.93393 -5.1738,19.90198 -7.78426,29.90416c-0.74955,2.87327 -3.56753,2.27527 -6.13361,2.26708c-1.196,-0.0041 -2.60499,-0.49765 -2.20155,-2.02952c4.10136,-15.62585 8.20409,-31.25103 12.30818,-46.87553c0.44645,-1.69365 0.96049,-2.72787 2.7975,-2.76473c1.59603,-0.03004 2.94427,-0.01638 4.0447,0.04096c1.16187,0.05871 1.59603,0.6847 1.30249,1.87797c-0.93933,3.81192 -1.88411,7.58151 -2.83436,11.30878c-0.06417,0.25122 -0.02867,0.26623 0.10649,0.04505z" fill="#000000"/><path d="M68.92297,194.6861c0.00333,0.00946 0.01171,0.01624 0.02167,0.01755c0.00995,0.0013 0.01979,-0.00311 0.02544,-0.0114c3.48698,-5.77249 6.97259,-11.54975 10.45683,-17.3318c1.12774,-1.86909 2.39883,-3.63443 3.81328,-5.296c1.98446,-2.32852 5.18746,-5.11578 8.34949,-5.67282c0.42187,-0.07372 1.00076,-0.10376 1.73666,-0.09011c1.66703,0.03072 3.70884,-0.2048 4.65704,1.52163c1.04855,1.90869 0.897,3.93206 0.33996,5.97592c-3.91705,14.33974 -7.84023,28.67745 -11.76957,43.01309c-0.21982,0.8028 -0.77686,1.2001 -1.67113,1.19191c-1.80902,-0.01775 -3.61805,-0.02936 -5.42707,-0.03482c-1.00759,-0.0041 -0.81918,-1.56669 -0.60005,-2.28142c5.70969,-18.68276 9.35094,-30.60593 10.92377,-35.7695c0.25395,-0.83284 0.43963,-1.72028 0.55704,-2.66234c0.22528,-1.81039 -1.43357,-1.01988 -2.0971,-0.39935c-0.64715,0.60346 -1.22809,1.267 -1.7428,1.99061c-1.70799,2.40224 -3.23167,4.68776 -4.88436,7.36033c-3.91705,6.33636 -7.91737,12.62015 -12.00099,18.85138c-2.79477,4.26929 -5.14377,8.06619 -7.047,11.3907c-0.54066,0.94206 -1.32843,1.43015 -2.36334,1.46428c-1.65065,0.05461 -2.74152,0.07236 -3.27263,0.05324c-1.09975,-0.03686 -1.35984,-1.74895 -1.15299,-2.53536c4.16963,-15.7187 8.34062,-31.43672 12.51297,-47.15405c0.38706,-1.45609 0.96868,-1.97422 2.51078,-1.97627c2.01928,-0.00136 3.33406,0.00205 3.94435,0.01024c1.85954,0.02253 1.91893,1.63631 1.52777,2.98591c-2.43296,8.41162 -4.88436,16.81708 -7.35419,25.2164c-0.01638,0.05734 -0.01434,0.11468 0.00614,0.17203z" fill="#000000"/><path d="M239.3165,169.19936c0.42393,-1.61174 0.86628,-2.88147 2.8528,-2.89785c1.267,-0.01092 2.53741,-0.01434 3.81123,-0.01024c1.57078,0.00614 2.11758,0.72087 1.72438,2.23022c-4.00852,15.40332 -8.01909,30.80595 -12.03171,46.20789c-0.51609,1.98651 -1.05469,3.25215 -3.23781,3.25829c-1.12501,0.00273 -2.2507,-0.00068 -3.37707,-0.01024c-1.2554,-0.01024 -2.32033,-0.68401 -1.95784,-2.07867c4.05767,-15.56988 8.12968,-31.13635 12.21602,-46.6994z" fill="#000000"/><path d="M393.21175,194.51202c-0.00282,0.01668 0.00606,0.03315 0.02157,0.03993c0.0155,0.00678 0.03363,0.00214 0.04397,-0.01126c3.34362,-5.50762 6.6927,-11.03094 10.04724,-16.56996c1.15368,-1.90732 1.87251,-3.06715 2.15649,-3.47947c2.08276,-3.01868 5.17722,-6.30359 8.63211,-7.77812c1.24311,-0.53247 2.63367,-0.41368 3.97098,-0.41368c1.27382,0.00205 2.58451,0.28466 3.24396,1.50115c1.04036,1.92712 0.82328,3.85834 0.27033,5.90014c-2.12577,7.83273 -4.24335,15.62995 -6.35274,23.39169c-0.07782,0.28398 -0.04232,0.29832 0.10649,0.04301c3.97439,-6.83606 7.98223,-13.73424 12.02351,-20.69453c2.09915,-3.61872 4.98471,-6.86678 8.77546,-8.99664c1.42332,-0.80075 2.69715,-1.15095 4.3478,-1.14276c1.58716,0.00819 3.83377,-0.26009 4.81678,1.35779c1.24311,2.04795 0.96868,4.36213 0.3543,6.60464c-3.88292,14.16772 -7.76856,28.33407 -11.65693,42.49906c-0.34815,1.26154 -1.28611,1.20624 -2.51898,1.21034c-1.51821,0.00273 -3.03643,0.00068 -4.55464,-0.00614c-1.11409,-0.00614 -0.72087,-1.88002 -0.52632,-2.51488c3.58938,-11.73066 7.1767,-23.462 10.76198,-35.19402c0.19661,-0.64306 1.54006,-4.4461 -0.25189,-4.0447c-1.06289,0.23756 -2.21384,1.81653 -2.79136,2.67872c-4.90689,7.31937 -9.52706,14.84559 -14.24145,22.28784c-0.73316,1.15709 -1.58307,2.48211 -2.44321,3.63306c-2.61728,3.4938 -5.03181,7.1214 -7.2436,10.88281c-0.48946,0.83351 -0.65534,2.26503 -1.90869,2.27322c-1.54142,0.00819 -3.08285,0.00751 -4.62427,-0.00205c-1.01783,-0.00614 -0.7004,-1.83701 -0.49765,-2.4944c3.58255,-11.6501 7.15758,-23.30294 10.72512,-34.95851c0.28876,-0.94206 0.93592,-2.96338 0.72293,-3.79076c-0.29081,-1.13047 -1.69775,-0.22322 -2.16263,0.21299c-1.71823,1.61583 -3.05759,3.82967 -4.31708,5.80799c-4.32936,6.80124 -8.61367,13.62706 -13.01472,20.38325c-2.48484,3.81601 -5.25572,8.36383 -8.31263,13.64344c-0.59186,1.02397 -1.5462,1.18781 -2.75449,1.2001c-0.83557,0.00683 -1.67113,0.00546 -2.50669,-0.0041c-0.18432,-0.00273 -0.37751,-0.13175 -0.57957,-0.38706c-0.47922,-0.60073 -0.61848,-1.28065 -0.41778,-2.03976c4.16417,-15.77604 8.3413,-31.54867 12.53141,-47.31788c0.27647,-1.04036 0.63486,-1.96603 1.90664,-1.9476c1.14276,0.01638 2.2862,0.02526 3.43032,0.02663c0.89973,0.00136 1.50797,0.08533 1.82472,0.25189c1.01578,0.53657 0.77822,1.73257 0.47103,2.75654c-2.51215,8.42254 -5.01475,16.82322 -7.50779,25.20207z" fill="#ff0000"/><path d="M164.85099,203.92235c-0.57547,2.60294 -0.94615,7.4443 2.67462,8.22457c0.06826,0.01502 0.1338,0.00888 0.19661,-0.01843c3.62487,-1.51343 6.07012,-4.40104 9.10314,-7.66548c0.69835,-0.7516 1.5544,-0.46693 2.37562,0.03686c1.44586,0.88676 3.35864,1.74486 2.13601,3.78051c-2.16059,3.60234 -5.74655,6.73366 -9.18506,9.01918c-1.64655,1.09361 -4.04675,2.22407 -6.01688,1.87592c-0.6294,-0.11195 -1.51207,-0.40822 -2.648,-0.88881c-3.27877,-1.38851 -5.39635,-3.8952 -5.92882,-7.43201c-0.73112,-4.85569 0.03891,-10.09435 1.15709,-14.83945c1.76738,-7.50164 4.31094,-15.01147 8.78775,-21.34169c1.60149,-2.26503 3.6433,-4.58946 5.95749,-6.01892c2.77907,-1.71619 6.0906,-2.68076 9.33456,-1.97422c1.41036,0.30719 2.5258,0.73316 3.34635,1.27792c2.41249,1.60764 2.95929,4.6939 3.19275,7.37467c0.5427,6.21348 -1.82882,11.77572 -5.99025,16.35083c-5.20794,5.72607 -11.15518,9.36323 -18.36601,12.09314c-0.06963,0.02594 -0.11195,0.07441 -0.12697,0.1454zM166.14325,197.1375c-0.02184,0.09011 0.01024,0.11741 0.09626,0.08192c7.08386,-2.88761 13.84414,-8.53381 15.47022,-16.39793c0.34611,-1.67727 0.61848,-4.68776 -0.36249,-6.20529c-1.23082,-1.90255 -4.38261,-0.47922 -5.68306,0.63486c-2.61523,2.24251 -4.23516,5.96977 -5.53152,9.17687c-1.63699,4.04265 -2.9668,8.27918 -3.98941,12.70958z" fill="#000000"/><path d="M299.66754,203.90802c-0.56318,2.58861 -0.95844,7.52212 2.68895,8.2389c0.06804,0.01337 0.13796,0.00624 0.2007,-0.02048c3.33816,-1.42128 6.23806,-4.45839 8.60754,-7.12482c0.83966,-0.94411 1.43971,-1.3537 2.59885,-0.6533c1.38032,0.83557 3.65764,1.9476 2.52512,3.78461c-1.51958,2.46369 -3.54705,4.58536 -5.7445,6.449c-2.54355,2.15854 -6.21962,5.12602 -9.80558,4.5485c-0.37546,-0.06007 -1.10657,-0.30719 -2.19336,-0.74136c-2.97567,-1.18576 -5.36768,-3.55934 -6.02711,-6.61898c-0.25395,-1.17689 -0.38706,-2.55174 -0.39935,-4.12457c-0.06144,-6.99785 1.69775,-13.82571 3.9976,-20.58804c2.05614,-6.05169 5.37177,-12.45768 10.01652,-16.81367c1.2629,-1.18508 2.83026,-2.15171 4.70209,-2.8999c3.39823,-1.35847 6.71591,-1.19395 9.95304,0.49355c1.47453,0.77003 2.49236,2.73811 2.88147,4.43177c2.42887,10.55104 -3.4467,18.8821 -11.4419,24.85187c-3.80919,2.84392 -7.9556,5.06117 -12.43925,6.65174c-0.06553,0.02321 -0.10581,0.06826 -0.12083,0.13516zM316.5365,180.74365c0.33996,-1.73666 0.48946,-3.91772 -0.11878,-5.60729c-0.40139,-1.12228 -1.26768,-1.51753 -2.44321,-1.41104c-3.63511,0.32563 -6.12746,4.21468 -7.48935,7.17602c-2.40293,5.22637 -4.25086,10.65617 -5.5438,16.2894c-0.00499,0.01985 0.00183,0.04079 0.01755,0.0539c0.01572,0.0131 0.03756,0.01603 0.05618,0.00754c2.40839,-1.01168 4.68161,-2.28142 6.81967,-3.80919c4.16348,-2.97567 7.69825,-7.58356 8.70174,-12.69934z" fill="#ff0000"/></g></g></svg>